<svg xmlns="http://www.w3.org/2000/svg" width="174" height="65.543" viewBox="0 0 174 65.543">
  <g id="Bajaj_logo" transform="translate(-8472.999 -5432)">
    <g id="Group_19307" data-name="Group 19307" transform="translate(8472.999 5432)">
      <path id="Path_29687" data-name="Path 29687" d="M-599.192,1193.142a23.218,23.218,0,0,1-23.252-23.174,23.277,23.277,0,0,1,23.233-23.3,23.174,23.174,0,0,1,16.445,6.768,23.174,23.174,0,0,1,6.807,16.429,23.109,23.109,0,0,1-6.752,16.494,23.11,23.11,0,0,1-16.481,6.784Zm9.474-23.33c.357-.179.595-.312.843-.424a7.691,7.691,0,0,0,2.814-2.046,5.585,5.585,0,0,0,1.324-4.191,5.585,5.585,0,0,0-2.118-3.851,9.4,9.4,0,0,0-3.052-1.5,22.186,22.186,0,0,0-6.414-.812c-5-.064-10.007-.026-15.01-.018a6.476,6.476,0,0,0-.936.137c-.035.527-.089.962-.089,1.4q-.008,11.452,0,22.9c0,.431.069.858.113,1.365.376.025.69.062,1,.064,1.2.007,2.4,0,3.6,0,1.3,0,1.3,0,1.3-1.285v-18.166c0-.873.025-.9.878-.9,2.136-.006,4.272,0,6.408,0,2.165,0,4.331,0,6.5,0,.841,0,.882.048.894.9.011.79.009,1.579,0,2.369-.009.958-.034.986-.988.988-2.545,0-5.091,0-7.636.006-.338,0-.676.058-.985.086a26.73,26.73,0,0,0,.078,6.014h7.583c.312,0,.62.048,1,.078.025,1.353.057,2.619-.024,3.984h-2.994c-.936,0-1.873-.016-2.809,0a16.686,16.686,0,0,0-2.809.078c-.065.142-.109.194-.11.246-.014,1.666-.021,3.333-.036,5,0,.478.285.587.684.584a54.128,54.128,0,0,0,8.93-.361,12.9,12.9,0,0,0,4.284-1.483c3.433-1.969,3.943-7.821.026-10.052-.507-.289-1.038-.537-1.561-.8-.175-.075-.359-.153-.693-.309Z" transform="translate(622.444 -1146.667)" fill="#fff"/>
      <path id="Path_29688" data-name="Path 29688" d="M-306.063,1162.722c.406-.028.636-.058.866-.058,5.3,0,10.591-.025,15.886.034a17.372,17.372,0,0,1,3.453.524,5.889,5.889,0,0,1,1.68.729,3.567,3.567,0,0,1,1.738,2.885,3.567,3.567,0,0,1-1.437,3.045,11.858,11.858,0,0,1-1.437.829c-.248.136-.513.242-.925.435.364.194.581.312.8.428.414.215.843.4,1.244.644a3.86,3.86,0,0,1,1.758,3.33,3.86,3.86,0,0,1-1.914,3.242,8.239,8.239,0,0,1-2.991.943,27.4,27.4,0,0,1-3.144.2c-2.867.025-5.734.01-8.6.011h-.966a3.73,3.73,0,0,1,.214-.632c.322-.556.666-1.1,1-1.649a2.218,2.218,0,0,1,2.044-1.122c1.931.012,3.862.018,5.793-.009a3.676,3.676,0,0,0,1.361-.255,1.8,1.8,0,0,0,1.18-1.7,1.817,1.817,0,0,0-1.211-1.771,3.716,3.716,0,0,0-1.365-.234c-2.75-.02-5.5-.009-8.251-.012-.256,0-.513-.021-.907-.039a19.957,19.957,0,0,1,1.721-2.719,2.007,2.007,0,0,1,1.66-.644c1.9.012,3.8.016,5.705,0a6.268,6.268,0,0,0,1.472-.183,1.451,1.451,0,0,0,1.17-1.361,1.437,1.437,0,0,0-1.092-1.333,3.308,3.308,0,0,0-1.025-.2c-3.1-.015-6.2-.01-9.3-.007a5.77,5.77,0,0,0-.624.078c-.03.363-.084.726-.085,1.092q-.009,5.747,0,11.495c0,.234,0,.468,0,.7,0,.312-.145.5-.474.5h-4.936c-.108-1.49-.039-2.912-.051-4.331s0-2.866,0-4.3v-8.575Z" transform="translate(361.862 -1159.846)" fill="#fff"/>
      <path id="Path_29689" data-name="Path 29689" d="M-161.752,1176.714a15.537,15.537,0,0,1,1.754-2.792,2.029,2.029,0,0,1,1.595-.608q1.625,0,3.248,0c.28,0,.561-.03.85-.046a37.812,37.812,0,0,0-3.785-6.642c-.211.322-.43.624-.613.936-2.211,3.823-4.431,7.642-6.613,11.482a1.417,1.417,0,0,1-1.456.834c-1.432-.052-2.867-.016-4.3-.016h-.985a6.312,6.312,0,0,1,.312-.715c3.215-5.268,6.444-10.528,9.643-15.807a1.4,1.4,0,0,1,1.415-.766c1.784.042,3.571.046,5.355,0a1.4,1.4,0,0,1,1.4.79c2.6,4.307,5.233,8.594,7.855,12.888.564.924,1.131,1.846,1.69,2.772.131.218.238.449.4.759q-.332.056-.669.078c-1.61,0-3.22-.023-4.828.016a1.127,1.127,0,0,1-1.17-.7c-.275-.546-.648-1.049-.9-1.6a1.43,1.43,0,0,0-1.535-.868c-2.516.036-5.034.013-7.55.012Z" transform="translate(251.49 -1159.773)" fill="#fff"/>
      <path id="Path_29690" data-name="Path 29690" d="M107.485,1166.583c-.241.384-.446.688-.63,1.006l-6.4,11.1c-.824,1.422-.506,1.175-2.019,1.19-1.607.016-3.214,0-4.916,0a3.684,3.684,0,0,1,.224-.591l9.787-16.027a1.209,1.209,0,0,1,1.195-.67c1.873.035,3.745.031,5.618,0a1.208,1.208,0,0,1,1.2.651q4.845,7.991,9.732,15.957c.1.167.172.353.27.556a.954.954,0,0,1-.271.107c-1.785.009-3.57,0-5.355.02a.926.926,0,0,1-.912-.537c-.352-.641-.763-1.248-1.086-1.9a1.22,1.22,0,0,0-1.266-.719c-2.575.021-5.15.01-7.725.007-.312,0-.62-.022-1.092-.04a13.382,13.382,0,0,1,1.812-2.819,2.034,2.034,0,0,1,1.533-.541h3.16c.288,0,.575-.026.943-.044a2.3,2.3,0,0,0-.133-.611q-1.611-2.819-3.251-5.618A3.761,3.761,0,0,0,107.485,1166.583Z" transform="translate(32.815 -1159.79)" fill="#fff"/>
      <path id="Path_29691" data-name="Path 29691" d="M-143.526,1304.753c.014-.307.04-.614.041-.922v-7.195c0-.888.055-.943.944-.953s1.756-.013,2.633,0c.815.014.905.115.936.913.006.176,0,.35,0,.527v14.566c0,.234.009.468-.007.7-.039.581-.108.668-.673.678-.936.017-1.873-.018-2.809.015-.5.018-.73-.286-.985-.613q-2.208-2.84-4.421-5.677c-.683-.877-1.362-1.756-2.05-2.63-.171-.217-.369-.413-.555-.619l-.2.059c-.031.33-.089.66-.091.99-.008,2.428,0,4.856-.006,7.284,0,.346-.029.691-.045,1.075a3.932,3.932,0,0,1-.636.115c-1.024.011-2.048.014-3.072,0-.687-.008-.723-.057-.745-.764,0-.146,0-.292,0-.438V1296.95c0-.234.008-.468.006-.7a.492.492,0,0,1,.137-.406.492.492,0,0,1,.4-.145c1.141-.012,2.284-.045,3.421.02a1.412,1.412,0,0,1,.805.581c1.615,2.041,3.207,4.1,4.8,6.156.449.577.894,1.158,1.349,1.73.177.223.376.427.565.641Z" transform="translate(237.634 -1269.48)" fill="#fff"/>
      <path id="Path_29692" data-name="Path 29692" d="M174.354,1307.11l4.057,5.946a6.754,6.754,0,0,1-.681.078c-1.287.006-2.575-.019-3.862.014a1.117,1.117,0,0,1-1.076-.58c-.858-1.326-1.777-2.613-2.6-3.957a1.531,1.531,0,0,0-1.644-.87c-.172.024-.351,0-.526.009-.666.041-.762.12-.771.78-.016,1.257,0,2.516-.009,3.773-.006.8-.038.825-.854.83-.995.006-1.989.012-2.984,0-.605-.009-.7-.107-.747-.715-.02-.234-.011-.468-.011-.7v-14.74c0-.176-.007-.351,0-.526.035-.611.1-.708.744-.7,2.982.033,5.965.062,8.947.144a6.229,6.229,0,0,1,3.148.983,4.951,4.951,0,0,1,2.459,4.206,9.333,9.333,0,0,1-.126,2,4.939,4.939,0,0,1-2.489,3.439C175.03,1306.7,174.738,1306.876,174.354,1307.11Zm-7.113-5.173h0c0,.553,0,1.107,0,1.661,0,.384.17.638.558.63a33.206,33.206,0,0,0,3.83-.156,2.15,2.15,0,0,0-.165-4.239,34.884,34.884,0,0,0-3.576-.093c-.546,0-.624.129-.644.712C167.226,1300.946,167.241,1301.446,167.241,1301.937Z" transform="translate(-24.153 -1269.541)" fill="#fff"/>
      <path id="Path_29693" data-name="Path 29693" d="M66.276,1299.665a6.983,6.983,0,0,0-.013,2.821c.345.018.657.048.969.049,2.164,0,4.328,0,6.493,0,.858,0,.9.042.907.882s0,1.682,0,2.61c-.414.029-.723.069-1.032.07-2.135.005-4.27,0-6.405.005-.983,0-1.046.06-1.056,1.042-.006.634.033,1.269.055,1.983.448.026.789.062,1.129.062q3.511.007,7.022,0c.2,0,.41.009.614,0,.39-.016.615.137.614.552v2.809c0,.417-.234.553-.624.546-.673-.011-1.345,0-2.018,0H62.755c-.234,0-.468,0-.7-.008a.41.41,0,0,1-.432-.446c-.008-.2-.008-.41-.008-.614v-15.438c.012-.853.03-.885.895-.886q6.008-.008,12.02,0c.944,0,.986.055.993.994,0,.7.009,1.4,0,2.107-.011.751-.041.79-.8.793-2.369.008-4.738,0-7.107.005C67.179,1299.6,66.753,1299.641,66.276,1299.665Z" transform="translate(58.992 -1269.502)" fill="#fff"/>
      <path id="Path_29694" data-name="Path 29694" d="M-44.373,1309.288l2.472-2.951.854.537a8.588,8.588,0,0,0,5.15,1.444,3.764,3.764,0,0,0,1.023-.2,1.166,1.166,0,0,0,.828-1.037,1.1,1.1,0,0,0-.68-1.131,9.3,9.3,0,0,0-1.467-.562c-.9-.26-1.816-.446-2.711-.712a16.31,16.31,0,0,1-1.969-.727,4.56,4.56,0,0,1-2.484-5.918,5.072,5.072,0,0,1,3.876-3.466,11.183,11.183,0,0,1,9.068,1.511,2.206,2.206,0,0,1,.272.219,1,1,0,0,1,.116.184,2.416,2.416,0,0,1-.179.36c-.637.905-1.28,1.806-1.96,2.762-.435-.227-.814-.432-1.2-.624a7.491,7.491,0,0,0-3.953-.961,2.609,2.609,0,0,0-1.078.3,1.1,1.1,0,0,0-.594.921,1.1,1.1,0,0,0,.5.975,3.928,3.928,0,0,0,1.188.538c1.092.312,2.208.561,3.3.882a11.713,11.713,0,0,1,1.881.713,4.829,4.829,0,0,1,2.722,3.6,4.829,4.829,0,0,1-1.436,4.276,6.3,6.3,0,0,1-3.912,1.795,12.97,12.97,0,0,1-7.507-1.227,7.2,7.2,0,0,1-2.124-1.491Z" transform="translate(146.295 -1268.268)" fill="#fff"/>
      <path id="Path_29695" data-name="Path 29695" d="M261.3,1295.792a8.108,8.108,0,0,1,.826-.09q1.711-.014,3.422,0c.79.005.8.016,1.07.755q1.664,4.618,3.322,9.239c.115.32.249.634.4,1,.453-.219.5-.591.606-.893.955-2.638,1.9-5.28,2.842-7.921.2-.551.4-1.1.595-1.649a.679.679,0,0,1,.7-.535c1.258.008,2.516,0,3.773.013a2.611,2.611,0,0,1,.62.182c-.094.3-.156.552-.251.788q-3.129,7.767-6.265,15.527c-.379.936-.385.936-1.4.941q-1.185,0-2.37,0c-.961,0-.964-.006-1.332-.921q-1.277-3.171-2.551-6.346-1.864-4.636-3.727-9.274C261.49,1296.378,261.42,1296.136,261.3,1295.792Z" transform="translate(-105.48 -1269.495)" fill="#fff"/>
      <path id="Path_29696" data-name="Path 29696" d="M-293.241,1304.246v3.293c0,.332-.211.457-.516.464-.205,0-.41.005-.615.005h-6.058c-.312,0-.629.032-1.02.053-.026.372-.064.683-.066.993-.008,1.113.007,2.224-.008,3.336-.009.641-.073.7-.712.71-1.083.012-2.166-.006-3.248.007-.439.006-.664-.156-.638-.613.008-.145,0-.293,0-.439v-15.272c0-.2,0-.41.008-.614a.42.42,0,0,1,.121-.32.421.421,0,0,1,.319-.124c.175-.013.351-.015.527-.015h11.852c.282,0,.563.05.932.085v3.481a.436.436,0,0,1-.131.361.437.437,0,0,1-.366.118c-.2,0-.41.006-.614.006h-6.848c-.344,0-.689.029-1.084.046a5.737,5.737,0,0,0-.1.723q-.017,1.4,0,2.809c.009.82.066.883.918.894,1.112.016,2.224,0,3.336.005h4.021Z" transform="translate(361.895 -1269.508)" fill="#fff"/>
      <path id="Path_29697" data-name="Path 29697" d="M267.876,1162.724c.356-.024.587-.054.817-.054q1.843-.008,3.686,0c.875,0,.9.03.911.868v.351c0,3.451.008,6.9-.007,10.353a13.628,13.628,0,0,1-.151,2.008,3.722,3.722,0,0,1-2.539,3.184,7.862,7.862,0,0,1-2.384.479c-3.3.055-6.611.017-9.916.034a2.185,2.185,0,0,1-2.039-1.118c-.417-.693-.84-1.383-1.353-2.229.482-.026.788-.055,1.092-.055,2.984,0,5.967,0,8.951-.009a5.368,5.368,0,0,0,1.3-.145,1.859,1.859,0,0,0,1.574-2.018c.015-2.4.006-4.8.007-7.195v-3.511C267.828,1163.379,267.852,1163.1,267.876,1162.724Z" transform="translate(-100.201 -1159.848)" fill="#fff"/>
      <path id="Path_29698" data-name="Path 29698" d="M7.73,1162.669c.024.415.055.7.055.982,0,3.8.019,7.608-.014,11.411a7.772,7.772,0,0,1-.346,2.06,3.465,3.465,0,0,1-1.849,2.126,5.724,5.724,0,0,1-2.609.675c-3.425.018-6.848.008-10.273.02a1.887,1.887,0,0,1-1.5-.6,16.629,16.629,0,0,1-1.76-2.8H-.253c1.833-.03,2.631-.8,2.644-2.621.016-2.487,0-4.973.005-7.461,0-1-.011-1.99.005-2.984.012-.739.072-.8.817-.8C4.679,1162.662,6.139,1162.669,7.73,1162.669Z" transform="translate(118.456 -1159.849)" fill="#fff"/>
      <path id="Path_29699" data-name="Path 29699" d="M-207.345,1295.83h4.508a6.306,6.306,0,0,1,.092.758q.008,7.9,0,15.792c0,.772-.044.812-.776.819-1.053.009-2.107.012-3.159,0-.637-.008-.682-.068-.716-.712-.008-.146,0-.292,0-.439v-15.089C-207.395,1296.61-207.365,1296.275-207.345,1295.83Z" transform="translate(280.562 -1269.608)" fill="#fff"/>
    </g>
    <g id="Group_20046" data-name="Group 20046" transform="translate(8473.886 5486.608)">
      <path id="Path_35274" data-name="Path 35274" d="M845.89,619.766h2.341a4.377,4.377,0,0,1,2.341.468,1.631,1.631,0,0,1,.718,1.483,1.818,1.818,0,0,1-.351,1.139,1.56,1.56,0,0,1-1.014.57v.055a2.005,2.005,0,0,1,1.209.609,1.849,1.849,0,0,1,.39,1.233,2.021,2.021,0,0,1-.733,1.646,3.121,3.121,0,0,1-2.044.593h-2.817Zm1.28,3.223h1.225a2.1,2.1,0,0,0,1.17-.258.967.967,0,0,0,.367-.858.866.866,0,0,0-.4-.78,2.488,2.488,0,0,0-1.264-.242h-1.1Zm0,1.03v2.473h1.35a2,2,0,0,0,1.209-.3,1.147,1.147,0,0,0,.406-.975,1.022,1.022,0,0,0-.414-.9,2.223,2.223,0,0,0-1.264-.3Z" transform="translate(-845.89 -619.267)" fill="#fff"/>
      <path id="Path_35275" data-name="Path 35275" d="M858.544,628.088l-.25-.78h0a2.482,2.482,0,0,1-.858.733,2.685,2.685,0,0,1-1.108.2,1.865,1.865,0,0,1-1.358-.468,1.747,1.747,0,0,1-.492-1.326,1.561,1.561,0,0,1,.679-1.381,3.98,3.98,0,0,1,2.06-.507h1.022v-.312a1.147,1.147,0,0,0-.265-.843,1.061,1.061,0,0,0-.78-.281,2.648,2.648,0,0,0-.866.133,5.528,5.528,0,0,0-.78.312l-.406-.9a4.435,4.435,0,0,1,1.053-.382,4.911,4.911,0,0,1,1.077-.125,2.6,2.6,0,0,1,1.7.484,1.927,1.927,0,0,1,.57,1.561v3.972Zm-1.865-.851a1.56,1.56,0,0,0,1.1-.382,1.389,1.389,0,0,0,.413-1.069v-.515h-.78a2.7,2.7,0,0,0-1.3.3.905.905,0,0,0-.4.78.78.78,0,0,0,.234.609.983.983,0,0,0,.726.281Z" transform="translate(-847.777 -619.794)" fill="#fff"/>
      <path id="Path_35276" data-name="Path 35276" d="M862.046,630.09a2.9,2.9,0,0,1-.936-.133v-1a2.655,2.655,0,0,0,.741.1q.78,0,.78-.913v-6.586h1.256v6.671a1.842,1.842,0,0,1-.476,1.381A1.865,1.865,0,0,1,862.046,630.09ZM862.585,620a.7.7,0,0,1,.18-.515.718.718,0,0,1,.531-.187.64.64,0,0,1,.694.7.687.687,0,0,1-.179.5.694.694,0,0,1-.515.187.718.718,0,0,1-.531-.187A.687.687,0,0,1,862.585,620Z" transform="translate(-849.234 -619.167)" fill="#fff"/>
      <path id="Path_35277" data-name="Path 35277" d="M870.561,628.088l-.25-.78h-.047a2.41,2.41,0,0,1-.858.734,2.662,2.662,0,0,1-1.108.2,1.888,1.888,0,0,1-1.358-.468,1.748,1.748,0,0,1-.492-1.327,1.561,1.561,0,0,1,.679-1.381,3.985,3.985,0,0,1,2.068-.507h1.014v-.312a1.186,1.186,0,0,0-.258-.843,1.084,1.084,0,0,0-.819-.281,2.733,2.733,0,0,0-.874.133,5.472,5.472,0,0,0-.78.312l-.406-.9a4.5,4.5,0,0,1,1.045-.382,4.909,4.909,0,0,1,1.077-.125,2.583,2.583,0,0,1,1.7.484,1.927,1.927,0,0,1,.577,1.561v3.972Zm-1.865-.85a1.561,1.561,0,0,0,1.092-.382,1.389,1.389,0,0,0,.414-1.069v-.515h-.78a2.646,2.646,0,0,0-1.288.3.9.9,0,0,0-.406.78.78.78,0,0,0,.234.609A.991.991,0,0,0,868.7,627.238Z" transform="translate(-850.407 -619.794)" fill="#fff"/>
      <path id="Path_35278" data-name="Path 35278" d="M874.074,630.091a2.924,2.924,0,0,1-.944-.133v-1a2.654,2.654,0,0,0,.78.1c.538,0,.78-.3.78-.913v-6.585h1.256v6.671a1.678,1.678,0,0,1-1.857,1.857ZM874.589,620a.671.671,0,0,1,.187-.515.7.7,0,0,1,.523-.187.687.687,0,0,1,.515.187A.671.671,0,0,1,876,620a.656.656,0,0,1-.187.5.687.687,0,0,1-.515.187.7.7,0,0,1-.523-.187.656.656,0,0,1-.187-.5Z" transform="translate(-851.876 -619.167)" fill="#fff"/>
      <path id="Path_35279" data-name="Path 35279" d="M884.084,627.563H882.82v-7.8h4.4v1.077H884.1v2.434h2.942v1.085H884.1Z" transform="translate(-854.005 -619.268)" fill="#fff"/>
      <path id="Path_35280" data-name="Path 35280" d="M890,620a.671.671,0,0,1,.187-.515.7.7,0,0,1,.523-.187.648.648,0,0,1,.7.7.656.656,0,0,1-.187.5.671.671,0,0,1-.515.187.7.7,0,0,1-.523-.187A.656.656,0,0,1,890,620Zm1.334,7.459h-1.256v-5.9h1.256Z" transform="translate(-855.677 -619.167)" fill="#fff"/>
      <path id="Path_35281" data-name="Path 35281" d="M899.189,628.072H897.9v-3.628a1.608,1.608,0,0,0-.273-1.014,1.061,1.061,0,0,0-.874-.336,1.389,1.389,0,0,0-1.163.468,2.615,2.615,0,0,0-.367,1.561v2.934H894v-5.883h.983l.179.78h.062a1.764,1.764,0,0,1,.78-.648,2.482,2.482,0,0,1,1.084-.226,1.888,1.888,0,0,1,2.122,2.154Z" transform="translate(-856.568 -619.778)" fill="#fff"/>
      <path id="Path_35282" data-name="Path 35282" d="M906.463,628.088l-.25-.78h-.047a2.411,2.411,0,0,1-.858.733,2.662,2.662,0,0,1-1.108.2,1.889,1.889,0,0,1-1.358-.468,1.771,1.771,0,0,1-.484-1.327,1.56,1.56,0,0,1,.679-1.381,3.956,3.956,0,0,1,2.06-.507h1.022v-.312a1.186,1.186,0,0,0-.265-.843,1.085,1.085,0,0,0-.819-.281,2.734,2.734,0,0,0-.874.133,5.818,5.818,0,0,0-.78.312l-.406-.9a4.432,4.432,0,0,1,1.053-.382,4.8,4.8,0,0,1,1.077-.125,2.575,2.575,0,0,1,1.693.484,1.927,1.927,0,0,1,.577,1.561v3.972Zm-1.865-.851a1.56,1.56,0,0,0,1.092-.382,1.365,1.365,0,0,0,.414-1.069v-.515h-.78a2.691,2.691,0,0,0-1.287.3.913.913,0,0,0-.406.78.78.78,0,0,0,.242.609A.983.983,0,0,0,904.6,627.238Z" transform="translate(-858.422 -619.794)" fill="#fff"/>
      <path id="Path_35283" data-name="Path 35283" d="M916.2,628.072H914.94v-3.628a1.607,1.607,0,0,0-.273-1.014,1.061,1.061,0,0,0-.874-.336,1.381,1.381,0,0,0-1.163.468,2.559,2.559,0,0,0-.367,1.561v2.934H911v-5.883h.983l.172.78h.07a1.716,1.716,0,0,1,.78-.648,2.483,2.483,0,0,1,1.085-.226,1.888,1.888,0,0,1,2.122,2.154Z" transform="translate(-860.341 -619.778)" fill="#fff"/>
      <path id="Path_35284" data-name="Path 35284" d="M922.226,628.182a2.567,2.567,0,0,1-2.036-.78,3.972,3.972,0,0,1,0-4.533,2.708,2.708,0,0,1,2.107-.78,3.9,3.9,0,0,1,1.678.343l-.382,1.007a3.814,3.814,0,0,0-1.311-.3c-1.022,0-1.561.671-1.561,2.029a2.411,2.411,0,0,0,.382,1.49,1.311,1.311,0,0,0,1.116.5,3.247,3.247,0,0,0,1.56-.414v1.092a2.292,2.292,0,0,1-.718.281,4.4,4.4,0,0,1-.835.07Z" transform="translate(-862.222 -619.778)" fill="#fff"/>
      <path id="Path_35285" data-name="Path 35285" d="M926.729,620a.671.671,0,0,1,.187-.515.7.7,0,0,1,.523-.187.648.648,0,0,1,.7.7.655.655,0,0,1-.187.5.671.671,0,0,1-.515.187.7.7,0,0,1-.523-.187.655.655,0,0,1-.187-.5Zm1.334,7.459h-1.256v-5.9h1.256Z" transform="translate(-863.828 -619.167)" fill="#fff"/>
      <path id="Path_35286" data-name="Path 35286" d="M934.314,628.088l-.25-.78h0a2.479,2.479,0,0,1-.858.734,2.7,2.7,0,0,1-1.116.2,1.857,1.857,0,0,1-1.35-.468,1.748,1.748,0,0,1-.492-1.326,1.561,1.561,0,0,1,.679-1.381,3.981,3.981,0,0,1,2.06-.507h1.022v-.312a1.147,1.147,0,0,0-.265-.843,1.061,1.061,0,0,0-.78-.281,2.648,2.648,0,0,0-.866.133,5.525,5.525,0,0,0-.78.312l-.406-.9a4.436,4.436,0,0,1,1.053-.382,4.91,4.91,0,0,1,1.077-.125,2.6,2.6,0,0,1,1.7.484,1.927,1.927,0,0,1,.57,1.561v3.972Zm-1.865-.851a1.561,1.561,0,0,0,1.1-.382,1.389,1.389,0,0,0,.413-1.069v-.515h-.78a2.692,2.692,0,0,0-1.287.3.905.905,0,0,0-.4.78.78.78,0,0,0,.234.609A.983.983,0,0,0,932.449,627.238Z" transform="translate(-864.612 -619.794)" fill="#fff"/>
      <path id="Path_35287" data-name="Path 35287" d="M940.106,627.424H938.85V619.13h1.256Z" transform="translate(-866.518 -619.13)" fill="#fff"/>
      <path id="Path_35288" data-name="Path 35288" d="M950.917,625.408a1.951,1.951,0,0,1-.78,1.631,3.254,3.254,0,0,1-2.076.593,4.94,4.94,0,0,1-2.161-.414v-1.2a5.861,5.861,0,0,0,1.131.39,4.533,4.533,0,0,0,1.116.148,1.779,1.779,0,0,0,1.124-.289.96.96,0,0,0,.359-.78.944.944,0,0,0-.336-.741,4.766,4.766,0,0,0-1.366-.718,3.612,3.612,0,0,1-1.5-.991,2.053,2.053,0,0,1-.437-1.334,1.873,1.873,0,0,1,.687-1.56,2.886,2.886,0,0,1,1.865-.562,5.461,5.461,0,0,1,2.232.492l-.406,1.046a4.776,4.776,0,0,0-1.857-.437,1.412,1.412,0,0,0-.936.265.874.874,0,0,0-.32.71,1,1,0,0,0,.125.523,1.241,1.241,0,0,0,.421.406,6.721,6.721,0,0,0,1.053.507,5.823,5.823,0,0,1,1.264.671,1.95,1.95,0,0,1,.585.694A2.129,2.129,0,0,1,950.917,625.408Z" transform="translate(-868.087 -619.228)" fill="#fff"/>
      <path id="Path_35289" data-name="Path 35289" d="M956.562,628.2a2.864,2.864,0,0,1-2.154-.78,3.059,3.059,0,0,1-.78-2.208,3.379,3.379,0,0,1,.718-2.278,2.5,2.5,0,0,1,1.982-.78,2.419,2.419,0,0,1,1.841.7,2.731,2.731,0,0,1,.679,1.959v.671h-3.9a2,2,0,0,0,.468,1.326,1.623,1.623,0,0,0,1.233.46,4.3,4.3,0,0,0,.975-.1,4.892,4.892,0,0,0,.967-.328v1.022a3.9,3.9,0,0,1-.928.3,5.529,5.529,0,0,1-1.1.031Zm-.226-5.165a1.249,1.249,0,0,0-.96.382,1.778,1.778,0,0,0-.429,1.1h2.676a1.654,1.654,0,0,0-.351-1.108,1.2,1.2,0,0,0-.936-.375Z" transform="translate(-869.801 -619.792)" fill="#fff"/>
      <path id="Path_35290" data-name="Path 35290" d="M964.437,628.182a2.567,2.567,0,0,1-2.036-.78,3.972,3.972,0,0,1,0-4.533,2.708,2.708,0,0,1,2.107-.78,3.9,3.9,0,0,1,1.678.343l-.351.991a3.815,3.815,0,0,0-1.311-.3c-1.022,0-1.56.671-1.56,2.029a2.411,2.411,0,0,0,.382,1.49,1.311,1.311,0,0,0,1.116.5,3.245,3.245,0,0,0,1.561-.414v1.092a2.3,2.3,0,0,1-.718.281A4.4,4.4,0,0,1,964.437,628.182Z" transform="translate(-871.59 -619.778)" fill="#fff"/>
      <path id="Path_35291" data-name="Path 35291" d="M973.232,628.1l-.172-.78h-.07a1.771,1.771,0,0,1-.78.648,2.482,2.482,0,0,1-1.1.234,2.169,2.169,0,0,1-1.561-.531,2.231,2.231,0,0,1-.531-1.623V622.2h1.264v3.636a1.56,1.56,0,0,0,.281,1.022,1.045,1.045,0,0,0,.866.335,1.389,1.389,0,0,0,1.162-.468,2.6,2.6,0,0,0,.367-1.561V622.2h1.264v5.9Z" transform="translate(-873.217 -619.805)" fill="#fff"/>
      <path id="Path_35292" data-name="Path 35292" d="M980.973,622.07a3.454,3.454,0,0,1,.624.047l-.125,1.17a2.514,2.514,0,0,0-.554-.062,1.607,1.607,0,0,0-1.217.492,1.764,1.764,0,0,0-.468,1.272v3.121H978v-5.938h.975l.172,1.046h.062a2.342,2.342,0,0,1,.78-.843A1.841,1.841,0,0,1,980.973,622.07Z" transform="translate(-875.209 -619.776)" fill="#fff"/>
      <path id="Path_35293" data-name="Path 35293" d="M983.92,620a.7.7,0,0,1,.18-.515.71.71,0,0,1,.531-.187.64.64,0,0,1,.695.7.687.687,0,0,1-.18.5.7.7,0,0,1-.515.187.71.71,0,0,1-.53-.187.687.687,0,0,1-.18-.5Zm1.326,7.459h-1.264v-5.9h1.256Z" transform="translate(-876.518 -619.167)" fill="#fff"/>
      <path id="Path_35294" data-name="Path 35294" d="M989.926,626.825a3.122,3.122,0,0,0,.921-.14v.944a2.892,2.892,0,0,1-.538.148,3.861,3.861,0,0,1-.679.062c-1.186,0-1.779-.624-1.779-1.88v-3.176h-.78v-.554l.866-.46.429-1.248h.78v1.311h1.678v.952h-1.678v3.16a.882.882,0,0,0,.226.663A.78.78,0,0,0,989.926,626.825Z" transform="translate(-877.222 -619.435)" fill="#fff"/>
      <path id="Path_35295" data-name="Path 35295" d="M993.32,620a.671.671,0,0,1,.187-.515.78.78,0,0,1,1.038,0,.671.671,0,0,1,.187.515.655.655,0,0,1-.187.5.78.78,0,0,1-1.038,0,.656.656,0,0,1-.187-.5Zm1.334,7.459H993.4v-5.9h1.233Z" transform="translate(-878.604 -619.164)" fill="#fff"/>
      <path id="Path_35296" data-name="Path 35296" d="M999.795,628.2a2.832,2.832,0,0,1-2.146-.78,3.027,3.027,0,0,1-.78-2.208,3.378,3.378,0,0,1,.718-2.278,2.5,2.5,0,0,1,1.982-.78,2.45,2.45,0,0,1,1.849.7,2.763,2.763,0,0,1,.671,1.959v.671h-3.9a1.959,1.959,0,0,0,.46,1.326,1.623,1.623,0,0,0,1.233.46,4.3,4.3,0,0,0,.975-.1,4.724,4.724,0,0,0,.967-.328v1.022a3.9,3.9,0,0,1-.929.3,5.53,5.53,0,0,1-1.1.031Zm-.226-5.165a1.249,1.249,0,0,0-.96.382,1.779,1.779,0,0,0-.429,1.1h2.692a1.654,1.654,0,0,0-.351-1.108,1.2,1.2,0,0,0-.952-.375Z" transform="translate(-879.398 -619.792)" fill="#fff"/>
      <path id="Path_35297" data-name="Path 35297" d="M1009.25,626.394a1.561,1.561,0,0,1-.632,1.326,3.044,3.044,0,0,1-1.8.46,4.214,4.214,0,0,1-1.9-.359v-1.085a4.682,4.682,0,0,0,1.943.484c.78,0,1.155-.234,1.155-.7a.561.561,0,0,0-.133-.375,1.563,1.563,0,0,0-.421-.3,8,8,0,0,0-.78-.367,3.7,3.7,0,0,1-1.381-.78,1.443,1.443,0,0,1-.359-1.022,1.35,1.35,0,0,1,.609-1.178,2.879,2.879,0,0,1,1.662-.414,4.683,4.683,0,0,1,1.966.421l-.4.944a4.393,4.393,0,0,0-1.607-.4c-.663,0-.991.187-.991.562a.586.586,0,0,0,.258.476,5.593,5.593,0,0,0,1.124.523,4.914,4.914,0,0,1,1.061.523,1.452,1.452,0,0,1,.492.538A1.561,1.561,0,0,1,1009.25,626.394Z" transform="translate(-881.185 -619.777)" fill="#fff"/>
      <path id="Path_35298" data-name="Path 35298" d="M1016,627.563v-7.8h1.28v6.7h3.3v1.092Z" transform="translate(-883.644 -619.268)" fill="#fff"/>
      <path id="Path_35299" data-name="Path 35299" d="M1023.33,620a.671.671,0,0,1,.187-.515.78.78,0,0,1,1.038,0,.67.67,0,0,1,.187.515.655.655,0,0,1-.187.5.78.78,0,0,1-1.038,0,.656.656,0,0,1-.187-.5Zm1.334,7.459h-1.256v-5.9h1.225Z" transform="translate(-885.349 -619.164)" fill="#fff"/>
      <path id="Path_35300" data-name="Path 35300" d="M1032.3,628.068h-1.256v-3.636a1.623,1.623,0,0,0-.257-1.007.936.936,0,0,0-.78-.336,1.233,1.233,0,0,0-1.069.468,2.8,2.8,0,0,0-.335,1.561v2.934h-1.256V622.17h.983l.179.78h.062a1.639,1.639,0,0,1,.71-.648,2.263,2.263,0,0,1,1.03-.226,1.8,1.8,0,0,1,1.8.921h.086a1.764,1.764,0,0,1,.733-.679,2.342,2.342,0,0,1,1.085-.242,1.981,1.981,0,0,1,1.56.531,2.341,2.341,0,0,1,.476,1.623v3.847h-1.248v-3.644a1.623,1.623,0,0,0-.257-1.007.952.952,0,0,0-.78-.335,1.233,1.233,0,0,0-1.069.453,2.339,2.339,0,0,0-.343,1.4Z" transform="translate(-886.233 -619.774)" fill="#fff"/>
      <path id="Path_35301" data-name="Path 35301" d="M1040.62,620a.671.671,0,0,1,.187-.515.78.78,0,0,1,1.038,0,.67.67,0,0,1,.187.515.655.655,0,0,1-.187.5.78.78,0,0,1-1.038,0,.656.656,0,0,1-.187-.5Zm1.326,7.459H1040.7v-5.9h1.248Z" transform="translate(-889.148 -619.164)" fill="#fff"/>
      <path id="Path_35302" data-name="Path 35302" d="M1046.634,626.825a3.119,3.119,0,0,0,.913-.14v.944a2.736,2.736,0,0,1-.538.148,3.866,3.866,0,0,1-.679.063c-1.186,0-1.779-.624-1.779-1.88v-3.176h-.78v-.554l.866-.46.421-1.248h.78v1.311h1.685v.952h-1.685v3.16a.882.882,0,0,0,.226.663A.827.827,0,0,0,1046.634,626.825Z" transform="translate(-889.841 -619.435)" fill="#fff"/>
      <path id="Path_35303" data-name="Path 35303" d="M1052.595,628.2a2.832,2.832,0,0,1-2.146-.78,3.027,3.027,0,0,1-.78-2.208,3.377,3.377,0,0,1,.718-2.278,2.5,2.5,0,0,1,1.982-.78,2.45,2.45,0,0,1,1.849.7,2.762,2.762,0,0,1,.671,1.958v.671h-3.9a1.958,1.958,0,0,0,.46,1.326,1.623,1.623,0,0,0,1.233.46,4.3,4.3,0,0,0,.975-.1,4.72,4.72,0,0,0,.968-.328v1.022a3.811,3.811,0,0,1-.928.3,5.531,5.531,0,0,1-1.1.031Zm-.226-5.165a1.248,1.248,0,0,0-.96.382,1.826,1.826,0,0,0-.429,1.1h2.684a1.654,1.654,0,0,0-.359-1.108A1.2,1.2,0,0,0,1052.368,623.03Z" transform="translate(-891.135 -619.792)" fill="#fff"/>
      <path id="Path_35304" data-name="Path 35304" d="M1060.079,627.547a2.052,2.052,0,0,1-1.724-.78,3.574,3.574,0,0,1-.617-2.239,3.644,3.644,0,0,1,.624-2.263,2.083,2.083,0,0,1,1.74-.78,2.029,2.029,0,0,1,1.771.858h.062a7.34,7.34,0,0,1-.094-1.007V619.19h1.264v8.294h-.983l-.219-.78h-.062A2.005,2.005,0,0,1,1060.079,627.547Zm.336-1.014a1.342,1.342,0,0,0,1.124-.437,2.278,2.278,0,0,0,.367-1.4V624.5a2.645,2.645,0,0,0-.367-1.561,1.342,1.342,0,0,0-1.131-.468,1.155,1.155,0,0,0-1.022.538,2.692,2.692,0,0,0-.359,1.521,2.661,2.661,0,0,0,.351,1.5,1.163,1.163,0,0,0,1.038.5Z" transform="translate(-892.908 -619.143)" fill="#fff"/>
    </g>
  </g>
</svg>
