<svg xmlns="http://www.w3.org/2000/svg" width="21" height="11.65" viewBox="0 0 21 11.65">
  <g id="add_watchlist" transform="translate(-7126 -2901)">
    <path id="Path_1498" data-name="Path 1498" d="M16.447,36.3c-4.854,0-9.554,4.191-9.742,4.376a.593.593,0,0,0,0,.9c.205.186,4.888,4.376,9.742,4.376S26,41.759,26.19,41.573a.593.593,0,0,0,0-.9C26,40.491,21.319,36.3,16.447,36.3Z" transform="translate(7120.605 2864.7)" fill="#d1e3f6"/>
    <g id="visible" transform="translate(7126 2903)">
      <g id="Group_445" data-name="Group 445">
        <path id="Path_1498-2" data-name="Path 1498" d="M15.5,36.3c-4.392,0-8.644,4.191-8.814,4.376a.635.635,0,0,0,0,.9c.186.186,4.423,4.376,8.814,4.376s8.644-4.191,8.814-4.376a.635.635,0,0,0,0-.9C24.144,40.491,19.907,36.3,15.5,36.3Zm0,8.366c-3.077,0-6.247-2.505-7.438-3.557,1.191-1.052,4.361-3.557,7.438-3.557s6.247,2.505,7.438,3.557C21.747,42.161,18.577,44.666,15.5,44.666Z" transform="translate(-6.5 -36.3)" fill="#1c74d0"/>
        <path id="Path_1499" data-name="Path 1499" d="M50,54.889A2.289,2.289,0,1,0,52.289,52.6,2.293,2.293,0,0,0,50,54.889Zm3.294,0a1.021,1.021,0,1,1-1.021-1.021A1.04,1.04,0,0,1,53.294,54.889Z" transform="translate(-43.273 -50.079)" fill="#1c74d0"/>
      </g>
    </g>
  </g>
</svg>
