<svg xmlns="http://www.w3.org/2000/svg" width="20.27" height="20.649" viewBox="0 0 20.27 20.649">
  <g id="quote" transform="translate(17451.002 7617)">
    <rect id="Rectangle_3557" data-name="Rectangle 3557" width="15" height="17" rx="3" transform="translate(-17451.002 -7617)" fill="#d1e3f6"/>
    <g id="view-details" transform="translate(-17449.221 -7615.063)">
      <g id="Group_18574" data-name="Group 18574" transform="translate(0.219)">
        <rect id="Rectangle_3555" data-name="Rectangle 3555" width="8.346" height="1.353" transform="translate(2.527 4.115)" fill="#1c74d0"/>
        <path id="Path_34435" data-name="Path 34435" d="M15.049,14.149a2.94,2.94,0,1,0-1.116,1.119l3.308,3.308,1.116-1.118Zm-1.326-.21a1.8,1.8,0,0,1-2.482,0,1.756,1.756,0,1,1,2.482,0Z" transform="translate(-0.088 0.137)" fill="#1c74d0"/>
        <path id="Path_34436" data-name="Path 34436" d="M13.516,16.529H1.88a.334.334,0,0,1-.334-.333V1.661a.333.333,0,0,1,.334-.334H13.516a.332.332,0,0,1,.333.334V9.076a3.478,3.478,0,0,1,1.328.605V1.661A1.663,1.663,0,0,0,13.516,0H1.88A1.663,1.663,0,0,0,.219,1.661V16.2a1.663,1.663,0,0,0,1.661,1.66H13.516c.695,0,1.023-.164,1.271-.771l-.6-.6A1.748,1.748,0,0,1,13.516,16.529Z" transform="translate(-0.219)" fill="#1c74d0"/>
        <rect id="Rectangle_3556" data-name="Rectangle 3556" width="8.346" height="1.353" transform="translate(2.527 7.928)" fill="#1c74d0"/>
      </g>
    </g>
  </g>
</svg>
