<svg xmlns="http://www.w3.org/2000/svg" width="99.648" height="32.596" viewBox="0 0 99.648 32.596">
  <g id="appstore_ios" transform="translate(0)">
    <path id="Path_39" data-name="Path 39" d="M196.289,964.016a4.4,4.4,0,0,1-4.4,4.405H101.046a4.406,4.406,0,0,1-4.405-4.405V940.23a4.405,4.405,0,0,1,4.405-4.4h90.839a4.4,4.4,0,0,1,4.4,4.4Z" transform="translate(-96.641 -935.825)" fill="#1c1e30"/>
    <g id="Group_1697" data-name="Group 1697" transform="translate(6.645 5.134)">
      <path id="Path_40" data-name="Path 40" d="M150.824,1001.039a16.05,16.05,0,0,1-1.45,2.708c-.942,1.434-2.27,3.22-3.915,3.235-1.462.014-1.838-.952-3.822-.941s-2.4.958-3.861.944c-1.645-.015-2.9-1.628-3.845-3.062-2.634-4.01-2.91-8.717-1.285-11.219a5.83,5.83,0,0,1,4.689-2.819c1.744,0,2.84.956,4.282.956,1.4,0,2.251-.958,4.267-.958a5.69,5.69,0,0,1,4.289,2.265A4.908,4.908,0,0,0,150.824,1001.039Z" transform="translate(-131.637 -984.658)" fill="#fff"/>
      <g id="Group_1696" data-name="Group 1696" transform="translate(9.222)">
        <path id="Path_41" data-name="Path 41" d="M183.7,965.98a4.894,4.894,0,0,0,1.087-3.625,5.288,5.288,0,0,0-3.413,1.836,4.543,4.543,0,0,0-1.115,3.536A4.463,4.463,0,0,0,183.7,965.98Z" transform="translate(-180.207 -962.355)" fill="#fff"/>
      </g>
    </g>
    <g id="Group_1700" data-name="Group 1700" transform="translate(30.674 5.182)">
      <g id="Group_1698" data-name="Group 1698" transform="translate(0 7.762)">
        <path id="Path_42" data-name="Path 42" d="M258.856,1004.42l-3.774,11.108h1.728l1.126-3.411h3.654l1.159,3.411h1.776l-3.79-11.108Zm.9,1.826c.127.5.265,1.011.442,1.567l1.017,2.945h-2.894l1-2.965C259.471,1007.314,259.616,1006.795,259.751,1006.246Z" transform="translate(-255.082 -1004.243)" fill="#fff"/>
        <path id="Path_43" data-name="Path 43" d="M312.29,1019.586a3.144,3.144,0,0,0-2.672,1.282l-.067-1.1h-1.537l.009.141c.045.688.064,1.446.064,2.533V1031h1.681v-4a2.951,2.951,0,0,0,2.3.987,3.465,3.465,0,0,0,2.547-1.083,4.592,4.592,0,0,0,1.124-3.233,4.471,4.471,0,0,0-.976-2.952A3.2,3.2,0,0,0,312.29,1019.586Zm-.419,1.391c1.5,0,2.169,1.388,2.169,2.763,0,1.774-.856,2.876-2.232,2.876a2.038,2.038,0,0,1-1.98-1.56,2.142,2.142,0,0,1-.06-.544v-1.351a2.528,2.528,0,0,1,.053-.415c.008-.046.017-.092.024-.136A2.128,2.128,0,0,1,311.871,1020.977Z" transform="translate(-297.964 -1016.53)" fill="#fff"/>
        <path id="Path_44" data-name="Path 44" d="M357.872,1019.586a3.146,3.146,0,0,0-2.672,1.282l-.067-1.1H353.6l.009.141c.046.689.065,1.446.065,2.533V1031h1.681v-4a2.95,2.95,0,0,0,2.3.987,3.47,3.47,0,0,0,2.548-1.083,4.6,4.6,0,0,0,1.124-3.233,4.471,4.471,0,0,0-.977-2.952A3.2,3.2,0,0,0,357.872,1019.586Zm-.418,1.391c1.5,0,2.168,1.388,2.168,2.763,0,1.774-.856,2.876-2.232,2.876a2.038,2.038,0,0,1-1.98-1.56,2.147,2.147,0,0,1-.059-.544v-1.351a2.491,2.491,0,0,1,.054-.416c.008-.045.017-.091.024-.135A2.127,2.127,0,0,1,357.453,1020.977Z" transform="translate(-334.891 -1016.53)" fill="#fff"/>
        <path id="Path_45" data-name="Path 45" d="M416.146,1008.372c-1.569-.607-2.071-1.085-2.071-1.968,0-.743.591-1.493,1.91-1.493a3.82,3.82,0,0,1,1.973.5l.142.088.474-1.4-.094-.055a4.872,4.872,0,0,0-2.447-.549c-2.143,0-3.64,1.265-3.64,3.076,0,1.461.937,2.482,2.95,3.213,1.426.533,1.957,1.079,1.957,2.016,0,1.06-.819,1.717-2.136,1.717a4.6,4.6,0,0,1-2.422-.687l-.146-.094-.451,1.435.083.055a5.757,5.757,0,0,0,2.84.73c2.888,0,3.913-1.761,3.913-3.269C418.981,1010.125,418.16,1009.167,416.146,1008.372Z" transform="translate(-382.323 -1003.488)" fill="#fff"/>
        <path id="Path_46" data-name="Path 46" d="M451.9,1010.439l-1.648.517v1.4h-1.207v1.343h1.207v4.115a3.145,3.145,0,0,0,.582,2.132,2.155,2.155,0,0,0,1.626.638,3.966,3.966,0,0,0,1.3-.2l.094-.033-.08-1.346-.161.05a2.531,2.531,0,0,1-.782.09c-.651,0-.929-.412-.929-1.379V1013.7h2.027v-1.343H451.9Z" transform="translate(-412.217 -1009.119)" fill="#fff"/>
        <path id="Path_47" data-name="Path 47" d="M479.656,1019.586a3.958,3.958,0,0,0-3.994,4.267,3.835,3.835,0,0,0,3.865,4.138h.016a3.962,3.962,0,0,0,3.994-4.283,4.246,4.246,0,0,0-1.071-2.973A3.74,3.74,0,0,0,479.656,1019.586Zm-.049,1.327c1.512,0,2.2,1.474,2.2,2.844,0,1.685-.939,2.908-2.232,2.908h-.016c-1.274,0-2.2-1.2-2.2-2.859C477.359,1022.366,478.054,1020.913,479.607,1020.913Z" transform="translate(-433.78 -1016.53)" fill="#fff"/>
        <path id="Path_48" data-name="Path 48" d="M526.394,1019.664l-.1-.026a1.617,1.617,0,0,0-.418-.052,2.4,2.4,0,0,0-2.107,1.353l-.049-1.176h-1.508l.01.141c.045.665.063,1.412.063,2.42l-.016,5.49h1.68v-4.283a4.321,4.321,0,0,1,.046-.651,1.858,1.858,0,0,1,1.768-1.694,4.306,4.306,0,0,1,.451.028l.18.019Z" transform="translate(-471.491 -1016.53)" fill="#fff"/>
        <path id="Path_49" data-name="Path 49" d="M547.931,1019.5c-2.237,0-3.8,1.788-3.8,4.347a3.758,3.758,0,0,0,3.961,4.058,6.444,6.444,0,0,0,2.661-.511l.1-.046-.323-1.252-.14.057a5.211,5.211,0,0,1-2.106.377,2.336,2.336,0,0,1-2.517-2.437l5.425.016.022-.107a3.727,3.727,0,0,0,.051-.7C551.265,1021.549,550.392,1019.5,547.931,1019.5Zm-.112,1.279a1.659,1.659,0,0,1,1.234.471,2.393,2.393,0,0,1,.579,1.565H545.8A2.145,2.145,0,0,1,547.819,1020.781Z" transform="translate(-489.249 -1016.461)" fill="#fff"/>
      </g>
      <g id="Group_1699" data-name="Group 1699">
        <path id="Path_50" data-name="Path 50" d="M255.082,963.99a12.243,12.243,0,0,1,1.612-.109,3.6,3.6,0,0,1,2.366.647,2.3,2.3,0,0,1,.832,1.9,2.661,2.661,0,0,1-.841,2.044,3.9,3.9,0,0,1-2.592.757,11.674,11.674,0,0,1-1.378-.063Zm.763,4.657a5.422,5.422,0,0,0,.763.031c1.612.007,2.487-.811,2.487-2.231.009-1.256-.771-2.028-2.366-2.028a4.785,4.785,0,0,0-.884.07Z" transform="translate(-255.082 -963.639)" fill="#fff"/>
        <path id="Path_51" data-name="Path 51" d="M286.075,975.387a1.9,1.9,0,0,1-2.011-1.942,1.947,1.947,0,0,1,2.08-2,1.88,1.88,0,0,1,2.019,1.934,1.954,1.954,0,0,1-2.08,2.012Zm.026-.515a1.343,1.343,0,0,0,1.274-1.474,1.283,1.283,0,1,0-1.283,1.474Z" transform="translate(-278.561 -969.763)" fill="#fff"/>
        <path id="Path_52" data-name="Path 52" d="M308.68,971.891l.563,1.911c.112.421.225.819.3,1.209h.026c.1-.382.234-.788.373-1.2l.685-1.919h.642l.65,1.888c.156.445.277.85.372,1.233h.026a10.448,10.448,0,0,1,.321-1.225l.6-1.9h.754l-1.352,3.775h-.693l-.641-1.8a12.358,12.358,0,0,1-.373-1.248h-.017a10.366,10.366,0,0,1-.382,1.256l-.676,1.794h-.693l-1.266-3.775Z" transform="translate(-297.871 -970.128)" fill="#fff"/>
        <path id="Path_53" data-name="Path 53" d="M343.863,972.548c0-.4-.009-.71-.035-1.022h.676l.043.617h.017a1.588,1.588,0,0,1,1.387-.7,1.436,1.436,0,0,1,1.482,1.607V975.3h-.762v-2.176c0-.609-.252-1.123-.971-1.123a1.088,1.088,0,0,0-1.022.7.924.924,0,0,0-.052.32V975.3h-.763Z" transform="translate(-326.978 -969.763)" fill="#fff"/>
        <path id="Path_54" data-name="Path 54" d="M369.346,962.607h.763v5.538h-.763Z" transform="translate(-347.651 -962.607)" fill="#fff"/>
        <path id="Path_55" data-name="Path 55" d="M380.443,975.387a1.9,1.9,0,0,1-2.011-1.942,1.947,1.947,0,0,1,2.08-2,1.88,1.88,0,0,1,2.019,1.934,1.955,1.955,0,0,1-2.08,2.012Zm.026-.515a1.343,1.343,0,0,0,1.274-1.474,1.283,1.283,0,1,0-1.283,1.474Z" transform="translate(-355.012 -969.763)" fill="#fff"/>
        <path id="Path_56" data-name="Path 56" d="M406.642,974.4a5.69,5.69,0,0,0,.061.9h-.685l-.069-.475h-.026a1.613,1.613,0,0,1-1.283.561,1.144,1.144,0,0,1-1.283-1.084c0-.912.9-1.412,2.522-1.4v-.078c0-.312-.095-.881-.953-.874a2.189,2.189,0,0,0-1.1.281l-.174-.46a2.955,2.955,0,0,1,1.387-.327,1.4,1.4,0,0,1,1.6,1.544Zm-.745-1.022c-.832-.016-1.777.117-1.777.85a.638.638,0,0,0,.711.655,1.058,1.058,0,0,0,1.031-.632.63.63,0,0,0,.035-.218Z" transform="translate(-375.204 -969.763)" fill="#fff"/>
        <path id="Path_57" data-name="Path 57" d="M429.422,962.607v4.563c0,.335.009.718.035.975h-.684l-.035-.655h-.018a1.569,1.569,0,0,1-1.421.741,1.8,1.8,0,0,1-1.8-1.919,1.882,1.882,0,0,1,1.881-2.028,1.442,1.442,0,0,1,1.266.569h.017v-2.247Zm-.763,3.3a1.145,1.145,0,0,0-.035-.3,1.1,1.1,0,0,0-1.1-.788,1.292,1.292,0,0,0-1.257,1.451,1.252,1.252,0,0,0,1.239,1.4,1.135,1.135,0,0,0,1.118-.819,1.071,1.071,0,0,0,.035-.3Z" transform="translate(-393.139 -962.607)" fill="#fff"/>
        <path id="Path_58" data-name="Path 58" d="M462.931,975.387a1.9,1.9,0,0,1-2.011-1.942,1.948,1.948,0,0,1,2.08-2,1.88,1.88,0,0,1,2.02,1.934,1.955,1.955,0,0,1-2.08,2.012Zm.026-.515a1.343,1.343,0,0,0,1.274-1.474,1.282,1.282,0,1,0-1.283,1.474Z" transform="translate(-421.837 -969.763)" fill="#fff"/>
        <path id="Path_59" data-name="Path 59" d="M487.433,972.548c0-.4-.009-.71-.035-1.022h.676l.044.617h.017a1.588,1.588,0,0,1,1.387-.7A1.436,1.436,0,0,1,491,973.047V975.3h-.763v-2.176c0-.609-.251-1.123-.971-1.123a1.089,1.089,0,0,0-1.023.7.93.93,0,0,0-.052.32V975.3h-.763Z" transform="translate(-443.288 -969.763)" fill="#fff"/>
        <path id="Path_60" data-name="Path 60" d="M521.48,967.127v.9h1.092v.523H521.48v2.036c0,.468.148.733.572.733a1.57,1.57,0,0,0,.442-.047l.035.523a2.29,2.29,0,0,1-.676.094,1.155,1.155,0,0,1-.824-.289,1.371,1.371,0,0,1-.294-.991v-2.059h-.65v-.523h.65v-.694Z" transform="translate(-469.768 -966.269)" fill="#fff"/>
        <path id="Path_61" data-name="Path 61" d="M537.705,962.607h.763v2.356h.018a1.293,1.293,0,0,1,.546-.484,1.609,1.609,0,0,1,.78-.195,1.435,1.435,0,0,1,1.465,1.614v2.246h-.763v-2.168c0-.616-.251-1.123-.971-1.123a1.1,1.1,0,0,0-1.023.686.756.756,0,0,0-.052.328v2.277h-.763Z" transform="translate(-484.043 -962.607)" fill="#fff"/>
        <path id="Path_62" data-name="Path 62" d="M562.18,973.5a1.279,1.279,0,0,0,1.43,1.311,3.179,3.179,0,0,0,1.162-.188l.139.484a3.753,3.753,0,0,1-1.4.242,1.86,1.86,0,0,1-2.063-1.9,1.922,1.922,0,0,1,1.976-2.044,1.652,1.652,0,0,1,1.725,1.779,1.588,1.588,0,0,1-.026.327Zm2.228-.491a1.013,1.013,0,0,0-1.049-1.116,1.187,1.187,0,0,0-1.17,1.116Z" transform="translate(-503.274 -969.729)" fill="#fff"/>
      </g>
    </g>
    <g id="Group_1702" data-name="Group 1702" transform="translate(6.645 5.134)">
      <path id="Path_64" data-name="Path 64" d="M150.824,1001.039a16.05,16.05,0,0,1-1.45,2.708c-.942,1.434-2.27,3.22-3.915,3.235-1.462.014-1.838-.952-3.822-.941s-2.4.958-3.861.944c-1.645-.015-2.9-1.628-3.845-3.062-2.634-4.01-2.91-8.717-1.285-11.219a5.83,5.83,0,0,1,4.689-2.819c1.744,0,2.84.956,4.282.956,1.4,0,2.251-.958,4.267-.958a5.69,5.69,0,0,1,4.289,2.265A4.908,4.908,0,0,0,150.824,1001.039Z" transform="translate(-131.637 -984.658)" fill="#fff"/>
      <g id="Group_1701" data-name="Group 1701" transform="translate(9.222)">
        <path id="Path_65" data-name="Path 65" d="M183.7,965.98a4.894,4.894,0,0,0,1.087-3.625,5.288,5.288,0,0,0-3.413,1.836,4.543,4.543,0,0,0-1.115,3.536A4.463,4.463,0,0,0,183.7,965.98Z" transform="translate(-180.207 -962.355)" fill="#fff"/>
      </g>
    </g>
    <g id="Group_1705" data-name="Group 1705" transform="translate(30.674 5.182)">
      <g id="Group_1703" data-name="Group 1703" transform="translate(0 7.762)">
        <path id="Path_66" data-name="Path 66" d="M258.856,1004.42l-3.774,11.108h1.728l1.126-3.411h3.654l1.159,3.411h1.776l-3.79-11.108Zm.9,1.826c.127.5.265,1.011.442,1.567l1.017,2.945h-2.894l1-2.965C259.471,1007.314,259.616,1006.795,259.751,1006.246Z" transform="translate(-255.082 -1004.243)" fill="#fff"/>
        <path id="Path_67" data-name="Path 67" d="M312.29,1019.586a3.144,3.144,0,0,0-2.672,1.282l-.067-1.1h-1.537l.009.141c.045.688.064,1.446.064,2.533V1031h1.681v-4a2.951,2.951,0,0,0,2.3.987,3.465,3.465,0,0,0,2.547-1.083,4.592,4.592,0,0,0,1.124-3.233,4.471,4.471,0,0,0-.976-2.952A3.2,3.2,0,0,0,312.29,1019.586Zm-.419,1.391c1.5,0,2.169,1.388,2.169,2.763,0,1.774-.856,2.876-2.232,2.876a2.038,2.038,0,0,1-1.98-1.56,2.142,2.142,0,0,1-.06-.544v-1.351a2.528,2.528,0,0,1,.053-.415c.008-.046.017-.092.024-.136A2.128,2.128,0,0,1,311.871,1020.977Z" transform="translate(-297.964 -1016.53)" fill="#fff"/>
        <path id="Path_68" data-name="Path 68" d="M357.872,1019.586a3.146,3.146,0,0,0-2.672,1.282l-.067-1.1H353.6l.009.141c.046.689.065,1.446.065,2.533V1031h1.681v-4a2.95,2.95,0,0,0,2.3.987,3.47,3.47,0,0,0,2.548-1.083,4.6,4.6,0,0,0,1.124-3.233,4.471,4.471,0,0,0-.977-2.952A3.2,3.2,0,0,0,357.872,1019.586Zm-.418,1.391c1.5,0,2.168,1.388,2.168,2.763,0,1.774-.856,2.876-2.232,2.876a2.038,2.038,0,0,1-1.98-1.56,2.147,2.147,0,0,1-.059-.544v-1.351a2.491,2.491,0,0,1,.054-.416c.008-.045.017-.091.024-.135A2.127,2.127,0,0,1,357.453,1020.977Z" transform="translate(-334.891 -1016.53)" fill="#fff"/>
        <path id="Path_69" data-name="Path 69" d="M416.146,1008.372c-1.569-.607-2.071-1.085-2.071-1.968,0-.743.591-1.493,1.91-1.493a3.82,3.82,0,0,1,1.973.5l.142.088.474-1.4-.094-.055a4.872,4.872,0,0,0-2.447-.549c-2.143,0-3.64,1.265-3.64,3.076,0,1.461.937,2.482,2.95,3.213,1.426.533,1.957,1.079,1.957,2.016,0,1.06-.819,1.717-2.136,1.717a4.6,4.6,0,0,1-2.422-.687l-.146-.094-.451,1.435.083.055a5.757,5.757,0,0,0,2.84.73c2.888,0,3.913-1.761,3.913-3.269C418.981,1010.125,418.16,1009.167,416.146,1008.372Z" transform="translate(-382.323 -1003.488)" fill="#fff"/>
        <path id="Path_70" data-name="Path 70" d="M451.9,1010.439l-1.648.517v1.4h-1.207v1.343h1.207v4.115a3.145,3.145,0,0,0,.582,2.132,2.155,2.155,0,0,0,1.626.638,3.966,3.966,0,0,0,1.3-.2l.094-.033-.08-1.346-.161.05a2.531,2.531,0,0,1-.782.09c-.651,0-.929-.412-.929-1.379V1013.7h2.027v-1.343H451.9Z" transform="translate(-412.217 -1009.119)" fill="#fff"/>
        <path id="Path_71" data-name="Path 71" d="M479.656,1019.586a3.958,3.958,0,0,0-3.994,4.267,3.835,3.835,0,0,0,3.865,4.138h.016a3.962,3.962,0,0,0,3.994-4.283,4.246,4.246,0,0,0-1.071-2.973A3.74,3.74,0,0,0,479.656,1019.586Zm-.049,1.327c1.512,0,2.2,1.474,2.2,2.844,0,1.685-.939,2.908-2.232,2.908h-.016c-1.274,0-2.2-1.2-2.2-2.859C477.359,1022.366,478.054,1020.913,479.607,1020.913Z" transform="translate(-433.78 -1016.53)" fill="#fff"/>
        <path id="Path_72" data-name="Path 72" d="M526.394,1019.664l-.1-.026a1.617,1.617,0,0,0-.418-.052,2.4,2.4,0,0,0-2.107,1.353l-.049-1.176h-1.508l.01.141c.045.665.063,1.412.063,2.42l-.016,5.49h1.68v-4.283a4.321,4.321,0,0,1,.046-.651,1.858,1.858,0,0,1,1.768-1.694,4.306,4.306,0,0,1,.451.028l.18.019Z" transform="translate(-471.491 -1016.53)" fill="#fff"/>
        <path id="Path_73" data-name="Path 73" d="M547.931,1019.5c-2.237,0-3.8,1.788-3.8,4.347a3.758,3.758,0,0,0,3.961,4.058,6.444,6.444,0,0,0,2.661-.511l.1-.046-.323-1.252-.14.057a5.211,5.211,0,0,1-2.106.377,2.336,2.336,0,0,1-2.517-2.437l5.425.016.022-.107a3.727,3.727,0,0,0,.051-.7C551.265,1021.549,550.392,1019.5,547.931,1019.5Zm-.112,1.279a1.659,1.659,0,0,1,1.234.471,2.393,2.393,0,0,1,.579,1.565H545.8A2.145,2.145,0,0,1,547.819,1020.781Z" transform="translate(-489.249 -1016.461)" fill="#fff"/>
      </g>
      <g id="Group_1704" data-name="Group 1704">
        <path id="Path_74" data-name="Path 74" d="M255.082,963.99a12.243,12.243,0,0,1,1.612-.109,3.6,3.6,0,0,1,2.366.647,2.3,2.3,0,0,1,.832,1.9,2.661,2.661,0,0,1-.841,2.044,3.9,3.9,0,0,1-2.592.757,11.674,11.674,0,0,1-1.378-.063Zm.763,4.657a5.422,5.422,0,0,0,.763.031c1.612.007,2.487-.811,2.487-2.231.009-1.256-.771-2.028-2.366-2.028a4.785,4.785,0,0,0-.884.07Z" transform="translate(-255.082 -963.639)" fill="#fff"/>
        <path id="Path_75" data-name="Path 75" d="M286.075,975.387a1.9,1.9,0,0,1-2.011-1.942,1.947,1.947,0,0,1,2.08-2,1.88,1.88,0,0,1,2.019,1.934,1.954,1.954,0,0,1-2.08,2.012Zm.026-.515a1.343,1.343,0,0,0,1.274-1.474,1.283,1.283,0,1,0-1.283,1.474Z" transform="translate(-278.561 -969.763)" fill="#fff"/>
        <path id="Path_76" data-name="Path 76" d="M308.68,971.891l.563,1.911c.112.421.225.819.3,1.209h.026c.1-.382.234-.788.373-1.2l.685-1.919h.642l.65,1.888c.156.445.277.85.372,1.233h.026a10.448,10.448,0,0,1,.321-1.225l.6-1.9h.754l-1.352,3.775h-.693l-.641-1.8a12.358,12.358,0,0,1-.373-1.248h-.017a10.366,10.366,0,0,1-.382,1.256l-.676,1.794h-.693l-1.266-3.775Z" transform="translate(-297.871 -970.128)" fill="#fff"/>
        <path id="Path_77" data-name="Path 77" d="M343.863,972.548c0-.4-.009-.71-.035-1.022h.676l.043.617h.017a1.588,1.588,0,0,1,1.387-.7,1.436,1.436,0,0,1,1.482,1.607V975.3h-.762v-2.176c0-.609-.252-1.123-.971-1.123a1.088,1.088,0,0,0-1.022.7.924.924,0,0,0-.052.32V975.3h-.763Z" transform="translate(-326.978 -969.763)" fill="#fff"/>
        <path id="Path_78" data-name="Path 78" d="M369.346,962.607h.763v5.538h-.763Z" transform="translate(-347.651 -962.607)" fill="#fff"/>
        <path id="Path_79" data-name="Path 79" d="M380.443,975.387a1.9,1.9,0,0,1-2.011-1.942,1.947,1.947,0,0,1,2.08-2,1.88,1.88,0,0,1,2.019,1.934,1.955,1.955,0,0,1-2.08,2.012Zm.026-.515a1.343,1.343,0,0,0,1.274-1.474,1.283,1.283,0,1,0-1.283,1.474Z" transform="translate(-355.012 -969.763)" fill="#fff"/>
        <path id="Path_80" data-name="Path 80" d="M406.642,974.4a5.69,5.69,0,0,0,.061.9h-.685l-.069-.475h-.026a1.613,1.613,0,0,1-1.283.561,1.144,1.144,0,0,1-1.283-1.084c0-.912.9-1.412,2.522-1.4v-.078c0-.312-.095-.881-.953-.874a2.189,2.189,0,0,0-1.1.281l-.174-.46a2.955,2.955,0,0,1,1.387-.327,1.4,1.4,0,0,1,1.6,1.544Zm-.745-1.022c-.832-.016-1.777.117-1.777.85a.638.638,0,0,0,.711.655,1.058,1.058,0,0,0,1.031-.632.63.63,0,0,0,.035-.218Z" transform="translate(-375.204 -969.763)" fill="#fff"/>
        <path id="Path_81" data-name="Path 81" d="M429.422,962.607v4.563c0,.335.009.718.035.975h-.684l-.035-.655h-.018a1.569,1.569,0,0,1-1.421.741,1.8,1.8,0,0,1-1.8-1.919,1.882,1.882,0,0,1,1.881-2.028,1.442,1.442,0,0,1,1.266.569h.017v-2.247Zm-.763,3.3a1.145,1.145,0,0,0-.035-.3,1.1,1.1,0,0,0-1.1-.788,1.292,1.292,0,0,0-1.257,1.451,1.252,1.252,0,0,0,1.239,1.4,1.135,1.135,0,0,0,1.118-.819,1.071,1.071,0,0,0,.035-.3Z" transform="translate(-393.139 -962.607)" fill="#fff"/>
        <path id="Path_82" data-name="Path 82" d="M462.931,975.387a1.9,1.9,0,0,1-2.011-1.942,1.948,1.948,0,0,1,2.08-2,1.88,1.88,0,0,1,2.02,1.934,1.955,1.955,0,0,1-2.08,2.012Zm.026-.515a1.343,1.343,0,0,0,1.274-1.474,1.282,1.282,0,1,0-1.283,1.474Z" transform="translate(-421.837 -969.763)" fill="#fff"/>
        <path id="Path_83" data-name="Path 83" d="M487.433,972.548c0-.4-.009-.71-.035-1.022h.676l.044.617h.017a1.588,1.588,0,0,1,1.387-.7A1.436,1.436,0,0,1,491,973.047V975.3h-.763v-2.176c0-.609-.251-1.123-.971-1.123a1.089,1.089,0,0,0-1.023.7.93.93,0,0,0-.052.32V975.3h-.763Z" transform="translate(-443.288 -969.763)" fill="#fff"/>
        <path id="Path_84" data-name="Path 84" d="M521.48,967.127v.9h1.092v.523H521.48v2.036c0,.468.148.733.572.733a1.57,1.57,0,0,0,.442-.047l.035.523a2.29,2.29,0,0,1-.676.094,1.155,1.155,0,0,1-.824-.289,1.371,1.371,0,0,1-.294-.991v-2.059h-.65v-.523h.65v-.694Z" transform="translate(-469.768 -966.269)" fill="#fff"/>
        <path id="Path_85" data-name="Path 85" d="M537.705,962.607h.763v2.356h.018a1.293,1.293,0,0,1,.546-.484,1.609,1.609,0,0,1,.78-.195,1.435,1.435,0,0,1,1.465,1.614v2.246h-.763v-2.168c0-.616-.251-1.123-.971-1.123a1.1,1.1,0,0,0-1.023.686.756.756,0,0,0-.052.328v2.277h-.763Z" transform="translate(-484.043 -962.607)" fill="#fff"/>
        <path id="Path_86" data-name="Path 86" d="M562.18,973.5a1.279,1.279,0,0,0,1.43,1.311,3.179,3.179,0,0,0,1.162-.188l.139.484a3.753,3.753,0,0,1-1.4.242,1.86,1.86,0,0,1-2.063-1.9,1.922,1.922,0,0,1,1.976-2.044,1.652,1.652,0,0,1,1.725,1.779,1.588,1.588,0,0,1-.026.327Zm2.228-.491a1.013,1.013,0,0,0-1.049-1.116,1.187,1.187,0,0,0-1.17,1.116Z" transform="translate(-503.274 -969.729)" fill="#fff"/>
      </g>
    </g>
  </g>
</svg>
