<svg xmlns="http://www.w3.org/2000/svg" width="19.08" height="53.396" viewBox="0 0 19.08 53.396">
  <path id="indicator_point" d="M17,53.631h-.04a9.542,9.542,0,0,1-4.044-18.165L16.332.908a.863.863,0,0,1,.846-.673h.006a.862.862,0,0,1,.842.686L21.162,35.5A9.541,9.541,0,0,1,17,53.63h0Zm-.014-15.288A5.735,5.735,0,0,0,15.119,49.5c.154.053.312.1.469.14a5.727,5.727,0,0,0,6.836-3.69l-.017-.006c.039-.113.076-.232.11-.356a5.742,5.742,0,0,0-3.647-6.927c-.154-.053-.311-.1-.468-.139A5.714,5.714,0,0,0,16.985,38.343Z" transform="translate(-7.461 -0.235)" fill="#353f4a"/>
</svg>
