<svg xmlns="http://www.w3.org/2000/svg" xmlns:xlink="http://www.w3.org/1999/xlink" width="1457" height="200" viewBox="0 0 1457 200">
  <defs>
    <clipPath id="clip-path">
      <rect id="Rectangle_494" data-name="Rectangle 494" width="311.071" height="186.564" fill="none"/>
    </clipPath>
    <clipPath id="clip-path-3">
      <rect id="Rectangle_481" data-name="Rectangle 481" width="21.912" height="130.513" fill="#f0f0f0"/>
    </clipPath>
    <clipPath id="clip-path-4">
      <rect id="Rectangle_483" data-name="Rectangle 483" width="21.912" height="90.703" fill="#f0f0f0"/>
    </clipPath>
    <clipPath id="clip-path-5">
      <rect id="Rectangle_485" data-name="Rectangle 485" width="21.911" height="102.236" fill="#f0f0f0"/>
    </clipPath>
    <clipPath id="clip-path-6">
      <rect id="Rectangle_487" data-name="Rectangle 487" width="21.911" height="106.256" fill="#f0f0f0"/>
    </clipPath>
    <clipPath id="clip-path-7">
      <rect id="Rectangle_489" data-name="Rectangle 489" width="21.911" height="74.752" fill="none"/>
    </clipPath>
    <clipPath id="clip-path-8">
      <rect id="Rectangle_490" data-name="Rectangle 490" width="48.422" height="14.353" fill="#464d53"/>
    </clipPath>
    <clipPath id="clip-path-9">
      <rect id="Rectangle_491" data-name="Rectangle 491" width="36.644" height="10.863" fill="#464d53"/>
    </clipPath>
    <clipPath id="clip-path-10">
      <rect id="Rectangle_492" data-name="Rectangle 492" width="31.954" height="9.471" fill="#464d53"/>
    </clipPath>
  </defs>
  <g id="loan_banner" transform="translate(-232 -212)">
    <g id="Path_39400" data-name="Path 39400" transform="translate(232 212)" fill="#1c1f25">
      <path d="M 1456.5 199.5 L 0.5 199.5 L 0.5 8 C 0.5 3.864545345306396 3.864545345306396 0.5 8 0.5 L 1449 0.5 C 1453.135498046875 0.5 1456.5 3.864545345306396 1456.5 8 L 1456.5 199.5 Z" stroke="none"/>
      <path d="M 8 1 C 4.14013671875 1 1 4.140182495117188 1 8 L 1 199 L 1456 199 L 1456 8 C 1456 4.140182495117188 1452.85986328125 1 1449 1 L 8 1 M 8 0 L 1449 0 C 1453.418334960938 0 1457 3.581634521484375 1457 8 L 1457 200 L 0 200 L 0 8 C 0 3.581634521484375 3.5816650390625 0 8 0 Z" stroke="none" fill="#25292f"/>
    </g>
    <g id="Group_21700" data-name="Group 21700" transform="translate(0 -2)">
      <g id="Group_21621" data-name="Group 21621" transform="translate(-345.599 -313.24)">
        <g id="Group_21618" data-name="Group 21618" transform="translate(593.599 536.675)">
          <g id="Group_1165" data-name="Group 1165" clip-path="url(#clip-path)">
            <g id="Group_1164" data-name="Group 1164" transform="translate(0 -0.001)">
              <g id="Group_1163" data-name="Group 1163" clip-path="url(#clip-path)">
                <path id="Path_1564" data-name="Path 1564" d="M87.843.335c47.813-2.765,97.942,11.638,90.574,32.516s39.395-7.416,58.057.112c13.286,5.359,7.975,21.673,14.4,28.247,14.738,15.072,29.81-3.908,48.567,7.48s10.957,117.885,3.32,117.87l-289.25-.528-3.461.112s-21.213-30.592-2.01-48.455,6.018-26.032,3.684-32.936C9.048,96.825,2.8,82.981,30.037,72.821S50.246,40.555,49.576,35.977,40.031,3.1,87.843.335" transform="translate(0 0.005)" fill="#20262c"/>
                <g id="Group_1141" data-name="Group 1141" transform="translate(235.223 55.552)" opacity="0.08" style="isolation: isolate">
                  <g id="Group_1140" data-name="Group 1140">
                    <g id="Group_1139" data-name="Group 1139" clip-path="url(#clip-path-3)">
                      <rect id="Rectangle_480" data-name="Rectangle 480" width="21.911" height="130.512" transform="translate(0.001 0)" fill="#f0f0f0"/>
                    </g>
                  </g>
                </g>
                <g id="Group_1144" data-name="Group 1144" transform="translate(204.623 95.362)" opacity="0.08" style="isolation: isolate">
                  <g id="Group_1143" data-name="Group 1143">
                    <g id="Group_1142" data-name="Group 1142" clip-path="url(#clip-path-4)">
                      <rect id="Rectangle_482" data-name="Rectangle 482" width="21.911" height="90.703" transform="translate(0 0)" fill="#f0f0f0"/>
                    </g>
                  </g>
                </g>
                <g id="Group_1147" data-name="Group 1147" transform="translate(266.265 83.829)" opacity="0.08" style="isolation: isolate">
                  <g id="Group_1146" data-name="Group 1146">
                    <g id="Group_1145" data-name="Group 1145" clip-path="url(#clip-path-5)">
                      <rect id="Rectangle_484" data-name="Rectangle 484" width="21.911" height="102.236" transform="translate(-0.001)" fill="#f0f0f0"/>
                    </g>
                  </g>
                </g>
                <g id="Group_1150" data-name="Group 1150" transform="translate(174.023 79.809)" opacity="0.08" style="isolation: isolate">
                  <g id="Group_1149" data-name="Group 1149">
                    <g id="Group_1148" data-name="Group 1148" clip-path="url(#clip-path-6)">
                      <rect id="Rectangle_486" data-name="Rectangle 486" width="21.911" height="106.256" transform="translate(0)" fill="#f0f0f0"/>
                    </g>
                  </g>
                </g>
                <g id="Group_1153" data-name="Group 1153" transform="translate(143.423 111.313)" opacity="0.3" style="mix-blend-mode: multiply;isolation: isolate">
                  <g id="Group_1152" data-name="Group 1152">
                    <g id="Group_1151" data-name="Group 1151" clip-path="url(#clip-path-7)">
                      <rect id="Rectangle_488" data-name="Rectangle 488" width="21.911" height="74.752" transform="translate(0 0)" fill="#9bc1f9"/>
                    </g>
                  </g>
                </g>
                <path id="Path_1565" data-name="Path 1565" d="M1467.382,162.442l-17.46,13.2,6.66.425L1414.9,249.426l-23.077-34.6-32.645,76.146-21-29.824-26.172,37,1.647,6.621,24.513-34.484,22.2,31.526,32.525-75.867,22.391,33.569,46.143-81.211,4.284,4.607Z" transform="translate(-1168.556 -144.68)" fill="#ccc"/>
                <g id="Group_1156" data-name="Group 1156" transform="translate(98.754 6.768)" opacity="0.8">
                  <g id="Group_1155" data-name="Group 1155">
                    <g id="Group_1154" data-name="Group 1154" clip-path="url(#clip-path-8)">
                      <path id="Path_1566" data-name="Path 1566" d="M951.6,76.24a5.977,5.977,0,0,0-7.327-4.439A8.8,8.8,0,0,0,933.7,67.128a10.838,10.838,0,0,0-19.467,1.893,7.434,7.434,0,0,0-11.049,6.5c0,.243.012.484.035.721Z" transform="translate(-903.182 -61.886)" fill="#464d53"/>
                    </g>
                  </g>
                </g>
                <g id="Group_1159" data-name="Group 1159" transform="translate(132.337 39.766)" opacity="0.8">
                  <g id="Group_1158" data-name="Group 1158">
                    <g id="Group_1157" data-name="Group 1157" clip-path="url(#clip-path-9)">
                      <path id="Path_1567" data-name="Path 1567" d="M1246.962,374.546a4.523,4.523,0,0,0-5.545-3.359,6.658,6.658,0,0,0-8.006-3.537,8.2,8.2,0,0,0-14.732,1.433,5.626,5.626,0,0,0-8.361,4.917c0,.184.01.366.027.546Z" transform="translate(-1210.318 -363.684)" fill="#464d53"/>
                    </g>
                  </g>
                </g>
                <g id="Group_1162" data-name="Group 1162" transform="translate(67.016 37.009)" opacity="0.8">
                  <g id="Group_1161" data-name="Group 1161">
                    <g id="Group_1160" data-name="Group 1160" clip-path="url(#clip-path-10)">
                      <path id="Path_1568" data-name="Path 1568" d="M612.908,347.939a3.944,3.944,0,0,1,4.835-2.929,5.806,5.806,0,0,1,6.981-3.084,7.152,7.152,0,0,1,12.846,1.25,4.906,4.906,0,0,1,7.291,4.287c0,.161-.008.319-.023.476Z" transform="translate(-612.908 -338.467)" fill="#464d53"/>
                    </g>
                  </g>
                </g>
              </g>
            </g>
          </g>
        </g>
        <g id="Group_21619" data-name="Group 21619" transform="translate(654.291 532.24)">
          <g id="Group_20" data-name="Group 20" transform="translate(0 0)">
            <g id="Group_1132" data-name="Group 1132" transform="translate(0 0)">
              <path id="Path_1075" data-name="Path 1075" d="M841.168,1292.645H789.11a3.006,3.006,0,1,1,0-6.012h52.058a3.006,3.006,0,1,1,0,6.012" transform="translate(-728.049 -1107.476)" fill="#ffa42f"/>
              <path id="Path_1076" data-name="Path 1076" d="M904.218,1252.252H852.16a3.006,3.006,0,1,1,0-6.011h52.058a3.006,3.006,0,1,1,0,6.011" transform="translate(-781.994 -1072.917)" fill="#ff7a03"/>
              <path id="Path_1077" data-name="Path 1077" d="M853.779,1213.984H801.721a3.006,3.006,0,0,1,0-6.012h52.058a3.006,3.006,0,0,1,0,6.012" transform="translate(-738.839 -1040.174)" fill="#fcc13f"/>
              <path id="Path_1078" data-name="Path 1078" d="M811.745,1172.529H759.687a3.006,3.006,0,1,1,0-6.012h52.058a3.006,3.006,0,1,1,0,6.012" transform="translate(-702.876 -1004.706)" fill="#ff7a03"/>
              <path id="Path_1089" data-name="Path 1089" d="M474.229,1275.757H413.083a4.411,4.411,0,1,1,0-8.822h61.146a4.411,4.411,0,1,1,0,8.822" transform="translate(-405.123 -1090.622)" fill="#fcc13f"/>
              <path id="Path_1090" data-name="Path 1090" d="M559.1,1215.292H501.538a4.411,4.411,0,1,1,0-8.822H559.1a4.411,4.411,0,1,1,0,8.822" transform="translate(-480.804 -1038.889)" fill="#ffa42f"/>
              <path id="Path_1091" data-name="Path 1091" d="M517.92,1154.163H462.456a4.11,4.11,0,0,1-4.11-4.11v-.6a4.11,4.11,0,0,1,4.11-4.11H517.92a4.11,4.11,0,0,1,4.11,4.11v.605a4.11,4.11,0,0,1-4.11,4.11" transform="translate(-447.623 -986.585)" fill="#fcc13f"/>
              <path id="Path_1092" data-name="Path 1092" d="M516.452,1093.239H460.737a4.039,4.039,0,0,1-4.039-4.039v-.744a4.039,4.039,0,0,1,4.039-4.039h55.715a4.039,4.039,0,0,1,4.039,4.039v.743a4.039,4.039,0,0,1-4.039,4.039" transform="translate(-446.213 -934.462)" fill="#ffa42f"/>
              <path id="Path_1093" data-name="Path 1093" d="M524.833,1035.742H469a4.411,4.411,0,0,1,0-8.822h55.828a4.411,4.411,0,0,1,0,8.822" transform="translate(-452.969 -885.268)" fill="#fcc13f"/>
              <path id="Path_1094" data-name="Path 1094" d="M508.147,975.425H452.319a4.411,4.411,0,1,1,0-8.822h55.828a4.411,4.411,0,1,1,0,8.822" transform="translate(-438.693 -833.661)" fill="#ffa42f"/>
              <path id="Path_1095" data-name="Path 1095" d="M542.172,857.412H488.295a4.123,4.123,0,0,1-4.123-4.123v-.577a4.123,4.123,0,0,1,4.123-4.123h53.878a4.123,4.123,0,0,1,4.123,4.123v.576a4.123,4.123,0,0,1-4.123,4.123" transform="translate(-469.72 -732.691)" fill="#ffa42f"/>
              <path id="Path_1096" data-name="Path 1096" d="M588.269,916.148H536.5a4.047,4.047,0,0,1-4.047-4.047v-.728a4.047,4.047,0,0,1,4.047-4.047h51.769a4.047,4.047,0,0,1,4.047,4.047v.728a4.047,4.047,0,0,1-4.047,4.047" transform="translate(-511.028 -782.945)" fill="#fcc13f"/>
              <path id="Path_1105" data-name="Path 1105" d="M856.454,336.652a4.942,4.942,0,0,0,.29-2.064,35.963,35.963,0,0,0-.451-4.71c-.129-.43,5.634-2.237,5.634-2.237s9.247-.473,10.623-1.505,2.534-1.457,1.893-.387a25.675,25.675,0,0,1-4.473,5.161c-.6.387-7.785,2.193-7.914,2.193s-.086,4.516-.086,4.516Z" transform="translate(-788.1 -284.821)" fill="#f7a491"/>
              <path id="Path_1106" data-name="Path 1106" d="M711.3,388.013s-5.987-1.018-6.1-.419c-2.419,13.247-2.829,17.625-3.1,17.763-.911.469-13.943-10.968-16.1-11.717a8.979,8.979,0,0,0-3.225-.267c-2.562.076-1.7.014-3.048.081l0,0-.115.008.014,2.409c2.886,2.6,9.494,41.931,10.05,41.9.622-.029,13.681,3.257,13.451,2.157-.037-.179-8.854-7.394-11.354-17.806-.839-3.5-1.254-7.259-1.709-10.553,2.9,1.455,14.235,7.032,16.031,6.3,5.588-2.292,5.194-29.859,5.194-29.859" transform="translate(-636.943 -338.106)" fill="#e74f0f"/>
              <path id="Path_1107" data-name="Path 1107" d="M1054.708,850.058s12.151,9.518,12.556,11.205c.584,2.431,11.71-.765,9.027-1.259-.617-.114-2.593-.615-2.756-.7-.869-.465-11.68-13.493-11.68-13.493Z" transform="translate(-957.864 -730.312)" fill="#ef9296"/>
              <path id="Path_1108" data-name="Path 1108" d="M1153.31,940.36l-7.758-.632a11,11,0,0,1-6.479,1.921,9.932,9.932,0,0,0-.357,4.222c.056.393.122,1.579.517,1.552,1.433-.1,5.252-1.048,9.6-1.918,0,0,5.848-1.238,9.225-3.259s-4.751-1.887-4.751-1.887" transform="translate(-1029.666 -810.667)" fill="#1c262b"/>
              <path id="Path_1109" data-name="Path 1109" d="M659.5,682.619a53.116,53.116,0,0,0,18.739-.807c11.387-2.664,23.978-5.127,27.667-2.982,2.969,1.726,21.513,29.746,21.513,29.746l-7.161,5.226-20.418-22.864s-26.05,9.612-31.9,8.546c-13.325-2.426-13.514-13.067-8.439-16.866" transform="translate(-617.098 -586.748)" fill="#29373e"/>
              <path id="Path_1110" data-name="Path 1110" d="M687.434,670.752l8.9,10.58-16.516,5.032-2.115-9.958Z" transform="translate(-635.306 -580.534)" fill="#29373e"/>
              <path id="Path_1111" data-name="Path 1111" d="M865.087,1005.407s-.541,14.7-.877,17.185,6.237,9.941,5.4,7.345c-.193-.6-.691-2.574-.692-2.758,0-.985,2.437-17.75,2.437-17.75Z" transform="translate(-794.866 -866.862)" fill="#ef9296"/>
              <path id="Path_1112" data-name="Path 1112" d="M835.092,1136.467l-3.13-7.126a11,11,0,0,1-4.769-4.788,9.933,9.933,0,0,0-3.885,1.692c-.319.236-2.492,1.825-2.341,2.192.557,1.35,3.516,4.24,6.752,7.4a87.064,87.064,0,0,0,7.969,5.711c3.382,2.012-.6-5.077-.6-5.077" transform="translate(-757.872 -968.801)" fill="#1c262b"/>
              <path id="Path_1113" data-name="Path 1113" d="M669.795,677.11c-3.112-4.149-28.223-8.09-28.223-8.09l-7-13.458-15.483,9.548s1.548,12.321,2.71,15.612c1.548,4.387,11.954,4.61,18.309,4.545,5.847-.06,16.528,1.132,16.528,1.132l-3.613,31.87s7.1,1.616,9.1,1.355c.225-.03,11.548-37.354,7.677-42.515" transform="translate(-585.152 -567.538)" fill="#29373e"/>
              <path id="Path_1114" data-name="Path 1114" d="M625.07,429.513l-8.736.479s-.2.07-.261.082c-.712.132-.065,25.589.57,35.1s1.922,13.5,1.922,13.5,11.848-2.1,15.484-3.515c1.509-.586,5.161-5.151,5.161-5.151a38.3,38.3,0,0,1-5.61-13.164c-1.45-6.284-3.237-17.424-4.26-19.749a33.171,33.171,0,0,0-4.269-7.58" transform="translate(-582.307 -374.133)" fill="#29373e"/>
              <path id="Path_1115" data-name="Path 1115" d="M619.976,372.407l-.248,7.713s5.655,9.744,8.558,8.386c2.436-1.139.274-8.551.274-8.551s-.422-1.7-1.007-3.652a14.136,14.136,0,0,1-.724-3.926c.061-2.636-6.853.03-6.853.03" transform="translate(-585.7 -324.252)" fill="#ffbe9d"/>
              <path id="Path_1116" data-name="Path 1116" d="M628.476,257.667s2.882,4.344,3.1,8a18.958,18.958,0,0,1-.559,6.15l-9.247-11.053Z" transform="translate(-587.445 -227.103)" fill="#2d2861"/>
              <path id="Path_1117" data-name="Path 1117" d="M680.215,294.941c.13,1.28-.367,2.379-1.111,2.455s-1.453-.9-1.583-2.18.367-2.379,1.111-2.455,1.453.9,1.583,2.18" transform="translate(-635.129 -257.125)" fill="#f48c7f"/>
              <path id="Path_1118" data-name="Path 1118" d="M600.6,269.551c-.212-.045-.191,10.6,2.893,13.1s8.453,2.724,10.021.2c1.734-2.79.084-14-4.5-16.384s-8.411,3.082-8.411,3.082" transform="translate(-569.265 -234.12)" fill="#f7a491"/>
              <path id="Path_1119" data-name="Path 1119" d="M562.36,231.338a17.09,17.09,0,0,0-5.088,7.243c-1.959,4.513,1.928,9.189,5.187,11.047s3.536,4.139,3.536,4.139l.129-1.419a3.829,3.829,0,0,0-.505-2.4c-.277-.593-1.168-2.625-1.516-3.161-.917-1.414-1.1-1.72-.645-3.064.349-1.035-.055-3.316.484-5.021l4.387-.946a9.183,9.183,0,0,0,4.131-2.259c3.98-4.592-3.889-9.713-10.1-4.16" transform="translate(-531.812 -202.505)" fill="#263238"/>
              <path id="Path_1120" data-name="Path 1120" d="M593.865,329.912c.54,1.168.428,2.369-.251,2.683s-1.667-.378-2.207-1.546-.428-2.369.251-2.683,1.667.378,2.207,1.546" transform="translate(-561.177 -287.528)" fill="#f7a491"/>
              <path id="Path_1122" data-name="Path 1122" d="M402.013,59.053c.5,2.048,1.4,5.286,1.4,5.286-.071.89-.334,4.594-.647,9.133l6.672-2.67s-.08-7.4.218-7.849c.252-.383.675.1,2.72-2.832a5.713,5.713,0,0,0,.7-2.354s.122-1.858-.3-2.031a.866.866,0,0,0-1.047.425c-.151.321-.112,1.069-.263,1.39a2.311,2.311,0,0,1-1.523.688c-.407-.02.051-5.5.051-5.5s.227-1.553.342-2.061c.1-.433.492-1.7.492-1.7s.463-1.843-.109-1.984c-.337-.083-1.2,1.414-1.786,3-.635,1.711-.994,3.526-1.176,3.5-.426-.057-.2-3.059-.2-3.059a9.619,9.619,0,0,0,.414-2.024c.4-.795.667-2.27-.039-2.392a12.213,12.213,0,0,0-1.061,1.851s-.366,1.319-.579,1.936c-.376,1.088-.433,2.805-.629,3.562-.163.63-.311.371-.378.4a15.82,15.82,0,0,1,.143-2.043,12.032,12.032,0,0,1,.151-1.981,14.46,14.46,0,0,0,.286-2.091c.114-1.553-.863-1.394-1.2.026-.129.541-.264,1.131-.4,1.729-.525,2.328-.51,4.57-.761,4.589-.326.024-.111-4.059-.111-4.059s-.5-2.26-1-.162a18.294,18.294,0,0,0-.508,4.506,17.643,17.643,0,0,0,.122,4.767" transform="translate(-399.216 -46.024)" fill="#f8a492"/>
              <path id="Path_1123" data-name="Path 1123" d="M418.111,221.987s-8.649-.407-10.883-1.418c-1.355-.613-12.483-9.58-12.483-9.58l.125-24.009-7.826-.6s-4.058,26.537-2.652,29.442c1.451,3,17.741,15.349,21,20.708,1.877,3.087,5.791,45.074,6.383,45.452,4.215,2.194,17.231,4.384,16.924,3.054-8.473-36.773-10.586-63.054-10.586-63.054" transform="translate(-384.095 -166.115)" fill="#e74f0f"/>
              <path id="Path_1127" data-name="Path 1127" d="M882.813,324.842s2.408-1.032,3.053-1.247,2.71-.6,2.71-.6,3.2-3.29,4.021-3.376-1.871,3.591-1.871,3.591l-1.118,1.075s1.806-1.548,2.151-1.763,3.054-4.129,3.742-3.871-1.161,3.011-2.064,4.473-5.032,2.366-5.032,2.366Z" transform="translate(-810.793 -279.268)" fill="#f7a491"/>
            </g>
          </g>
          <path id="Path_499" data-name="Path 499" d="M.186,9.392a13.969,13.969,0,0,0,.939-3.385A4.581,4.581,0,0,1,3.339,2.984a2.779,2.779,0,0,1,3.1.092A3.211,3.211,0,0,1,9.006.259a9.706,9.706,0,0,1,5.2.216A10.725,10.725,0,0,1,17.69,2.981,14.21,14.21,0,0,1,19.218,4.7l1.409,3.858-1.009,2.088a4.657,4.657,0,0,1-.2.424l-.815,4.352c-.107-1.174-.181-5.272-.277-6.446A6.575,6.575,0,0,1,13.57,6.992a7.677,7.677,0,0,0-2.083-1.957c-1.128-.507-2.434-.058-3.588.391l.049-.047A5.273,5.273,0,0,0,6.37,6.608a16.334,16.334,0,0,1-.45,6.933c-.1.337-.372,1.037-.694,1.176-.635.272-.832-.377-1.232-.711a1.707,1.707,0,0,0-1.183-.245,26.806,26.806,0,0,1-.9-2.947,2.589,2.589,0,0,1-1.2.124q.169-.449.339-.9a1.381,1.381,0,0,1-.505.252.472.472,0,0,1-.5-.195C-.071,9.867.068,9.609.186,9.392Z" transform="translate(23.091 28.957) rotate(-9)" fill="#263238"/>
        </g>
        <g id="Group_21620" data-name="Group 21620" transform="translate(677.577 561.101) rotate(-14)">
          <path id="Path_1544" data-name="Path 1544" d="M3.717,13.537a1,1,0,0,1,0,.554.967.967,0,0,1-.293.463.91.91,0,0,1-.491.218.9.9,0,0,1-.525-.1c-.612-.32-.69-1.2-.569-1.9a3.73,3.73,0,0,0,.067-2.1A4.73,4.73,0,0,0,.855,9.48a3.1,3.1,0,0,1-.707-1.2,3.193,3.193,0,0,1-.117-1.4,2.631,2.631,0,0,1,.58-1.266,2.489,2.489,0,0,1,1.132-.766c.9-.259,2.008.028,2.685-.649.486-.49.515-1.289.891-1.874a2.827,2.827,0,0,1,2.856-.9,8.041,8.041,0,0,0,3.119.231A14.208,14.208,0,0,0,13.644.432,4.449,4.449,0,0,1,16.432.087a4.556,4.556,0,0,1,2.461,1.4A4.844,4.844,0,0,1,20.11,4.111a4.922,4.922,0,0,1-.48,2.869A3.008,3.008,0,0,1,18.2,8.442" transform="translate(0 0)" fill="#263238"/>
          <path id="Path_1545" data-name="Path 1545" d="M7.191,33.192c.684,0,.184-2.247.815-2.523s.68-.879,1.16-1.385.095-.745.35-1.4a7.8,7.8,0,0,0,.6-2.426l.464-5.126A5.007,5.007,0,0,0,15,15.638c.274-4.26.078-14.091.078-14.091A13.88,13.88,0,0,0,.633,2.6L0,3.05.309,25.586C.325,27,2.015,29.269,2.985,30.262S5.828,33.195,7.191,33.192Z" transform="translate(3.408 5.651)" fill="#ffbe9d"/>
          <path id="Path_1546" data-name="Path 1546" d="M.545,1.273a.606.606,0,0,1-.389-.209.654.654,0,0,1,0-.848A.606.606,0,0,1,.545.006a.2.2,0,0,1,.1,0,.606.606,0,0,1,.389.209.655.655,0,0,1,0,.848.606.606,0,0,1-.389.209A.293.293,0,0,1,.545,1.273Z" transform="translate(16.86 13.656)" fill="#263238"/>
          <path id="Path_1547" data-name="Path 1547" d="M2.086.666C2.018.738,1.632.388,1.066.357S.072.6.016.524.056.36.244.229A1.354,1.354,0,0,1,1.9.343C2.067.5,2.121.649,2.086.666Z" transform="translate(16.124 12.888)" fill="#263238"/>
          <path id="Path_1548" data-name="Path 1548" d="M.94.11a.617.617,0,0,1,.216.283.64.64,0,0,1,.028.359.626.626,0,0,1-.169.315.593.593,0,0,1-.309.164A.578.578,0,0,1,.36,1.19.605.605,0,0,1,.1.956.64.64,0,0,1,.107.266.6.6,0,0,1,.492.01.582.582,0,0,1,.94.11Z" transform="translate(10.723 13.588)" fill="#263238"/>
          <path id="Path_1549" data-name="Path 1549" d="M2.079.666c-.07.072-.456-.278-1.02-.309S.065.6.006.524C-.023.488.049.36.235.229A1.354,1.354,0,0,1,1.888.343C2.057.5,2.111.636,2.079.666Z" transform="translate(9.957 13.057)" fill="#263238"/>
          <path id="Path_1550" data-name="Path 1550" d="M.079,5.123a2.716,2.716,0,0,1,.926-.15c.148,0,.269-.036.282-.117A.9.9,0,0,0,1.2,4.411c-.126-.4-.252-.8-.386-1.22A16.347,16.347,0,0,1,.012,0a16.9,16.9,0,0,1,1.111,3.09c.123.423.244.835.36,1.225a1.019,1.019,0,0,1,.048.643.4.4,0,0,1-.108.149.379.379,0,0,1-.161.082.844.844,0,0,1-.255.019A2.567,2.567,0,0,1,.079,5.123Z" transform="translate(13.981 13.573)" fill="#263238"/>
          <path id="Path_1551" data-name="Path 1551" d="M.049,0A10.354,10.354,0,0,0,2.782.994a1.567,1.567,0,0,1-.849.61A1.514,1.514,0,0,1,.9,1.534,1.241,1.241,0,0,1,.049,0Z" transform="translate(12.131 19.242)" fill="#fff"/>
          <path id="Path_1552" data-name="Path 1552" d="M5.278,1.882A9.358,9.358,0,0,1,0,0,5.077,5.077,0,0,0,5.227,2.988Z" transform="translate(8.731 24.036)" fill="#eb996e"/>
          <path id="Path_1553" data-name="Path 1553" d="M16.159,3.742a6.642,6.642,0,0,1-5.772-.312c-2.148-1.064-4.663-1.556-5.205-1.1s-.615,2.742-2.72,3.452c0,0,.228,4.36-1.452,4.238s-.757-6.9-.757-6.9L4.315.966,8.774,0,13,.532l3.281.86Z" transform="translate(2.366 4.533)" fill="#263238"/>
          <path id="Path_1554" data-name="Path 1554" d="M2.841.191C2.774.154.063-.837,0,2.084a2.126,2.126,0,0,0,2.781,2.3C2.788,4.3,2.841.191,2.841.191Z" transform="translate(0.84 12.965)" fill="#ffbe9d"/>
          <path id="Path_1555" data-name="Path 1555" d="M1.235,2.321a.8.8,0,0,1-.134.072.471.471,0,0,1-.368,0A1.266,1.266,0,0,1,.2,1.252,1.783,1.783,0,0,1,.349.525.6.6,0,0,1,.493.287.57.57,0,0,1,.728.144.26.26,0,0,1,.895.168a.274.274,0,0,1,.12.123c.035.081.016.139.03.145s.062-.047.043-.167A.336.336,0,0,0,.98.083.363.363,0,0,0,.712,0,.679.679,0,0,0,.395.151.717.717,0,0,0,.188.442,1.82,1.82,0,0,0,0,1.252,1.324,1.324,0,0,0,.687,2.53a.517.517,0,0,0,.233.019.524.524,0,0,0,.218-.086C1.235,2.394,1.235,2.327,1.235,2.321Z" transform="translate(1.55 13.9)" fill="#eb996e"/>
          <path id="Path_1556" data-name="Path 1556" d="M0,.065A1.5,1.5,0,0,1,.978.1a1.562,1.562,0,0,1,.762.637,4.331,4.331,0,0,0-.805-.5A4.421,4.421,0,0,0,0,.065Z" transform="translate(2.248 3.95)" fill="#263238"/>
          <path id="Path_1557" data-name="Path 1557" d="M.113,0c.051,0-.027.615.07,1.345A5.93,5.93,0,0,0,.577,2.617,1.232,1.232,0,0,1,.341,2.3a2.8,2.8,0,0,1-.3-.93A3.146,3.146,0,0,1,.113,0Z" transform="translate(3.83 2.266)" fill="#263238"/>
          <path id="Path_1558" data-name="Path 1558" d="M0,.408C-.015.375.106.272.334.177A2.455,2.455,0,0,1,2.213.2c.226.1.346.2.33.237C2.509.511,1.966.291,1.271.291S.034.495,0,.408Z" transform="translate(15.508 11.737)" fill="#263238"/>
          <path id="Path_1559" data-name="Path 1559" d="M0,.407C-.015.373.106.273.334.176A2.438,2.438,0,0,1,1.277,0,2.376,2.376,0,0,1,2.219.2c.226.1.344.2.33.239A11.982,11.982,0,0,0,1.274.29C.576.287.039.485,0,.407Z" transform="translate(9.226 11.131)" fill="#263238"/>
          <path id="Path_1560" data-name="Path 1560" d="M.036.056a.8.8,0,0,1,0,.173c0,.122,0,.279.014.47s0,.451.016.73A2.783,2.783,0,0,0,.2,2.375,2.476,2.476,0,0,0,.851,3.406,2.352,2.352,0,0,0,1.9,3.981a2.165,2.165,0,0,0,.687.061,2.139,2.139,0,0,0,.7-.153,2.381,2.381,0,0,0,1.16-.972,2.576,2.576,0,0,0,.376-1.426V.056L4.89.122,1.4.089.388.07H.02A2.612,2.612,0,0,1,.367.053l1-.02L4.89,0h.089V1.506a2.7,2.7,0,0,1-.395,1.5A2.516,2.516,0,0,1,3.355,4.037a2.252,2.252,0,0,1-.744.159,2.31,2.31,0,0,1-.722-.07,2.435,2.435,0,0,1-1.1-.612A2.57,2.57,0,0,1,.122,2.422,2.862,2.862,0,0,1,0,1.437C0,1.158,0,.9.018.688s0-.342.013-.465A1.14,1.14,0,0,1,.036.056Z" transform="translate(14.987 12.557)" fill="#263238"/>
          <path id="Path_1561" data-name="Path 1561" d="M.077.05V.693c0,.206,0,.451.014.732a2.949,2.949,0,0,0,.134.947,2.559,2.559,0,0,0,.593.972,2.36,2.36,0,0,0,1.109.632,2.277,2.277,0,0,0,1.391-.092,2.384,2.384,0,0,0,1.157-.969A2.577,2.577,0,0,0,4.852,1.49V.05l.064.067L1.427.084.418.067H.05A2.588,2.588,0,0,1,.393.05l1-.017L4.917,0h.065V1.506a2.719,2.719,0,0,1-.4,1.5A2.519,2.519,0,0,1,3.357,4.034a2.276,2.276,0,0,1-.744.159,2.336,2.336,0,0,1-.725-.07,2.466,2.466,0,0,1-1.16-.677A2.621,2.621,0,0,1,.122,2.419,2.862,2.862,0,0,1,0,1.434C0,1.155,0,.9.02.685A4.394,4.394,0,0,0,.02.22.57.57,0,0,1,.077.05Z" transform="translate(8.367 12.418)" fill="#263238"/>
          <path id="Path_1562" data-name="Path 1562" d="M1.852.075A5.957,5.957,0,0,1,0,.075,5.745,5.745,0,0,1,1.852.075Z" transform="translate(13.23 12.741)" fill="#263238"/>
          <path id="Path_1563" data-name="Path 1563" d="M0,.091A23.426,23.426,0,0,1,2.567.01,23.66,23.66,0,0,1,5.135.074,21.826,21.826,0,0,1,2.569.155,22.161,22.161,0,0,1,0,.091Z" transform="translate(3.322 12.761)" fill="#263238"/>
        </g>
      </g>
      <g id="Group_21699" data-name="Group 21699" transform="translate(0 -1)">
        <text id="Loan_Against_Securities" data-name="Loan Against Securities" transform="translate(601 280)" fill="#ff6700" font-size="22" font-family="OpenSans-Bold, Open Sans" font-weight="700"><tspan x="0" y="0">Loan Against Securities</tspan></text>
        <text id="Your_portfolio_got_your_back_" data-name="Your portfolio got your back!" transform="translate(601 324)" fill="#d9d9d9" font-size="24" font-family="OpenSans, Open Sans"><tspan x="0" y="0">Your portfolio got your back!</tspan></text>
        <text id="Get_instant_funds_against_wide_range_of_your_securities_now_" data-name="Get instant funds against wide range of your securities now!" transform="translate(601 368)" fill="#d9d9d9" font-size="24" font-family="OpenSans, Open Sans"><tspan x="0" y="0">Get instant funds against wide range of your securities now!</tspan></text>
      </g>
    </g>
  </g>
</svg>
