<svg xmlns="http://www.w3.org/2000/svg" width="32.999" height="32.727" viewBox="0 0 32.999 32.727">
  <g id="Group_11583" data-name="Group 11583" transform="translate(-588.999 -228)">
    <path id="Path_29425" data-name="Path 29425" d="M28.535,34.21H18.512l2.174,2.174a2.335,2.335,0,0,1,0,3.381,2.335,2.335,0,0,1-3.381,0l-6.28-6.28a2.335,2.335,0,0,1,0-3.381l6.28-6.28a2.391,2.391,0,0,1,3.381,3.381L18.512,29.38H28.535a2.415,2.415,0,0,1,0,4.831Z" transform="translate(578.699 220.236)" fill="#34d178"/>
    <path id="Path_29426" data-name="Path 29426" d="M40.526,20.786l-6.28,6.28a2.335,2.335,0,0,1-3.381,0,2.335,2.335,0,0,1,0-3.381l2.174-2.174H23.015a2.415,2.415,0,0,1,0-4.831H33.039l-2.174-2.174a2.391,2.391,0,0,1,3.381-3.381l6.28,6.28A2.57,2.57,0,0,1,40.526,20.786Z" transform="translate(580.838 217.6)" fill="#d83831"/>
  </g>
</svg>
