<svg xmlns="http://www.w3.org/2000/svg" width="9.987" height="14.166" viewBox="0 0 9.987 14.166">
  <g id="india" transform="translate(-65.959)">
    <path id="Path_29109" data-name="Path 29109" d="M75.217,3.05H74.158a3.323,3.323,0,0,0-.623-1.633h1.682a.708.708,0,1,0,0-1.416H66.688a.708.708,0,1,0,0,1.416h3.234A2.348,2.348,0,0,1,72.3,3.05H66.688a.73.73,0,0,0,0,1.459h5.535a2.561,2.561,0,0,1-2.6,1.481h-2.3a.711.711,0,0,0,0,1.423h.836l.01,0h1.32c1.434.054,2.072.676,2.438,2.378.286,1.264.5,2.087.662,2.58a3.556,3.556,0,0,0,.8,1.554.857.857,0,0,0,1.247-1.175.07.07,0,0,0,0-.012A20.561,20.561,0,0,1,73.659,9.3a3.3,3.3,0,0,0-1.749-2.55,3.4,3.4,0,0,0,2.136-2.242h1.171a.73.73,0,0,0,0-1.459Z" transform="translate(0 0)" fill="#2a2b43"/>
  </g>
</svg>
