<svg xmlns="http://www.w3.org/2000/svg" width="12.928" height="18.337" viewBox="0 0 12.928 18.337">
  <path id="Path_29109" data-name="Path 29109" d="M77.943,3.948H76.572a4.3,4.3,0,0,0-.807-2.114h2.178a.917.917,0,1,0,0-1.833H66.9a.917.917,0,1,0,0,1.833H71.09c1.322.1,2.707.608,3.072,2.114H66.9a.944.944,0,0,0,0,1.889h7.164A3.315,3.315,0,0,1,70.7,7.754H67.718a.921.921,0,0,0,0,1.842H68.8l.013,0h1.708c1.856.071,2.682.875,3.155,3.078.37,1.636.643,2.7.857,3.339a4.6,4.6,0,0,0,1.03,2.011,1.11,1.11,0,0,0,1.614-1.52.091.091,0,0,0,0-.016,26.616,26.616,0,0,1-1.248-4.45c-.4-1.738-1.139-2.82-2.264-3.3a4.4,4.4,0,0,0,2.764-2.9h1.516a.944.944,0,0,0,0-1.889Z" transform="translate(-65.959 0)" fill="#fff"/>
</svg>
