<svg xmlns="http://www.w3.org/2000/svg" width="30" height="30" viewBox="0 0 30 30">
  <g id="tw" transform="translate(-1165 -763)">
    <circle id="Ellipse_48" data-name="Ellipse 48" cx="15" cy="15" r="15" transform="translate(1165 763)" fill="#fff"/>
    <g id="twitter" transform="translate(1173 772)">
      <g id="Group_8480" data-name="Group 8480" transform="translate(0)">
        <path id="Path_28599" data-name="Path 28599" d="M14,49.347a5.984,5.984,0,0,1-1.654.453,2.854,2.854,0,0,0,1.263-1.586,5.736,5.736,0,0,1-1.82.695,2.87,2.87,0,0,0-4.965,1.963,2.955,2.955,0,0,0,.067.655,8.124,8.124,0,0,1-5.916-3,2.871,2.871,0,0,0,.882,3.836,2.834,2.834,0,0,1-1.3-.354v.032a2.883,2.883,0,0,0,2.3,2.82,2.865,2.865,0,0,1-.753.095,2.538,2.538,0,0,1-.543-.049,2.9,2.9,0,0,0,2.682,2A5.767,5.767,0,0,1,.687,58.126,5.376,5.376,0,0,1,0,58.087a8.08,8.08,0,0,0,4.4,1.288,8.113,8.113,0,0,0,8.169-8.167c0-.127,0-.249-.01-.371A5.726,5.726,0,0,0,14,49.347Z" transform="translate(0 -48)" fill="#55acef"/>
      </g>
    </g>
  </g>
</svg>
