<svg xmlns="http://www.w3.org/2000/svg" width="22" height="14.449" viewBox="0 0 22 14.449">
  <g id="virtualtrading" transform="translate(0 -55.109)">
    <g id="Group_7892" data-name="Group 7892" transform="translate(0 55.109)">
      <g id="Group_7891" data-name="Group 7891" transform="translate(0 0)">
        <path id="Path_28347" data-name="Path 28347" d="M21.989,65.1a20.536,20.536,0,0,0-.6-3.973,15.25,15.25,0,0,0-1.233-3.343c-1.918-3.37-4-2.85-6.494-2.192a17.847,17.847,0,0,1-2.521.493h-.274a17.847,17.847,0,0,1-2.521-.493c-2.494-.63-4.576-1.178-6.494,2.22A13.969,13.969,0,0,0,.615,61.157a20.536,20.536,0,0,0-.6,3.973A7.466,7.466,0,0,0,.4,68.254a2.077,2.077,0,0,0,1.315,1.233,2.679,2.679,0,0,0,1.754-.192A12.879,12.879,0,0,0,6.972,66.8,6.05,6.05,0,0,1,11,65.568,6.05,6.05,0,0,1,15.028,66.8a12.879,12.879,0,0,0,3.507,2.494,2.866,2.866,0,0,0,1.754.192,2.048,2.048,0,0,0,1.315-1.26A7.327,7.327,0,0,0,21.989,65.1Zm-20.962.055C1.081,63.979.971,66.418,1.026,65.157Z" transform="translate(0 -55.109)" fill="#494c60"/>
      </g>
    </g>
    <g id="Group_7894" data-name="Group 7894" transform="translate(3.202 57.583)">
      <g id="Group_7893" data-name="Group 7893" transform="translate(0 0)">
        <path id="Path_28348" data-name="Path 28348" d="M47.75,97.148a1.881,1.881,0,0,0-1.115-.526,1.762,1.762,0,0,0-.5-1.084l-.031-.031a1.753,1.753,0,0,0-1.269-.526,1.828,1.828,0,0,0-1.269.526,1.8,1.8,0,0,0-.526,1.115,1.844,1.844,0,0,0-1.115.5l-.031.031a1.753,1.753,0,0,0-.526,1.269,1.828,1.828,0,0,0,.526,1.269,1.726,1.726,0,0,0,1.145.526,1.652,1.652,0,0,0,.526,1.115,1.753,1.753,0,0,0,1.269.526,1.828,1.828,0,0,0,1.269-.526,1.881,1.881,0,0,0,.526-1.115,1.652,1.652,0,0,0,1.115-.526,1.753,1.753,0,0,0,.526-1.269A1.828,1.828,0,0,0,47.75,97.148Zm-.774,1.734a.63.63,0,0,1-.464.186h-.433a.588.588,0,0,0-.588.588v.4a.65.65,0,1,1-1.3,0v-.433a.588.588,0,0,0-.588-.588h-.433a.635.635,0,0,1-.464-1.084l.031-.031a.74.74,0,0,1,.433-.155H43.6a.588.588,0,0,0,.588-.588v-.433a.657.657,0,0,1,1.115-.464l.031.031a.74.74,0,0,1,.155.433v.433a.588.588,0,0,0,.588.588h.433a.657.657,0,0,1,.464,1.115Z" transform="translate(-41.373 -94.981)" fill="#fff"/>
      </g>
    </g>
    <g id="Group_7896" data-name="Group 7896" transform="translate(14.626 57.921)">
      <g id="Group_7895" data-name="Group 7895" transform="translate(0 0)">
        <circle id="Ellipse_53" data-name="Ellipse 53" cx="1.084" cy="1.084" r="1.084" fill="#fff"/>
      </g>
    </g>
    <g id="Group_7898" data-name="Group 7898" transform="translate(14.626 61.735)">
      <g id="Group_7897" data-name="Group 7897" transform="translate(0 0)">
        <circle id="Ellipse_54" data-name="Ellipse 54" cx="1.084" cy="1.084" r="1.084" fill="#fff"/>
      </g>
    </g>
    <g id="Group_7900" data-name="Group 7900" transform="translate(12.704 59.828)">
      <g id="Group_7899" data-name="Group 7899" transform="translate(0 0)">
        <circle id="Ellipse_55" data-name="Ellipse 55" cx="1.084" cy="1.084" r="1.084" fill="#fff"/>
      </g>
    </g>
    <g id="Group_7902" data-name="Group 7902" transform="translate(16.547 59.828)">
      <g id="Group_7901" data-name="Group 7901" transform="translate(0 0)">
        <circle id="Ellipse_56" data-name="Ellipse 56" cx="1.084" cy="1.084" r="1.084" fill="#fff"/>
      </g>
    </g>
  </g>
</svg>
