<svg xmlns="http://www.w3.org/2000/svg" width="30" height="30" viewBox="0 0 30 30">
  <g id="whatsapp" transform="translate(-1246 -763)">
    <circle id="Ellipse_48" data-name="Ellipse 48" cx="15" cy="15" r="15" transform="translate(1246 763)" fill="#fff"/>
    <path id="whatsapp-2" data-name="whatsapp" d="M12.21,2.044A6.972,6.972,0,0,0,1.239,10.455L.25,14.067l3.7-.969a6.963,6.963,0,0,0,3.331.848h0a6.974,6.974,0,0,0,4.931-11.9ZM7.279,12.769h0a5.787,5.787,0,0,1-2.949-.808l-.211-.126-2.193.575.585-2.138-.138-.219a5.794,5.794,0,1,1,4.908,2.715ZM10.457,8.43c-.174-.087-1.03-.508-1.19-.567s-.276-.087-.392.087-.45.567-.552.683-.2.131-.377.044a4.757,4.757,0,0,1-1.4-.865,5.254,5.254,0,0,1-.969-1.207c-.1-.174,0-.26.076-.355a4.927,4.927,0,0,0,.435-.6.32.32,0,0,0-.015-.305c-.043-.087-.392-.944-.537-1.293s-.285-.294-.392-.3-.218-.006-.334-.006a.64.64,0,0,0-.465.218,1.954,1.954,0,0,0-.61,1.453,3.388,3.388,0,0,0,.711,1.8,7.764,7.764,0,0,0,2.975,2.63,9.97,9.97,0,0,0,.993.367,2.388,2.388,0,0,0,1.1.069,1.794,1.794,0,0,0,1.176-.828,1.455,1.455,0,0,0,.1-.828c-.043-.073-.16-.116-.334-.2Zm0,0" transform="translate(1253.75 771)" fill="#2ba63a" fill-rule="evenodd"/>
  </g>
</svg>
