<svg xmlns="http://www.w3.org/2000/svg" xmlns:xlink="http://www.w3.org/1999/xlink" width="66" height="53" viewBox="0 0 66 53">
  <defs>
    <clipPath id="clip-path">
      <rect id="Rectangle_2955" data-name="Rectangle 2955" width="66" height="53" transform="translate(576 469)" fill="#fff" stroke="#707070" stroke-width="1"/>
    </clipPath>
  </defs>
  <g id="funds_dark" transform="translate(-576 -469)" opacity="0.3" clip-path="url(#clip-path)">
    <g id="Group_8911" data-name="Group 8911" transform="translate(575.965 470.431)" opacity="0.1">
      <g id="Group_8882" data-name="Group 8882" transform="translate(43.042 24.335)">
        <path id="Path_29005" data-name="Path 29005" d="M36.213,31.393H49.835V20.443H36.213Zm6.179-7.577a1.967,1.967,0,0,1,1.8,2.1,1.819,1.819,0,1,1-3.595,0A1.968,1.968,0,0,1,42.392,23.817Z" transform="translate(-36.213 -20.443)" fill="#fff"/>
      </g>
      <g id="Group_8883" data-name="Group 8883" transform="translate(8.669 0)">
        <path id="Path_29006" data-name="Path 29006" d="M40.7,22.314H55.332V14.2a3.364,3.364,0,0,0-3.1-3.574H49.2L47.964,3.715A4.667,4.667,0,0,0,45.913.492,3.223,3.223,0,0,0,43.252.145L9.972,10.459a3.9,3.9,0,0,0-2.167,1.8l.026.017A3.958,3.958,0,0,0,7.338,14.2V30.962a15.259,15.259,0,0,1,4.25-.608A14.793,14.793,0,0,1,26.55,44.938a14.2,14.2,0,0,1-.521,3.813H52.236a3.365,3.365,0,0,0,3.1-3.574V37.307H40.7A1.01,1.01,0,0,1,39.689,36.3V23.324A1.011,1.011,0,0,1,40.7,22.314ZM16.259,10.627,43.852,2.075a1.208,1.208,0,0,1,1.014.144,2.706,2.706,0,0,1,1.111,1.853l1.174,6.554Z" transform="translate(-7.338 0)" fill="#fff"/>
      </g>
      <path id="Path_29007" data-name="Path 29007" d="M12.921,27.5A12.407,12.407,0,0,0,.345,39.7,12.406,12.406,0,0,0,12.921,51.9a12.634,12.634,0,0,0,11.773-7.9,11.815,11.815,0,0,0,.8-4.3A12.408,12.408,0,0,0,12.921,27.5ZM17.768,40.9H14.113V44.55a1.192,1.192,0,0,1-2.383,0V40.9H8.075a1.192,1.192,0,0,1,0-2.384H11.73V34.856a1.192,1.192,0,1,1,2.383,0v3.654h3.654a1.192,1.192,0,0,1,0,2.384Z" transform="translate(0 5.236)" fill="#fff"/>
    </g>
  </g>
</svg>
