<svg xmlns="http://www.w3.org/2000/svg" xmlns:xlink="http://www.w3.org/1999/xlink" width="99.648" height="32.596" viewBox="0 0 99.648 32.596">
  <defs>
    <clipPath id="clip-path">
      <path id="Path_14" data-name="Path 14" d="M149.2,135.823l-4.515-2.607-8.71-5.029c-.484-.279-.965-.11-.965.473v20.489c0,.438.344.626.765.384l8.91-5.145,4.515-2.607,4.34-2.506c.509-.294.46-.7.031-.929S149.2,135.823,149.2,135.823Z" transform="translate(-135.006 -128.056)" fill="none"/>
    </clipPath>
    <linearGradient id="linear-gradient" x1="0.5" x2="0.5" y2="1" gradientUnits="objectBoundingBox">
      <stop offset="0" stop-color="#006aa2"/>
      <stop offset="0.345" stop-color="#2f8da6"/>
      <stop offset="0.786" stop-color="#66b6ac"/>
      <stop offset="1" stop-color="#7cc6af"/>
    </linearGradient>
    <linearGradient id="linear-gradient-2" y1="0.5" x2="1" y2="0.5" gradientUnits="objectBoundingBox">
      <stop offset="0" stop-color="#4ab59d"/>
      <stop offset="1" stop-color="#dfe385"/>
    </linearGradient>
    <linearGradient id="linear-gradient-3" x1="0.5" x2="0.5" y2="1" gradientUnits="objectBoundingBox">
      <stop offset="0" stop-color="#e4282d"/>
      <stop offset="0.316" stop-color="#ba2d4e"/>
      <stop offset="0.777" stop-color="#83357b"/>
      <stop offset="1" stop-color="#6e388d"/>
    </linearGradient>
    <linearGradient id="linear-gradient-4" x1="0.5" x2="0.5" y2="1" gradientUnits="objectBoundingBox">
      <stop offset="0" stop-color="#f07165"/>
      <stop offset="0.659" stop-color="#faa460"/>
      <stop offset="1" stop-color="#ffba5e"/>
    </linearGradient>
  </defs>
  <g id="appstore_google" transform="translate(0)">
    <path id="Path_9" data-name="Path 9" d="M196.289,122.713a4.4,4.4,0,0,1-4.4,4.405H101.046a4.406,4.406,0,0,1-4.405-4.405V98.927a4.405,4.405,0,0,1,4.405-4.4h90.839a4.4,4.4,0,0,1,4.4,4.4Z" transform="translate(-96.641 -94.522)" fill="#1c1e30"/>
    <g id="PLAY" transform="translate(7.511 6.404)">
      <g id="Group_1690" data-name="Group 1690" transform="translate(0 0)" clip-path="url(#clip-path)">
        <path id="Path_10" data-name="Path 10" d="M135.006,126.293v22.183l11.186-11.091Z" transform="translate(-135.006 -126.638)" fill="url(#linear-gradient)"/>
        <path id="Path_11" data-name="Path 11" d="M149.2,134.074l-4.515-2.607-9.675-5.586v.081l11.186,11.092Z" transform="translate(-135.006 -126.306)" fill="url(#linear-gradient-2)"/>
        <path id="Path_12" data-name="Path 12" d="M135.006,194.037v.08l9.675-5.586,4.515-2.607-3-2.979Z" transform="translate(-135.006 -172.199)" fill="url(#linear-gradient-3)"/>
        <path id="Path_13" data-name="Path 13" d="M195.144,167.728l-3,2.979,3,2.979,5.16-2.979Z" transform="translate(-180.954 -159.961)" fill="url(#linear-gradient-4)"/>
      </g>
    </g>
    <g id="Group_1691" data-name="Group 1691" transform="translate(74.44 12.275)">
      <path id="Path_15" data-name="Path 15" d="M482.37,177.627a2.793,2.793,0,0,1-1.151-.232,2.169,2.169,0,0,1-.874-.715h-.07a8.678,8.678,0,0,1,.07,1.071v2.655h-.977v-9.347h.794l.135.883h.047a2.275,2.275,0,0,1,.878-.765,2.667,2.667,0,0,1,1.148-.235,2.384,2.384,0,0,1,1.981.877,4.672,4.672,0,0,1-.011,4.93A2.391,2.391,0,0,1,482.37,177.627Zm-.141-5.857a1.731,1.731,0,0,0-1.43.547,2.819,2.819,0,0,0-.454,1.742v.218a3.228,3.228,0,0,0,.454,1.946,1.724,1.724,0,0,0,1.454.586,1.512,1.512,0,0,0,1.31-.677,3.212,3.212,0,0,0,.474-1.866,3.091,3.091,0,0,0-.474-1.851A1.559,1.559,0,0,0,482.228,171.77Z" transform="translate(-479.368 -168.35)" fill="#f9f9f9"/>
      <path id="Path_16" data-name="Path 16" d="M515.921,166.87h-.977v-9.159h.977Z" transform="translate(-507.979 -157.711)" fill="#f9f9f9"/>
      <path id="Path_17" data-name="Path 17" d="M530.347,177.557l-.194-.918h-.047a2.706,2.706,0,0,1-.963.821,2.926,2.926,0,0,1-1.2.215,2.154,2.154,0,0,1-1.5-.495,1.8,1.8,0,0,1-.545-1.407q0-1.954,3.125-2.048l1.1-.035v-.4a1.634,1.634,0,0,0-.327-1.121,1.342,1.342,0,0,0-1.045-.362,4.254,4.254,0,0,0-1.825.494l-.3-.747a4.59,4.59,0,0,1,1.045-.406A4.523,4.523,0,0,1,528.8,171a2.459,2.459,0,0,1,1.71.512,2.138,2.138,0,0,1,.556,1.642v4.4Zm-2.207-.688a1.985,1.985,0,0,0,1.433-.5,1.852,1.852,0,0,0,.521-1.4v-.583l-.978.041a3.553,3.553,0,0,0-1.68.362,1.092,1.092,0,0,0-.515,1,1,1,0,0,0,.321.806A1.331,1.331,0,0,0,528.14,176.869Z" transform="translate(-516.787 -168.398)" fill="#f9f9f9"/>
      <path id="Path_18" data-name="Path 18" d="M555.222,171.541h1.047l1.413,3.679a14.064,14.064,0,0,1,.577,1.819h.047q.076-.3.32-1.028t1.6-4.47h1.048l-2.773,7.346a3.666,3.666,0,0,1-.963,1.546,2.047,2.047,0,0,1-1.351.456,3.943,3.943,0,0,1-.883-.1v-.783a3.413,3.413,0,0,0,.724.071,1.493,1.493,0,0,0,1.436-1.13l.359-.918Z" transform="translate(-540.371 -168.833)" fill="#f9f9f9"/>
    </g>
    <g id="Group_1693" data-name="Group 1693" transform="translate(30.132 11.551)">
      <path id="Path_19" data-name="Path 19" d="M381.576,172.608a2.2,2.2,0,0,1-.176,3.738.949.949,0,0,0-.378.662.74.74,0,0,0,.351.58l.486.377a2.35,2.35,0,0,1,1.133,1.89c0,1.268-1.228,2.55-3.548,2.55-1.957,0-2.9-.931-2.9-1.93a1.942,1.942,0,0,1,1.039-1.646,5.813,5.813,0,0,1,2.577-.621,1.413,1.413,0,0,1-.405-.917,1.216,1.216,0,0,1,.135-.527c-.149.013-.3.027-.432.027a2.133,2.133,0,0,1-2.24-2.118,2.428,2.428,0,0,1,.863-1.808,3.68,3.68,0,0,1,2.416-.742h2.779l-.864.486Zm-.958,5.991a2.092,2.092,0,0,0-.31-.014,5.391,5.391,0,0,0-1.417.217,1.515,1.515,0,0,0-1.161,1.389c0,.958.932,1.647,2.375,1.647,1.295,0,1.984-.622,1.984-1.458C382.089,179.691,381.644,179.328,380.618,178.6Zm.392-2.564a1.364,1.364,0,0,0,.337-.985c0-.971-.58-2.483-1.7-2.483a1.261,1.261,0,0,0-.945.445,1.56,1.56,0,0,0-.3,1c0,.9.526,2.4,1.687,2.4A1.381,1.381,0,0,0,381.009,176.035Z" transform="translate(-352.131 -168.579)" fill="#f9f9f9"/>
      <path id="Path_20" data-name="Path 20" d="M345.36,177.6a3.179,3.179,0,0,1-3.287-3.18,3.338,3.338,0,0,1,3.49-3.273,3.15,3.15,0,0,1,3.219,3.179A3.292,3.292,0,0,1,345.36,177.6Zm1.684-1.091a2.437,2.437,0,0,0,.4-1.5c0-1.185-.566-3.449-2.236-3.449a1.876,1.876,0,0,0-1.212.459,2.038,2.038,0,0,0-.62,1.644c0,1.333.66,3.528,2.291,3.528A1.721,1.721,0,0,0,347.044,176.5Z" transform="translate(-324.41 -167.791)" fill="#f9f9f9"/>
      <path id="Path_21" data-name="Path 21" d="M308.063,177.6a3.179,3.179,0,0,1-3.287-3.18,3.339,3.339,0,0,1,3.49-3.273,3.15,3.15,0,0,1,3.219,3.179A3.292,3.292,0,0,1,308.063,177.6Zm1.684-1.091a2.439,2.439,0,0,0,.4-1.5c0-1.185-.566-3.449-2.237-3.449a1.877,1.877,0,0,0-1.212.459,2.038,2.038,0,0,0-.62,1.644c0,1.333.66,3.528,2.29,3.528A1.722,1.722,0,0,0,309.747,176.5Z" transform="translate(-294.415 -167.791)" fill="#f9f9f9"/>
      <path id="Path_22" data-name="Path 22" d="M261.188,164.858l-1.937.447a14.331,14.331,0,0,1-2.234.23,4.813,4.813,0,0,1-5.16-4.9,5.12,5.12,0,0,1,5.472-5.065,7.8,7.8,0,0,1,2.072.284,5.278,5.278,0,0,1,1.788.84l-1.124,1.07-.474.108.339-.542a3.871,3.871,0,0,0-2.9-1.272,3.741,3.741,0,0,0-3.752,4,4.79,4.79,0,0,0,4.794,4.943,4.034,4.034,0,0,0,1.72-.339v-2.18l-2.045.108L258.83,162H261.7l-.352.338a.317.317,0,0,0-.136.217c-.014.122-.027.515-.027.651Z" transform="translate(-251.856 -155.265)" fill="#f9f9f9"/>
      <path id="Path_23" data-name="Path 23" d="M412.3,163.229c-.447-.041-.541-.122-.541-.65v-7.666c0-.029,0-.059.007-.088.055-.474.19-.555.61-.8h-1.938l-1.016.488h1.035v8.363c0,.27-.053.311-.365.717h2.4l.5-.3C412.759,163.269,412.529,163.256,412.3,163.229Z" transform="translate(-378.572 -154.026)" fill="#f9f9f9"/>
      <path id="Path_24" data-name="Path 24" d="M432.1,177.137c-.147.081-.3.176-.443.242a3.135,3.135,0,0,1-1.306.255,2.874,2.874,0,0,1-1.789-.525,3.481,3.481,0,0,1-1.371-2.838,3.048,3.048,0,0,1,3.08-3.107,2.614,2.614,0,0,1,1.386.377,2.227,2.227,0,0,1,.94,1.331l-3.16,1.278-1.036.081a2.987,2.987,0,0,0,2.771,2.7,3.476,3.476,0,0,0,1.641-.47Zm-1.264-4.009c.255-.094.39-.175.39-.363a1.335,1.335,0,0,0-1.332-1.157,1.657,1.657,0,0,0-1.547,1.87c0,.229.027.471.041.713Z" transform="translate(-392.862 -167.809)" fill="#f9f9f9"/>
      <g id="Group_1692" data-name="Group 1692" transform="translate(40.134 3.356)">
        <path id="Path_25" data-name="Path 25" d="M457.247,171.257v.888h-.108v-.888h-.294v-.092h.695v.092Z" transform="translate(-456.846 -171.165)" fill="#f9f9f9"/>
        <path id="Path_26" data-name="Path 26" d="M462.038,172.144v-.9h0l-.274.9h-.084l-.276-.9h0v.9h-.1v-.979h.168l.25.792h0l.246-.792h.17v.979Z" transform="translate(-460.426 -171.165)" fill="#f9f9f9"/>
      </g>
    </g>
    <g id="Group_1694" data-name="Group 1694" transform="translate(30.184 6.478)">
      <path id="Path_27" data-name="Path 27" d="M254.641,130.848h-.673a4.465,4.465,0,0,0-.191-.787H252.8a4.066,4.066,0,0,0-.2.787h-.633q0-.082.491-1.346a10.57,10.57,0,0,0,.491-1.392h.795a11.615,11.615,0,0,0,.445,1.372A12.012,12.012,0,0,1,254.641,130.848Zm-.972-1.188a11.9,11.9,0,0,1-.36-1.174h-.034a12.3,12.3,0,0,1-.372,1.174Z" transform="translate(-251.974 -128.047)" fill="#f7f8f8"/>
      <path id="Path_28" data-name="Path 28" d="M270.177,130.848h-.52a5.125,5.125,0,0,0-.578-.911,5.012,5.012,0,0,1-.69-1.188h-.034a7.411,7.411,0,0,1,.053.833q0,.52.029,1.266h-.517q.032-.652.031-1.432t-.031-1.306h.625a3.952,3.952,0,0,0,.519.89,5.238,5.238,0,0,1,.635,1.121h.032a7.976,7.976,0,0,1-.05-.841q0-.57-.03-1.169h.526q-.03.522-.03,1.306T270.177,130.848Z" transform="translate(-264.798 -128.047)" fill="#f7f8f8"/>
      <path id="Path_29" data-name="Path 29" d="M285.514,129.333a1.551,1.551,0,0,1-.383,1.043,1.337,1.337,0,0,1-1.072.446q-.311,0-.858-.025.027-.635.027-1.432,0-.765-.027-1.306h.368q.09,0,.269-.006l.233-.006a1.417,1.417,0,0,1,1.1.379A1.308,1.308,0,0,1,285.514,129.333Zm-.574.09a1.013,1.013,0,0,0-.236-.68.894.894,0,0,0-.719-.277,2.244,2.244,0,0,0-.248.019q.021.421.021.879,0,.5.021,1a1.394,1.394,0,0,0,.273.027.8.8,0,0,0,.67-.281A1.084,1.084,0,0,0,284.939,129.424Z" transform="translate(-277.086 -127.995)" fill="#f7f8f8"/>
      <path id="Path_30" data-name="Path 30" d="M300.268,130.8h-.623a4.138,4.138,0,0,0-.374-.919.491.491,0,0,0-.421-.174l-.234,0q0,.54.019,1.092h-.585q.027-.635.027-1.432,0-.765-.027-1.306h.364q.063,0,.264-.006t.371-.006q.965,0,.965.66a.741.741,0,0,1-.551.73v.032a.656.656,0,0,1,.372.331A7.3,7.3,0,0,1,300.268,130.8Zm-.789-1.935q0-.419-.538-.419a1.848,1.848,0,0,0-.349.03q.023.326.023.85.115,0,.2,0Q299.479,129.327,299.479,128.862Z" transform="translate(-289.03 -127.995)" fill="#f7f8f8"/>
      <path id="Path_31" data-name="Path 31" d="M313.774,129.17a1.511,1.511,0,0,1-.4,1.071,1.283,1.283,0,0,1-.978.425,1.236,1.236,0,0,1-.93-.39,1.374,1.374,0,0,1-.374-.992,1.51,1.51,0,0,1,.4-1.071,1.283,1.283,0,0,1,.978-.425,1.238,1.238,0,0,1,.93.389A1.374,1.374,0,0,1,313.774,129.17Zm-.58.061a1.086,1.086,0,0,0-.225-.713.693.693,0,0,0-.555-.274.642.642,0,0,0-.522.275,1.1,1.1,0,0,0-.215.7,1.083,1.083,0,0,0,.226.712.693.693,0,0,0,.554.275.641.641,0,0,0,.522-.276A1.1,1.1,0,0,0,313.194,129.231Z" transform="translate(-299.522 -127.788)" fill="#f7f8f8"/>
      <path id="Path_32" data-name="Path 32" d="M328.4,130.848h-.6q.027-.652.027-1.432t-.027-1.306h.6q-.027.53-.027,1.306Q328.373,130.209,328.4,130.848Z" transform="translate(-312.958 -128.047)" fill="#f7f8f8"/>
      <path id="Path_33" data-name="Path 33" d="M336.912,129.333a1.551,1.551,0,0,1-.383,1.043,1.337,1.337,0,0,1-1.072.446q-.311,0-.858-.025.027-.635.027-1.432,0-.765-.027-1.306h.368q.09,0,.269-.006l.233-.006a1.417,1.417,0,0,1,1.1.379A1.309,1.309,0,0,1,336.912,129.333Zm-.574.09a1.014,1.014,0,0,0-.236-.68.894.894,0,0,0-.719-.277,2.24,2.24,0,0,0-.248.019q.021.421.021.879,0,.5.021,1a1.4,1.4,0,0,0,.274.027.794.794,0,0,0,.67-.281A1.084,1.084,0,0,0,336.338,129.424Z" transform="translate(-318.422 -127.995)" fill="#f7f8f8"/>
      <path id="Path_34" data-name="Path 34" d="M356.117,130.848h-.673a4.435,4.435,0,0,0-.192-.787h-.972a4.057,4.057,0,0,0-.2.787h-.633q0-.082.491-1.346a10.548,10.548,0,0,0,.491-1.392h.795a11.6,11.6,0,0,0,.445,1.372A12.057,12.057,0,0,1,356.117,130.848Zm-.972-1.188a11.938,11.938,0,0,1-.36-1.174h-.033a12.3,12.3,0,0,1-.372,1.174Z" transform="translate(-333.582 -128.047)" fill="#f7f8f8"/>
      <path id="Path_35" data-name="Path 35" d="M371.394,128.776a.82.82,0,0,1-.374.742,1.659,1.659,0,0,1-.916.24q-.1,0-.141,0,0,.4.023,1.043H369.4q.027-.608.027-1.432,0-.757-.027-1.306h.366q.078,0,.3-.006t.383-.006a1.2,1.2,0,0,1,.675.181A.612.612,0,0,1,371.394,128.776Zm-.543.116q0-.45-.6-.45a1.681,1.681,0,0,0-.315.032q.023.4.023.9c.035,0,.076,0,.122,0Q370.851,129.377,370.851,128.891Z" transform="translate(-346.406 -127.995)" fill="#f7f8f8"/>
      <path id="Path_36" data-name="Path 36" d="M384.278,128.776a.82.82,0,0,1-.373.742,1.66,1.66,0,0,1-.916.24c-.066,0-.113,0-.141,0q0,.4.023,1.043h-.591q.027-.608.027-1.432,0-.757-.027-1.306h.366q.078,0,.3-.006t.383-.006a1.2,1.2,0,0,1,.675.181A.612.612,0,0,1,384.278,128.776Zm-.543.116q0-.45-.6-.45a1.681,1.681,0,0,0-.315.032q.023.4.023.9c.035,0,.076,0,.122,0Q383.735,129.377,383.735,128.891Z" transform="translate(-356.768 -127.995)" fill="#f7f8f8"/>
      <path id="Path_37" data-name="Path 37" d="M402.552,129.17a1.51,1.51,0,0,1-.4,1.071,1.283,1.283,0,0,1-.978.425,1.236,1.236,0,0,1-.93-.39,1.375,1.375,0,0,1-.374-.992,1.511,1.511,0,0,1,.4-1.071,1.283,1.283,0,0,1,.978-.425,1.239,1.239,0,0,1,.93.389A1.375,1.375,0,0,1,402.552,129.17Zm-.58.061a1.085,1.085,0,0,0-.225-.713.692.692,0,0,0-.555-.274.642.642,0,0,0-.522.275,1.1,1.1,0,0,0-.214.7,1.083,1.083,0,0,0,.226.712.692.692,0,0,0,.554.275.641.641,0,0,0,.522-.276A1.1,1.1,0,0,0,401.972,129.231Z" transform="translate(-370.918 -127.788)" fill="#f7f8f8"/>
      <path id="Path_38" data-name="Path 38" d="M418.841,130.848h-.519a5.126,5.126,0,0,0-.578-.911,5.015,5.015,0,0,1-.69-1.188h-.034a7.451,7.451,0,0,1,.052.833q0,.52.03,1.266h-.517q.031-.652.031-1.432t-.031-1.306h.625a3.959,3.959,0,0,0,.52.89,5.235,5.235,0,0,1,.635,1.121h.032a7.931,7.931,0,0,1-.051-.841q0-.57-.029-1.169h.526q-.029.522-.029,1.306T418.841,130.848Z" transform="translate(-384.356 -128.047)" fill="#f7f8f8"/>
    </g>
  </g>
</svg>
