<svg xmlns="http://www.w3.org/2000/svg" xmlns:xlink="http://www.w3.org/1999/xlink" width="264.309" height="123.925" viewBox="0 0 264.309 123.925">
  <defs>
    <linearGradient id="linear-gradient" x1="0.5" y1="0.5" x2="0.5" y2="1" gradientUnits="objectBoundingBox">
      <stop offset="0" stop-color="#d13a43"/>
      <stop offset="1" stop-color="#f1737a" stop-opacity="0"/>
    </linearGradient>
  </defs>
  <g id="chartlose_white" transform="translate(287.121 -14130.405)" opacity="0.05">
    <g id="Group_8867" data-name="Group 8867" transform="translate(-286.23 14130.289)">
      <path id="Path_28751" data-name="Path 28751" d="M19002.088,3859.223c21.492-9.872,15.725-2.953,44.975-3.923,14.979-.5,26.455,11.993,35.41,23.4,7.908,10.073,13.881,19.111,13.881,19.111s7.645,5.748,7.969,5.737c.129,0,6.58.013,6.854,0,.041,0,10.813,1.445,11,1.435,20.873-1.156,24.039,7.162,37.609,5.1,13.707-.479,12.738,4.6,27.412,4.3,1.744-.035,18.57,12.248,18.57,12.248s12.135,7.908,16.43,9.7c2.385.992,5.945,0,11.58,0,2.566,0,10.492,3.457,13.467,3.771,6.291.662,6.922,9.28,12.121,11.042a17.683,17.683,0,0,1,4.848,3.232c3.326,3.674,0,1.347,0,1.347" transform="translate(-19002.77 -3853.289)" fill="none" stroke="#fff" stroke-width="1"/>
    </g>
    <path id="Path_28752" data-name="Path 28752" d="M19001.4,3859.283c21.443-13.239,18.5-3.4,47.686-4.7s37.939,49.041,59.484,48.1,35.49,7.577,49.137,4.789,10.283,5.181,24.926,4.788c9.371-.251,38.248,31.274,45.221,19.952,3.7-6,36.676,22.346,36.676,22.346v20.777h-261.758Z" transform="translate(-19288 10279)" fill="url(#linear-gradient)"/>
  </g>
</svg>
