<svg id="delete_ico" xmlns="http://www.w3.org/2000/svg" width="48.538" height="52.969" viewBox="0 0 48.538 52.969">
  <rect id="Rectangle-path" width="22.952" height="3.443" transform="translate(7.459 20.953)" fill="#86878a"/>
  <path id="Shape" d="M34.4,52.969A14.1,14.1,0,0,1,24.193,48.6H0V0H24.16L36.041,11.881V24.793A14.135,14.135,0,0,1,34.4,52.969Zm0-24.995A10.859,10.859,0,1,0,45.262,38.833,10.871,10.871,0,0,0,34.4,27.974ZM3.276,3.276V45.324H21.848a13.958,13.958,0,0,1-1.56-5.734H7.1V36.313H20.492a14.015,14.015,0,0,1,1.571-4.369H7.1V28.668H24.59a14.167,14.167,0,0,1,3.718-2.587,14.011,14.011,0,0,1,4.456-1.288V14.2H21.843V3.276ZM25.119,5.593v5.328h5.328Z" transform="translate(0 0)" fill="#86878a"/>
  <rect id="Rectangle-path-2" data-name="Rectangle-path" width="14.142" height="3.443" transform="translate(27.134 37.07)" fill="#d13a43"/>
</svg>
