<svg xmlns="http://www.w3.org/2000/svg" width="283.379" height="100.695" viewBox="0 0 283.379 100.695">
  <g id="indicator" transform="translate(-854.239 -668.83)">
    <path id="Union_4" data-name="Union 4" d="M9834.991-745.8h.738a1.453,1.453,0,0,0,1.62,1.28c.971,0,1.54-.571,1.54-1.29,0-2.061-3.839-.761-3.839-3.392a1.982,1.982,0,0,1,2.238-1.869,2.038,2.038,0,0,1,2.251,1.7h-.761a1.429,1.429,0,0,0-1.52-1.1,1.318,1.318,0,0,0-1.5,1.25c0,2.021,3.841.781,3.841,3.382a2.023,2.023,0,0,1-2.251,1.909A2.1,2.1,0,0,1,9834.991-745.8Zm5.66-.242h.679a1.691,1.691,0,0,0,1.8,1.5,1.39,1.39,0,0,0,1.57-1.422c0-1.058-.8-1.52-2.188-1.52h-.22v-.589h.229c1.37,0,2.039-.449,2.039-1.33,0-.759-.51-1.29-1.46-1.29a1.519,1.519,0,0,0-1.65,1.35h-.681a2.127,2.127,0,0,1,2.351-1.959,1.865,1.865,0,0,1,2.121,1.829,1.6,1.6,0,0,1-1.42,1.66v.05a1.784,1.784,0,0,1,1.55,1.862c0,1.088-.731,1.949-2.241,1.949A2.267,2.267,0,0,1,9840.651-746.041ZM9874.12-788.8h.741a1.45,1.45,0,0,0,1.62,1.278c.968,0,1.539-.569,1.539-1.288,0-2.061-3.841-.761-3.841-3.392a1.984,1.984,0,0,1,2.241-1.869,2.038,2.038,0,0,1,2.249,1.7h-.759a1.433,1.433,0,0,0-1.522-1.1,1.318,1.318,0,0,0-1.5,1.25c0,2.021,3.841.781,3.841,3.382a2.02,2.02,0,0,1-2.248,1.909A2.1,2.1,0,0,1,9874.12-788.8Zm5.67,1.749v-.5c2.059-1.54,3.849-3.09,3.849-4.619a1.339,1.339,0,0,0-1.468-1.52,1.612,1.612,0,0,0-1.64,1.739h-.682a2.224,2.224,0,0,1,2.321-2.338,1.974,1.974,0,0,1,2.169,2.089c0,1.829-2.071,3.521-3.479,4.56h3.7v.591Zm57.13-27.752h.739a1.453,1.453,0,0,0,1.622,1.28c.968,0,1.54-.569,1.54-1.29,0-2.059-3.841-.759-3.841-3.389a1.983,1.983,0,0,1,2.238-1.869,2.04,2.04,0,0,1,2.251,1.7h-.759a1.432,1.432,0,0,0-1.52-1.1,1.315,1.315,0,0,0-1.5,1.25c0,2.019,3.838.781,3.838,3.379a2.022,2.022,0,0,1-2.248,1.912A2.1,2.1,0,0,1,9936.92-814.8Zm6.459,1.8v-6.541h-.988v-.629h1.7V-813Z" transform="translate(-8980.752 1489)" fill="#aaa"/>
    <path id="Union_2" data-name="Union 2" d="M9940.65-746.04h.679a1.692,1.692,0,0,0,1.8,1.5,1.39,1.39,0,0,0,1.57-1.42c0-1.061-.8-1.52-2.189-1.52h-.22v-.589h.229c1.371,0,2.04-.452,2.04-1.33,0-.761-.51-1.29-1.461-1.29a1.516,1.516,0,0,0-1.649,1.35h-.679a2.124,2.124,0,0,1,2.349-1.959,1.865,1.865,0,0,1,2.121,1.83,1.606,1.606,0,0,1-1.42,1.66v.05a1.781,1.781,0,0,1,1.55,1.859c0,1.091-.731,1.949-2.241,1.949A2.267,2.267,0,0,1,9940.65-746.04ZM9938.8-744l-1.729-2.92h-1.29V-744h-.7v-6.989h2.1c1.622,0,2.381.879,2.381,2.029a1.927,1.927,0,0,1-1.72,1.989l1.8,2.97Zm-3.02-3.489h1.41c1.138,0,1.649-.619,1.649-1.47,0-.881-.481-1.44-1.662-1.44h-1.4ZM9897.93-787l-1.729-2.918h-1.291V-787h-.7v-6.989h2.1c1.62,0,2.382.879,2.382,2.029a1.929,1.929,0,0,1-1.723,1.989l1.8,2.97Zm-3.021-3.489h1.41c1.141,0,1.65-.619,1.65-1.47,0-.879-.479-1.44-1.66-1.44h-1.4Zm4.88,3.439v-.5c2.062-1.54,3.852-3.09,3.852-4.62a1.34,1.34,0,0,0-1.471-1.52c-1.061,0-1.579.741-1.64,1.74h-.682a2.224,2.224,0,0,1,2.321-2.339,1.972,1.972,0,0,1,2.169,2.089c0,1.83-2.068,3.519-3.479,4.56h3.7v.589ZM9841.379-813v-6.542h-.988v-.629h1.7V-813Zm-2.648,0-1.729-2.92h-1.291V-813h-.7v-6.991h2.1c1.62,0,2.379.881,2.379,2.029a1.93,1.93,0,0,1-1.72,1.992l1.8,2.97Zm-3.021-3.492h1.411c1.138,0,1.649-.619,1.649-1.47,0-.879-.479-1.44-1.66-1.44h-1.4Z" transform="translate(-8807.752 1489)" fill="#aaa"/>
    <path id="Union_3" data-name="Union 3" d="M9844.358-719.708a139.211,139.211,0,0,1,28.472-41.89l7.878,13.331a103.265,103.265,0,0,0-20.378,30.028Zm32.627-46.19a139.211,139.211,0,0,1,41.592-28.9l2.576,15.271A103.224,103.224,0,0,0,9891.37-758.8Zm48.494-31.5a139.175,139.175,0,0,1,49.579-10.354l-3.595,15.061a103.326,103.326,0,0,0-35.516,7.445Z" transform="translate(-8985 1486.193)" fill="#df464f"/>
    <path id="Union_1" data-name="Union 1" d="M9933.426-743.618l7.348-14.258a139.23,139.23,0,0,1,28.174,42.089l-15.312,2.312A103.221,103.221,0,0,0,9933.426-743.618Zm-39.683-31.551,1.746-15.944a139.2,139.2,0,0,1,41.389,29.2l-13.468,7.643A103.312,103.312,0,0,0,9893.743-775.169Zm-49.752-13.475L9839.1-803.92a139.167,139.167,0,0,1,49.687,9.84l-9.194,12.462A103.227,103.227,0,0,0,9843.991-788.644Z" transform="translate(-8842.152 1483)" fill="#44dcaa"/>
  </g>
</svg>
