<svg xmlns="http://www.w3.org/2000/svg" width="21.294" height="22" viewBox="0 0 21.294 22">
  <g id="guest_user_dark" transform="translate(0.266 -0.001)">
    <path id="Path_28349" data-name="Path 28349" d="M84.209,10.02A5.009,5.009,0,1,0,79.2,5.01,5.009,5.009,0,0,0,84.209,10.02ZM80.148,5.01C80.151,2.768,80.148,7.254,80.148,5.01Z" transform="translate(-76.452)" fill="#494c60"/>
    <path id="Path_28350" data-name="Path 28350" d="M20.776,281.375,16.691,279.2a.462.462,0,0,0-.45,0L12.5,281.252a7.884,7.884,0,0,0-4.753-1.55,7.866,7.866,0,0,0-5.678,2.384,8.435,8.435,0,0,0-2.336,5.967.475.475,0,0,0,.474.474l13.185-.024a6.124,6.124,0,0,0,2.322,1.773l.55.242a.438.438,0,0,0,.19.038.54.54,0,0,0,.19-.038l.621-.27a6.137,6.137,0,0,0,3.763-5.664V281.8a.479.479,0,0,0-.251-.422Zm-8.754,3.265a6.132,6.132,0,0,0,.739,2.915Zm8.057-.057a5.19,5.19,0,0,1-3.19,4.792h0l-.431.185-.36-.156a5.208,5.208,0,0,1-3.123-4.768v-2.564l3.5-1.919,3.607,1.924Zm0,0" transform="translate(0 -268.555)" fill="#494c60"/>
    <path id="Path_28351" data-name="Path 28351" d="M385.651,392.057a.474.474,0,0,0-.72.616l1.076,1.256a.477.477,0,0,0,.36.166.468.468,0,0,0,.3-.1l2.5-2.033a.475.475,0,0,0-.6-.735l-2.142,1.744Zm0,0" transform="translate(-370.477 -376.279)" fill="#fff"/>
  </g>
</svg>
