<svg xmlns="http://www.w3.org/2000/svg" width="18.699" height="15.682" viewBox="0 0 18.699 15.682">
  <g id="Group_11519" data-name="Group 11519" transform="translate(22023.3 -13501.802)">
    <g id="withdraw" transform="translate(-22023 13502.102)">
      <g id="Group_8723" data-name="Group 8723">
        <g id="Group_8722" data-name="Group 8722">
          <path id="Path_28944" data-name="Path 28944" d="M15.836,42.667H2.262A2.265,2.265,0,0,0,0,44.929v3.016a2.265,2.265,0,0,0,2.262,2.262H3.771V57a.754.754,0,0,0,.754.754h9.049A.753.753,0,0,0,14.328,57V50.208h1.508A2.265,2.265,0,0,0,18.1,47.946V44.929A2.265,2.265,0,0,0,15.836,42.667Zm.754,5.279a.755.755,0,0,1-.754.754H14.328V47.192h.754a.754.754,0,0,0,0-1.508H3.016a.754.754,0,1,0,0,1.508h.754V48.7H2.262a.755.755,0,0,1-.754-.754V44.929a.755.755,0,0,1,.754-.754H15.836a.755.755,0,0,1,.754.754Z" transform="translate(0 -42.667)" fill="#fff" stroke="#d64a00" stroke-linecap="round" stroke-linejoin="bevel" stroke-width="0.6"/>
        </g>
      </g>
    </g>
    <path id="Path_28949" data-name="Path 28949" d="M124.657,102.376a.251.251,0,0,0-.255-.247h-3.607a.247.247,0,1,0,0,.494h1.032a1.284,1.284,0,0,1,1.267,1h-2.3a.247.247,0,1,0,0,.494h2.3a1.284,1.284,0,0,1-1.267,1h-1.032a.255.255,0,0,0-.237.156.241.241,0,0,0,.062.271l2.58,2.357a.262.262,0,0,0,.249.058.251.251,0,0,0,.176-.18.242.242,0,0,0-.074-.237l-2.114-1.931h.39a1.787,1.787,0,0,0,1.785-1.5h.79a.247.247,0,1,0,0-.494h-.79a1.721,1.721,0,0,0-.529-1h1.32A.251.251,0,0,0,124.657,102.376Zm0,0" transform="translate(-22136.152 13406.28)" fill="#353f4a" stroke="#d64a00" stroke-width="0.3"/>
  </g>
</svg>
