<svg id="Group_8827" data-name="Group 8827" xmlns="http://www.w3.org/2000/svg" width="15.447" height="15.449" viewBox="0 0 15.447 15.449">
  <path id="Path_29104" data-name="Path 29104" d="M4.091.037C3.6.367,3.106.7,2.61,1.023a.321.321,0,0,1-.162.03c-.187,0-.374,0-.561,0a.874.874,0,0,0,0,1.746c.074,0,.147,0,.221,0H13.328V4.569a5.125,5.125,0,0,0-5.812,8.073H1.843A1.752,1.752,0,0,1,0,10.794q0-4.4,0-8.8A1.919,1.919,0,0,1,1.991,0H4.08Z" transform="translate(0 2.109)" fill="#fff"/>
  <path id="Path_29105" data-name="Path 29105" d="M0,4.031A4.036,4.036,0,1,1,4.02,8.072,4.029,4.029,0,0,1,0,4.031Zm4.559.532H5.953V3.5h-1.4V2.117H3.509V3.51H2.12V4.57h1.4V5.955H4.559Z" transform="translate(7.374 7.376)" fill="#fff"/>
  <path id="Path_29106" data-name="Path 29106" d="M9.127,3.86c-.406,0-.789,0-1.171,0-.041,0-.09-.06-.118-.1-.09-.136-.172-.278-.266-.432-.243.162-.476.321-.713.472a.373.373,0,0,1-.185.066c-.77,0-1.541,0-2.311,0a.957.957,0,0,1-.1-.015L6.838,2.117,6.249,1.15c-.076-.124-.167-.1-.272-.034-.319.216-.64.428-.96.642-1,.67-2,1.342-3.01,2.007a.615.615,0,0,1-.312.093c-.5.009-1,0-1.495,0-.054,0-.108-.005-.2-.01.084-.06.136-.1.19-.136L5.358.262a1.2,1.2,0,0,1,1.829.4L9.025,3.679C9.057,3.73,9.084,3.784,9.127,3.86Z" transform="translate(2.92)" fill="#fff"/>
</svg>
