<svg xmlns="http://www.w3.org/2000/svg" width="18" height="18" viewBox="0 0 18 18">
  <g id="checkbox_selected" transform="translate(-114 -138)">
    <g id="Group_8062" data-name="Group 8062" transform="translate(1502 15376)">
      <path id="Path_28551" data-name="Path 28551" d="M9,0A9,9,0,1,1,0,9,9,9,0,0,1,9,0Z" transform="translate(-1388 -15238)" fill="#292c40"/>
    </g>
    <g id="Group_8108" data-name="Group 8108" transform="translate(1502.894 15376.895)">
      <path id="Path_28551-2" data-name="Path 28551" d="M8.106,0A8.106,8.106,0,1,1,0,8.106,8.106,8.106,0,0,1,8.106,0Z" transform="translate(-1388 -15238)" fill="#222337"/>
      <path id="Path_28560" data-name="Path 28560" d="M5.063,0A5.063,5.063,0,1,1,0,5.063,5.063,5.063,0,0,1,5.063,0Z" transform="translate(-1384.958 -15234.958)" fill="#ecc983"/>
    </g>
  </g>
</svg>
