<svg xmlns="http://www.w3.org/2000/svg" width="264" height="74.561" viewBox="0 0 264 74.561">
  <g id="Bajaj_logo" transform="translate(-62.1 -51.4)">
    <g id="Group_22420" data-name="Group 22420" transform="translate(110.625 51.4)">
      <path id="Path_34479" data-name="Path 34479" d="M271.1,72.955V56.1h14.912c3.06,0,8.015.437,8.015,4.42,0,1.992-1.749,3.352-3.74,3.886,2.526.729,3.74,2.137,3.74,4.032,0,4.129-4.712,4.517-8.015,4.566L271.1,72.955Zm5.44-7.092,1.554-2.574a2.145,2.145,0,0,1,1.8-.923h6.12c1.069,0,1.992-.486,1.992-1.36,0-.826-.874-1.36-1.992-1.36h-9.423v6.217Zm0,0v7.092l1.554-2.574a2.145,2.145,0,0,1,1.8-.923h6.023a1.918,1.918,0,0,0,2.04-1.8,1.889,1.889,0,0,0-2.04-1.8Zm30.747-5.683L299.9,73h-6.46l10.3-16.9h7.043l10.3,16.855h-6.412l-1.749-3.012h-9.569l1.6-2.574a2.145,2.145,0,0,1,1.8-.923h4.129Zm44.785,0L344.69,73h-6.46l10.3-16.9h7.043l10.3,16.855h-6.412l-1.749-3.012h-9.569l1.554-2.574a2.122,2.122,0,0,1,1.749-.923h4.129l-3.5-6.266Zm-20.984,9.229c1.263,0,2.234-.583,2.234-1.846V56.1h5.44v12c0,3.643-2.429,4.857-5.586,4.857h-9.132a2.21,2.21,0,0,1-1.8-.923l-1.6-2.623Zm44.785,0c1.263,0,2.283-.583,2.283-1.846V56.1h5.489v12c0,3.643-2.38,4.857-5.537,4.857h-9.132a2.21,2.21,0,0,1-1.8-.923l-1.6-2.623Z" transform="translate(-218.106 -53.817)" fill="#fff"/>
      <path id="Path_34480" data-name="Path 34480" d="M271,102.4h13.5v4.08h-8.84v4.032h7.966V114.4h-7.966v4.857H271Z" transform="translate(-218.054 -77.627)" fill="#fff"/>
      <path id="Path_34481" data-name="Path 34481" d="M305.4,102.4h4.712v16.9H305.4Z" transform="translate(-235.745 -77.627)" fill="#fff"/>
      <path id="Path_34482" data-name="Path 34482" d="M323.4,102.4h4.372l6.946,8.938V102.4h4.615v16.9h-4.08l-7.189-9.278V119.3H323.4Z" transform="translate(-245.001 -77.627)" fill="#fff"/>
      <path id="Path_34483" data-name="Path 34483" d="M361.7,116.521l2.623-3.109a8.987,8.987,0,0,0,5.489,2.04c1.263,0,1.943-.437,1.943-1.166v-.049c0-.68-.534-1.069-2.866-1.6-3.595-.826-6.363-1.846-6.363-5.295v-.049c0-3.157,2.477-5.392,6.558-5.392a10.732,10.732,0,0,1,6.946,2.234l-2.332,3.3a8.657,8.657,0,0,0-4.712-1.652c-1.117,0-1.7.486-1.7,1.069v.049c0,.777.583,1.117,2.914,1.652,3.886.826,6.315,2.089,6.315,5.246v.049c0,3.449-2.72,5.489-6.8,5.489A12.038,12.038,0,0,1,361.7,116.521Z" transform="translate(-264.698 -77.37)" fill="#fff"/>
      <path id="Path_34484" data-name="Path 34484" d="M398.7,102.4h13.6v3.983h-8.938v2.574h8.112v3.692h-8.112v2.672h9.083V119.3h-13.7V102.4Z" transform="translate(-283.725 -77.627)" fill="#fff"/>
      <path id="Path_34485" data-name="Path 34485" d="M433.9,102.4h7.966c2.574,0,4.372.68,5.489,1.846a5.346,5.346,0,0,1,1.506,3.934v.049a5.357,5.357,0,0,1-3.5,5.2L449.4,119.3H444l-3.4-5.1h-2.04v5.1H433.9V102.4Zm7.723,8.112c1.6,0,2.526-.777,2.526-1.992v-.049c0-1.311-.971-1.992-2.526-1.992h-3.06v4.032Z" transform="translate(-301.827 -77.627)" fill="#fff"/>
      <path id="Path_34486" data-name="Path 34486" d="M467.8,102.4h5.246l3.837,10.686,3.837-10.686h5.149l-6.849,17H474.7Z" transform="translate(-319.261 -77.627)" fill="#fff"/>
      <path id="Path_34487" data-name="Path 34487" d="M197.8,79.087c0,6.023-6.7,6.557-11.463,6.606h-4.275V80.3h8.5V76.173h-8.5V70.538h9.423V66.167H177.058V85.693h-5.489V61.163h14.767c4.372,0,11.463.631,11.463,6.412,0,2.866-2.477,5-5.343,5.683C196,74.424,197.8,76.173,197.8,79.087ZM184.053,51.4a22.053,22.053,0,1,0,22.053,22.053h0A22.1,22.1,0,0,0,184.053,51.4Z" transform="translate(-162 -51.4)" fill="#fff"/>
    </g>
    <g id="Group_22421" data-name="Group 22421" transform="translate(62.1 116.052)">
      <path id="Path_34488" data-name="Path 34488" d="M62.44,194.521a.332.332,0,0,1-.34-.34v-8.84a.332.332,0,0,1,.34-.34h4.129a4.267,4.267,0,0,1,1.894.34,2.354,2.354,0,0,1,1.117.923,2.7,2.7,0,0,1,.34,1.457,1.663,1.663,0,0,1-.194.874,7.106,7.106,0,0,1-.437.631.994.994,0,0,1-.486.34,2.388,2.388,0,0,1,1.312,2.137,3.2,3.2,0,0,1-.389,1.554,2.527,2.527,0,0,1-1.166.971,4.407,4.407,0,0,1-1.894.34H62.44Zm2.089-5.732h1.8a1.068,1.068,0,0,0,.826-.291,1.056,1.056,0,0,0,0-1.457,1.143,1.143,0,0,0-.826-.291h-1.8Zm0,3.983h1.894a1.039,1.039,0,0,0,.874-.34,1.191,1.191,0,0,0,.291-.777,1.226,1.226,0,0,0-.291-.826,1.039,1.039,0,0,0-.874-.34H64.529Z" transform="translate(-62.1 -184.757)" fill="#fff"/>
      <path id="Path_34489" data-name="Path 34489" d="M80.091,194.521a.343.343,0,0,1-.291-.291v-.146l3.206-8.743a1.062,1.062,0,0,1,.146-.243.41.41,0,0,1,.34-.1h1.992a.566.566,0,0,1,.34.1.853.853,0,0,1,.194.243l3.206,8.743c0,.049.049.1.049.146a.343.343,0,0,1-.291.291H87.329a.411.411,0,0,1-.291-.1c-.049-.049-.1-.146-.146-.194l-.534-1.409H82.714l-.534,1.409c0,.049-.049.1-.146.194a.566.566,0,0,1-.34.1Zm3.157-3.643h2.526l-1.263-3.594Z" transform="translate(-71.202 -184.757)" fill="#fff"/>
      <path id="Path_34490" data-name="Path 34490" d="M103.834,194.666a4.6,4.6,0,0,1-1.457-.194,5.024,5.024,0,0,1-1.263-.583,3.386,3.386,0,0,1-.874-.971,2.962,2.962,0,0,1-.34-1.36.252.252,0,0,1,.1-.194.368.368,0,0,1,.194-.1h1.846a.411.411,0,0,1,.291.1.747.747,0,0,1,.194.291,2.439,2.439,0,0,0,.243.631,1.11,1.11,0,0,0,.486.34,1.544,1.544,0,0,0,.68.1,1.356,1.356,0,0,0,1.069-.437,2.01,2.01,0,0,0,.389-1.312V187.04H100.92c-.1,0-.146-.049-.243-.1a.371.371,0,0,1-.1-.243v-1.36a.332.332,0,0,1,.34-.34h6.606a.332.332,0,0,1,.34.34v5.683a3.685,3.685,0,0,1-.534,1.992,3.111,3.111,0,0,1-1.409,1.214A4.577,4.577,0,0,1,103.834,194.666Z" transform="translate(-81.539 -184.757)" fill="#fff"/>
      <path id="Path_34491" data-name="Path 34491" d="M118.091,194.521a.343.343,0,0,1-.291-.291v-.146l3.206-8.743a1.061,1.061,0,0,1,.146-.243.41.41,0,0,1,.34-.1h1.992a.566.566,0,0,1,.34.1.853.853,0,0,1,.194.243l3.206,8.743c0,.049.049.1.049.146a.343.343,0,0,1-.291.291h-1.652a.411.411,0,0,1-.291-.1c-.049-.049-.1-.146-.146-.194l-.534-1.409h-3.643l-.534,1.409c0,.049-.049.1-.146.194a.566.566,0,0,1-.34.1Zm3.206-3.643h2.526l-1.263-3.594Z" transform="translate(-90.744 -184.757)" fill="#fff"/>
      <path id="Path_34492" data-name="Path 34492" d="M141.934,194.666a4.6,4.6,0,0,1-1.457-.194,5.024,5.024,0,0,1-1.263-.583,3.385,3.385,0,0,1-.874-.971,2.962,2.962,0,0,1-.34-1.36.252.252,0,0,1,.1-.194.368.368,0,0,1,.194-.1h1.846a.411.411,0,0,1,.291.1.747.747,0,0,1,.194.291,2.441,2.441,0,0,0,.243.631,1.111,1.111,0,0,0,.486.34,1.544,1.544,0,0,0,.68.1,1.356,1.356,0,0,0,1.069-.437,2.01,2.01,0,0,0,.389-1.312V187.04h-4.42c-.1,0-.146-.049-.243-.1a.371.371,0,0,1-.1-.243v-1.36a.332.332,0,0,1,.34-.34h6.606a.332.332,0,0,1,.34.34v5.683a3.685,3.685,0,0,1-.534,1.992,3.111,3.111,0,0,1-1.409,1.214A5.1,5.1,0,0,1,141.934,194.666Z" transform="translate(-101.132 -184.757)" fill="#fff"/>
      <path id="Path_34493" data-name="Path 34493" d="M164.44,194.521a.332.332,0,0,1-.34-.34v-8.84a.332.332,0,0,1,.34-.34h6.266a.332.332,0,0,1,.34.34v1.36a.332.332,0,0,1-.34.34H166.48v1.992h3.935a.332.332,0,0,1,.34.34v1.36c0,.1-.049.146-.1.243a.371.371,0,0,1-.243.1H166.48v3.06a.332.332,0,0,1-.34.34h-1.7Z" transform="translate(-114.554 -184.757)" fill="#fff"/>
      <path id="Path_34494" data-name="Path 34494" d="M181.64,194.521a.332.332,0,0,1-.34-.34v-8.84a.332.332,0,0,1,.34-.34h1.846a.332.332,0,0,1,.34.34v8.84a.332.332,0,0,1-.34.34Z" transform="translate(-123.4 -184.757)" fill="#fff"/>
      <path id="Path_34495" data-name="Path 34495" d="M190.74,194.521a.332.332,0,0,1-.34-.34v-8.84a.332.332,0,0,1,.34-.34H192.2a.7.7,0,0,1,.34.1l.146.146,3.3,5.246V185.34a.332.332,0,0,1,.34-.34h1.652a.332.332,0,0,1,.34.34v8.84a.332.332,0,0,1-.34.34H196.52a.7.7,0,0,1-.34-.1c-.049-.049-.1-.146-.146-.146l-3.3-5.052v4.955a.332.332,0,0,1-.34.34Z" transform="translate(-128.079 -184.757)" fill="#fff"/>
      <path id="Path_34496" data-name="Path 34496" d="M209.091,194.521a.343.343,0,0,1-.291-.291v-.146l3.206-8.743a1.062,1.062,0,0,1,.146-.243.41.41,0,0,1,.34-.1h1.992a.566.566,0,0,1,.34.1.853.853,0,0,1,.194.243l3.206,8.743c0,.049.049.1.049.146a.343.343,0,0,1-.291.291h-1.652a.411.411,0,0,1-.291-.1c-.049-.049-.1-.146-.146-.194l-.534-1.409h-3.643l-.534,1.409c0,.049-.049.1-.146.194a.566.566,0,0,1-.34.1Zm3.206-3.643h2.526l-1.263-3.594Z" transform="translate(-137.542 -184.757)" fill="#fff"/>
      <path id="Path_34497" data-name="Path 34497" d="M230.94,194.521a.332.332,0,0,1-.34-.34v-8.84a.332.332,0,0,1,.34-.34H232.4a.7.7,0,0,1,.34.1l.146.146,3.3,5.246V185.34a.332.332,0,0,1,.34-.34h1.652a.332.332,0,0,1,.34.34v8.84a.332.332,0,0,1-.34.34H236.72a.7.7,0,0,1-.34-.1c-.049-.049-.1-.146-.146-.146l-3.3-5.052v4.955a.332.332,0,0,1-.34.34Z" transform="translate(-148.753 -184.757)" fill="#fff"/>
      <path id="Path_34498" data-name="Path 34498" d="M254.377,194.512a4.866,4.866,0,0,1-2.186-.437,3.149,3.149,0,0,1-1.409-1.214,4.212,4.212,0,0,1-.583-2.04v-2.429a4.179,4.179,0,0,1,.583-1.992,3.379,3.379,0,0,1,1.457-1.263,5.165,5.165,0,0,1,2.186-.437,5.89,5.89,0,0,1,1.652.243,4.7,4.7,0,0,1,1.311.631,2.967,2.967,0,0,1,.874,1.02,3.128,3.128,0,0,1,.34,1.36c0,.1,0,.146-.1.194a.368.368,0,0,1-.194.1h-1.846a.69.69,0,0,1-.291-.1.79.79,0,0,1-.146-.291,1.489,1.489,0,0,0-.631-.971,1.839,1.839,0,0,0-1.069-.243,1.576,1.576,0,0,0-1.166.437,2.062,2.062,0,0,0-.486,1.36,17.9,17.9,0,0,0,0,2.283,1.962,1.962,0,0,0,.486,1.36,1.576,1.576,0,0,0,1.166.437,1.847,1.847,0,0,0,1.069-.291,1.628,1.628,0,0,0,.631-.971.79.79,0,0,1,.146-.291.41.41,0,0,1,.291-.1h1.846a.252.252,0,0,1,.194.1.369.369,0,0,1,.1.194,2.575,2.575,0,0,1-.34,1.36,2.892,2.892,0,0,1-.874,1.02,4.1,4.1,0,0,1-1.311.631A4.25,4.25,0,0,1,254.377,194.512Z" transform="translate(-158.832 -184.603)" fill="#fff"/>
      <path id="Path_34499" data-name="Path 34499" d="M270.74,194.521a.332.332,0,0,1-.34-.34v-8.84a.332.332,0,0,1,.34-.34h1.846a.332.332,0,0,1,.34.34v8.84a.332.332,0,0,1-.34.34Z" transform="translate(-169.22 -184.757)" fill="#fff"/>
      <path id="Path_34500" data-name="Path 34500" d="M277.991,194.521a.343.343,0,0,1-.291-.291v-.146l3.206-8.743a1.064,1.064,0,0,1,.146-.243.41.41,0,0,1,.34-.1h1.992a.566.566,0,0,1,.34.1.853.853,0,0,1,.194.243l3.206,8.743c0,.049.049.1.049.146a.343.343,0,0,1-.291.291h-1.652a.411.411,0,0,1-.291-.1c-.049-.049-.1-.146-.146-.194l-.534-1.409h-3.643l-.534,1.409c0,.049-.049.1-.146.194a.566.566,0,0,1-.34.1Zm3.206-3.643h2.526l-1.263-3.594Z" transform="translate(-172.974 -184.757)" fill="#fff"/>
      <path id="Path_34501" data-name="Path 34501" d="M299.84,194.521a.332.332,0,0,1-.34-.34v-8.84a.332.332,0,0,1,.34-.34h1.8c.1,0,.146.049.243.1a.371.371,0,0,1,.1.243v7.14h4.129a.332.332,0,0,1,.34.34v1.36a.332.332,0,0,1-.34.34Z" transform="translate(-184.185 -184.757)" fill="#fff"/>
      <path id="Path_34502" data-name="Path 34502" d="M324.48,194.409a5.765,5.765,0,0,1-2.234-.389,2.972,2.972,0,0,1-1.36-1.02,2.43,2.43,0,0,1-.486-1.312.344.344,0,0,1,.291-.291h1.7c.146,0,.243,0,.291.049s.146.1.194.194a1.168,1.168,0,0,0,.291.389.959.959,0,0,0,.534.291,1.894,1.894,0,0,0,.777.1,2.676,2.676,0,0,0,1.214-.243.689.689,0,0,0,.389-.68.563.563,0,0,0-.194-.486,1.774,1.774,0,0,0-.68-.34c-.34-.1-.729-.194-1.263-.34a7.373,7.373,0,0,1-1.749-.583,2.666,2.666,0,0,1-1.117-.923,2.535,2.535,0,0,1-.389-1.409,2.427,2.427,0,0,1,.486-1.506,2.825,2.825,0,0,1,1.312-1.02,5.017,5.017,0,0,1,1.992-.389,5.631,5.631,0,0,1,1.651.243,4.091,4.091,0,0,1,1.214.631,2.9,2.9,0,0,1,.729.874,1.98,1.98,0,0,1,.243.874.344.344,0,0,1-.291.291h-1.8a.364.364,0,0,1-.243-.049.379.379,0,0,1-.194-.194.9.9,0,0,0-.437-.534,1.728,1.728,0,0,0-.923-.243,1.632,1.632,0,0,0-.923.194.659.659,0,0,0-.34.631.624.624,0,0,0,.194.486,1.536,1.536,0,0,0,.631.34,10.08,10.08,0,0,0,1.166.291,7.553,7.553,0,0,1,1.992.583,2.994,2.994,0,0,1,1.117.874,2.359,2.359,0,0,1,.34,1.36,2.547,2.547,0,0,1-.534,1.6,3.285,3.285,0,0,1-1.457,1.02A5.8,5.8,0,0,1,324.48,194.409Z" transform="translate(-194.933 -184.5)" fill="#fff"/>
      <path id="Path_34503" data-name="Path 34503" d="M340.44,194.521a.332.332,0,0,1-.34-.34v-8.84a.332.332,0,0,1,.34-.34H346.8a.332.332,0,0,1,.34.34V186.6a.332.332,0,0,1-.34.34H342.48v1.846h4.032a.332.332,0,0,1,.34.34v1.166c0,.1-.049.146-.1.243a.371.371,0,0,1-.243.1H342.48v1.894h4.469a.332.332,0,0,1,.34.34v1.263a.332.332,0,0,1-.34.34H340.44Z" transform="translate(-205.064 -184.757)" fill="#fff"/>
      <path id="Path_34504" data-name="Path 34504" d="M361.377,194.512a4.866,4.866,0,0,1-2.186-.437,3.149,3.149,0,0,1-1.409-1.214,4.212,4.212,0,0,1-.583-2.04v-2.429a4.179,4.179,0,0,1,.583-1.992,3.379,3.379,0,0,1,1.457-1.263,5.165,5.165,0,0,1,2.186-.437,5.89,5.89,0,0,1,1.651.243,4.7,4.7,0,0,1,1.312.631,2.967,2.967,0,0,1,.874,1.02,3.127,3.127,0,0,1,.34,1.36c0,.1,0,.146-.1.194a.368.368,0,0,1-.194.1h-1.846a.69.69,0,0,1-.291-.1.79.79,0,0,1-.146-.291,1.49,1.49,0,0,0-.631-.971,1.839,1.839,0,0,0-1.069-.243,1.576,1.576,0,0,0-1.166.437,2.062,2.062,0,0,0-.486,1.36,17.894,17.894,0,0,0,0,2.283,1.963,1.963,0,0,0,.486,1.36,1.576,1.576,0,0,0,1.166.437,1.847,1.847,0,0,0,1.069-.291,1.628,1.628,0,0,0,.631-.971.79.79,0,0,1,.146-.291.41.41,0,0,1,.291-.1h1.846a.252.252,0,0,1,.194.1.369.369,0,0,1,.1.194,2.575,2.575,0,0,1-.34,1.36,2.892,2.892,0,0,1-.874,1.02,4.1,4.1,0,0,1-1.312.631A3.942,3.942,0,0,1,361.377,194.512Z" transform="translate(-213.858 -184.603)" fill="#fff"/>
      <path id="Path_34505" data-name="Path 34505" d="M381.432,194.718a5.6,5.6,0,0,1-2.137-.389,3.149,3.149,0,0,1-1.409-1.214,3.982,3.982,0,0,1-.486-2.137V185.44a.332.332,0,0,1,.34-.34h1.749a.332.332,0,0,1,.34.34v5.537a1.781,1.781,0,0,0,.437,1.311,1.616,1.616,0,0,0,1.214.437,1.693,1.693,0,0,0,1.214-.437,1.781,1.781,0,0,0,.437-1.311V185.44a.332.332,0,0,1,.34-.34h1.749c.1,0,.146.049.243.1a.371.371,0,0,1,.1.243v5.537a4.1,4.1,0,0,1-.486,2.137,3.111,3.111,0,0,1-1.409,1.214A6.746,6.746,0,0,1,381.432,194.718Z" transform="translate(-224.246 -184.809)" fill="#fff"/>
      <path id="Path_34506" data-name="Path 34506" d="M398.04,194.521a.332.332,0,0,1-.34-.34v-8.84a.332.332,0,0,1,.34-.34h3.692a4.371,4.371,0,0,1,2.769.826,3.059,3.059,0,0,1,.534,3.934,3.114,3.114,0,0,1-1.214,1.02l1.894,3.352a.178.178,0,0,1,.049.146.343.343,0,0,1-.291.291h-1.8a.478.478,0,0,1-.389-.146.854.854,0,0,1-.194-.243l-1.554-3.012h-1.409v3.012a.332.332,0,0,1-.34.34Zm2.137-5.295h1.554a1.45,1.45,0,0,0,.971-.291,1.2,1.2,0,0,0,.34-.874,1.356,1.356,0,0,0-.292-.874,1.187,1.187,0,0,0-.971-.34h-1.554v2.38Z" transform="translate(-234.686 -184.757)" fill="#fff"/>
      <path id="Path_34507" data-name="Path 34507" d="M417.44,194.521a.332.332,0,0,1-.34-.34v-8.84a.332.332,0,0,1,.34-.34h1.846a.332.332,0,0,1,.34.34v8.84a.332.332,0,0,1-.34.34Z" transform="translate(-244.662 -184.757)" fill="#fff"/>
      <path id="Path_34508" data-name="Path 34508" d="M427.909,194.521a.332.332,0,0,1-.34-.34v-7.043H425.14a.332.332,0,0,1-.34-.34V185.34a.332.332,0,0,1,.34-.34h7.335a.332.332,0,0,1,.34.34V186.8a.332.332,0,0,1-.34.34h-2.429v7.043a.332.332,0,0,1-.34.34Z" transform="translate(-248.622 -184.757)" fill="#fff"/>
      <path id="Path_34509" data-name="Path 34509" d="M444.14,194.521a.332.332,0,0,1-.34-.34v-8.84a.332.332,0,0,1,.34-.34h1.846a.332.332,0,0,1,.34.34v8.84a.332.332,0,0,1-.34.34Z" transform="translate(-258.393 -184.757)" fill="#fff"/>
      <path id="Path_34510" data-name="Path 34510" d="M453.24,194.521a.332.332,0,0,1-.34-.34v-8.84a.332.332,0,0,1,.34-.34H459.6a.332.332,0,0,1,.34.34V186.6a.332.332,0,0,1-.34.34H455.28v1.846h4.032a.332.332,0,0,1,.34.34v1.166c0,.1-.049.146-.1.243a.371.371,0,0,1-.243.1H455.28v1.894h4.469a.332.332,0,0,1,.34.34v1.263a.332.332,0,0,1-.34.34H453.24Z" transform="translate(-263.073 -184.757)" fill="#fff"/>
      <path id="Path_34511" data-name="Path 34511" d="M473.78,194.409a5.765,5.765,0,0,1-2.234-.389,2.971,2.971,0,0,1-1.36-1.02,2.43,2.43,0,0,1-.486-1.312.343.343,0,0,1,.291-.291h1.7c.146,0,.243,0,.291.049s.146.1.194.194a1.169,1.169,0,0,0,.291.389.96.96,0,0,0,.534.291,1.894,1.894,0,0,0,.777.1,2.676,2.676,0,0,0,1.214-.243.689.689,0,0,0,.389-.68.563.563,0,0,0-.194-.486,1.776,1.776,0,0,0-.68-.34c-.34-.1-.729-.194-1.263-.34a7.372,7.372,0,0,1-1.749-.583,2.666,2.666,0,0,1-1.117-.923,2.535,2.535,0,0,1-.389-1.409,2.427,2.427,0,0,1,.486-1.506,2.825,2.825,0,0,1,1.311-1.02,5.018,5.018,0,0,1,1.992-.389,5.632,5.632,0,0,1,1.652.243,4.092,4.092,0,0,1,1.214.631,2.9,2.9,0,0,1,.729.874,1.979,1.979,0,0,1,.243.874.343.343,0,0,1-.291.291h-1.8a.364.364,0,0,1-.243-.049.379.379,0,0,1-.194-.194.9.9,0,0,0-.437-.534,1.728,1.728,0,0,0-.923-.243,1.633,1.633,0,0,0-.923.194.659.659,0,0,0-.34.631.624.624,0,0,0,.194.486,1.536,1.536,0,0,0,.631.34,10.08,10.08,0,0,0,1.166.291,7.554,7.554,0,0,1,1.992.583,3,3,0,0,1,1.117.874,2.36,2.36,0,0,1,.34,1.36,2.547,2.547,0,0,1-.534,1.6,3.284,3.284,0,0,1-1.457,1.02A6.086,6.086,0,0,1,473.78,194.409Z" transform="translate(-271.712 -184.5)" fill="#fff"/>
      <path id="Path_34512" data-name="Path 34512" d="M495.64,194.521a.332.332,0,0,1-.34-.34v-8.84a.332.332,0,0,1,.34-.34h1.8c.1,0,.146.049.243.1a.371.371,0,0,1,.1.243v7.14h4.129a.332.332,0,0,1,.34.34v1.36a.332.332,0,0,1-.34.34Z" transform="translate(-284.877 -184.757)" fill="#fff"/>
      <path id="Path_34513" data-name="Path 34513" d="M512.34,194.521a.332.332,0,0,1-.34-.34v-8.84a.332.332,0,0,1,.34-.34h1.846a.332.332,0,0,1,.34.34v8.84a.332.332,0,0,1-.34.34Z" transform="translate(-293.465 -184.757)" fill="#fff"/>
      <path id="Path_34514" data-name="Path 34514" d="M521.44,194.521a.332.332,0,0,1-.34-.34v-8.84a.332.332,0,0,1,.34-.34H522.9a.7.7,0,0,1,.34.1c.1.1.146.146.146.194l2.38,4.275,2.38-4.275a.67.67,0,0,0,.146-.194c.049-.1.194-.1.34-.1h1.457a.332.332,0,0,1,.34.34v8.84a.332.332,0,0,1-.34.34h-1.6a.332.332,0,0,1-.34-.34v-5.1l-1.554,2.866a.67.67,0,0,1-.146.194.521.521,0,0,1-.291.1h-.729a.411.411,0,0,1-.291-.1l-.194-.194-1.554-2.866v5.1a.332.332,0,0,1-.34.34Z" transform="translate(-298.145 -184.757)" fill="#fff"/>
      <path id="Path_34515" data-name="Path 34515" d="M544.54,194.521a.332.332,0,0,1-.34-.34v-8.84a.332.332,0,0,1,.34-.34h1.846a.332.332,0,0,1,.34.34v8.84a.332.332,0,0,1-.34.34Z" transform="translate(-310.025 -184.757)" fill="#fff"/>
      <path id="Path_34516" data-name="Path 34516" d="M555.009,194.521a.332.332,0,0,1-.34-.34v-7.043H552.24a.332.332,0,0,1-.34-.34V185.34a.332.332,0,0,1,.34-.34h7.335a.332.332,0,0,1,.34.34V186.8a.332.332,0,0,1-.34.34h-2.429v7.043a.332.332,0,0,1-.34.34Z" transform="translate(-313.984 -184.757)" fill="#fff"/>
      <path id="Path_34517" data-name="Path 34517" d="M571.24,194.521a.332.332,0,0,1-.34-.34v-8.84a.332.332,0,0,1,.34-.34H577.6a.332.332,0,0,1,.34.34V186.6a.332.332,0,0,1-.34.34H573.28v1.846h4.032a.332.332,0,0,1,.34.34v1.166c0,.1-.049.146-.1.243a.371.371,0,0,1-.243.1H573.28v1.894h4.469a.332.332,0,0,1,.34.34v1.263a.332.332,0,0,1-.34.34H571.24Z" transform="translate(-323.755 -184.757)" fill="#fff"/>
      <path id="Path_34518" data-name="Path 34518" d="M589.14,194.521a.332.332,0,0,1-.34-.34v-8.84a.332.332,0,0,1,.34-.34h3.546a5.47,5.47,0,0,1,2.283.437,3.091,3.091,0,0,1,1.457,1.263,3.739,3.739,0,0,1,.534,2.04v2.089a4.413,4.413,0,0,1-.534,2.089,2.881,2.881,0,0,1-1.409,1.214,5.257,5.257,0,0,1-2.234.389H589.14Zm2.089-1.943h1.457a1.927,1.927,0,0,0,.971-.194,1.351,1.351,0,0,0,.583-.583,2.128,2.128,0,0,0,.194-1.02c0-.243.049-.486.049-.729v-.631a3.44,3.44,0,0,0-.049-.68,1.839,1.839,0,0,0-.486-1.36,1.907,1.907,0,0,0-1.36-.437h-1.36v5.635Z" transform="translate(-332.96 -184.757)" fill="#fff"/>
    </g>
  </g>
</svg>
