<svg xmlns="http://www.w3.org/2000/svg" xmlns:xlink="http://www.w3.org/1999/xlink" width="279" height="124" viewBox="0 0 279 124">
  <defs>
    <clipPath id="clip-path">
      <rect id="Rectangle_2949" data-name="Rectangle 2949" width="279" height="124" transform="translate(15 700.449)" fill="#fff" stroke="#707070" stroke-width="1"/>
    </clipPath>
    <linearGradient id="linear-gradient" x1="0.5" y1="0.5" x2="0.5" y2="1" gradientUnits="objectBoundingBox">
      <stop offset="0" stop-color="#34d178"/>
      <stop offset="1" stop-color="#64e59c" stop-opacity="0"/>
    </linearGradient>
  </defs>
  <g id="chartgain_dark" transform="translate(-15 -700.449)" opacity="0.03" clip-path="url(#clip-path)">
    <g id="Group_8857" data-name="Group 8857" transform="translate(8.433 704.839)">
      <path id="Path_28749" data-name="Path 28749" d="M19001.426,3881.073c28.57-14.059,21.641-23.478,60.523-24.861s56.734,34.953,85.439,33.948,40.588-28.332,58.77-31.3,17.975-28.2,37.482-28.613,41.93-26.256,41.93-26.256" transform="translate(-19001.404 -3803.996)" fill="none" stroke="#fff" stroke-width="1"/>
      <path id="Path_28750" data-name="Path 28750" d="M19001.41,3853.834c28.412-9.428,21-22.763,59.516-23.833-.117,0,.316,0,.51,0,38.859-.931,56.8,34.379,85.494,33.7s41.113-28.641,59.451-31.881,18.33-27.944,37.826-28.225c12.482-.178,25.486-10.9,34.773-19a63.654,63.654,0,0,0,7.266-7.232l-.1,124-281.674-7.575Z" transform="translate(-19001.41 -3776.032)" fill="url(#linear-gradient)"/>
    </g>
  </g>
</svg>
