<svg id="delete" xmlns="http://www.w3.org/2000/svg" width="15.556" height="19" viewBox="0 0 15.556 19">
  <g id="delete-button" transform="translate(1)">
    <g id="Group_7980" data-name="Group 7980">
      <path id="Path_28354" data-name="Path 28354" d="M58.655,2.157h-2.8a2.436,2.436,0,0,0-4.839,0h-2.8a2.059,2.059,0,0,0-2.056,2.056v.106a2.058,2.058,0,0,0,1.3,1.91v9.715A2.059,2.059,0,0,0,49.511,18h7.844a2.059,2.059,0,0,0,2.056-2.056V6.229a2.059,2.059,0,0,0,1.3-1.91V4.213A2.059,2.059,0,0,0,58.655,2.157ZM53.433.975c.71,0,1.3.509-1.434,1.181A1.464,1.464,0,0,1,53.433.975Zm-5,5.4h0ZM59.736,4.319A1.082,1.082,0,0,1,58.655,5.4H48.211A1.082,1.082,0,0,1,47.13,4.319V4.213a1.082,1.082,0,0,1,1.081-1.081H58.655a1.082,1.082,0,0,1,1.081,1.081v.106Z" transform="translate(-46.155)" fill="#d1e3f6"/>
      <path id="Path_28355" data-name="Path 28355" d="M158.564,256.058a.489.489,0,0,0,.489-.489V250.06a.489.489,0,1,0-.978,0v5.508A.489.489,0,0,0,158.564,256.058Z" transform="translate(-153.9 -241.302)" fill="#d1e3f6"/>
      <path id="Path_28356" data-name="Path 28356" d="M228.634,256.058a.489.489,0,0,0,.489-.489V250.06a.489.489,0,1,0-.978,0v5.508A.489.489,0,0,0,228.634,256.058Z" transform="translate(-221.356 -241.302)" fill="#d1e3f6"/>
      <path id="Path_28357" data-name="Path 28357" d="M298.7,256.058a.489.489,0,0,0,.489-.489V250.06a.489.489,0,1,0-.978,0v5.508A.489.489,0,0,0,298.7,256.058Z" transform="translate(-288.812 -241.302)" fill="#d1e3f6"/>
    </g>
  </g>
  <g id="delete-button-2" data-name="delete-button" transform="translate(0 1)">
    <g id="Group_7980-2" data-name="Group 7980">
      <path id="Path_28354-2" data-name="Path 28354" d="M58.655,2.157h-2.8a2.436,2.436,0,0,0-4.839,0h-2.8a2.059,2.059,0,0,0-2.056,2.056v.106a2.058,2.058,0,0,0,1.3,1.91v9.715A2.059,2.059,0,0,0,49.511,18h7.844a2.059,2.059,0,0,0,2.056-2.056V6.229a2.059,2.059,0,0,0,1.3-1.91V4.213A2.059,2.059,0,0,0,58.655,2.157ZM53.433.975a1.464,1.464,0,0,1,1.434,1.181H52A1.464,1.464,0,0,1,53.433.975Zm5,14.968a1.082,1.082,0,0,1-1.081,1.081H49.511a1.082,1.082,0,0,1-1.081-1.081V6.375H58.436Zm1.3-11.625A1.082,1.082,0,0,1,58.655,5.4H48.211A1.082,1.082,0,0,1,47.13,4.319V4.213a1.082,1.082,0,0,1,1.081-1.081H58.655a1.082,1.082,0,0,1,1.081,1.081v.106Z" transform="translate(-46.155)" fill="#1c74d0"/>
      <path id="Path_28355-2" data-name="Path 28355" d="M158.564,256.058a.489.489,0,0,0,.489-.489V250.06a.489.489,0,1,0-.978,0v5.508A.489.489,0,0,0,158.564,256.058Z" transform="translate(-153.9 -241.302)" fill="#1c74d0"/>
      <path id="Path_28356-2" data-name="Path 28356" d="M228.634,256.058a.489.489,0,0,0,.489-.489V250.06a.489.489,0,1,0-.978,0v5.508A.489.489,0,0,0,228.634,256.058Z" transform="translate(-221.356 -241.302)" fill="#1c74d0"/>
      <path id="Path_28357-2" data-name="Path 28357" d="M298.7,256.058a.489.489,0,0,0,.489-.489V250.06a.489.489,0,1,0-.978,0v5.508A.489.489,0,0,0,298.7,256.058Z" transform="translate(-288.812 -241.302)" fill="#1c74d0"/>
    </g>
  </g>
</svg>
