<svg xmlns="http://www.w3.org/2000/svg" width="145.262" height="137.277" viewBox="0 0 145.262 137.277">
  <g id="empty_watchlist_illustration" transform="translate(-132 -309)">
    <path id="Path_32464" data-name="Path 32464" d="M193.124,418.3l-15.2.375a2.058,2.058,0,0,0-2,1.508l-1.292,4.672a2.108,2.108,0,0,1-2.032,1.546H159.8a2.1,2.1,0,0,0-1.4.532c-2.416,2.156-10.413,10.565.044,19.618a2.066,2.066,0,0,0,1.355.494h16.6s7.176.2,7.176,6.225v11.522a2.091,2.091,0,0,1-.872,1.71c-1.238.877-4.221,1.855-11.4,1.195a1.943,1.943,0,0,0-.213-.009l-17.873.225s-4.266-.305-2.882,14.642a1.89,1.89,0,0,1-.083.834c-.172.459-.115,1.549,3.1,2.926.256.109.531.221.828.334a2.088,2.088,0,0,0,.739.133h6.327a2.12,2.12,0,0,1,2.107,2.028,5.84,5.84,0,0,0,.99,3.5,2,2,0,0,0,1.536.664h43.932a2.078,2.078,0,0,0,.585-.083c1.378-.4,6.484-2.4,1.654-9.239a2.151,2.151,0,0,1-.4-1.076l-.035-.452a2.109,2.109,0,0,1,2.139-2.27l39.737.7a2.108,2.108,0,0,1,2.071,2.108h0a2.107,2.107,0,0,0,2.062,2.107l20.358.448a2.087,2.087,0,0,0,1.483-.564c1.9-1.8,6.7-7.686.012-16.6a2.115,2.115,0,0,0-1.762-.844l-13.423.462a2.058,2.058,0,0,1-1.049-.238c-1.285-.687-4.182-2.975-3.08-9.3a2.036,2.036,0,0,0,.029-.465c-.086-1.486-.218-10.15,8.273-10.621l12.71-.123a2.088,2.088,0,0,0,1.521-.67c1.828-2,6.4-8.324.032-16.488a2.11,2.11,0,0,0-1.742-.809l-12.385.468a2,2,0,0,0-.287.034c-.694.126-3.9.5-4.01-3.442a2.012,2.012,0,0,1,.026-.374c.178-1.091.867-7.351-6.732-6.981Z" transform="translate(-8.738 -52.893)" fill="#eceff1"/>
    <path id="Path_32465" data-name="Path 32465" d="M303.354,315.709a3.355,3.355,0,1,1,3.355-3.354A3.358,3.358,0,0,1,303.354,315.709Zm0-5.677a2.322,2.322,0,1,0,2.322,2.322A2.325,2.325,0,0,0,303.354,310.032Z" transform="translate(-81.299)" fill="#bababa"/>
    <path id="Path_32466" data-name="Path 32466" d="M294.354,568.709a3.354,3.354,0,1,1,3.355-3.354A3.358,3.358,0,0,1,294.354,568.709Zm0-5.677a2.322,2.322,0,1,0,2.322,2.322A2.325,2.325,0,0,0,294.354,563.032Z" transform="translate(-76.944 -122.432)" fill="#7eb666"/>
    <g id="Group_8677" data-name="Group 8677" transform="translate(140.095 347.312)">
      <g id="close" transform="translate(0 0)">
        <g id="Group_583" data-name="Group 583">
          <g id="Group_582" data-name="Group 582">
            <g id="Group_15017" data-name="Group 15017">
              <path id="Path_1601" data-name="Path 1601" d="M149.274,384.826a.275.275,0,0,1,.4,0l0,0,6.521,6.822a.31.31,0,0,1,0,.424.278.278,0,0,1-.405,0l-6.521-6.821a.307.307,0,0,1,0-.42Z" transform="translate(-148.413 -383.963)" fill="#b8a6d1"/>
              <path id="Path_32467" data-name="Path 32467" d="M155.27,392.207a1.06,1.06,0,0,1-.762-.327l-6.522-6.822a1.075,1.075,0,0,1-.009-1.484l0,0a1.059,1.059,0,0,1,.758-.333h.01a1.055,1.055,0,0,1,.753.319l.024.025,6.506,6.8a1.079,1.079,0,0,1,0,1.494A1.061,1.061,0,0,1,155.27,392.207Zm-6.169-8.223.006.006Z" transform="translate(-147.685 -383.237)" fill="#b8a6d1"/>
            </g>
          </g>
        </g>
        <g id="Group_585" data-name="Group 585" transform="translate(0.001 0.017)">
          <g id="Group_584" data-name="Group 584">
            <g id="Group_15018" data-name="Group 15018">
              <path id="Path_1602" data-name="Path 1602" d="M149.275,391.648l6.521-6.822a.278.278,0,0,1,.405,0,.31.31,0,0,1,0,.424l-6.521,6.822a.278.278,0,0,1-.405,0A.309.309,0,0,1,149.275,391.648Z" transform="translate(-148.415 -383.98)" fill="#b8a6d1"/>
              <path id="Path_32468" data-name="Path 32468" d="M148.75,392.222a1.061,1.061,0,0,1-.762-.327,1.078,1.078,0,0,1,0-1.493h0l6.521-6.821a1.067,1.067,0,0,1,1.524,1.494l-6.521,6.821A1.061,1.061,0,0,1,148.75,392.222Z" transform="translate(-147.688 -383.269)" fill="#b8a6d1"/>
            </g>
          </g>
        </g>
      </g>
    </g>
    <g id="Group_8677-2" data-name="Group 8677" transform="translate(164.468 311.238)">
      <g id="close-2" data-name="close" transform="translate(0)">
        <g id="Group_583-2" data-name="Group 583">
          <g id="Group_582-2" data-name="Group 582">
            <g id="Group_15019" data-name="Group 15019">
              <path id="Path_1601-2" data-name="Path 1601" d="M196.469,314.893a.171.171,0,0,1,.248,0l0,0,4.034,4.219a.191.191,0,0,1,0,.262.171.171,0,0,1-.25,0l-4.034-4.219a.19.19,0,0,1,0-.26Z" transform="translate(-195.64 -314.063)" fill="#b8a6d1"/>
              <path id="Path_32469" data-name="Path 32469" d="M199.9,319.475a.951.951,0,0,1-.685-.294l-4.033-4.219a.958.958,0,0,1-.008-1.324l.066-.064a.954.954,0,0,1,.617-.238.933.933,0,0,1,.686.286l.039.041,4,4.186a.962.962,0,0,1,0,1.333A.949.949,0,0,1,199.9,319.475Z" transform="translate(-194.912 -313.336)" fill="#00862f"/>
            </g>
          </g>
        </g>
        <g id="Group_585-2" data-name="Group 585" transform="translate(0.001 0.015)">
          <g id="Group_584-2" data-name="Group 584">
            <g id="Group_15020" data-name="Group 15020">
              <path id="Path_1602-2" data-name="Path 1602" d="M196.469,319.113l4.034-4.219a.172.172,0,0,1,.25,0,.192.192,0,0,1,0,.262l-4.034,4.219a.171.171,0,0,1-.25,0A.191.191,0,0,1,196.469,319.113Z" transform="translate(-195.642 -314.079)" fill="#b8a6d1"/>
              <path id="Path_32470" data-name="Path 32470" d="M195.867,319.49a.951.951,0,0,1-.685-.294.961.961,0,0,1,0-1.332l4.034-4.219a.979.979,0,0,1,1.37,0,.961.961,0,0,1,0,1.332l-4.033,4.219A.952.952,0,0,1,195.867,319.49Zm.435-.556h0Z" transform="translate(-194.914 -313.366)" fill="#00862f"/>
            </g>
          </g>
        </g>
      </g>
    </g>
    <g id="Group_8677-3" data-name="Group 8677" transform="translate(234.372 324.208)">
      <g id="close-3" data-name="close">
        <g id="Group_583-3" data-name="Group 583" transform="translate(0 3.366)">
          <g id="Group_582-3" data-name="Group 582">
            <g id="Group_15021" data-name="Group 15021">
              <path id="Path_1601-3" data-name="Path 1601" d="M331.866,346.7a.2.2,0,0,1,.2-.21h0l6.887.155a.226.226,0,0,1,.219.218.2.2,0,0,1-.209.209l-6.887-.155a.223.223,0,0,1-.219-.215Z" transform="translate(-331.092 -345.717)" fill="#b8a6d1"/>
              <path id="Path_32471" data-name="Path 32471" d="M338.25,347.122h-.023l-6.886-.155a.992.992,0,0,1-.975-.966l.774-.027-.774.027a.974.974,0,0,1,.976-1.01h.012l.042,0,6.855.154a1,1,0,0,1,.975.973.977.977,0,0,1-.978,1Z" transform="translate(-330.366 -344.991)" fill="#00862f"/>
            </g>
          </g>
        </g>
        <g id="Group_585-3" data-name="Group 585" transform="translate(3.366)">
          <g id="Group_584-3" data-name="Group 584">
            <g id="Group_15022" data-name="Group 15022">
              <path id="Path_1602-3" data-name="Path 1602" d="M338.543,347.066l-.155-6.887a.2.2,0,0,1,.209-.209.226.226,0,0,1,.219.218l.155,6.887a.2.2,0,0,1-.209.21A.226.226,0,0,1,338.543,347.066Z" transform="translate(-337.614 -339.195)" fill="#b8a6d1"/>
              <path id="Path_32472" data-name="Path 32472" d="M338.039,347.332h-.021a1,1,0,0,1-.976-.973v0l-.154-6.886a.985.985,0,0,1,.286-.716.956.956,0,0,1,.715-.285,1,1,0,0,1,.975.976l.155,6.886a.977.977,0,0,1-.98,1Zm-.724-7.853h0Z" transform="translate(-336.888 -338.468)" fill="#00862f"/>
            </g>
          </g>
        </g>
      </g>
    </g>
    <path id="Path_32473" data-name="Path 32473" d="M203.387,373.773a4.387,4.387,0,1,1,4.387-4.387A4.392,4.392,0,0,1,203.387,373.773Zm0-7.225a2.838,2.838,0,1,0,2.838,2.838A2.841,2.841,0,0,0,203.387,366.548Z" transform="translate(-32.423 -27.1)" fill="#ef6f08"/>
    <path id="Path_32474" data-name="Path 32474" d="M134.58,335.161a2.58,2.58,0,1,1,2.58-2.58A2.583,2.583,0,0,1,134.58,335.161Zm0-3.613a1.032,1.032,0,1,0,1.032,1.032A1.033,1.033,0,0,0,134.58,331.548Z" transform="translate(0 -10.162)" fill="#bccbd9"/>
    <g id="Group_15023" data-name="Group 15023" transform="translate(180.511 339.965)">
      <path id="Path_32475" data-name="Path 32475" d="M272.942,370.5H227.5v91.346l65.026-.127V389.354Z" transform="translate(-226.726 -369.726)" fill="#fff"/>
      <path id="Path_32476" data-name="Path 32476" d="M226,461.9V369h46.528l20.046,19.3v73.466Zm1.548-91.347v89.8l63.478-.124V388.958L271.9,370.548Z" transform="translate(-226 -369)" fill="#0f2648"/>
    </g>
    <g id="Group_15024" data-name="Group 15024" transform="translate(226.958 340.481)">
      <path id="Path_32477" data-name="Path 32477" d="M316,370v18.063l19.815.518Z" transform="translate(-316 -370)" fill="#637597"/>
      <path id="Path_32478" data-name="Path 32478" d="M317.548,373.574l14.239,13.352-14.239-.373v-12.98M316,370v18.063l19.815.518L316,370Z" transform="translate(-316 -370)" fill="#0f2648"/>
    </g>
    <g id="Group_8677-4" data-name="Group 8677" transform="translate(257.655 346.335)">
      <g id="close-4" data-name="close">
        <g id="Group_583-4" data-name="Group 583" transform="translate(0 0)">
          <g id="Group_582-4" data-name="Group 582">
            <g id="Group_15025" data-name="Group 15025">
              <path id="Path_1601-4" data-name="Path 1601" d="M376.516,385.215a.121.121,0,0,1,0-.166l2.571-2.689a.109.109,0,0,1,.159,0,.121.121,0,0,1,0,.167l-2.571,2.689,0,0a.109.109,0,0,1-.158,0Z" transform="translate(-375.966 -381.819)" fill="#b8a6d1"/>
              <path id="Path_32479" data-name="Path 32479" d="M376.112,385.292H376.1a.628.628,0,0,1-.45-.2h0a.634.634,0,0,1,.009-.88l2.567-2.685a.646.646,0,0,1,.906,0,.634.634,0,0,1,0,.88l-2.57,2.688A.631.631,0,0,1,376.112,385.292Zm.3-.368-.006.006Zm2.566-2.684h0Zm-.588-.546v0Z" transform="translate(-375.482 -381.344)" fill="#b8a6d1"/>
            </g>
          </g>
        </g>
        <g id="Group_585-4" data-name="Group 585" transform="translate(0)">
          <g id="Group_584-4" data-name="Group 584">
            <g id="Group_15026" data-name="Group 15026">
              <path id="Path_1602-4" data-name="Path 1602" d="M376.517,382.36a.109.109,0,0,1,.16,0l2.571,2.689a.122.122,0,0,1,0,.167.109.109,0,0,1-.159,0l-2.571-2.689A.122.122,0,0,1,376.517,382.36Z" transform="translate(-375.967 -381.819)" fill="#b8a6d1"/>
              <path id="Path_32480" data-name="Path 32480" d="M378.683,385.292a.628.628,0,0,1-.454-.2l-2.57-2.688a.635.635,0,0,1,0-.882.647.647,0,0,1,.905,0l2.57,2.688a.635.635,0,0,1,0,.881A.628.628,0,0,1,378.683,385.292Zm.292-.909h0Zm-3.156-2.142v0Zm.586-.547v0Z" transform="translate(-375.482 -381.343)" fill="#b8a6d1"/>
            </g>
          </g>
        </g>
      </g>
    </g>
    <path id="Path_32481" data-name="Path 32481" d="M282,481.344a3.984,3.984,0,0,1-1.5-.281c-2.48-.993-2.766-4.2-2.777-4.341l2.057-.169c0,.021.219,2.092,1.493,2.6.782.31,2.691.3,6.7-3.28l.1-.092.124-.061a6.1,6.1,0,0,1,4.6-.163c1.839.714,3.267,2.358,4.244,4.888l-1.925.744c-.755-1.953-1.778-3.2-3.042-3.7a4.041,4.041,0,0,0-2.86.035C286.325,480.081,283.942,481.344,282,481.344Z" transform="translate(-70.519 -80.415)" fill="#102648"/>
    <ellipse id="Ellipse_571" data-name="Ellipse 571" cx="3" cy="2.5" rx="3" ry="2.5" transform="translate(202 380.898)" fill="#102648"/>
    <ellipse id="Ellipse_572" data-name="Ellipse 572" cx="3" cy="2.5" rx="3" ry="2.5" transform="translate(223 380.898)" fill="#102648"/>
  </g>
</svg>
