<svg xmlns="http://www.w3.org/2000/svg" width="150" height="39.588" viewBox="0 0 150 39.588">
  <g id="logo_menu" transform="translate(-25 -31)">
    <path id="Combined_Shape" data-name="Combined Shape" d="M19.769,39.588A19.769,19.769,0,0,1,0,19.784,19.794,19.794,0,0,1,33.791,5.8,19.795,19.795,0,0,1,19.8,39.588ZM8.646,8.845a.8.8,0,0,0-.151.6V30.084c0,.822,0,.822.848.822h3.587a4.276,4.276,0,0,0,.681-.04V13.373H26.457c0,.353,0,.7-.006,1.05v.022c-.006.711-.01,1.384.006,2.071,0,.494-.128.629-.594.629h-.031c-.708-.007-1.485-.012-2.371-.012q-1.185,0-2.371.006t-2.371.006h-.707V22.3H25.58v3.572H18.558c-.2,0-.555.186-.56.292-.03,1.26-.028,2.5-.025,3.812v.9c.386-.009.77-.012,1.177-.012.439,0,.877,0,1.3.007s.86.007,1.283.007a24.99,24.99,0,0,0,4.894-.377,9.894,9.894,0,0,0,3.435-1.3,5.058,5.058,0,0,0,2.207-4.382,4.722,4.722,0,0,0-2.323-4.093c-.453-.264-.929-.491-1.391-.711-.236-.111-.459-.218-.677-.328a23.322,23.322,0,0,0,2.15-1.185,4.8,4.8,0,0,0,2.017-5.61,5.324,5.324,0,0,0-3.728-3.379,15.73,15.73,0,0,0-5.059-.833H9.252A.817.817,0,0,0,8.646,8.845ZM88.021,35.608a4.323,4.323,0,0,1-.5-.419l2.219-2.659c.474.292.923.6,1.4.852a7.377,7.377,0,0,0,3.78.9,3.178,3.178,0,0,0,.579-.08,1.1,1.1,0,0,0,1.009-.938,1.009,1.009,0,0,0-.808-1.079c-.907-.3-1.841-.5-2.754-.8a22.052,22.052,0,0,1-2.114-.705,3.8,3.8,0,0,1-2.628-3.612A4.386,4.386,0,0,1,90.342,23a6.851,6.851,0,0,1,3.763-.953,9.807,9.807,0,0,1,5.316,1.407c.258.166.5.358.8.566L98.2,26.876c-.313-.177-.589-.353-.877-.5a6.34,6.34,0,0,0-3.93-.888c-.549.086-.978.338-1.035.944a1.01,1.01,0,0,0,.828,1.069c.907.288,1.845.5,2.758.776a17.935,17.935,0,0,1,2.215.772,3.747,3.747,0,0,1,2.476,3.465A4.26,4.26,0,0,1,98.55,36.63a7.261,7.261,0,0,1-2.688.929,10.666,10.666,0,0,1-7.84-1.952Zm55.335,1.87c-.938-.03-1.881,0-2.819,0a.555.555,0,0,1-.616-.4q-2.89-7.219-5.806-14.427a2.892,2.892,0,0,1-.111-.383c1.453,0,2.856,0,4.264.025.15,0,.362.3.433.5,1.008,2.81,2.017,5.629,3.051,8.445.067.192.157.377.294.705.126-.312.2-.5.261-.656,1.009-2.815,2.017-5.623,3.027-8.448a.727.727,0,0,1,.842-.58c1.247.036,2.5,0,3.824,0-.076.238-.116.4-.177.555q-2.855,7.061-5.695,14.155a.7.7,0,0,1-.772.5Zm-72.7-.705V22.835c0-.413.141-.545.551-.5h2.758a.975.975,0,0,1,.883.435q2.728,3.529,5.488,7.062a1.243,1.243,0,0,0,.53.423V22.321H84.9V37.4c-1.14,0-2.255.025-3.359,0-.2,0-.419-.261-.566-.448q-2.768-3.532-5.548-7.093c-.166-.211-.338-.419-.626-.776-.04.374-.085.585-.085.8v6.7c0,.842,0,.842-.868.842H71.325l-.1,0C70.8,37.43,70.65,37.258,70.654,36.773Zm33.323.65a1.18,1.18,0,0,1-.217-.05V22.315c.192,0,.4-.03.6-.03h10.76c.566,0,.711.187.686.707a20.893,20.893,0,0,0,0,2.112c0,.5-.131.681-.661.671h-6.7c-.5,0-.751.122-.7.686s0,1.1,0,1.721c.263,0,.5.036.711.036h6c.459,0,.616.137.6.606-.03.837,0,1.679,0,2.577-.278,0-.5.036-.732.036H108.38c-.479,0-.665.135-.635.629.025.551,0,1.155,0,1.868h7.535c.5,0,.646.151.626.635-.036.781,0,1.563,0,2.35,0,.333-.091.5-.465.5Zm-55.885-.03c-.132,0-.344-.223-.364-.364a7.356,7.356,0,0,1,0-1.115V22.976c0-.554.162-.686.7-.68q5.382.029,10.758,0c.5,0,.646.145.626.629-.036.782-.04,1.569,0,2.351,0,.5-.172.621-.646.615H52.7c-.812,0-.812,0-.812.843v2.35c-.025.5.16.61.6.606h5.882c.57,0,.747.156.717.726a25.461,25.461,0,0,0-.055,2.608H51.85v3.889c0,.3-.046.5-.408.5C50.327,37.419,49.206,37.419,48.092,37.393Zm75.081.019h-3.8c-.08,0-.175-.132-.248-.248a.171.171,0,0,1-.013-.159.242.242,0,0,0,.013-.073V22.81c0-.382.123-.5.5-.5.946.018,1.908.027,2.838.036,1.672.016,3.4.033,5.09.091a5.038,5.038,0,0,1,2.1,9.58,2.846,2.846,0,0,0-.3.2c.586.863,1.177,1.737,1.781,2.632l.018.025c.558.825,1.128,1.67,1.718,2.539H128.43a.835.835,0,0,1-.5-.379l-.046-.068c-.767-1.124-1.56-2.285-2.294-3.462a1.26,1.26,0,0,0-1.131-.695c-.048,0-.1,0-.145.007-.192.01-.352.013-.481.016-.664.016-.664.016-.655.7,0,.116,0,.251,0,.408v3.48h0Zm.01-7.869c.413,0,.827.009,1.226.018s.8.016,1.189.016c.444,0,.831-.01,1.182-.034a1.613,1.613,0,0,0,1.513-1.554c.07-1.035-.289-1.66-1.1-1.911a5.765,5.765,0,0,0-1.783-.233c-.3,0-.612.013-.91.024s-.616.025-.925.025c-.137,0-.261,0-.383-.007Zm-60.378,7.8V22.315h4.066V37.347Zm10.28-20.172c-1.664-.025-3.33,0-5.044,0,.086-.183.137-.318.212-.444q4.327-7.1,8.661-14.195a.849.849,0,0,1,.837-.479h5.291a.9.9,0,0,1,.656.328q4.434,7.2,8.828,14.432a2.652,2.652,0,0,0,.125.312H87.285c-.156,0-.353-.221-.454-.383-.373-.6-.726-1.211-1.054-1.836a.809.809,0,0,0-.833-.5H76.9a22.64,22.64,0,0,1,1.715-2.522,2.266,2.266,0,0,1,1.418-.534c1.17-.076,2.341,0,3.667,0L80.349,5.543c-.2.324-.338.534-.459.747q-3,5.191-5.983,10.381a.823.823,0,0,1-.76.507Zm40.293-.025c-1.618-.025-3.242-.006-4.994-.006.151-.272.243-.444.344-.6q4.267-7,8.534-14a.883.883,0,0,1,.877-.5h5.231a.768.768,0,0,1,.762.4q4.311,7.1,8.655,14.2a5.193,5.193,0,0,1,.243.469c-.252,0-.439.031-.626.031h-4.292a.95.95,0,0,1-1.009-.6c-.288-.579-.65-1.115-.953-1.689a.765.765,0,0,0-.793-.448h-8.091a30.026,30.026,0,0,1,1.847-2.634,1.986,1.986,0,0,1,1.286-.429c1.165-.055,2.341,0,3.677,0l-3.324-5.776c-.181.278-.313.46-.423.656q-3,5.191-5.983,10.386a.943.943,0,0,1-.969.551ZM51.9,17.125c-1.216-.04-2.432,0-3.647,0-.387,0-.5-.132-.5-.5V2.5c0-.343.107-.5.475-.5,4.782,0,9.584-.036,14.345.05a11.914,11.914,0,0,1,3.477.726A3.091,3.091,0,0,1,68.289,5.7a3.314,3.314,0,0,1-2.053,3.153,6.4,6.4,0,0,1-1.211.579c.545.258,1.009.439,1.443.681a3.3,3.3,0,0,1,1.746,3.9,3.148,3.148,0,0,1-1.548,2.049,6.645,6.645,0,0,1-3.3.928c-3.486.061-6.971,0-10.552,0,.61-.877.928-1.977,1.856-2.648a2.087,2.087,0,0,1,1.159-.307c1.645-.036,3.294,0,4.939,0a5.6,5.6,0,0,0,.591,0,1.78,1.78,0,0,0,1.633-1.58A1.683,1.683,0,0,0,61.539,10.8a5.469,5.469,0,0,0-1.008-.1H52.657c.68-.972,1.225-1.866,1.9-2.642A1.769,1.769,0,0,1,55.739,7.7c.91-.022,1.822-.021,2.733-.019.794,0,1.587,0,2.381-.01a3.05,3.05,0,0,0,1.407-.3,1.677,1.677,0,0,0,.681-1.008.883.883,0,0,0-.656-1.009,4.456,4.456,0,0,0-1.418-.292c-1.335-.016-2.668-.015-4-.015-1.234,0-2.469,0-3.7-.01-.5,0-.631.181-.626.656V16.45c0,.485-.1.676-.583.676Zm82.362-1.009c-.384-.655-.787-1.3-1.231-2.017.286,0,.5-.03.695-.03h8.288a3.791,3.791,0,0,0,.984-.116,1.576,1.576,0,0,0,1.292-1.716V2.038h4.4c.328,0,.389.177.389.444V4.071c0,3.027.025,6.079-.031,9.115a3.647,3.647,0,0,1-3.707,3.829c-3.113.111-6.23.1-9.342.111h-.051A1.916,1.916,0,0,1,134.263,16.116Zm-38.71.995A1.892,1.892,0,0,1,93.867,16.1c-.393-.64-.791-1.286-1.26-2.053h9.069c1.62,0,2.251-.631,2.251-2.23V2.7c0-.549.166-.69.7-.675,1.326.036,2.657,0,4.035,0,0,.257.036.465.036.675v9.933c0,2.754-1.287,4.252-4.036,4.378-1.854.086-3.709.1-5.57.1C97.911,17.117,96.734,17.111,95.552,17.111Z" transform="translate(25 31)" fill="#fff"/>
  </g>
</svg>
