<svg xmlns="http://www.w3.org/2000/svg" width="175.25" height="57.999" viewBox="0 0 175.25 57.999">
  <g id="appstore_ios" transform="translate(0.5 0.5)">
    <path id="Path_39" data-name="Path 39" d="M270.891,985.121a7.7,7.7,0,0,1-7.7,7.7H104.344a7.7,7.7,0,0,1-7.7-7.7V943.528a7.7,7.7,0,0,1,7.7-7.7H263.19a7.7,7.7,0,0,1,7.7,7.7Z" transform="translate(-96.641 -935.825)" fill="#1e222b" stroke="#404248" stroke-width="1"/>
    <g id="Group_1697" data-name="Group 1697" transform="translate(11.619 8.977)">
      <path id="Path_40" data-name="Path 40" d="M165.188,1009.389a28.08,28.08,0,0,1-2.536,4.736c-1.648,2.508-3.969,5.631-6.846,5.657-2.557.024-3.213-1.664-6.682-1.645s-4.194,1.675-6.751,1.651c-2.877-.026-5.077-2.847-6.724-5.354-4.607-7.013-5.088-15.242-2.247-19.617a10.194,10.194,0,0,1,8.2-4.929c3.049,0,4.966,1.672,7.487,1.672,2.445,0,3.936-1.675,7.461-1.675a9.949,9.949,0,0,1,7.5,3.96A8.582,8.582,0,0,0,165.188,1009.389Z" transform="translate(-131.637 -980.745)" fill="#fff"/>
      <g id="Group_1696" data-name="Group 1696" transform="translate(16.126)">
        <path id="Path_41" data-name="Path 41" d="M186.318,968.694a8.559,8.559,0,0,0,1.9-6.339,9.247,9.247,0,0,0-5.969,3.211,7.945,7.945,0,0,0-1.951,6.183A7.805,7.805,0,0,0,186.318,968.694Z" transform="translate(-180.207 -962.355)" fill="#fff"/>
      </g>
    </g>
    <g id="Group_1700" data-name="Group 1700" transform="translate(53.639 9.061)">
      <g id="Group_1698" data-name="Group 1698" transform="translate(0 13.573)">
        <path id="Path_42" data-name="Path 42" d="M261.681,1004.42l-6.6,19.424H258.1l1.97-5.964h6.389l2.026,5.964h3.105l-6.627-19.424Zm1.566,3.194c.223.867.463,1.767.772,2.74l1.778,5.15h-5.061l1.754-5.184C262.757,1009.48,263.01,1008.572,263.247,1007.614Z" transform="translate(-255.082 -1004.111)" fill="#fff"/>
        <path id="Path_43" data-name="Path 43" d="M315.491,1019.586a5.5,5.5,0,0,0-4.672,2.241l-.117-1.932h-2.688l.016.247c.079,1.2.112,2.528.112,4.43v14.972h2.939v-6.987a5.161,5.161,0,0,0,4.017,1.726,6.059,6.059,0,0,0,4.453-1.893,8.03,8.03,0,0,0,1.966-5.653,7.818,7.818,0,0,0-1.707-5.162A5.592,5.592,0,0,0,315.491,1019.586Zm-.732,2.433c2.62,0,3.792,2.427,3.792,4.832,0,3.1-1.5,5.028-3.9,5.028a3.563,3.563,0,0,1-3.462-2.727,3.743,3.743,0,0,1-.1-.951v-2.363a4.418,4.418,0,0,1,.093-.726c.015-.08.031-.161.042-.239A3.721,3.721,0,0,1,314.759,1022.019Z" transform="translate(-290.44 -1014.241)" fill="#fff"/>
        <path id="Path_44" data-name="Path 44" d="M361.073,1019.586a5.5,5.5,0,0,0-4.672,2.241l-.117-1.932H353.6l.015.247c.08,1.2.113,2.528.113,4.43v14.972h2.939v-6.987a5.158,5.158,0,0,0,4.016,1.726,6.068,6.068,0,0,0,4.455-1.893,8.04,8.04,0,0,0,1.965-5.653,7.818,7.818,0,0,0-1.709-5.162A5.589,5.589,0,0,0,361.073,1019.586Zm-.731,2.433c2.618,0,3.791,2.427,3.791,4.832,0,3.1-1.5,5.028-3.9,5.028a3.563,3.563,0,0,1-3.462-2.727,3.755,3.755,0,0,1-.1-.951v-2.363a4.351,4.351,0,0,1,.094-.728c.015-.079.029-.158.042-.236A3.719,3.719,0,0,1,360.341,1022.019Z" transform="translate(-320.888 -1014.241)" fill="#fff"/>
        <path id="Path_45" data-name="Path 45" d="M419.142,1012.028c-2.743-1.062-3.622-1.9-3.622-3.441,0-1.3,1.033-2.61,3.34-2.61a6.679,6.679,0,0,1,3.45.866l.249.154.829-2.453-.164-.1a8.518,8.518,0,0,0-4.28-.96c-3.748,0-6.365,2.212-6.365,5.379,0,2.554,1.639,4.339,5.158,5.619,2.494.932,3.422,1.887,3.422,3.524,0,1.853-1.432,3-3.736,3a8.042,8.042,0,0,1-4.236-1.2l-.255-.164-.789,2.51.145.1a10.067,10.067,0,0,0,4.967,1.276c5.051,0,6.842-3.08,6.842-5.717C424.1,1015.094,422.663,1013.417,419.142,1012.028Z" transform="translate(-359.997 -1003.488)" fill="#fff"/>
        <path id="Path_46" data-name="Path 46" d="M454.038,1010.439l-2.883.9v2.441h-2.11v2.349h2.11v7.195a5.5,5.5,0,0,0,1.018,3.729,3.768,3.768,0,0,0,2.843,1.116,6.925,6.925,0,0,0,2.272-.351l.165-.058-.141-2.353-.282.087a4.423,4.423,0,0,1-1.367.158c-1.139,0-1.625-.721-1.625-2.412v-7.11h3.545v-2.349h-3.545Z" transform="translate(-384.646 -1008.131)" fill="#fff"/>
        <path id="Path_47" data-name="Path 47" d="M482.645,1019.586c-4.112,0-6.983,3.069-6.983,7.461,0,4.261,2.779,7.236,6.759,7.236h.027c3.364,0,6.983-2.343,6.983-7.489a7.426,7.426,0,0,0-1.873-5.2A6.54,6.54,0,0,0,482.645,1019.586Zm-.085,2.32c2.644,0,3.847,2.578,3.847,4.973,0,2.946-1.643,5.084-3.9,5.084h-.029c-2.228,0-3.846-2.1-3.846-5C478.63,1024.447,479.845,1021.906,482.56,1021.906Z" transform="translate(-402.426 -1014.241)" fill="#fff"/>
        <path id="Path_48" data-name="Path 48" d="M529.526,1019.722l-.176-.045a2.828,2.828,0,0,0-.731-.092,4.193,4.193,0,0,0-3.685,2.366l-.086-2.057h-2.637l.017.247c.078,1.163.111,2.469.111,4.232l-.027,9.6h2.938v-7.49a7.546,7.546,0,0,1,.081-1.139,3.248,3.248,0,0,1,3.092-2.962,7.464,7.464,0,0,1,.789.049l.314.033Z" transform="translate(-433.52 -1014.241)" fill="#fff"/>
        <path id="Path_49" data-name="Path 49" d="M550.776,1019.5c-3.912,0-6.645,3.126-6.645,7.6,0,4.31,2.718,7.1,6.926,7.1a11.268,11.268,0,0,0,4.653-.893l.177-.08-.565-2.19-.245.1a9.114,9.114,0,0,1-3.682.658,4.085,4.085,0,0,1-4.4-4.261l9.486.029.038-.187a6.522,6.522,0,0,0,.089-1.227C556.606,1023.082,555.079,1019.5,550.776,1019.5Zm-.2,2.236a2.9,2.9,0,0,1,2.157.823,4.183,4.183,0,0,1,1.012,2.736h-6.7C547.32,1023.6,548.382,1021.738,550.58,1021.738Z" transform="translate(-448.162 -1014.185)" fill="#fff"/>
      </g>
      <g id="Group_1699" data-name="Group 1699">
        <path id="Path_50" data-name="Path 50" d="M255.082,964.072a21.414,21.414,0,0,1,2.819-.191,6.29,6.29,0,0,1,4.138,1.132,4.023,4.023,0,0,1,1.455,3.314,4.653,4.653,0,0,1-1.47,3.574,6.82,6.82,0,0,1-4.532,1.324,20.389,20.389,0,0,1-2.41-.11Zm1.334,8.143a9.453,9.453,0,0,0,1.334.055c2.819.013,4.349-1.419,4.349-3.9.015-2.2-1.349-3.547-4.137-3.547a8.377,8.377,0,0,0-1.546.122Z" transform="translate(-255.082 -963.458)" fill="#fff"/>
        <path id="Path_51" data-name="Path 51" d="M287.58,978.342a3.314,3.314,0,0,1-3.516-3.4,3.405,3.405,0,0,1,3.637-3.505,3.287,3.287,0,0,1,3.531,3.382,3.418,3.418,0,0,1-3.637,3.519Zm.046-.9a2.349,2.349,0,0,0,2.228-2.578,2.243,2.243,0,1,0-2.243,2.578Z" transform="translate(-274.442 -968.508)" fill="#fff"/>
        <path id="Path_52" data-name="Path 52" d="M309.265,971.891l.985,3.342c.2.736.394,1.432.53,2.114h.046c.167-.669.409-1.377.652-2.1l1.2-3.356H313.8l1.137,3.3c.272.778.485,1.486.651,2.155h.046a18.246,18.246,0,0,1,.561-2.141l1.045-3.314h1.319l-2.364,6.6h-1.213l-1.121-3.151a21.611,21.611,0,0,1-.652-2.182h-.03a18.116,18.116,0,0,1-.667,2.2l-1.182,3.137h-1.213l-2.213-6.6Z" transform="translate(-290.364 -968.809)" fill="#fff"/>
        <path id="Path_53" data-name="Path 53" d="M343.889,973.377c0-.7-.015-1.241-.061-1.787h1.183l.075,1.078h.031a2.778,2.778,0,0,1,2.425-1.228,2.51,2.51,0,0,1,2.591,2.809v3.942H348.8v-3.805c0-1.064-.44-1.964-1.7-1.964a1.9,1.9,0,0,0-1.788,1.228,1.616,1.616,0,0,0-.091.559v3.982h-1.333Z" transform="translate(-314.363 -968.508)" fill="#fff"/>
        <path id="Path_54" data-name="Path 54" d="M369.346,962.607h1.334v9.684h-1.334Z" transform="translate(-331.408 -962.607)" fill="#fff"/>
        <path id="Path_55" data-name="Path 55" d="M381.948,978.342a3.314,3.314,0,0,1-3.516-3.4,3.4,3.4,0,0,1,3.637-3.505,3.287,3.287,0,0,1,3.531,3.382,3.418,3.418,0,0,1-3.637,3.519Zm.045-.9a2.349,2.349,0,0,0,2.229-2.578,2.243,2.243,0,1,0-2.243,2.578Z" transform="translate(-337.478 -968.508)" fill="#fff"/>
        <path id="Path_56" data-name="Path 56" d="M409.1,976.61a9.949,9.949,0,0,0,.107,1.582h-1.2l-.121-.831h-.045a2.82,2.82,0,0,1-2.243.982,2,2,0,0,1-2.243-1.9c0-1.6,1.576-2.469,4.41-2.455v-.136c0-.546-.166-1.541-1.667-1.528a3.828,3.828,0,0,0-1.925.491l-.3-.8a5.167,5.167,0,0,1,2.425-.572c2.258,0,2.8,1.377,2.8,2.7Zm-1.3-1.787c-1.455-.027-3.107.2-3.107,1.487a1.115,1.115,0,0,0,1.243,1.146,1.849,1.849,0,0,0,1.8-1.105,1.1,1.1,0,0,0,.061-.382Z" transform="translate(-354.127 -968.508)" fill="#fff"/>
        <path id="Path_57" data-name="Path 57" d="M432.361,962.607v7.979c0,.586.016,1.255.061,1.705h-1.2l-.06-1.146h-.031a2.744,2.744,0,0,1-2.485,1.3,3.148,3.148,0,0,1-3.153-3.356,3.291,3.291,0,0,1,3.289-3.546,2.522,2.522,0,0,1,2.213,1h.03v-3.929Zm-1.333,5.77a2,2,0,0,0-.061-.518,1.928,1.928,0,0,0-1.924-1.378,2.259,2.259,0,0,0-2.2,2.537,2.19,2.19,0,0,0,2.167,2.455,1.985,1.985,0,0,0,1.955-1.432,1.873,1.873,0,0,0,.061-.518Z" transform="translate(-368.915 -962.607)" fill="#fff"/>
        <path id="Path_58" data-name="Path 58" d="M464.436,978.342a3.314,3.314,0,0,1-3.516-3.4,3.406,3.406,0,0,1,3.637-3.505,3.287,3.287,0,0,1,3.532,3.382,3.418,3.418,0,0,1-3.637,3.519Zm.046-.9a2.349,2.349,0,0,0,2.228-2.578,2.242,2.242,0,1,0-2.243,2.578Z" transform="translate(-392.578 -968.508)" fill="#fff"/>
        <path id="Path_59" data-name="Path 59" d="M487.459,973.377c0-.7-.016-1.241-.061-1.787h1.182l.076,1.078h.03a2.778,2.778,0,0,1,2.425-1.228,2.511,2.511,0,0,1,2.592,2.809v3.942h-1.334v-3.805c0-1.064-.439-1.964-1.7-1.964a1.9,1.9,0,0,0-1.789,1.228,1.625,1.625,0,0,0-.091.559v3.982h-1.333Z" transform="translate(-410.265 -968.508)" fill="#fff"/>
        <path id="Path_60" data-name="Path 60" d="M522.524,967.127v1.582h1.909v.914h-1.909v3.56c0,.818.258,1.282,1,1.282a2.742,2.742,0,0,0,.773-.082l.061.914a4.009,4.009,0,0,1-1.182.164,2.019,2.019,0,0,1-1.44-.5,2.4,2.4,0,0,1-.515-1.733v-3.6h-1.137v-.914h1.137v-1.214Z" transform="translate(-432.099 -965.627)" fill="#fff"/>
        <path id="Path_61" data-name="Path 61" d="M537.7,962.607h1.334v4.12h.031a2.261,2.261,0,0,1,.955-.846,2.813,2.813,0,0,1,1.364-.341,2.509,2.509,0,0,1,2.561,2.823v3.928h-1.333V968.5c0-1.078-.44-1.964-1.7-1.964a1.917,1.917,0,0,0-1.789,1.2,1.324,1.324,0,0,0-.091.573v3.983H537.7Z" transform="translate(-443.869 -962.607)" fill="#fff"/>
        <path id="Path_62" data-name="Path 62" d="M562.731,975.067a2.236,2.236,0,0,0,2.5,2.292,5.556,5.556,0,0,0,2.032-.328l.242.846a6.562,6.562,0,0,1-2.456.423c-2.244,0-3.608-1.351-3.608-3.328A3.361,3.361,0,0,1,564.9,971.4a2.89,2.89,0,0,1,3.016,3.11,2.77,2.77,0,0,1-.045.572Zm3.9-.859a1.772,1.772,0,0,0-1.835-1.951,2.076,2.076,0,0,0-2.046,1.951Z" transform="translate(-459.726 -968.479)" fill="#fff"/>
      </g>
    </g>
    <g id="Group_1702" data-name="Group 1702" transform="translate(11.619 8.977)">
      <path id="Path_64" data-name="Path 64" d="M165.188,1009.389a28.08,28.08,0,0,1-2.536,4.736c-1.648,2.508-3.969,5.631-6.846,5.657-2.557.024-3.213-1.664-6.682-1.645s-4.194,1.675-6.751,1.651c-2.877-.026-5.077-2.847-6.724-5.354-4.607-7.013-5.088-15.242-2.247-19.617a10.194,10.194,0,0,1,8.2-4.929c3.049,0,4.966,1.672,7.487,1.672,2.445,0,3.936-1.675,7.461-1.675a9.949,9.949,0,0,1,7.5,3.96A8.582,8.582,0,0,0,165.188,1009.389Z" transform="translate(-131.637 -980.745)" fill="#fff"/>
      <g id="Group_1701" data-name="Group 1701" transform="translate(16.126)">
        <path id="Path_65" data-name="Path 65" d="M186.318,968.694a8.559,8.559,0,0,0,1.9-6.339,9.247,9.247,0,0,0-5.969,3.211,7.945,7.945,0,0,0-1.951,6.183A7.805,7.805,0,0,0,186.318,968.694Z" transform="translate(-180.207 -962.355)" fill="#fff"/>
      </g>
    </g>
    <g id="Group_1705" data-name="Group 1705" transform="translate(53.639 9.061)">
      <g id="Group_1703" data-name="Group 1703" transform="translate(0 13.573)">
        <path id="Path_66" data-name="Path 66" d="M261.681,1004.42l-6.6,19.424H258.1l1.97-5.964h6.389l2.026,5.964h3.105l-6.627-19.424Zm1.566,3.194c.223.867.463,1.767.772,2.74l1.778,5.15h-5.061l1.754-5.184C262.757,1009.48,263.01,1008.572,263.247,1007.614Z" transform="translate(-255.082 -1004.111)" fill="#fff"/>
        <path id="Path_67" data-name="Path 67" d="M315.491,1019.586a5.5,5.5,0,0,0-4.672,2.241l-.117-1.932h-2.688l.016.247c.079,1.2.112,2.528.112,4.43v14.972h2.939v-6.987a5.161,5.161,0,0,0,4.017,1.726,6.059,6.059,0,0,0,4.453-1.893,8.03,8.03,0,0,0,1.966-5.653,7.818,7.818,0,0,0-1.707-5.162A5.592,5.592,0,0,0,315.491,1019.586Zm-.732,2.433c2.62,0,3.792,2.427,3.792,4.832,0,3.1-1.5,5.028-3.9,5.028a3.563,3.563,0,0,1-3.462-2.727,3.743,3.743,0,0,1-.1-.951v-2.363a4.418,4.418,0,0,1,.093-.726c.015-.08.031-.161.042-.239A3.721,3.721,0,0,1,314.759,1022.019Z" transform="translate(-290.44 -1014.241)" fill="#fff"/>
        <path id="Path_68" data-name="Path 68" d="M361.073,1019.586a5.5,5.5,0,0,0-4.672,2.241l-.117-1.932H353.6l.015.247c.08,1.2.113,2.528.113,4.43v14.972h2.939v-6.987a5.158,5.158,0,0,0,4.016,1.726,6.068,6.068,0,0,0,4.455-1.893,8.04,8.04,0,0,0,1.965-5.653,7.818,7.818,0,0,0-1.709-5.162A5.589,5.589,0,0,0,361.073,1019.586Zm-.731,2.433c2.618,0,3.791,2.427,3.791,4.832,0,3.1-1.5,5.028-3.9,5.028a3.563,3.563,0,0,1-3.462-2.727,3.755,3.755,0,0,1-.1-.951v-2.363a4.351,4.351,0,0,1,.094-.728c.015-.079.029-.158.042-.236A3.719,3.719,0,0,1,360.341,1022.019Z" transform="translate(-320.888 -1014.241)" fill="#fff"/>
        <path id="Path_69" data-name="Path 69" d="M419.142,1012.028c-2.743-1.062-3.622-1.9-3.622-3.441,0-1.3,1.033-2.61,3.34-2.61a6.679,6.679,0,0,1,3.45.866l.249.154.829-2.453-.164-.1a8.518,8.518,0,0,0-4.28-.96c-3.748,0-6.365,2.212-6.365,5.379,0,2.554,1.639,4.339,5.158,5.619,2.494.932,3.422,1.887,3.422,3.524,0,1.853-1.432,3-3.736,3a8.042,8.042,0,0,1-4.236-1.2l-.255-.164-.789,2.51.145.1a10.067,10.067,0,0,0,4.967,1.276c5.051,0,6.842-3.08,6.842-5.717C424.1,1015.094,422.663,1013.417,419.142,1012.028Z" transform="translate(-359.997 -1003.488)" fill="#fff"/>
        <path id="Path_70" data-name="Path 70" d="M454.038,1010.439l-2.883.9v2.441h-2.11v2.349h2.11v7.195a5.5,5.5,0,0,0,1.018,3.729,3.768,3.768,0,0,0,2.843,1.116,6.925,6.925,0,0,0,2.272-.351l.165-.058-.141-2.353-.282.087a4.423,4.423,0,0,1-1.367.158c-1.139,0-1.625-.721-1.625-2.412v-7.11h3.545v-2.349h-3.545Z" transform="translate(-384.646 -1008.131)" fill="#fff"/>
        <path id="Path_71" data-name="Path 71" d="M482.645,1019.586c-4.112,0-6.983,3.069-6.983,7.461,0,4.261,2.779,7.236,6.759,7.236h.027c3.364,0,6.983-2.343,6.983-7.489a7.426,7.426,0,0,0-1.873-5.2A6.54,6.54,0,0,0,482.645,1019.586Zm-.085,2.32c2.644,0,3.847,2.578,3.847,4.973,0,2.946-1.643,5.084-3.9,5.084h-.029c-2.228,0-3.846-2.1-3.846-5C478.63,1024.447,479.845,1021.906,482.56,1021.906Z" transform="translate(-402.426 -1014.241)" fill="#fff"/>
        <path id="Path_72" data-name="Path 72" d="M529.526,1019.722l-.176-.045a2.828,2.828,0,0,0-.731-.092,4.193,4.193,0,0,0-3.685,2.366l-.086-2.057h-2.637l.017.247c.078,1.163.111,2.469.111,4.232l-.027,9.6h2.938v-7.49a7.546,7.546,0,0,1,.081-1.139,3.248,3.248,0,0,1,3.092-2.962,7.464,7.464,0,0,1,.789.049l.314.033Z" transform="translate(-433.52 -1014.241)" fill="#fff"/>
        <path id="Path_73" data-name="Path 73" d="M550.776,1019.5c-3.912,0-6.645,3.126-6.645,7.6,0,4.31,2.718,7.1,6.926,7.1a11.268,11.268,0,0,0,4.653-.893l.177-.08-.565-2.19-.245.1a9.114,9.114,0,0,1-3.682.658,4.085,4.085,0,0,1-4.4-4.261l9.486.029.038-.187a6.522,6.522,0,0,0,.089-1.227C556.606,1023.082,555.079,1019.5,550.776,1019.5Zm-.2,2.236a2.9,2.9,0,0,1,2.157.823,4.183,4.183,0,0,1,1.012,2.736h-6.7C547.32,1023.6,548.382,1021.738,550.58,1021.738Z" transform="translate(-448.162 -1014.185)" fill="#fff"/>
      </g>
      <g id="Group_1704" data-name="Group 1704">
        <path id="Path_74" data-name="Path 74" d="M255.082,964.072a21.414,21.414,0,0,1,2.819-.191,6.29,6.29,0,0,1,4.138,1.132,4.023,4.023,0,0,1,1.455,3.314,4.653,4.653,0,0,1-1.47,3.574,6.82,6.82,0,0,1-4.532,1.324,20.389,20.389,0,0,1-2.41-.11Zm1.334,8.143a9.453,9.453,0,0,0,1.334.055c2.819.013,4.349-1.419,4.349-3.9.015-2.2-1.349-3.547-4.137-3.547a8.377,8.377,0,0,0-1.546.122Z" transform="translate(-255.082 -963.458)" fill="#fff"/>
        <path id="Path_75" data-name="Path 75" d="M287.58,978.342a3.314,3.314,0,0,1-3.516-3.4,3.405,3.405,0,0,1,3.637-3.505,3.287,3.287,0,0,1,3.531,3.382,3.418,3.418,0,0,1-3.637,3.519Zm.046-.9a2.349,2.349,0,0,0,2.228-2.578,2.243,2.243,0,1,0-2.243,2.578Z" transform="translate(-274.442 -968.508)" fill="#fff"/>
        <path id="Path_76" data-name="Path 76" d="M309.265,971.891l.985,3.342c.2.736.394,1.432.53,2.114h.046c.167-.669.409-1.377.652-2.1l1.2-3.356H313.8l1.137,3.3c.272.778.485,1.486.651,2.155h.046a18.246,18.246,0,0,1,.561-2.141l1.045-3.314h1.319l-2.364,6.6h-1.213l-1.121-3.151a21.611,21.611,0,0,1-.652-2.182h-.03a18.116,18.116,0,0,1-.667,2.2l-1.182,3.137h-1.213l-2.213-6.6Z" transform="translate(-290.364 -968.809)" fill="#fff"/>
        <path id="Path_77" data-name="Path 77" d="M343.889,973.377c0-.7-.015-1.241-.061-1.787h1.183l.075,1.078h.031a2.778,2.778,0,0,1,2.425-1.228,2.51,2.51,0,0,1,2.591,2.809v3.942H348.8v-3.805c0-1.064-.44-1.964-1.7-1.964a1.9,1.9,0,0,0-1.788,1.228,1.616,1.616,0,0,0-.091.559v3.982h-1.333Z" transform="translate(-314.363 -968.508)" fill="#fff"/>
        <path id="Path_78" data-name="Path 78" d="M369.346,962.607h1.334v9.684h-1.334Z" transform="translate(-331.408 -962.607)" fill="#fff"/>
        <path id="Path_79" data-name="Path 79" d="M381.948,978.342a3.314,3.314,0,0,1-3.516-3.4,3.4,3.4,0,0,1,3.637-3.505,3.287,3.287,0,0,1,3.531,3.382,3.418,3.418,0,0,1-3.637,3.519Zm.045-.9a2.349,2.349,0,0,0,2.229-2.578,2.243,2.243,0,1,0-2.243,2.578Z" transform="translate(-337.478 -968.508)" fill="#fff"/>
        <path id="Path_80" data-name="Path 80" d="M409.1,976.61a9.949,9.949,0,0,0,.107,1.582h-1.2l-.121-.831h-.045a2.82,2.82,0,0,1-2.243.982,2,2,0,0,1-2.243-1.9c0-1.6,1.576-2.469,4.41-2.455v-.136c0-.546-.166-1.541-1.667-1.528a3.828,3.828,0,0,0-1.925.491l-.3-.8a5.167,5.167,0,0,1,2.425-.572c2.258,0,2.8,1.377,2.8,2.7Zm-1.3-1.787c-1.455-.027-3.107.2-3.107,1.487a1.115,1.115,0,0,0,1.243,1.146,1.849,1.849,0,0,0,1.8-1.105,1.1,1.1,0,0,0,.061-.382Z" transform="translate(-354.127 -968.508)" fill="#fff"/>
        <path id="Path_81" data-name="Path 81" d="M432.361,962.607v7.979c0,.586.016,1.255.061,1.705h-1.2l-.06-1.146h-.031a2.744,2.744,0,0,1-2.485,1.3,3.148,3.148,0,0,1-3.153-3.356,3.291,3.291,0,0,1,3.289-3.546,2.522,2.522,0,0,1,2.213,1h.03v-3.929Zm-1.333,5.77a2,2,0,0,0-.061-.518,1.928,1.928,0,0,0-1.924-1.378,2.259,2.259,0,0,0-2.2,2.537,2.19,2.19,0,0,0,2.167,2.455,1.985,1.985,0,0,0,1.955-1.432,1.873,1.873,0,0,0,.061-.518Z" transform="translate(-368.915 -962.607)" fill="#fff"/>
        <path id="Path_82" data-name="Path 82" d="M464.436,978.342a3.314,3.314,0,0,1-3.516-3.4,3.406,3.406,0,0,1,3.637-3.505,3.287,3.287,0,0,1,3.532,3.382,3.418,3.418,0,0,1-3.637,3.519Zm.046-.9a2.349,2.349,0,0,0,2.228-2.578,2.242,2.242,0,1,0-2.243,2.578Z" transform="translate(-392.578 -968.508)" fill="#fff"/>
        <path id="Path_83" data-name="Path 83" d="M487.459,973.377c0-.7-.016-1.241-.061-1.787h1.182l.076,1.078h.03a2.778,2.778,0,0,1,2.425-1.228,2.511,2.511,0,0,1,2.592,2.809v3.942h-1.334v-3.805c0-1.064-.439-1.964-1.7-1.964a1.9,1.9,0,0,0-1.789,1.228,1.625,1.625,0,0,0-.091.559v3.982h-1.333Z" transform="translate(-410.265 -968.508)" fill="#fff"/>
        <path id="Path_84" data-name="Path 84" d="M522.524,967.127v1.582h1.909v.914h-1.909v3.56c0,.818.258,1.282,1,1.282a2.742,2.742,0,0,0,.773-.082l.061.914a4.009,4.009,0,0,1-1.182.164,2.019,2.019,0,0,1-1.44-.5,2.4,2.4,0,0,1-.515-1.733v-3.6h-1.137v-.914h1.137v-1.214Z" transform="translate(-432.099 -965.627)" fill="#fff"/>
        <path id="Path_85" data-name="Path 85" d="M537.7,962.607h1.334v4.12h.031a2.261,2.261,0,0,1,.955-.846,2.813,2.813,0,0,1,1.364-.341,2.509,2.509,0,0,1,2.561,2.823v3.928h-1.333V968.5c0-1.078-.44-1.964-1.7-1.964a1.917,1.917,0,0,0-1.789,1.2,1.324,1.324,0,0,0-.091.573v3.983H537.7Z" transform="translate(-443.869 -962.607)" fill="#fff"/>
        <path id="Path_86" data-name="Path 86" d="M562.731,975.067a2.236,2.236,0,0,0,2.5,2.292,5.556,5.556,0,0,0,2.032-.328l.242.846a6.562,6.562,0,0,1-2.456.423c-2.244,0-3.608-1.351-3.608-3.328A3.361,3.361,0,0,1,564.9,971.4a2.89,2.89,0,0,1,3.016,3.11,2.77,2.77,0,0,1-.045.572Zm3.9-.859a1.772,1.772,0,0,0-1.835-1.951,2.076,2.076,0,0,0-2.046,1.951Z" transform="translate(-459.726 -968.479)" fill="#fff"/>
      </g>
    </g>
  </g>
</svg>
