<svg xmlns="http://www.w3.org/2000/svg" width="544.606" height="548.589" viewBox="0 0 544.606 548.589">
  <g id="login_banner" transform="translate(0.001 0.001)">
    <g id="freepik--Shadows--inject-2" transform="translate(0 273.447)">
      <path id="freepik--Shadow--inject-2" d="M366.4,387.043a15.939,15.939,0,0,0-2.327-8.177h0c-.314-.528-.642-1.032-.994-1.522l-.063-.076a16.088,16.088,0,0,0-1.082-1.333l-.113-.113a14.3,14.3,0,0,0-1.17-1.145l-.113-.088a11.43,11.43,0,0,0-1.258-.956l-.755-.415-.34-.151-.39-.176a5.579,5.579,0,0,0-.554-.176h-.151a4.27,4.27,0,0,0-.654-.126h0a4.113,4.113,0,0,0-2.4.377h0c-6.655,3.334-45,27.738-62.647,38.733l-8.743,5.309a1.987,1.987,0,0,0-.654.6.444.444,0,0,1-.063.1,2.652,2.652,0,0,0-.2.377,1.623,1.623,0,0,0-.088.264,2.683,2.683,0,0,0-.1.34v.226l-1.447.793-1.258.7a50.4,50.4,0,0,0-9.963-7.4c-12.1-6.982-28.128-10.831-45.136-10.831S190.7,406.026,178.6,413.008c-12.58,7.233-19.423,17.008-19.423,27.512s6.894,20.266,19.423,27.512c12.1,6.982,28.128,10.819,45.136,10.819s33.035-3.837,45.136-10.819c12.58-7.246,19.423-17.008,19.423-27.512a25.3,25.3,0,0,0-4.1-13.6l1.157-.616a2.6,2.6,0,0,0,2.516.239h0c5.988-3.3,64.358-28.179,76.3-34.582h0C365.416,391.132,366.309,389.471,366.4,387.043ZM263.243,458.421c-10.441,6.026-24.518,9.347-39.614,9.347s-29.173-3.321-39.614-9.347c-8.969-5.183-13.913-11.561-13.913-17.951s4.944-12.781,13.913-17.951c10.441-6.038,24.505-9.359,39.614-9.359s29.173,3.321,39.614,9.359c8.969,5.17,13.913,11.548,13.913,17.951s-4.982,12.768-13.976,17.951Z" transform="translate(-2.208 -203.71)" fill="#2d3e48"/>
      <path id="freepik--shadow--inject-2-2" data-name="freepik--shadow--inject-2" d="M407.518,273.892l-59.2-34.255a12.039,12.039,0,0,0-10.894,0L36.652,413.239c-3.007,1.736-3.007,4.554,0,6.29l59.213,34.255a12.039,12.039,0,0,0,10.894,0l112.7-65.075L236.8,398.772c9.171,5.3,24.04,5.3,33.223,0l51.64-29.6c9.183-5.3,9.183-13.838,0-19.184L304.34,339.924l103.155-59.8C410.512,278.446,410.512,275.653,407.518,273.892Z" transform="translate(-34.398 -238.334)" fill="#e0e0e0"/>
      <ellipse id="freepik--shadow--inject-2-3" data-name="freepik--shadow--inject-2" cx="58.056" cy="33.525" rx="58.056" ry="33.525" transform="translate(414.37 130.674)" fill="#2d3e48"/>
    </g>
    <g id="freepik--Plant--inject-2" transform="translate(497.1 345.344)">
      <g id="freepik--Plants--inject-2">
        <path id="Path_33151" data-name="Path 33151" d="M436.193,349.936c0-7.862-1.56-22.342,5.032-35.928,4.831-9.85,13.448-19.411,21.474-18.455,7.46.881,8.139,12.366.994,20.228s-16.228,18.744-18.216,36.117l-5.145,12.907Z" transform="translate(-427.883 -295.487)" fill="#ba68c8"/>
        <g id="Group_15427" data-name="Group 15427" transform="translate(8.149)">
          <path id="Path_33152" data-name="Path 33152" d="M436.193,349.936c0-7.862-1.56-22.342,5.032-35.928,4.831-9.85,13.448-19.411,21.474-18.455,7.46.881,8.139,12.366.994,20.228s-16.228,18.744-18.216,36.117l-5.145,12.907Z" transform="translate(-436.032 -295.487)" fill="#ff6700"/>
        </g>
        <path id="Path_33153" data-name="Path 33153" d="M438.435,354.472a.566.566,0,0,0,.453-.566c-.906-22.342,6.365-40.9,21.021-53.64a.544.544,0,1,0-.717-.818c-14.92,12.97-22.317,31.814-21.386,54.508a.553.553,0,0,0,.566.528Z" transform="translate(-427.446 -294.501)" fill="#fff"/>
        <path id="Path_33154" data-name="Path 33154" d="M436.4,369.348a27.752,27.752,0,0,0,13.838,3.849c8.416.2,11.523-4.227,11.523-4.227s-4.29-7.284-9.246-8.806a46.468,46.468,0,0,1,15.1,3.937s5.032-.591,6.013-8.542c0,0-3.6-4.214-13.926-5.372a33.275,33.275,0,0,1,14.932-1.258c.692.176,2.164-10.064,2.4-14.819s-1.6-4.39-5.3-4.868-15.926.554-17.9,2.818-2.2,9.133-2.2,9.133-2.654-3.522-2.591-6.982a12.906,12.906,0,0,0-7.548,1.258c-3.774,1.937-5.032,3.485-5.233,6.416s-.44,7.334.742,10.743c0,0-3.485-5.623-3.308-10.5a52,52,0,0,0-3.585,7.347C428.467,353.749,430.417,364.1,436.4,369.348Z" transform="translate(-429.554 -286.809)" fill="#ff6700"/>
        <path id="Path_33155" data-name="Path 33155" d="M435.282,369.38a.528.528,0,0,0,.377-.352c4.78-14.681,27.311-33.966,35.915-36.909a.545.545,0,0,0-.352-1.032c-8.806,2.956-31.726,22.644-36.607,37.6a.553.553,0,0,0,.352.692.541.541,0,0,0,.315,0Z" transform="translate(-428.255 -286.312)" fill="#fff"/>
      </g>
    </g>
    <g id="freepik--Device--inject-2" transform="translate(38.333)">
      <g id="freepik--device--inject-2-2" data-name="freepik--device--inject-2">
        <g id="freepik--Monitor--inject-2">
          <path id="Path_33156" data-name="Path 33156" d="M236.56,388.227l44.507-25.738c4.579-2.642,6.869-6.114,6.869-9.586v-6.189L246.058,322.95a9.838,9.838,0,0,1-4.428-7.674V260.34L164,305.263v54.861a9.775,9.775,0,0,0,4.441,7.674l34.9,20.43C212.508,393.46,227.39,393.46,236.56,388.227Z" transform="translate(-39.296 40.789)" fill="#ff6700"/>
          <path id="Path_33157" data-name="Path 33157" d="M182.609,362.374v6.164l-14.24-8.2a9.8,9.8,0,0,1-4.428-7.674V297.8l14.806-8.542c.3,3.774.642,7.649.943,11.435l-10.378,6v42.872a9.724,9.724,0,0,0,4.428,7.674Z" transform="translate(-39.312 48.25)" fill="#263238"/>
          <path id="Path_33158" data-name="Path 33158" d="M168.21,355.215a9.8,9.8,0,0,0,4.428,7.674l29.613,17.222c9.171,5.3,24.04,5.3,33.223,0l44.52-25.726c9.171-5.3,9.171-13.838,0-19.172l-29.625-17.247a9.775,9.775,0,0,1-4.441-7.674V267.42L168.21,312.343Z" transform="translate(-38.21 42.616)" fill="#fff7e0"/>
          <path id="Path_33159" data-name="Path 33159" d="M259.389,323.186h0l-9.02-5.208a9.775,9.775,0,0,1-4.441-7.674V267.42L168.21,312.343v42.872a9.8,9.8,0,0,0,4.428,7.674L181.507,368Z" transform="translate(-38.21 42.616)" opacity="0.15"/>
          <path id="Path_33160" data-name="Path 33160" d="M276.319,329v6.189c0,3.485-2.3,6.931-6.881,9.6L224.931,370.5a33.3,33.3,0,0,1-15.851,3.938v-6.164a33.3,33.3,0,0,0,15.851-3.937L269.438,338.6C274.017,335.894,276.319,332.422,276.319,329Z" transform="translate(-27.666 58.502)" fill="#ff6700"/>
          <path id="Path_33161" data-name="Path 33161" d="M70.065,477.984a11.914,11.914,0,0,0,10.731-.2l300.658-173.6a12.215,12.215,0,0,0,5.535-9.586V31.538a11.863,11.863,0,0,0-5.2-9.385,11.875,11.875,0,0,0-10.731.189L70.4,195.944a12.24,12.24,0,0,0-5.535,9.586V468.586a11.888,11.888,0,0,0,5.2,9.4Z" transform="translate(-64.87 -20.965)" fill="#e55d00"/>
          <path id="Path_33162" data-name="Path 33162" d="M78.652,476.413,379.31,302.874a12.24,12.24,0,0,0,5.535-9.586V30.181c0-3.535-2.516-4.969-5.535-3.2L78.715,200.588a12.24,12.24,0,0,0-5.535,9.586V473.217C73.117,476.752,75.6,478.186,78.652,476.413Z" transform="translate(-62.726 -19.608)" fill="#ff6700"/>
          <path id="Path_33163" data-name="Path 33163" d="M81.39,434.968v-224.9a7.334,7.334,0,0,1,3.283-5.749l284.3-164.1c1.824-1.057,3.321-.2,3.321,1.912V267.04a7.3,7.3,0,0,1-3.321,5.749l-284.3,164.1C82.874,437.949,81.39,437.094,81.39,434.968Z" transform="translate(-60.608 -16.116)" fill="#ba68c8"/>
          <path id="Path_33164" data-name="Path 33164" d="M81.39,434.968v-224.9a7.334,7.334,0,0,1,3.283-5.749l284.3-164.1c1.824-1.057,3.321-.2,3.321,1.912V267.04a7.3,7.3,0,0,1-3.321,5.749l-284.3,164.1C82.874,437.949,81.39,437.094,81.39,434.968Z" transform="translate(-60.608 -16.116)" fill="#fff7e0"/>
          <path id="Path_33165" data-name="Path 33165" d="M197.271,309.676a3.27,3.27,0,0,1-1.661-.428,4.252,4.252,0,0,1-1.837-3.912,11.989,11.989,0,0,1,5.51-9.535h0a3.774,3.774,0,0,1,6.139,3.535,12,12,0,0,1-5.51,9.548,5.346,5.346,0,0,1-2.642.793Zm4.642-13.4a4.127,4.127,0,0,0-2,.629h0a10.806,10.806,0,0,0-4.881,8.454,2.516,2.516,0,0,0,4.252,2.453,10.794,10.794,0,0,0,4.881-8.454,3.082,3.082,0,0,0-1.258-2.818,2.048,2.048,0,0,0-.994-.264Z" transform="translate(-31.62 49.711)" fill="#ba68c8"/>
        </g>
      </g>
    </g>
    <g id="freepik--Window--inject-2" transform="translate(99.647 45.725)">
      <g id="freepik--window--inject-2-2" data-name="freepik--window--inject-2">
        <path id="Path_33166" data-name="Path 33166" d="M411.9,73.76,119.16,242.632V458.338a3.774,3.774,0,0,0,5.6,3.246l5.221-3.007L406.445,299.165a12.064,12.064,0,0,0,5.46-9.46Z" transform="translate(-112.177 -53.07)" fill="#f0f0f0"/>
        <path id="Path_33167" data-name="Path 33167" d="M410.647,75.936V289.7a10.869,10.869,0,0,1-4.831,8.366L129.35,457.482l-5.221,3.007a2.427,2.427,0,0,1-1.258.34,2.517,2.517,0,0,1-1.723-.7,2.428,2.428,0,0,1-.755-1.786V243.311L410.622,76m1.258-2.176L119.16,242.632V458.338a3.774,3.774,0,0,0,3.774,3.774,3.634,3.634,0,0,0,1.862-.5l5.221-3.007,276.428-159.44a12.064,12.064,0,0,0,5.46-9.46V73.76Z" transform="translate(-112.177 -53.07)" fill="#e0e0e0"/>
        <path id="Path_33168" data-name="Path 33168" d="M406.39,70.58,113.62,239.38l6.969,4.026L413.334,74.58Z" transform="translate(-113.606 -53.89)" fill="#455a64" opacity="0.8"/>
        <path id="Path_33169" data-name="Path 33169" d="M122.555,427.828a3.774,3.774,0,0,1-1.962-3.3v-215.7l-6.969-4.026V419.324a5.588,5.588,0,0,0,0,.793,5.787,5.787,0,0,0,2.843,4.227l5.749,3.334.289.151Z" transform="translate(-113.609 -19.264)" fill="#ebebeb"/>
        <path id="Path_33170" data-name="Path 33170" d="M113.62,242.9V228.345a6.051,6.051,0,0,1,2.717-4.73L403.673,57.963a6,6,0,0,1,5.435,0l1.5.868a6.013,6.013,0,0,1,2.73,4.717V78.116L120.589,246.875Z" transform="translate(-113.606 -57.313)" fill="#ba68c8"/>
        <path id="Path_33171" data-name="Path 33171" d="M113.62,242.9V228.345a6.051,6.051,0,0,1,2.717-4.73L403.673,57.963a6,6,0,0,1,5.435,0l1.5.868a6.013,6.013,0,0,1,2.73,4.717V78.116L120.589,246.875Z" transform="translate(-113.606 -57.313)" fill="#e55d00"/>
        <path id="Path_33172" data-name="Path 33172" d="M119.16,231.484a6.038,6.038,0,0,1,2.717-4.73L409.188,61.078c1.5-.881,2.717-.176,2.717,1.56v14.6L119.16,246Z" transform="translate(-112.177 -56.44)" fill="#ba68c8"/>
        <path id="Path_33173" data-name="Path 33173" d="M119.16,231.484a6.038,6.038,0,0,1,2.717-4.73L409.188,61.078c1.5-.881,2.717-.176,2.717,1.56v14.6L119.16,246Z" transform="translate(-112.177 -56.44)" fill="#ff6700"/>
        <path id="Path_33174" data-name="Path 33174" d="M121.379,195.143a5.623,5.623,0,0,0-.793,2.692v14.517l-6.957-4.013v-14.53a5.573,5.573,0,0,1,.793-2.68Z" transform="translate(-113.603 -22.791)" fill="#ba68c8"/>
        <path id="Path_33175" data-name="Path 33175" d="M121.379,195.143a5.623,5.623,0,0,0-.793,2.692v14.517l-6.957-4.013v-14.53a5.573,5.573,0,0,1,.793-2.68Z" transform="translate(-113.603 -22.791)" fill="#e55d00"/>
        <path id="Path_33176" data-name="Path 33176" d="M341.71,74.31c0,1.623,1.145,2.29,2.516,1.472a5.636,5.636,0,0,0,2.516-4.428c0-1.623-1.145-2.29-2.516-1.472A5.649,5.649,0,0,0,341.71,74.31Z" transform="translate(-54.763 -54.161)" fill="#fafafa"/>
        <path id="Path_33177" data-name="Path 33177" d="M333.59,78.98c0,1.623,1.145,2.29,2.516,1.472a5.649,5.649,0,0,0,2.516-4.428c0-1.623-1.145-2.29-2.516-1.472a5.648,5.648,0,0,0-2.516,4.428Z" transform="translate(-56.858 -52.956)" fill="#fafafa"/>
        <path id="Path_33178" data-name="Path 33178" d="M325.46,83.69c0,1.623,1.145,2.29,2.516,1.472a5.648,5.648,0,0,0,2.516-4.428c0-1.623-1.145-2.29-2.516-1.472a5.636,5.636,0,0,0-2.516,4.428Z" transform="translate(-58.955 -51.741)" fill="#fafafa"/>
        <path id="Path_33179" data-name="Path 33179" d="M119.16,216.836V432.542a3.774,3.774,0,0,0,5.6,3.246l5.221-3.007,63.968-36.9V173.75Z" transform="translate(-112.177 -27.274)" fill="#fafafa"/>
        <path id="Path_33180" data-name="Path 33180" d="M182.67,201.125V410.591L389.382,291.247V81.78Z" transform="translate(-95.792 -51.001)" fill="#fafafa"/>
        <path id="Path_33181" data-name="Path 33181" d="M175.113,193.914,127.4,221.489a3.522,3.522,0,0,0-1.6,2.768v4.969c0,1.019.717,1.422,1.6.918l47.715-27.575a3.522,3.522,0,0,0,1.6-2.768v-4.956C176.711,193.826,175.993,193.411,175.113,193.914Z" transform="translate(-110.464 -22.128)" fill="#ba68c8"/>
        <path id="Path_33182" data-name="Path 33182" d="M175.113,193.914,127.4,221.489a3.522,3.522,0,0,0-1.6,2.768v4.969c0,1.019.717,1.422,1.6.918l47.715-27.575a3.522,3.522,0,0,0,1.6-2.768v-4.956C176.711,193.826,175.993,193.411,175.113,193.914Z" transform="translate(-110.464 -22.128)" fill="#fff7e0"/>
        <path id="Path_33183" data-name="Path 33183" d="M174.658,196.716l-1.4-1.359a6.29,6.29,0,0,0,.44-2.239,2.642,2.642,0,0,0-1.044-2.415,1.623,1.623,0,0,0-1.711.075,5.6,5.6,0,0,0-2.214,4.566,2.642,2.642,0,0,0,1.057,2.415,1.4,1.4,0,0,0,.742.2,1.925,1.925,0,0,0,.969-.277,3.938,3.938,0,0,0,1.258-1.258l1.157,1.107a.491.491,0,0,0,.377.164.566.566,0,0,0,.4-.176.541.541,0,0,0-.038-.8Zm-3.711,0a.6.6,0,0,1-.6.075c-.239-.138-.5-.6-.5-1.459a4.554,4.554,0,0,1,1.661-3.61.742.742,0,0,1,.39-.126.414.414,0,0,1,.214,0c.226.138.491.591.491,1.459a4.616,4.616,0,0,1-1.648,3.673Z" transform="translate(-99.392 -22.954)" fill="#455a64"/>
        <path id="Path_33184" data-name="Path 33184" d="M126.973,234.918l-1.069.616s-.113,0-.113-.088v-2.893a.289.289,0,0,1,.113-.226l1.069-.616s.113,0,.113.088v2.893a.289.289,0,0,1-.113.226Z" transform="translate(-110.466 -12.322)" fill="#ff8900"/>
        <path id="Path_33185" data-name="Path 33185" d="M128.243,234.17l-1.069.616c-.063,0-.113,0-.113-.088V231.8a.264.264,0,0,1,.113-.214l1.069-.591c.063,0,.113,0,.113.076v2.906a.277.277,0,0,1-.113.188Z" transform="translate(-110.139 -12.505)" fill="#ff8900"/>
        <path id="Path_33186" data-name="Path 33186" d="M129.523,233.435l-1.069.629c-.063,0-.113,0-.113-.088V231.07a.277.277,0,0,1,.113-.214l1.069-.616c.063,0,.113,0,.113.088v2.893a.239.239,0,0,1-.113.214Z" transform="translate(-109.808 -12.701)" fill="#ff8900"/>
        <path id="Path_33187" data-name="Path 33187" d="M126.973,237.888l-1.069.616s-.113,0-.113-.088v-2.893a.289.289,0,0,1,.113-.226l1.069-.616s.113,0,.113.088v2.893a.289.289,0,0,1-.113.226Z" transform="translate(-110.466 -11.555)" fill="#ff8900"/>
        <path id="Path_33188" data-name="Path 33188" d="M128.243,237.132l-1.069.616c-.063,0-.113,0-.113-.088v-2.893a.264.264,0,0,1,.113-.214l1.069-.553c.063,0,.113,0,.113.075v2.906A.277.277,0,0,1,128.243,237.132Z" transform="translate(-110.139 -11.731)" fill="#ff8900"/>
        <path id="Path_33189" data-name="Path 33189" d="M129.523,236.4l-1.069.629c-.063,0-.113,0-.113-.088V234.04a.277.277,0,0,1,.113-.214l1.069-.616c.063,0,.113,0,.113.088v2.893a.239.239,0,0,1-.113.214Z" transform="translate(-109.808 -11.935)" fill="#ff8900"/>
        <path id="Path_33190" data-name="Path 33190" d="M127.118,245.775l-1.258-.793v-.239l1.258-2.327a.082.082,0,1,1,.164,0v3.132C127.294,245.687,127.181,245.813,127.118,245.775Z" transform="translate(-110.448 -9.58)" fill="#ff8900"/>
        <path id="Path_33191" data-name="Path 33191" d="M126.474,243.864l1.736-.994v.818l-1.736,1.006c-.138.088-.264,0-.264-.264A.742.742,0,0,1,126.474,243.864Z" transform="translate(-110.358 -9.443)" fill="#ff8900"/>
        <path id="Path_33192" data-name="Path 33192" d="M128.06,242.79l.591-.34v.818l-.591.34Z" transform="translate(-109.881 -9.551)" fill="#ff8900"/>
        <path id="Path_33193" data-name="Path 33193" d="M130.061,242.053v3.032a.667.667,0,0,1-.277.566c-.138.088-.264,0-.264-.252v-2.617l-.73.415v-.818l.994-.579A.23.23,0,0,1,130.061,242.053Z" transform="translate(-109.692 -9.72)" fill="#ff8900"/>
        <path id="Path_33194" data-name="Path 33194" d="M127.653,250.543a5.711,5.711,0,0,0-1.824,4.906c.214,1.572,1.145,1.51,1.258,2.239,0,.088.063.113.113.088l1.17-.667a.314.314,0,0,0,.126-.214c.126-.969,1.321-2.139,1.321-4.491C129.829,250.606,128.835,249.725,127.653,250.543Z" transform="translate(-110.467 -7.542)" fill="#ff8900"/>
        <path id="Path_33195" data-name="Path 33195" d="M128.091,257.492l-1.132.654c-.075,0-.138,0-.138-.113V257a.352.352,0,0,1,.138-.277l1.132-.654c.075,0,.138,0,.138.113v1.057a.34.34,0,0,1-.138.253Z" transform="translate(-110.201 -6.037)" fill="#ff8900"/>
        <path id="Path_33196" data-name="Path 33196" d="M127.929,231.11a6.868,6.868,0,0,0-2.051,4.353,4.6,4.6,0,0,0,.289,2.365l-.377,1.988c0,.164,0,.239.151.138l1.145-1.258a1.774,1.774,0,0,0,1.661-.478,6.869,6.869,0,0,0,2.051-4.353C131.086,231.11,129.627,229.739,127.929,231.11Zm.4,6.491c-1.044.6-1.9-.214-1.9-1.837a5.032,5.032,0,0,1,1.9-4.026c1.057-.6,1.912.214,1.912,1.837a5.032,5.032,0,0,1-1.912,4.051Z" transform="translate(-110.466 -12.615)" fill="#ff8900"/>
        <path id="Path_33197" data-name="Path 33197" d="M127.929,261.483a6.831,6.831,0,0,0-2.051,4.34,4.629,4.629,0,0,0,.289,2.378l-.377,1.975c0,.164,0,.252.151.151l1.145-1.258a1.774,1.774,0,0,0,1.661-.478,6.906,6.906,0,0,0,2.051-4.353C131.086,261.483,129.627,260.086,127.929,261.483Zm.4,6.491c-1.044.6-1.9-.214-1.9-1.837a5.032,5.032,0,0,1,1.9-4.026c1.057-.6,1.912.214,1.912,1.837a5.032,5.032,0,0,1-1.91,4.026Z" transform="translate(-110.466 -4.782)" fill="#ff8900"/>
        <path id="Path_33198" data-name="Path 33198" d="M129.183,272.71a2.642,2.642,0,0,1-1.006,2.126c-.553.327-1.006-.113-1.006-.969a2.68,2.68,0,0,1,1.006-2.126C128.73,271.427,129.183,271.854,129.183,272.71Z" transform="translate(-110.11 -2.021)" fill="#ff8900"/>
        <path id="Path_33199" data-name="Path 33199" d="M130.416,272.876a1.774,1.774,0,0,1-.667,1.421c-.377.214-.679-.075-.679-.642a1.761,1.761,0,0,1,.679-1.422C130.114,272.021,130.416,272.31,130.416,272.876Z" transform="translate(-109.62 -1.885)" fill="#ff8900"/>
        <path id="Path_33200" data-name="Path 33200" d="M129.4,278.122,127,279.48v-3.044a2.076,2.076,0,0,1,.868-1.648l.654-.377c.465-.264.855,0,.855.654Z" transform="translate(-110.154 -1.332)" fill="#ff8900"/>
        <path id="Path_33201" data-name="Path 33201" d="M129.824,274.154l-.654.377v3.459l1.258-.717v-2.692C130.4,274.154,130.139,273.978,129.824,274.154Z" transform="translate(-109.594 -1.389)" fill="#ff8900"/>
        <path id="Path_33202" data-name="Path 33202" d="M125.8,275.546c0,.566.3.855.667.642a1.761,1.761,0,0,0,.667-1.409c0-.579-.3-.868-.667-.654A1.8,1.8,0,0,0,125.8,275.546Z" transform="translate(-110.464 -1.398)" fill="#ff8900"/>
        <path id="Path_33203" data-name="Path 33203" d="M126.376,276.2l.642-.377v3.472l-1.258.7v-2.7A1.371,1.371,0,0,1,126.376,276.2Z" transform="translate(-110.474 -0.942)" fill="#ff8900"/>
        <path id="Path_33204" data-name="Path 33204" d="M135.279,232.219l27.952-16.178c.755-.44,1.359-.126,1.359.692A2.918,2.918,0,0,1,163.231,219l-27.952,16.178c-.755.428-1.359.126-1.359-.692a2.919,2.919,0,0,1,1.359-2.264Z" transform="translate(-108.369 -16.415)" fill="#e0e0e0"/>
        <path id="Path_33205" data-name="Path 33205" d="M135.279,242.657l27.94-16.127c.755-.428,1.359-.126,1.359.692a2.919,2.919,0,0,1-1.359,2.264l-27.94,16.127c-.755.428-1.359.126-1.359-.692A2.919,2.919,0,0,1,135.279,242.657Z" transform="translate(-108.369 -13.708)" fill="#e0e0e0"/>
        <path id="Path_33206" data-name="Path 33206" d="M135.279,253.1l27.952-16.064c.755-.44,1.359-.126,1.359.679a2.906,2.906,0,0,1-1.359,2.264l-27.952,16.064c-.755.44-1.359.126-1.359-.692a2.893,2.893,0,0,1,1.359-2.251Z" transform="translate(-108.369 -10.998)" fill="#e0e0e0"/>
        <path id="Path_33207" data-name="Path 33207" d="M135.279,263.568l27.94-16.127c.755-.44,1.359-.126,1.359.692a2.893,2.893,0,0,1-1.359,2.252l-27.94,16.14c-.755.428-1.359.126-1.359-.692a2.906,2.906,0,0,1,1.359-2.265Z" transform="translate(-108.369 -8.315)" fill="#e0e0e0"/>
        <path id="Path_33208" data-name="Path 33208" d="M135.279,274.017l27.94-16.127c.755-.428,1.359-.126,1.359.692a2.919,2.919,0,0,1-1.359,2.264l-27.94,16.1c-.755.428-1.359.126-1.359-.692a2.918,2.918,0,0,1,1.359-2.239Z" transform="translate(-108.369 -5.618)" fill="#e0e0e0"/>
        <path id="Path_33209" data-name="Path 33209" d="M139.349,282.558l27.94-16.127c.755-.44,1.359-.126,1.359.679a2.906,2.906,0,0,1-1.359,2.264L139.349,285.5c-.755.44-1.359.126-1.359-.679A2.906,2.906,0,0,1,139.349,282.558Z" transform="translate(-107.319 -3.416)" fill="#ff8900"/>
        <path id="Path_33210" data-name="Path 33210" d="M139.349,289.618l27.94-16.127c.755-.44,1.359-.126,1.359.692a2.893,2.893,0,0,1-1.359,2.252l-27.94,16.127c-.755.44-1.359.126-1.359-.679a2.906,2.906,0,0,1,1.359-2.264Z" transform="translate(-107.319 -1.594)" fill="#e0e0e0"/>
        <path id="Path_33211" data-name="Path 33211" d="M139.349,296.678l27.94-16.127c.755-.44,1.359-.126,1.359.692a2.893,2.893,0,0,1-1.359,2.252l-27.94,16.14c-.755.428-1.359.126-1.359-.692a2.919,2.919,0,0,1,1.359-2.265Z" transform="translate(-107.319 0.227)" fill="#e0e0e0"/>
        <path id="Path_33212" data-name="Path 33212" d="M143.669,301.168l27.94-16.127c.755-.44,1.359-.126,1.359.679a2.906,2.906,0,0,1-1.359,2.264l-27.94,16.127c-.742.44-1.359.126-1.359-.679a2.931,2.931,0,0,1,1.359-2.264Z" transform="translate(-106.204 1.385)" fill="#e0e0e0"/>
        <path id="Path_33213" data-name="Path 33213" d="M138.254,305.079l2.277-4c.088-.151.088-.352,0-.4l-2.277-1.384c-.1-.063-.264.138-.264.352v5.384C138,305.218,138.154,305.28,138.254,305.079Z" transform="translate(-107.319 5.11)" fill="#ff8900"/>
        <path id="Path_33214" data-name="Path 33214" d="M143.669,308.2l27.94-16.165c.755-.428,1.359-.126,1.359.692a2.918,2.918,0,0,1-1.36,2.273l-27.94,16.165c-.742.44-1.359.126-1.359-.692a2.956,2.956,0,0,1,1.359-2.264Z" transform="translate(-106.204 3.192)" fill="#e0e0e0"/>
        <path id="Path_33215" data-name="Path 33215" d="M138.254,312.122l2.277-4c.088-.151.088-.352,0-.415l-2.277-1.384c-.1-.063-.264.151-.264.365v5.384C138,312.285,138.154,312.31,138.254,312.122Z" transform="translate(-107.319 6.924)" fill="#ff8900"/>
        <path id="Path_33216" data-name="Path 33216" d="M143.669,315.238l27.94-16.127c.755-.44,1.359-.126,1.359.692a2.918,2.918,0,0,1-1.359,2.264l-27.94,16.127c-.742.428-1.359.126-1.359-.692a2.956,2.956,0,0,1,1.359-2.264Z" transform="translate(-106.204 5.015)" fill="#e0e0e0"/>
        <path id="Path_33217" data-name="Path 33217" d="M138.254,319.192l2.277-4.013c.088-.151.088-.352,0-.4l-2.277-1.384c-.1-.063-.264.151-.264.365v5.384C138,319.317,138.154,319.343,138.254,319.192Z" transform="translate(-107.319 8.748)" fill="#ff8900"/>
        <path id="Path_33218" data-name="Path 33218" d="M143.669,322.278l27.94-16.127c.755-.44,1.359-.126,1.359.679a2.906,2.906,0,0,1-1.359,2.264l-27.94,16.127c-.742.44-1.359.126-1.359-.679A2.931,2.931,0,0,1,143.669,322.278Z" transform="translate(-106.204 6.831)" fill="#e0e0e0"/>
        <path id="Path_33219" data-name="Path 33219" d="M138.254,326.19l2.277-4c.088-.151.088-.352,0-.4l-2.277-1.384c-.1-.076-.264.138-.264.352v5.434C138,326.353,138.154,326.391,138.254,326.19Z" transform="translate(-107.319 10.556)" fill="#ff8900"/>
        <path id="Path_33220" data-name="Path 33220" d="M143.669,329.347l27.94-16.127c.755-.428,1.359-.126,1.359.692a2.918,2.918,0,0,1-1.359,2.264L143.669,332.3c-.742.428-1.359.126-1.359-.692A2.956,2.956,0,0,1,143.669,329.347Z" transform="translate(-106.204 8.656)" fill="#e0e0e0"/>
        <path id="Path_33221" data-name="Path 33221" d="M138.254,333.192l2.277-4c.088-.151.088-.352,0-.415l-2.277-1.384c-.1-.063-.264.151-.264.365v5.435C138,333.406,138.154,333.431,138.254,333.192Z" transform="translate(-107.319 12.36)" fill="#ff8900"/>
        <path id="Path_33222" data-name="Path 33222" d="M143.669,336.348l27.94-16.127c.755-.44,1.359-.126,1.359.692a2.893,2.893,0,0,1-1.359,2.252l-27.94,16.14c-.742.428-1.359.126-1.359-.692a2.956,2.956,0,0,1,1.359-2.265Z" transform="translate(-106.204 10.461)" fill="#e0e0e0"/>
        <path id="Path_33223" data-name="Path 33223" d="M138.254,340.272l2.277-4.013c.088-.151.088-.352,0-.4l-2.277-1.384c-.1-.063-.264.151-.264.365v5.334C138,340.435,138.154,340.46,138.254,340.272Z" transform="translate(-107.319 14.186)" fill="#ff8900"/>
        <path id="Path_33224" data-name="Path 33224" d="M143.669,343.348l27.94-16.127c.755-.44,1.359-.126,1.359.679a2.906,2.906,0,0,1-1.359,2.264l-27.94,16.127c-.742.44-1.359.126-1.359-.692A2.931,2.931,0,0,1,143.669,343.348Z" transform="translate(-106.204 12.267)" fill="#e0e0e0"/>
        <path id="Path_33225" data-name="Path 33225" d="M138.254,347.3l2.277-4c.088-.151.088-.352,0-.4l-2.277-1.384c-.1-.075-.264.138-.264.352v5.384C138,347.463,138.154,347.5,138.254,347.3Z" transform="translate(-107.319 16.002)" fill="#ff8900"/>
        <path id="Path_33226" data-name="Path 33226" d="M143.669,350.417l27.94-16.127c.755-.428,1.359-.126,1.359.692a2.919,2.919,0,0,1-1.359,2.264l-27.94,16.127c-.742.428-1.359.126-1.359-.692A2.956,2.956,0,0,1,143.669,350.417Z" transform="translate(-106.204 14.092)" fill="#e0e0e0"/>
        <path id="Path_33227" data-name="Path 33227" d="M138.257,354.334l2.264-3.963c.088-.151.088-.352,0-.415l-2.277-1.384c-.1-.063-.264.151-.264.365v5.384C138.005,354.5,138.156,354.523,138.257,354.334Z" transform="translate(-107.321 17.824)" fill="#ff8900"/>
        <path id="Path_33228" data-name="Path 33228" d="M188.1,215.837l91.833-53.011a3.006,3.006,0,0,0,1.359-2.352V137.062c0-.868-.616-1.258-1.359-.78l-91.833,53a2.994,2.994,0,0,0-1.371,2.352v23.424C186.73,215.925,187.346,216.277,188.1,215.837Z" transform="translate(-94.745 -36.994)" fill="#f0f0f0"/>
        <path id="Path_33229" data-name="Path 33229" d="M194.227,187.067l.6-2.516-.83.478h0V184.5a.215.215,0,0,1,0-.088v-.075l1.333-.767h0a.139.139,0,0,1,0,.075v.4a2.081,2.081,0,0,1,0,.239l-.6,2.516a.783.783,0,0,1,0,.088.138.138,0,0,1,0,.063l-.4.226h0a.1.1,0,0,1-.1-.113Z" transform="translate(-92.87 -24.741)" fill="#455a64"/>
        <path id="Path_33230" data-name="Path 33230" d="M196.157,183.023a.579.579,0,0,1,.365-.113.377.377,0,0,1,.252.1.617.617,0,0,1,.138.289,2.051,2.051,0,0,1,0,.415v.767a3.341,3.341,0,0,1,0,.478,2.077,2.077,0,0,1-.138.453,2.7,2.7,0,0,1-.252.4,1.724,1.724,0,0,1-.365.3.755.755,0,0,1-.365.113.427.427,0,0,1-.239-.113.528.528,0,0,1-.151-.289,2.052,2.052,0,0,1,0-.415v-.755a2.927,2.927,0,0,1,0-.478,1.549,1.549,0,0,1,.151-.465,2.026,2.026,0,0,1,.239-.39,1.373,1.373,0,0,1,.365-.3Zm.3,1.736v-.73a.964.964,0,0,0,0-.189.377.377,0,0,0,0-.126.1.1,0,0,0-.088,0h-.138a.65.65,0,0,0-.138.126.591.591,0,0,0-.088.151,1.052,1.052,0,0,0,0,.189s0,.138,0,.214v.906a.291.291,0,0,0,0,.126.126.126,0,0,0,.088,0,.213.213,0,0,0,.138,0,.452.452,0,0,0,.138-.126.365.365,0,0,0,.088-.151.529.529,0,0,0,0-.189,1.1,1.1,0,0,0-.063-.214Z" transform="translate(-92.51 -24.911)" fill="#455a64"/>
        <path id="Path_33231" data-name="Path 33231" d="M197.657,182.832v.327a1.9,1.9,0,0,1,0,.264.877.877,0,0,1-.075.239,1.147,1.147,0,0,1-.138.2.808.808,0,0,1-.189.164.466.466,0,0,1-.189,0,.176.176,0,0,1-.138,0,.214.214,0,0,1-.075-.138.6.6,0,0,1,0-.226v-.327a.867.867,0,0,1,0-.252.755.755,0,0,1,.075-.239.782.782,0,0,1,.138-.214.552.552,0,0,1,.189-.151.326.326,0,0,1,.189,0,.189.189,0,0,1,.138,0l.075.151a.928.928,0,0,1,0,.2Zm.692-.906v-.088a.125.125,0,0,1,.063,0l.226-.138h0l-1.384,3.6v.075a.151.151,0,0,1-.063.063l-.226.126h0Zm-1.258,1.535a.414.414,0,0,0,0,.151h.088a.239.239,0,0,0,.088-.1.766.766,0,0,0,0-.189v-.277a.365.365,0,0,0,0-.151h-.088a.2.2,0,0,0-.088.113.578.578,0,0,0,0,.176,1.107,1.107,0,0,0,.013.277Zm1.849.126v.327a1.915,1.915,0,0,1,0,.264,1.753,1.753,0,0,1-.076.239,1.144,1.144,0,0,1-.138.2.809.809,0,0,1-.189.164.464.464,0,0,1-.189,0,.227.227,0,0,1-.138,0,.289.289,0,0,1-.075-.151.6.6,0,0,1,0-.226v-.314a.955.955,0,0,1,0-.264.757.757,0,0,1,.076-.239.78.78,0,0,1,.088-.252.553.553,0,0,1,.189-.151.467.467,0,0,1,.189,0,.189.189,0,0,1,.138,0,.428.428,0,0,1,.075.151Zm-.553.629a.363.363,0,0,0,0,.151h.088c.088,0,.063,0,.088-.1a.766.766,0,0,0,0-.189V183.8a.365.365,0,0,0,0-.151h-.088a.2.2,0,0,0-.088.113.577.577,0,0,0,0,.176,1.106,1.106,0,0,0,.013.277Z" transform="translate(-92.136 -25.223)" fill="#455a64"/>
        <path id="Path_33232" data-name="Path 33232" d="M194.8,180.912l-.918-1.422a18.165,18.165,0,0,0-2.176,5.875l1.484-.126A13.736,13.736,0,0,1,194.8,180.912Z" transform="translate(-93.46 -25.793)" fill="#ff8900"/>
        <path id="Path_33233" data-name="Path 33233" d="M196.962,178.873v-2.4a10.265,10.265,0,0,0-3.522,3.774l.918,1.422A7.686,7.686,0,0,1,196.962,178.873Z" transform="translate(-93.014 -26.573)" fill="#ff8900"/>
        <path id="Path_33234" data-name="Path 33234" d="M193.043,186.3a12.373,12.373,0,0,1,.214-2.239l-1.484.126a15.457,15.457,0,0,0-.3,3.019,10.908,10.908,0,0,0,.3,2.68l1.484-1.61a8.552,8.552,0,0,1-.214-1.975Z" transform="translate(-93.522 -24.615)" fill="#ff8900"/>
        <path id="Path_33235" data-name="Path 33235" d="M203.107,179.679a5.032,5.032,0,0,0-2.176-3.359,3.535,3.535,0,0,0-3.522.277V179a2.617,2.617,0,0,1,2.6-.189,3.686,3.686,0,0,1,1.61,2.516,8.555,8.555,0,0,1,.214,1.975,12.256,12.256,0,0,1-.214,2.239,14.05,14.05,0,0,1-1.61,4.327,7.9,7.9,0,0,1-2.6,2.818,2.591,2.591,0,0,1-2.6.189,3.648,3.648,0,0,1-1.61-2.516l-1.484,1.61a4.918,4.918,0,0,0,2.176,3.359,3.5,3.5,0,0,0,3.522-.277,10.479,10.479,0,0,0,3.522-3.774,18.393,18.393,0,0,0,2.176-5.862,16.5,16.5,0,0,0,.289-3.032A11.585,11.585,0,0,0,203.107,179.679Z" transform="translate(-93.46 -26.7)" fill="#ff6700"/>
        <path id="Path_33236" data-name="Path 33236" d="M208.411,177.028,236.338,160.9c.755-.44,1.371-.126,1.371.679a2.918,2.918,0,0,1-1.371,2.264l-27.927,16.1c-.755.44-1.371.126-1.371-.679a2.919,2.919,0,0,1,1.371-2.239Z" transform="translate(-89.505 -30.641)" fill="#ff8900"/>
        <path id="Path_33237" data-name="Path 33237" d="M208.411,184.178l48.369-27.927c.755-.44,1.359-.126,1.359.692a2.893,2.893,0,0,1-1.359,2.252l-48.369,27.927c-.755.44-1.371.126-1.371-.692a2.906,2.906,0,0,1,1.371-2.252Z" transform="translate(-89.505 -31.84)" fill="#e0e0e0"/>
        <path id="Path_33238" data-name="Path 33238" d="M267.279,170.11l91.832-53.01a3.019,3.019,0,0,0,1.359-2.365V91.322c0-.868-.6-1.258-1.359-.78l-91.833,53a3.019,3.019,0,0,0-1.359,2.365v23.411C265.945,170.185,266.549,170.537,267.279,170.11Z" transform="translate(-74.315 -48.794)" fill="#f0f0f0"/>
        <path id="Path_33239" data-name="Path 33239" d="M273.74,139.248a1.661,1.661,0,0,1,.075-.491,1.7,1.7,0,0,1,.176-.44,1.932,1.932,0,0,1,.264-.365,1.772,1.772,0,0,1,.3-.252,1.258,1.258,0,0,1,.3-.1.454.454,0,0,1,.264.063.567.567,0,0,1,.189.226,1.254,1.254,0,0,1,.063.415,1721.938,1721.938,0,0,0,0,.465,1.374,1.374,0,0,1-.063.214l-.075.2-.528,1.434a.176.176,0,0,0,0,.075.151.151,0,0,1-.063.063l-.44.252h0a.076.076,0,0,1,0-.063h0l.365-.969a.629.629,0,0,1-.264,0,.328.328,0,0,1-.214-.088.515.515,0,0,1-.151-.226,1.069,1.069,0,0,1-.2-.415Zm1.12-.642a.469.469,0,0,0,0-.151.126.126,0,0,0-.063-.075h-.1a.2.2,0,0,0-.113,0l-.113.088-.088.138a.652.652,0,0,0-.075.164.741.741,0,0,0,0,.163.468.468,0,0,0,0,.151.081.081,0,0,0,.075.075h.088a.2.2,0,0,0,.113,0,.4.4,0,0,0,.113-.1.494.494,0,0,0,.1-.126.63.63,0,0,0,.063-.164.739.739,0,0,0,0-.164Z" transform="translate(-72.298 -36.601)" fill="#455a64"/>
        <path id="Path_33240" data-name="Path 33240" d="M276.04,136.853a.553.553,0,0,1,.352-.113.352.352,0,0,1,.252.1.78.78,0,0,1,.151.289,1.45,1.45,0,0,1,0,.415v.767a2.127,2.127,0,0,1,0,.478,3.18,3.18,0,0,1-.151.453,1.954,1.954,0,0,1-.252.4,1.647,1.647,0,0,1-.352.3.806.806,0,0,1-.365.113.428.428,0,0,1-.252-.113.693.693,0,0,1-.151-.289,1.956,1.956,0,0,1,0-.4v-.767a2.941,2.941,0,0,1,0-.478,2.883,2.883,0,0,1,.151-.465,1.6,1.6,0,0,1,.252-.39,1.258,1.258,0,0,1,.365-.3Zm.289,1.736a7.043,7.043,0,0,0,0-.73.763.763,0,0,0,0-.176.349.349,0,0,0,0-.138.125.125,0,0,0-.088,0H276.1a.453.453,0,0,0-.138.126,1.05,1.05,0,0,0-.1.151v.4a6.819,6.819,0,0,0,0,.717v.189a.654.654,0,0,0,0,.126.113.113,0,0,0,.1,0h.138l.138-.113a.678.678,0,0,0,.088-.164,1.024,1.024,0,0,0,0-.189,1.078,1.078,0,0,0,0-.2Z" transform="translate(-71.905 -36.822)" fill="#455a64"/>
        <path id="Path_33241" data-name="Path 33241" d="M277.579,136.672a1.422,1.422,0,0,1,0,.327,1.864,1.864,0,0,1,0,.264,1.828,1.828,0,0,1-.088.239,1.077,1.077,0,0,1-.126.2.814.814,0,0,1-.2.164.377.377,0,0,1-.189.063.189.189,0,0,1-.126,0,.44.44,0,0,1-.088-.151,1.143,1.143,0,0,1,0-.226.62.62,0,0,1,0-.151.892.892,0,0,1,0-.176,1.715,1.715,0,0,1,0-.252,1.347,1.347,0,0,1,.088-.239.743.743,0,0,1,.126-.214,1,1,0,0,1,.189-.151.466.466,0,0,1,.2,0,.163.163,0,0,1,.126,0,.441.441,0,0,1,.088.151,1.133,1.133,0,0,1,0,.152Zm.7-.906v-.088h.063l.227-.138h0l-1.371,3.6a.4.4,0,0,1,0,.075v.063l-.226.126h0Zm-1.258,1.535v.151c0,.025,0,0,.075,0a.126.126,0,0,0,.088-.1v-.465a.631.631,0,0,0,0-.151H277.1a.189.189,0,0,0-.075.113.531.531,0,0,0,0,.176Zm1.849.126a1.412,1.412,0,0,1,0,.327,1.873,1.873,0,0,1,0,.264,1.815,1.815,0,0,1-.088.239.717.717,0,0,1-.138.2.465.465,0,0,1-.189.164.377.377,0,0,1-.189,0,.151.151,0,0,1-.126,0,.44.44,0,0,1-.088-.151,1.114,1.114,0,0,1,0-.214,1.072,1.072,0,0,1,0-.327,1.868,1.868,0,0,1,0-.264,1.346,1.346,0,0,1,.088-.239.553.553,0,0,1,.126-.2.728.728,0,0,1,.189-.163.465.465,0,0,1,.189,0,.176.176,0,0,1,.138,0,.437.437,0,0,1,.088.151,1.094,1.094,0,0,1,0,.164Zm-.553.629v.151c0,.025,0,0,.075,0a.126.126,0,0,0,.088-.1.677.677,0,0,0,0-.189,1.012,1.012,0,0,0,0-.277.366.366,0,0,0,0-.151h-.08a.189.189,0,0,0-.076.113.53.53,0,0,0,0,.176Z" transform="translate(-71.52 -37.132)" fill="#455a64"/>
        <path id="Path_33242" data-name="Path 33242" d="M276.822,132.753v-2.4a10.264,10.264,0,0,0-3.522,3.774l.918,1.422a7.686,7.686,0,0,1,2.6-2.793Z" transform="translate(-72.412 -38.471)" fill="#ff8900"/>
        <path id="Path_33243" data-name="Path 33243" d="M283.037,133.561a4.956,4.956,0,0,0-2.176-3.359,3.5,3.5,0,0,0-3.522.277v2.4a2.591,2.591,0,0,1,2.6-.189,3.686,3.686,0,0,1,1.61,2.516,8.55,8.55,0,0,1,.214,1.975,12.375,12.375,0,0,1-.214,2.239,13.734,13.734,0,0,1-1.61,4.327,7.9,7.9,0,0,1-2.6,2.818,2.591,2.591,0,0,1-2.6.189,3.648,3.648,0,0,1-1.61-2.516,8.55,8.55,0,0,1-.214-1.975,12.255,12.255,0,0,1,.214-2.239A13.738,13.738,0,0,1,274.7,135.7l-.918-1.422a18.2,18.2,0,0,0-2.176,5.862,16.617,16.617,0,0,0-.3,3.032,11.54,11.54,0,0,0,.3,2.679,4.919,4.919,0,0,0,2.176,3.359,3.5,3.5,0,0,0,3.522-.277,10.367,10.367,0,0,0,3.522-3.774h0A18.5,18.5,0,0,0,283,139.3a16.7,16.7,0,0,0,.289-3.032A11.582,11.582,0,0,0,283.037,133.561Z" transform="translate(-72.927 -38.599)" fill="#ff6700"/>
        <path id="Path_33244" data-name="Path 33244" d="M288.279,130.91l27.94-16.14c.742-.428,1.359-.126,1.359.692a2.931,2.931,0,0,1-1.359,2.264l-27.94,16.127c-.755.44-1.359.126-1.359-.692a2.893,2.893,0,0,1,1.359-2.251Z" transform="translate(-68.898 -42.54)" fill="#ff8900"/>
        <path id="Path_33245" data-name="Path 33245" d="M288.279,138.046l48.369-27.915c.755-.44,1.371-.126,1.371.692a2.906,2.906,0,0,1-1.371,2.252L288.279,141c-.755.428-1.359.126-1.359-.692a2.918,2.918,0,0,1,1.359-2.262Z" transform="translate(-68.898 -43.738)" fill="#e0e0e0"/>
        <path id="Path_33246" data-name="Path 33246" d="M195.529,206.953l19.6-11.322c.755-.44,1.359-.126,1.359.679a2.906,2.906,0,0,1-1.359,2.264l-19.6,11.322c-.755.44-1.359.126-1.359-.692a2.893,2.893,0,0,1,1.359-2.252Z" transform="translate(-92.826 -21.681)" fill="#ff8900"/>
        <path id="Path_33247" data-name="Path 33247" d="M380.233,126.775h0m-.579.34v149.7a1.748,1.748,0,0,1-.73,1.258l-190.937,110.2v-149.7a1.812,1.812,0,0,1,.742-1.258l2.378-1.371a4.265,4.265,0,0,0,2-3.447v-8.63a1.749,1.749,0,0,1,.73-1.258l27.411-15.825v8.051a2.051,2.051,0,0,0,2.013,2.227,2.516,2.516,0,0,0,1.258-.352l155.16-89.581m-157.852,79.3h0m158.33-80.9a1.257,1.257,0,0,0-.6.189L223.866,215.6a1.259,1.259,0,0,1-.6.189c-.453,0-.755-.365-.755-.969v-8.668c0-.616-.314-.969-.755-.969a1.258,1.258,0,0,0-.6.189L193.209,221.5a3.019,3.019,0,0,0-1.359,2.365v8.655a2.994,2.994,0,0,1-1.371,2.353l-2.378,1.384a2.994,2.994,0,0,0-1.371,2.352V388.876c0,.616.314.981.755.981a1.258,1.258,0,0,0,.616-.189L379.541,279.13a2.994,2.994,0,0,0,1.359-2.352V126.5c0-.616-.3-.969-.755-.969Z" transform="translate(-94.745 -39.714)" fill="#e0e0e0"/>
        <path id="Path_33248" data-name="Path 33248" d="M196.8,224.563a1.346,1.346,0,0,1-.667-.164,1.6,1.6,0,0,1-.717-1.434v-5.7a3.648,3.648,0,0,1,1.686-2.906l15.184-8.806a1.573,1.573,0,0,1,1.585-.1,1.6,1.6,0,0,1,.717,1.434v5.7a3.648,3.648,0,0,1-1.686,2.906L197.735,224.3a1.912,1.912,0,0,1-.931.264Zm.931-9.108a2.34,2.34,0,0,0-1.057,1.812v5.7a.478.478,0,0,0,.088.34.491.491,0,0,0,.34-.1l15.184-8.743a2.415,2.415,0,0,0,1.044-1.824v-5.7a.478.478,0,0,0-.088-.34.491.491,0,0,0-.34.1Z" transform="translate(-92.504 -19.138)" fill="#e0e0e0"/>
        <path id="Path_33249" data-name="Path 33249" d="M198.186,216.434l9.9-5.736c.5-.289.906-.088.906.453a1.925,1.925,0,0,1-.906,1.51l-9.9,5.749c-.5.289-.906.075-.906-.465a1.95,1.95,0,0,1,.906-1.51Z" transform="translate(-92.023 -17.777)" fill="#e0e0e0"/>
        <path id="Path_33250" data-name="Path 33250" d="M207.671,210.162l.818,1.17a.148.148,0,0,0,.126-.075l.818-2.113v-.151l-1.635.943a.2.2,0,0,0-.127.226Z" transform="translate(-89.344 -18.185)" fill="#455a64"/>
        <path id="Path_33251" data-name="Path 33251" d="M195.118,264.6c.73-.415,1.258-.075,1.258.755a2.881,2.881,0,0,1-1.258,2.277c-.73.415-1.258.076-1.258-.755A2.881,2.881,0,0,1,195.118,264.6Z" transform="translate(-92.905 -3.883)" fill="#ff8900"/>
        <path id="Path_33252" data-name="Path 33252" d="M203.258,255.216c.73-.415,1.321-.075,1.321.755a2.893,2.893,0,0,1-1.321,2.277c-.717.415-1.258.076-1.258-.755a2.906,2.906,0,0,1,1.258-2.277Z" transform="translate(-90.806 -6.303)" fill="#ff8900"/>
        <path id="Path_33253" data-name="Path 33253" d="M211.381,250.526c.717-.415,1.258-.075,1.258.755a2.906,2.906,0,0,1-1.258,2.277c-.73.415-1.321.075-1.321-.755a2.893,2.893,0,0,1,1.321-2.277Z" transform="translate(-88.726 -7.513)" fill="#ff8900"/>
        <path id="Path_33254" data-name="Path 33254" d="M219.488,247.9c.73-.415,1.258-.075,1.258.755a2.88,2.88,0,0,1-1.258,2.277c-.73.415-1.258.075-1.258-.755a2.881,2.881,0,0,1,1.258-2.277Z" transform="translate(-86.618 -8.192)" fill="#ff8900"/>
        <path id="Path_33255" data-name="Path 33255" d="M227.618,239.446c.73-.415,1.258-.075,1.258.767a2.881,2.881,0,0,1-1.258,2.264c-.717.428-1.258.088-1.258-.755a2.944,2.944,0,0,1,1.258-2.277Z" transform="translate(-84.521 -10.371)" fill="#ff8900"/>
        <path id="Path_33256" data-name="Path 33256" d="M235.738,236.456c.73-.415,1.258-.075,1.258.755a2.881,2.881,0,0,1-1.258,2.277c-.73.415-1.258.076-1.258-.755A2.881,2.881,0,0,1,235.738,236.456Z" transform="translate(-82.426 -11.143)" fill="#ff8900"/>
        <path id="Path_33257" data-name="Path 33257" d="M243.858,227.038c.73-.428,1.321-.088,1.321.755a2.906,2.906,0,0,1-1.321,2.277c-.717.415-1.258.075-1.258-.767a2.906,2.906,0,0,1,1.258-2.264Z" transform="translate(-80.331 -13.575)" fill="#ff8900"/>
        <path id="Path_33258" data-name="Path 33258" d="M251.988,224.726c.717-.415,1.258-.075,1.258.767a2.906,2.906,0,0,1-1.258,2.264c-.73.428-1.258.088-1.258-.755a2.906,2.906,0,0,1,1.258-2.277Z" transform="translate(-78.234 -14.169)" fill="#ff8900"/>
        <path id="Path_33259" data-name="Path 33259" d="M260.108,198.926c.73-.415,1.258-.076,1.258.767a2.931,2.931,0,0,1-1.258,2.277c-.73.415-1.258.076-1.258-.767a2.919,2.919,0,0,1,1.258-2.277Z" transform="translate(-76.139 -20.825)" fill="#ff8900"/>
        <path id="Path_33260" data-name="Path 33260" d="M268.271,213.038c.717-.428,1.258-.088,1.258.755a2.944,2.944,0,0,1-1.258,2.277c-.73.415-1.321.075-1.321-.767a2.88,2.88,0,0,1,1.321-2.264Z" transform="translate(-74.05 -17.186)" fill="#ff8900"/>
        <path id="Path_33261" data-name="Path 33261" d="M276.358,213.038c.73-.428,1.258-.088,1.258.755a2.918,2.918,0,0,1-1.258,2.277c-.73.415-1.258.075-1.258-.767a2.868,2.868,0,0,1,1.258-2.265Z" transform="translate(-71.947 -17.186)" fill="#ff8900"/>
        <path id="Path_33262" data-name="Path 33262" d="M284.478,213.038c.73-.428,1.258-.088,1.258.755a2.931,2.931,0,0,1-1.258,2.277c-.717.415-1.258.075-1.258-.767a2.906,2.906,0,0,1,1.258-2.265Z" transform="translate(-69.852 -17.186)" fill="#ff8900"/>
        <path id="Path_33263" data-name="Path 33263" d="M292.621,198.938c.717-.428,1.258-.088,1.258.755a2.944,2.944,0,0,1-1.258,2.277c-.73.415-1.321.075-1.321-.767A2.881,2.881,0,0,1,292.621,198.938Z" transform="translate(-67.768 -20.824)" fill="#ff8900"/>
        <path id="Path_33264" data-name="Path 33264" d="M300.728,196.236c.73-.415,1.258-.075,1.258.755a2.881,2.881,0,0,1-1.258,2.277c-.73.415-1.258.075-1.258-.755a2.881,2.881,0,0,1,1.258-2.277Z" transform="translate(-65.66 -21.519)" fill="#ff8900"/>
        <path id="Path_33265" data-name="Path 33265" d="M308.878,184.856c.73-.415,1.321-.075,1.321.767a2.88,2.88,0,0,1-1.321,2.264c-.717.428-1.258.088-1.258-.755a2.943,2.943,0,0,1,1.258-2.277Z" transform="translate(-63.558 -24.455)" fill="#ff8900"/>
        <ellipse id="Ellipse_564" data-name="Ellipse 564" cx="1.862" cy="1.069" rx="1.862" ry="1.069" transform="translate(253.663 163.022) rotate(-60)" fill="#ff8900"/>
        <ellipse id="Ellipse_565" data-name="Ellipse 565" cx="1.862" cy="1.069" rx="1.862" ry="1.069" transform="translate(263.89 163.019) rotate(-60)" fill="#ff8900"/>
        <path id="Path_33266" data-name="Path 33266" d="M333.271,180.166c.717-.415,1.258-.075,1.258.767a2.906,2.906,0,0,1-1.258,2.264c-.73.428-1.321.088-1.321-.755A2.931,2.931,0,0,1,333.271,180.166Z" transform="translate(-57.281 -25.665)" fill="#ff8900"/>
        <path id="Path_33267" data-name="Path 33267" d="M194.9,287.9a.339.339,0,0,1-.214-.075.327.327,0,0,1,0-.453L205,275.523l.088-.075,10.139-5.85,10.2-3.309,10.164-10.58.126-.076,10.139-3.774,10.164-11.737a.531.531,0,0,1,.151-.1l10.064-2.906,10.139-32.242a.327.327,0,0,1,.264-.226.34.34,0,0,1,.315.164l10.127,17.536h20.128l10.076-17.473a.3.3,0,0,1,.176-.151l10.127-3.359,10.152-14.228a.34.34,0,0,1,.264-.126h20.354l10.139-5.862a.313.313,0,1,1,.314.541L358.6,187.6a.351.351,0,0,1-.164,0H338.162l-10.127,14.18a.277.277,0,0,1-.151.113l-10.064,3.359-10.165,17.612a.327.327,0,0,1-.277.151H286.937a.327.327,0,0,1-.264-.151L276.81,205.78l-10,31.8a.365.365,0,0,1-.214.214l-10.139,2.918L246.3,252.451l-.126.088-10.165,3.774-10.165,10.58a.265.265,0,0,1-.126.075L215.5,270.277l-10.064,5.812L195.1,287.826a.314.314,0,0,1-.2.074Z" transform="translate(-92.715 -25.377)" fill="#ff6700"/>
        <path id="Path_33268" data-name="Path 33268" d="M194.988,291.823a.629.629,0,0,1-.541-.315.642.642,0,0,1,.226-.868l173.74-100.3a.629.629,0,0,1,.629,1.082L195.3,291.685a.591.591,0,0,1-.314.138Z" transform="translate(-92.776 -23.008)" fill="#e0e0e0"/>
        <path id="Path_33269" data-name="Path 33269" d="M195.118,259.906c.73-.415,1.258-.076,1.258.755a2.881,2.881,0,0,1-1.258,2.277c-.73.415-1.258.076-1.258-.755a2.881,2.881,0,0,1,1.258-2.277Z" transform="translate(-92.905 -5.093)" fill="#ba68c8"/>
        <path id="Path_33270" data-name="Path 33270" d="M203.258,245.836c.73-.415,1.321-.075,1.321.755a2.893,2.893,0,0,1-1.321,2.277c-.717.415-1.258.075-1.258-.755a2.906,2.906,0,0,1,1.258-2.277Z" transform="translate(-90.806 -8.723)" fill="#ba68c8"/>
        <ellipse id="Ellipse_566" data-name="Ellipse 566" cx="1.862" cy="1.069" rx="1.862" ry="1.069" transform="translate(120.809 237.508) rotate(-60)" fill="#ba68c8"/>
        <path id="Path_33271" data-name="Path 33271" d="M219.488,227.038c.73-.428,1.258-.088,1.258.755a2.893,2.893,0,0,1-1.258,2.277c-.73.415-1.258.075-1.258-.767a2.868,2.868,0,0,1,1.258-2.264Z" transform="translate(-86.618 -13.575)" fill="#ba68c8"/>
        <path id="Path_33272" data-name="Path 33272" d="M227.618,231.766c.73-.415,1.258-.075,1.258.755a2.894,2.894,0,0,1-1.258,2.277c-.717.415-1.258.075-1.258-.755a2.906,2.906,0,0,1,1.258-2.277Z" transform="translate(-84.521 -12.353)" fill="#ba68c8"/>
        <path id="Path_33273" data-name="Path 33273" d="M235.738,229.416c.73-.415,1.258-.075,1.258.767a2.868,2.868,0,0,1-1.258,2.264c-.73.428-1.258.088-1.258-.755a2.918,2.918,0,0,1,1.258-2.277Z" transform="translate(-82.426 -12.959)" fill="#ba68c8"/>
        <path id="Path_33274" data-name="Path 33274" d="M243.858,222.388c.73-.428,1.321-.088,1.321.755a2.906,2.906,0,0,1-1.321,2.277c-.717.415-1.258.075-1.258-.755a2.906,2.906,0,0,1,1.258-2.277Z" transform="translate(-80.331 -14.774)" fill="#ba68c8"/>
        <path id="Path_33275" data-name="Path 33275" d="M251.988,213.038c.717-.428,1.258-.088,1.258.755a2.944,2.944,0,0,1-1.258,2.277c-.73.415-1.258.075-1.258-.767a2.881,2.881,0,0,1,1.258-2.264Z" transform="translate(-78.234 -17.186)" fill="#ba68c8"/>
        <path id="Path_33276" data-name="Path 33276" d="M260.108,210.656c.73-.415,1.258-.075,1.258.755a2.894,2.894,0,0,1-1.258,2.277c-.73.415-1.258.075-1.258-.755a2.881,2.881,0,0,1,1.258-2.277Z" transform="translate(-76.139 -17.799)" fill="#ba68c8"/>
        <path id="Path_33277" data-name="Path 33277" d="M268.258,203.628c.73-.428,1.258-.088,1.258.755a2.931,2.931,0,0,1-1.258,2.277c-.717.415-1.258.075-1.258-.767a2.906,2.906,0,0,1,1.258-2.264Z" transform="translate(-74.037 -19.614)" fill="#ba68c8"/>
        <path id="Path_33278" data-name="Path 33278" d="M276.358,203.628c.73-.428,1.258-.088,1.258.755a2.918,2.918,0,0,1-1.258,2.277c-.73.415-1.258.075-1.258-.767A2.868,2.868,0,0,1,276.358,203.628Z" transform="translate(-71.947 -19.614)" fill="#ba68c8"/>
        <path id="Path_33279" data-name="Path 33279" d="M284.478,184.856c.73-.415,1.258-.075,1.258.767a2.88,2.88,0,0,1-1.258,2.264c-.717.428-1.258.088-1.258-.755a2.944,2.944,0,0,1,1.258-2.276Z" transform="translate(-69.852 -24.455)" fill="#ba68c8"/>
        <path id="Path_33280" data-name="Path 33280" d="M292.621,194.177c.717-.415,1.258-.088,1.258.755a2.906,2.906,0,0,1-1.258,2.277c-.73.415-1.321.075-1.321-.755A2.893,2.893,0,0,1,292.621,194.177Z" transform="translate(-67.768 -22.051)" fill="#ba68c8"/>
        <path id="Path_33281" data-name="Path 33281" d="M300.728,184.856c.73-.415,1.258-.075,1.258.767a2.881,2.881,0,0,1-1.258,2.264c-.73.428-1.258.088-1.258-.755a2.919,2.919,0,0,1,1.258-2.277Z" transform="translate(-65.66 -24.455)" fill="#ba68c8"/>
        <path id="Path_33282" data-name="Path 33282" d="M308.871,180.166c.717-.415,1.258-.075,1.258.767a2.906,2.906,0,0,1-1.258,2.264c-.73.428-1.321.088-1.321-.755A2.931,2.931,0,0,1,308.871,180.166Z" transform="translate(-63.575 -25.665)" fill="#ba68c8"/>
        <path id="Path_33283" data-name="Path 33283" d="M316.978,180.166c.73-.415,1.258-.075,1.258.767a2.868,2.868,0,0,1-1.258,2.264c-.73.428-1.258.088-1.258-.755A2.919,2.919,0,0,1,316.978,180.166Z" transform="translate(-61.468 -25.665)" fill="#ba68c8"/>
        <path id="Path_33284" data-name="Path 33284" d="M325.1,175.476c.73-.415,1.321-.075,1.321.767a2.881,2.881,0,0,1-1.321,2.264c-.717.428-1.258.088-1.258-.755a2.944,2.944,0,0,1,1.258-2.276Z" transform="translate(-59.373 -26.875)" fill="#ba68c8"/>
        <path id="Path_33285" data-name="Path 33285" d="M333.271,175.476c.717-.415,1.258-.075,1.258.767a2.906,2.906,0,0,1-1.258,2.264c-.73.428-1.321.088-1.321-.755a2.931,2.931,0,0,1,1.321-2.277Z" transform="translate(-57.281 -26.875)" fill="#ba68c8"/>
        <path id="Path_33286" data-name="Path 33286" d="M194.925,283.224a.277.277,0,0,1-.164,0,.314.314,0,0,1-.113-.428l10.29-17.738a.289.289,0,0,1,.214-.151l9.988-2.139,10.152-21.26a.327.327,0,0,1,.2-.164.3.3,0,0,1,.252,0l10.064,5.837,10.064-2.906,10.152-8.806,10.2-11.775a.252.252,0,0,1,.151-.1l10.152-2.931,10.165-8.806a.314.314,0,0,1,.214-.075H296.97l10.089-23.411a.352.352,0,0,1,.252-.189.3.3,0,0,1,.277.113l9.988,11.523,9.976-11.523a.251.251,0,0,1,.088-.075l10.253-5.913a.239.239,0,0,1,.151,0h10.139l10.064-5.837a.339.339,0,0,1,.151,0h10.3a.314.314,0,0,1,0,.629H358.564L348.5,182.938H338.21l-10.139,5.85L317.893,200.55a.327.327,0,0,1-.478,0l-9.9-11.422-10.064,23.147a.315.315,0,0,1-.289.189H287.1l-10.227,8.705h-.126l-10.127,2.919-10.177,11.737L246.2,244.7l-.113.063-10.215,2.956a.276.276,0,0,1-.239,0l-9.938-5.736-10.064,21.1a.264.264,0,0,1-.214.164l-10.064,2.139L195.127,283a.3.3,0,0,1-.2.224Z" transform="translate(-92.713 -26.574)" fill="#ba68c8"/>
        <g id="Group_15428" data-name="Group 15428" transform="translate(100.955 148.425)">
          <path id="Path_33287" data-name="Path 33287" d="M195.118,259.906c.73-.415,1.258-.076,1.258.755a2.881,2.881,0,0,1-1.258,2.277c-.73.415-1.258.076-1.258-.755a2.881,2.881,0,0,1,1.258-2.277Z" transform="translate(-193.86 -153.518)" fill="#ff6700"/>
          <path id="Path_33288" data-name="Path 33288" d="M203.258,245.836c.73-.415,1.321-.075,1.321.755a2.893,2.893,0,0,1-1.321,2.277c-.717.415-1.258.075-1.258-.755a2.906,2.906,0,0,1,1.258-2.277Z" transform="translate(-191.76 -157.148)" fill="#ff6700"/>
          <ellipse id="Ellipse_567" data-name="Ellipse 567" cx="1.862" cy="1.069" rx="1.862" ry="1.069" transform="translate(19.854 89.084) rotate(-60)" fill="#ff6700"/>
          <path id="Path_33289" data-name="Path 33289" d="M219.488,227.038c.73-.428,1.258-.088,1.258.755a2.893,2.893,0,0,1-1.258,2.277c-.73.415-1.258.075-1.258-.767a2.868,2.868,0,0,1,1.258-2.264Z" transform="translate(-187.573 -162)" fill="#ff6700"/>
          <path id="Path_33290" data-name="Path 33290" d="M227.618,231.766c.73-.415,1.258-.075,1.258.755a2.894,2.894,0,0,1-1.258,2.277c-.717.415-1.258.075-1.258-.755a2.906,2.906,0,0,1,1.258-2.277Z" transform="translate(-185.476 -160.778)" fill="#ff6700"/>
          <path id="Path_33291" data-name="Path 33291" d="M235.738,229.416c.73-.415,1.258-.075,1.258.767a2.868,2.868,0,0,1-1.258,2.264c-.73.428-1.258.088-1.258-.755a2.918,2.918,0,0,1,1.258-2.277Z" transform="translate(-183.381 -161.384)" fill="#ff6700"/>
          <path id="Path_33292" data-name="Path 33292" d="M243.858,222.388c.73-.428,1.321-.088,1.321.755a2.906,2.906,0,0,1-1.321,2.277c-.717.415-1.258.075-1.258-.755a2.906,2.906,0,0,1,1.258-2.277Z" transform="translate(-181.286 -163.199)" fill="#ff6700"/>
          <path id="Path_33293" data-name="Path 33293" d="M251.988,213.038c.717-.428,1.258-.088,1.258.755a2.944,2.944,0,0,1-1.258,2.277c-.73.415-1.258.075-1.258-.767a2.881,2.881,0,0,1,1.258-2.264Z" transform="translate(-179.189 -165.611)" fill="#ff6700"/>
          <path id="Path_33294" data-name="Path 33294" d="M260.108,210.656c.73-.415,1.258-.075,1.258.755a2.894,2.894,0,0,1-1.258,2.277c-.73.415-1.258.075-1.258-.755a2.881,2.881,0,0,1,1.258-2.277Z" transform="translate(-177.094 -166.224)" fill="#ff6700"/>
          <path id="Path_33295" data-name="Path 33295" d="M268.258,203.628c.73-.428,1.258-.088,1.258.755a2.931,2.931,0,0,1-1.258,2.277c-.717.415-1.258.075-1.258-.767a2.906,2.906,0,0,1,1.258-2.264Z" transform="translate(-174.991 -168.039)" fill="#ff6700"/>
          <path id="Path_33296" data-name="Path 33296" d="M276.358,203.628c.73-.428,1.258-.088,1.258.755a2.918,2.918,0,0,1-1.258,2.277c-.73.415-1.258.075-1.258-.767A2.868,2.868,0,0,1,276.358,203.628Z" transform="translate(-172.902 -168.039)" fill="#ff6700"/>
          <path id="Path_33297" data-name="Path 33297" d="M284.478,184.856c.73-.415,1.258-.075,1.258.767a2.88,2.88,0,0,1-1.258,2.264c-.717.428-1.258.088-1.258-.755a2.944,2.944,0,0,1,1.258-2.276Z" transform="translate(-170.807 -172.88)" fill="#ff6700"/>
          <path id="Path_33298" data-name="Path 33298" d="M292.621,194.177c.717-.415,1.258-.088,1.258.755a2.906,2.906,0,0,1-1.258,2.277c-.73.415-1.321.075-1.321-.755A2.893,2.893,0,0,1,292.621,194.177Z" transform="translate(-168.722 -170.476)" fill="#ff6700"/>
          <path id="Path_33299" data-name="Path 33299" d="M300.728,184.856c.73-.415,1.258-.075,1.258.767a2.881,2.881,0,0,1-1.258,2.264c-.73.428-1.258.088-1.258-.755a2.919,2.919,0,0,1,1.258-2.277Z" transform="translate(-166.615 -172.88)" fill="#ff6700"/>
          <path id="Path_33300" data-name="Path 33300" d="M308.871,180.166c.717-.415,1.258-.075,1.258.767a2.906,2.906,0,0,1-1.258,2.264c-.73.428-1.321.088-1.321-.755A2.931,2.931,0,0,1,308.871,180.166Z" transform="translate(-164.53 -174.09)" fill="#ff6700"/>
          <path id="Path_33301" data-name="Path 33301" d="M316.978,180.166c.73-.415,1.258-.075,1.258.767a2.868,2.868,0,0,1-1.258,2.264c-.73.428-1.258.088-1.258-.755A2.919,2.919,0,0,1,316.978,180.166Z" transform="translate(-162.422 -174.09)" fill="#ff6700"/>
          <path id="Path_33302" data-name="Path 33302" d="M325.1,175.476c.73-.415,1.321-.075,1.321.767a2.881,2.881,0,0,1-1.321,2.264c-.717.428-1.258.088-1.258-.755a2.944,2.944,0,0,1,1.258-2.276Z" transform="translate(-160.328 -175.299)" fill="#ff6700"/>
          <path id="Path_33303" data-name="Path 33303" d="M333.271,175.476c.717-.415,1.258-.075,1.258.767a2.906,2.906,0,0,1-1.258,2.264c-.73.428-1.321.088-1.321-.755a2.931,2.931,0,0,1,1.321-2.277Z" transform="translate(-158.235 -175.299)" fill="#ff6700"/>
          <path id="Path_33304" data-name="Path 33304" d="M194.925,283.224a.277.277,0,0,1-.164,0,.314.314,0,0,1-.113-.428l10.29-17.738a.289.289,0,0,1,.214-.151l9.988-2.139,10.152-21.26a.327.327,0,0,1,.2-.164.3.3,0,0,1,.252,0l10.064,5.837,10.064-2.906,10.152-8.806,10.2-11.775a.252.252,0,0,1,.151-.1l10.152-2.931,10.165-8.806a.314.314,0,0,1,.214-.075H296.97l10.089-23.411a.352.352,0,0,1,.252-.189.3.3,0,0,1,.277.113l9.988,11.523,9.976-11.523a.251.251,0,0,1,.088-.075l10.253-5.913a.239.239,0,0,1,.151,0h10.139l10.064-5.837a.339.339,0,0,1,.151,0h10.3a.314.314,0,0,1,0,.629H358.564L348.5,182.938H338.21l-10.139,5.85L317.893,200.55a.327.327,0,0,1-.478,0l-9.9-11.422-10.064,23.147a.315.315,0,0,1-.289.189H287.1l-10.227,8.705h-.126l-10.127,2.919-10.177,11.737L246.2,244.7l-.113.063-10.215,2.956a.276.276,0,0,1-.239,0l-9.938-5.736-10.064,21.1a.264.264,0,0,1-.214.164l-10.064,2.139L195.127,283a.3.3,0,0,1-.2.224Z" transform="translate(-193.667 -174.999)" fill="#ff6700"/>
        </g>
        <path id="Path_33305" data-name="Path 33305" d="M199.291,226.276l9.925-5.749c.5-.289.906-.088.906.465a1.925,1.925,0,0,1-.906,1.5l-9.9,5.749c-.491.289-.906.088-.906-.465a1.962,1.962,0,0,1,.881-1.5Z" transform="translate(-91.732 -15.241)" fill="#e0e0e0"/>
        <path id="Path_33306" data-name="Path 33306" d="M195.131,227.038c.73-.428,1.258-.088,1.258.755a2.881,2.881,0,0,1-1.258,2.277c-.73.415-1.321.075-1.321-.755a2.894,2.894,0,0,1,1.321-2.277Z" transform="translate(-92.918 -13.575)" fill="#ba68c8"/>
        <path id="Path_33307" data-name="Path 33307" d="M195.131,227.038c.73-.428,1.258-.088,1.258.755a2.881,2.881,0,0,1-1.258,2.277c-.73.415-1.321.075-1.321-.755a2.894,2.894,0,0,1,1.321-2.277Z" transform="translate(-92.918 -13.575)" fill="#ff6700"/>
        <path id="Path_33308" data-name="Path 33308" d="M199.3,230.944l9.9-5.736c.5-.289.906-.088.906.453a1.925,1.925,0,0,1-.906,1.51l-9.9,5.749c-.491.289-.906.076-.906-.465A1.975,1.975,0,0,1,199.3,230.944Z" transform="translate(-91.737 -14.033)" fill="#e0e0e0"/>
        <path id="Path_33309" data-name="Path 33309" d="M195.131,231.767c.73-.415,1.258-.088,1.258.755a2.881,2.881,0,0,1-1.258,2.277c-.73.415-1.321.076-1.321-.755A2.893,2.893,0,0,1,195.131,231.767Z" transform="translate(-92.918 -12.353)" fill="#ff8900"/>
        <path id="Path_33310" data-name="Path 33310" d="M194.924,300.412a.327.327,0,0,1-.214-.088.314.314,0,0,1,0-.453l5.183-5.334,5.032-.642,5.145-6.642,5.145.7,5.032-4.516,5.107-3.057,5.2-7.208,5.17,1.623,4.969-4.441a.314.314,0,0,1,.44,0,.289.289,0,0,1,0,.44l-5.233,4.68-5.032-1.6-5.032,6.982-5.107,3.057-5.17,4.68-5.032-.692-5.032,6.554-5.359.629-5.032,5.17A.339.339,0,0,1,194.924,300.412Z" transform="translate(-92.711 -2.374)" fill="#ff6700"/>
        <path id="Path_33311" data-name="Path 33311" d="M196.816,281.17a.567.567,0,0,1,.126-.113.739.739,0,0,1,.138-.1,1.4,1.4,0,0,1,.767-.226.894.894,0,0,1,.616.226,1.485,1.485,0,0,1,.4.642,3.108,3.108,0,0,1,.151,1.019,4.67,4.67,0,0,1-.151,1.17,5.369,5.369,0,0,1-.4,1.12,4.077,4.077,0,0,1-.616.943,2.869,2.869,0,0,1-.767.654,1.547,1.547,0,0,1-.78.239.956.956,0,0,1-.6-.239,1.5,1.5,0,0,1-.415-.642,3.437,3.437,0,0,1-.138-1.019,3.675,3.675,0,0,1,0-.642,4.857,4.857,0,0,1,.126-.616,1.922,1.922,0,0,1,.176-.579c.063-.189.126-.377.189-.553L197,278.579a1.352,1.352,0,0,0,.088-.189.3.3,0,0,1,.151-.176l.428-.239a.063.063,0,0,1,.1,0v.314Zm-.969,3.271a2.178,2.178,0,0,0,.088.6.969.969,0,0,0,.252.415.579.579,0,0,0,.377.163,1,1,0,0,0,.516-.151,2.4,2.4,0,0,0,.516-.44,3.035,3.035,0,0,0,.377-.6,3.1,3.1,0,0,0,.327-1.409,2.2,2.2,0,0,0-.076-.6.969.969,0,0,0-.252-.415.579.579,0,0,0-.377-.164,1.082,1.082,0,0,0-.516.151,2.125,2.125,0,0,0-.516.44,2.788,2.788,0,0,0-.377.616,3.248,3.248,0,0,0-.252.692,3.48,3.48,0,0,0-.088.7Z" transform="translate(-92.578 -0.393)" fill="#455a64"/>
        <path id="Path_33312" data-name="Path 33312" d="M199.38,283.206a2.307,2.307,0,0,0,.1.315.44.44,0,0,0,.2.2.529.529,0,0,0,.352,0,1.813,1.813,0,0,0,.579-.239,2.177,2.177,0,0,0,.44-.34,2.289,2.289,0,0,0,.365-.478,2.529,2.529,0,0,0,.34-1.308,1.436,1.436,0,0,0-.088-.579.478.478,0,0,0-.239-.277.591.591,0,0,0-.365,0,1.735,1.735,0,0,0-.453.2l-.616.352a.113.113,0,0,1-.151,0,.251.251,0,0,1,0-.176v-.415a.641.641,0,0,1,0-.214l.075-.2,1.346-3.019-2.151,1.258a.088.088,0,0,1-.138,0,.358.358,0,0,1-.063-.176v-.41a.441.441,0,0,1,.063-.252.34.34,0,0,1,.138-.176l2.944-1.7h.138a.226.226,0,0,1,0,.189v.352a.784.784,0,0,1,0,.227.971.971,0,0,1-.1.239l-1.321,2.969a1.46,1.46,0,0,1,.692-.214.717.717,0,0,1,.528.164,1.057,1.057,0,0,1,.34.541,2.629,2.629,0,0,1,.126.893,4.326,4.326,0,0,1-.151,1.145,4.527,4.527,0,0,1-.4,1.019,4.311,4.311,0,0,1-.591.83,3.021,3.021,0,0,1-.717.579,2.139,2.139,0,0,1-.868.327.88.88,0,0,1-.591-.126.968.968,0,0,1-.352-.453,1.924,1.924,0,0,1-.126-.679.4.4,0,0,1,0-.2.314.314,0,0,1,.113-.138l.34-.2h.138a.289.289,0,0,1,.124.17Z" transform="translate(-91.67 -1.007)" fill="#455a64"/>
        <path id="Path_33313" data-name="Path 33313" d="M202.907,281.174a.918.918,0,0,0,.1.314.39.39,0,0,0,.2.2.529.529,0,0,0,.352,0,1.814,1.814,0,0,0,.579-.239,2.178,2.178,0,0,0,.44-.34,2.076,2.076,0,0,0,.365-.491,2.792,2.792,0,0,0,.252-.591,2.515,2.515,0,0,0,.088-.7,1.432,1.432,0,0,0-.088-.579.529.529,0,0,0-.239-.277.592.592,0,0,0-.365,0,2.181,2.181,0,0,0-.453.189l-.629.365a.113.113,0,0,1-.138,0,.251.251,0,0,1,0-.176v-.415a.415.415,0,0,1,0-.214,1.739,1.739,0,0,1,.075-.2l1.348-3.02-2.151,1.258a.113.113,0,0,1-.151,0,.252.252,0,0,1,0-.176v-.415a.567.567,0,0,1,0-.252.3.3,0,0,1,.151-.176l2.944-1.711a.113.113,0,0,1,.138,0,.265.265,0,0,1,.063.189v.415a.845.845,0,0,1,0,.226c0,.076-.063.151-.1.239l-1.321,2.969a1.661,1.661,0,0,1,.679-.226.8.8,0,0,1,.541.176,1.259,1.259,0,0,1,.34.528,3.02,3.02,0,0,1,.126.906,4.4,4.4,0,0,1-.151,1.145,4.8,4.8,0,0,1-.4,1.006,3.662,3.662,0,0,1-.591.83,3.085,3.085,0,0,1-.717.591,2.2,2.2,0,0,1-.868.327,1.018,1.018,0,0,1-.6-.126,1.157,1.157,0,0,1-.352-.453,1.924,1.924,0,0,1-.113-.679.4.4,0,0,1,0-.2.289.289,0,0,1,.113-.151l.34-.189a.1.1,0,0,1,.138,0,.289.289,0,0,1,.055.123Z" transform="translate(-90.744 -1.54)" fill="#455a64"/>
        <path id="Path_33314" data-name="Path 33314" d="M195.776,302.737l44.168-25.6c.491-.289.906-.075.906.466a1.975,1.975,0,0,1-.906,1.51l-44.168,25.562c-.491.289-.906.088-.906-.465a1.962,1.962,0,0,1,.906-1.473Z" transform="translate(-92.645 -0.636)" fill="#e0e0e0"/>
        <path id="Path_33315" data-name="Path 33315" d="M195.776,275.2l9.9-5.736c.5-.289.906-.088.906.453a1.95,1.95,0,0,1-.906,1.51l-9.9,5.736c-.491.289-.906.088-.906-.453a1.975,1.975,0,0,1,.906-1.51Z" transform="translate(-92.645 -2.615)" fill="#e0e0e0"/>
        <path id="Path_33316" data-name="Path 33316" d="M194.923,329.415a.289.289,0,0,1-.214-.1.3.3,0,0,1,0-.44l5.183-5.334,5.133-.642,5.158-4.516,5.032-1.359,5.2-10.328,5.2,2.516,5.032-4.428h.088l4.969-.944,5.032-8.693a.314.314,0,1,1,.541.314l-5.17,8.944-5.17.981-5.208,4.579-5.032-2.516-5.032,10.064-5.17,1.409-5.133,4.516-5.1.654-5.032,5.17A.339.339,0,0,1,194.923,329.415Z" transform="translate(-92.711 3.996)" fill="#ba68c8"/>
        <g id="Group_15429" data-name="Group 15429" transform="translate(101.903 298.96)">
          <path id="Path_33317" data-name="Path 33317" d="M194.923,329.415a.289.289,0,0,1-.214-.1.3.3,0,0,1,0-.44l5.183-5.334,5.133-.642,5.158-4.516,5.032-1.359,5.2-10.328,5.2,2.516,5.032-4.428h.088l4.969-.944,5.032-8.693a.314.314,0,1,1,.541.314l-5.17,8.944-5.17.981-5.208,4.579-5.032-2.516-5.032,10.064-5.17,1.409-5.133,4.516-5.1.654-5.032,5.17A.339.339,0,0,1,194.923,329.415Z" transform="translate(-194.614 -294.963)" fill="#ff6700"/>
        </g>
        <path id="Path_33318" data-name="Path 33318" d="M197.409,313.931a.654.654,0,0,1,0,.264.327.327,0,0,1-.151.164l-.3.176a.1.1,0,0,1-.138,0,.264.264,0,0,1,0-.189v-6.29l-1.258,2.113q-.075.138-.151.151a.1.1,0,0,1-.138,0l-.176-.252a.251.251,0,0,1,0-.2.454.454,0,0,1,.075-.252l1.6-2.818a.5.5,0,0,1,.126-.151l.113-.075.3-.176a.113.113,0,0,1,.151,0,.226.226,0,0,1,0,.176Z" transform="translate(-92.592 6.939)" fill="#455a64"/>
        <path id="Path_33319" data-name="Path 33319" d="M200,308.555a4.736,4.736,0,0,0,.34-.818,3.308,3.308,0,0,0,.113-.906,1.333,1.333,0,0,0-.239-.893c-.151-.176-.39-.176-.73,0a1.434,1.434,0,0,0-.44.377,2.514,2.514,0,0,0-.314.491,4.433,4.433,0,0,0-.189.579,5.015,5.015,0,0,0-.113.6.756.756,0,0,1-.075.239.453.453,0,0,1-.126.138l-.34.189h-.113a.2.2,0,0,1,0-.151,4.431,4.431,0,0,1,.126-.943,5.16,5.16,0,0,1,.34-.994,5.638,5.638,0,0,1,.554-.906,2.607,2.607,0,0,1,.742-.654,1.422,1.422,0,0,1,.73-.226.78.78,0,0,1,.516.226,1.321,1.321,0,0,1,.327.6,3.775,3.775,0,0,1,.1.893,5.882,5.882,0,0,1,0,.692,5.723,5.723,0,0,1-.113.642c-.063.214-.138.428-.226.654a7.523,7.523,0,0,1-.327.7l-1.673,3.359,2.29-1.321a.1.1,0,0,1,.138,0v.591a.441.441,0,0,1,0,.252.289.289,0,0,1-.138.176L197.94,314a.113.113,0,0,1-.138,0,.252.252,0,0,1-.063-.176v-.415a.728.728,0,0,1,0-.239,2.28,2.28,0,0,1,.126-.3Z" transform="translate(-91.909 6.503)" fill="#455a64"/>
        <path id="Path_33320" data-name="Path 33320" d="M205.012,304.938v1.937a7.546,7.546,0,0,1-.113,1.321,6.771,6.771,0,0,1-.352,1.258,4,4,0,0,1-.591,1.006,2.919,2.919,0,0,1-.843.73,1.483,1.483,0,0,1-.855.252.855.855,0,0,1-.579-.327,1.9,1.9,0,0,1-.352-.8,6.427,6.427,0,0,1-.126-1.182v-1.987a9.392,9.392,0,0,1,.126-1.333,5.373,5.373,0,0,1,.352-1.258,4.653,4.653,0,0,1,.579-1.006,3.008,3.008,0,0,1,.855-.742,1.422,1.422,0,0,1,.843-.239.83.83,0,0,1,.591.34,2.088,2.088,0,0,1,.352.8,5.474,5.474,0,0,1,.113,1.23Zm-3.107,3.774a2.365,2.365,0,0,0,.314,1.422c.2.239.5.239.893,0a2.1,2.1,0,0,0,.881-1.032,4.741,4.741,0,0,0,.327-1.8v-1.937a2.378,2.378,0,0,0-.327-1.434c-.2-.239-.491-.239-.881,0a2.126,2.126,0,0,0-.893,1.032,4.8,4.8,0,0,0-.314,1.8v1.95Z" transform="translate(-91.012 5.956)" fill="#455a64"/>
        <path id="Path_33321" data-name="Path 33321" d="M195.776,330.844l44.168-25.587c.491-.289.906-.088.906.465a1.962,1.962,0,0,1-.906,1.5l-44.168,25.6c-.491.289-.906.076-.906-.465A1.975,1.975,0,0,1,195.776,330.844Z" transform="translate(-92.645 6.618)" fill="#e0e0e0"/>
        <path id="Path_33322" data-name="Path 33322" d="M195.776,303.316l9.9-5.749c.5-.289.906-.075.906.465a1.95,1.95,0,0,1-.906,1.51l-9.9,5.736c-.491.289-.906.088-.906-.453a1.963,1.963,0,0,1,.906-1.509Z" transform="translate(-92.645 4.635)" fill="#e0e0e0"/>
        <path id="Path_33323" data-name="Path 33323" d="M243.669,272.183a.327.327,0,0,1-.239-.126.3.3,0,0,1,0-.44l5.107-4.076,5.145-5.875,5.221-.767,5.032-1.12,5.17-6.089,5.032.893,5.032-8.064,5.183.075,5.032-4.466a.316.316,0,0,1,.453.44l-5.2,4.642-5.032-.088-5.12,8.127-5.145-.906-5.032,5.975-5.221,1.182-5.032.73-5.032,5.736-5.158,4.214a.314.314,0,0,1-.2,0Z" transform="translate(-80.142 -9.658)" fill="#ff6700"/>
        <path id="Path_33324" data-name="Path 33324" d="M245.555,252.976l.126-.113.138-.1a1.434,1.434,0,0,1,.73-.176.906.906,0,0,1,.616.226,1.611,1.611,0,0,1,.4.642,3.5,3.5,0,0,1,.138,1.019,5.308,5.308,0,0,1-.138,1.17,6.2,6.2,0,0,1-.4,1.12,4.523,4.523,0,0,1-.616.944,2.917,2.917,0,0,1-.78.654,1.509,1.509,0,0,1-.767.239.994.994,0,0,1-.616-.239,1.485,1.485,0,0,1-.352-.742,3.055,3.055,0,0,1-.151-1.019,5.5,5.5,0,0,1,0-.642,2.555,2.555,0,0,1,.126-.616l.176-.591c.063-.189.138-.365.2-.541l1.359-3.875.075-.189a.415.415,0,0,1,.151-.176l.428-.239h.113a.214.214,0,0,1,0,.151.24.24,0,0,1,0,.1.1.1,0,0,1,0,.063Zm-.956,3.271a1.8,1.8,0,0,0,.088.6.957.957,0,0,0,.239.415.579.579,0,0,0,.39.164.957.957,0,0,0,.5-.151,2.123,2.123,0,0,0,.516-.44,3.41,3.41,0,0,0,.39-.616,3.766,3.766,0,0,0,.239-.692,3.373,3.373,0,0,0,.088-.7,2.177,2.177,0,0,0-.088-.6,1.1,1.1,0,0,0-.239-.415.642.642,0,0,0-.39-.164,1.133,1.133,0,0,0-.516.151,2.075,2.075,0,0,0-.5.44,2.426,2.426,0,0,0-.39.616,3.2,3.2,0,0,0-.239.692,2.765,2.765,0,0,0-.087.7Z" transform="translate(-80.003 -7.673)" fill="#455a64"/>
        <path id="Path_33325" data-name="Path 33325" d="M249.792,251.632a4.825,4.825,0,0,0,.34-.83,3.877,3.877,0,0,0,.113-.906,1.359,1.359,0,0,0-.239-.881c-.151-.189-.4-.176-.73,0a1.862,1.862,0,0,0-.453.365,2.8,2.8,0,0,0-.3.5,2.725,2.725,0,0,0-.189.566,3.433,3.433,0,0,1-.126.6.591.591,0,0,1-.075.239.327.327,0,0,1-.113.138l-.34.2a.1.1,0,0,1-.126,0,.213.213,0,0,1,0-.151,3.658,3.658,0,0,1,.126-.931,4.879,4.879,0,0,1,.34-.994,4.162,4.162,0,0,1,.553-.906,2.655,2.655,0,0,1,.742-.667,1.383,1.383,0,0,1,.717-.214.73.73,0,0,1,.528.226,1.258,1.258,0,0,1,.314.591,3.307,3.307,0,0,1,.113.906,5.81,5.81,0,0,1,0,.679,3.844,3.844,0,0,1-.126.642,4.94,4.94,0,0,1-.214.654c-.1.226-.2.453-.327.7l-1.673,3.359,2.29-1.321a.113.113,0,0,1,.138,0,.264.264,0,0,1,.063.189v.415a.665.665,0,0,1-.063.252.5.5,0,0,1-.138.176l-3.22,1.849h-.151a.264.264,0,0,1,0-.189v-.415a.73.73,0,0,1,0-.239,1.682,1.682,0,0,1,.126-.289Z" transform="translate(-79.057 -8.178)" fill="#455a64"/>
        <path id="Path_33326" data-name="Path 33326" d="M254.028,245.476a.1.1,0,0,1,.138,0,.214.214,0,0,1,.063.189v.478a1.556,1.556,0,0,1,0,.226,2.633,2.633,0,0,1,0,.277l-1.661,7.548a1.828,1.828,0,0,1-.088.239.3.3,0,0,1-.138.163l-.34.2a.1.1,0,0,1-.126,0,.213.213,0,0,1,0-.164h0a.386.386,0,0,1,0-.1l1.661-7.548-2.516,1.422a.113.113,0,0,1-.138,0,.264.264,0,0,1-.063-.189V247.8a.667.667,0,0,1,.063-.252.416.416,0,0,1,.138-.176Z" transform="translate(-78.211 -8.777)" fill="#455a64"/>
        <path id="Path_33327" data-name="Path 33327" d="M244.526,274.537l44.155-25.6c.5-.289.906-.075.906.465a1.95,1.95,0,0,1-.906,1.51L244.526,276.5c-.5.289-.906.076-.906-.465a1.924,1.924,0,0,1,.906-1.5Z" transform="translate(-80.068 -7.911)" fill="#e0e0e0"/>
        <path id="Path_33328" data-name="Path 33328" d="M244.526,246.994l9.888-5.736c.5-.289.918-.088.918.453a1.962,1.962,0,0,1-.918,1.51l-9.888,5.736c-.5.289-.906.088-.906-.453a1.95,1.95,0,0,1,.906-1.51Z" transform="translate(-80.068 -9.893)" fill="#e0e0e0"/>
        <path id="Path_33329" data-name="Path 33329" d="M243.663,300.307a.391.391,0,0,1-.164,0,.34.34,0,0,1-.1-.44l5.221-8.554,5.258.969,4.944-1.359,5.107-6.227,5.032-1.258,5.158-9.208,5.284,1.535,4.956-.943,5.032-4.479a.315.315,0,1,1,.415.465l-5.17,4.6h-.075l-5.208.981-4.868-1.422-5.032,9.007-5.145,1.258-5.107,6.227h-.088l-5.183,1.422h-.075l-4.894-.906-5.032,8.189A.314.314,0,0,1,243.663,300.307Z" transform="translate(-80.136 -2.383)" fill="#ba68c8"/>
        <g id="Group_15430" data-name="Group 15430" transform="translate(163.22 267.85)">
          <path id="Path_33330" data-name="Path 33330" d="M243.663,300.307a.391.391,0,0,1-.164,0,.34.34,0,0,1-.1-.44l5.221-8.554,5.258.969,4.944-1.359,5.107-6.227,5.032-1.258,5.158-9.208,5.284,1.535,4.956-.943,5.032-4.479a.315.315,0,1,1,.415.465l-5.17,4.6h-.075l-5.208.981-4.868-1.422-5.032,9.007-5.145,1.258-5.107,6.227h-.088l-5.183,1.422h-.075l-4.894-.906-5.032,8.189A.314.314,0,0,1,243.663,300.307Z" transform="translate(-243.357 -270.233)" fill="#ff6700"/>
        </g>
        <path id="Path_33331" data-name="Path 33331" d="M245.9,283.49l-.1.075h-.1a1.549,1.549,0,0,1-.692.226.931.931,0,0,1-.6-.189,1.258,1.258,0,0,1-.365-.554,2.854,2.854,0,0,1-.164-1.069,4.668,4.668,0,0,1,.151-1.17,5.95,5.95,0,0,1,.4-1.094,4.73,4.73,0,0,1,.6-.906,2.745,2.745,0,0,1,.717-.629,1.648,1.648,0,0,1,.78-.252.893.893,0,0,1,.591.239,1.447,1.447,0,0,1,.377.642,3.385,3.385,0,0,1,.126,1.006,3.682,3.682,0,0,1,0,.616,3.262,3.262,0,0,1-.151.654,5.435,5.435,0,0,1-.2.642c-.075.214-.126.4-.189.566l-1.359,3.875-.088.189a.3.3,0,0,1-.151.176l-.428.252a.076.076,0,0,1-.1,0,.277.277,0,0,1,0-.164v-.088a.5.5,0,0,0,0-.075Zm.969-3.258a1.825,1.825,0,0,0-.088-.616.793.793,0,0,0-.226-.34.491.491,0,0,0-.365-.138,1.069,1.069,0,0,0-.478.138,2.037,2.037,0,0,0-.478.4,2.514,2.514,0,0,0-.365.566,2.994,2.994,0,0,0-.315,1.384,2.273,2.273,0,0,0,.075.629.892.892,0,0,0,.239.39.553.553,0,0,0,.365.138.831.831,0,0,0,.478-.138,2.035,2.035,0,0,0,.478-.4,3.346,3.346,0,0,0,.365-.566,3,3,0,0,0,.239-.667,2.833,2.833,0,0,0,.072-.78Z" transform="translate(-80.004 -0.398)" fill="#455a64"/>
        <path id="Path_33332" data-name="Path 33332" d="M247.921,283.232a1.336,1.336,0,0,0,.113.315.465.465,0,0,0,.2.214.618.618,0,0,0,.352,0,1.809,1.809,0,0,0,.579-.239,2.175,2.175,0,0,0,.44-.34,2.817,2.817,0,0,0,.365-.478,3.207,3.207,0,0,0,.252-.6,2.516,2.516,0,0,0,.088-.7,1.433,1.433,0,0,0-.088-.579.528.528,0,0,0-.239-.277.7.7,0,0,0-.365,0,1.731,1.731,0,0,0-.453.2l-.629.352a.1.1,0,0,1-.138,0,.226.226,0,0,1,0-.176V280.5a.638.638,0,0,1,0-.214l.088-.2,1.346-3.019-2.164,1.258a.1.1,0,0,1-.138,0,.289.289,0,0,1-.063-.189v-.415a.615.615,0,0,1,.063-.252.415.415,0,0,1,.138-.176l2.956-1.7a.1.1,0,0,1,.138,0,.251.251,0,0,1,.063.176v.415a.72.72,0,0,1,0,.226,1.959,1.959,0,0,1-.1.239l-1.321,2.969a1.46,1.46,0,0,1,.679-.214.743.743,0,0,1,.528.164,1.157,1.157,0,0,1,.352.541,3,3,0,0,1,.126.893,4.264,4.264,0,0,1-.151,1.145,5.2,5.2,0,0,1-.4,1.019,4.312,4.312,0,0,1-.591.83,3.019,3.019,0,0,1-.717.579,2.2,2.2,0,0,1-.868.327.944.944,0,0,1-.6-.126,1.158,1.158,0,0,1-.352-.453,1.9,1.9,0,0,1-.113-.667.643.643,0,0,1,0-.214.34.34,0,0,1,.126-.138l.34-.2h.126a.151.151,0,0,1,.038.126Z" transform="translate(-79.123 -1.007)" fill="#455a64"/>
        <path id="Path_33333" data-name="Path 33333" d="M244.526,302.652l44.155-25.625c.5-.289.906-.088.906.466a1.925,1.925,0,0,1-.906,1.5l-44.155,25.6c-.5.289-.906.076-.906-.465a1.95,1.95,0,0,1,.906-1.476Z" transform="translate(-80.068 -0.665)" fill="#e0e0e0"/>
        <path id="Path_33334" data-name="Path 33334" d="M244.526,275.116l9.888-5.749c.5-.289.918-.075.918.465a1.962,1.962,0,0,1-.918,1.51l-9.888,5.736c-.5.289-.906.088-.906-.453A1.925,1.925,0,0,1,244.526,275.116Z" transform="translate(-80.068 -2.64)" fill="#e0e0e0"/>
        <path id="Path_33335" data-name="Path 33335" d="M296.42,220.593a5.762,5.762,0,0,1,5.774-.478l-5.824,15.7Z" transform="translate(-66.46 -15.457)" fill="#ff6700"/>
        <path id="Path_33336" data-name="Path 33336" d="M291.78,226.67a17.311,17.311,0,0,1,5.824-6.29v15.272Z" transform="translate(-67.644 -15.245)" fill="#ba68c8"/>
        <path id="Path_33337" data-name="Path 33337" d="M288.91,235.092a30.684,30.684,0,0,1,3.61-9.712l5.824,8.982Z" transform="translate(-68.384 -13.955)" fill="#ba68c8"/>
        <path id="Path_33338" data-name="Path 33338" d="M292.52,226.67a30.684,30.684,0,0,0-3.61,9.712l9.435-.73V220.38a17.308,17.308,0,0,0-5.825,6.29Z" transform="translate(-68.384 -15.245)" fill="#ff8900"/>
        <path id="Path_33339" data-name="Path 33339" d="M302.194,220a8.152,8.152,0,0,1,3.61,5.535L296.37,235.7Z" transform="translate(-66.46 -15.343)" fill="#ff6700"/>
        <path id="Path_33340" data-name="Path 33340" d="M289.011,242.692a19.033,19.033,0,0,1-.491-4.441,26.976,26.976,0,0,1,.491-5.032l9.435-.73Z" transform="translate(-68.485 -12.12)" fill="#ff6700"/>
        <path id="Path_33341" data-name="Path 33341" d="M305.845,231.94a30.68,30.68,0,0,1-3.61,9.712l-5.824-8.982Z" transform="translate(-66.449 -12.262)" fill="#ff6700"/>
        <path id="Path_33342" data-name="Path 33342" d="M297.6,247.792a5.761,5.761,0,0,1-5.824.428l5.824-15.7Z" transform="translate(-67.644 -12.113)" fill="#ff6700"/>
        <path id="Path_33343" data-name="Path 33343" d="M288.91,242.685l9.435-10.164-5.824,15.7a8.152,8.152,0,0,1-3.61-5.535Z" transform="translate(-68.384 -12.113)" fill="#ff6700"/>
        <path id="Path_33344" data-name="Path 33344" d="M305.845,224.44a19.073,19.073,0,0,1,.478,4.441,26.961,26.961,0,0,1-.478,5.032l-9.435.73Z" transform="translate(-66.449 -14.197)" fill="#ff6700"/>
        <path id="Path_33345" data-name="Path 33345" d="M302.194,241.5a17.31,17.31,0,0,1-5.824,6.29V232.52Z" transform="translate(-66.46 -12.113)" fill="#ff6700"/>
        <path id="Path_33346" data-name="Path 33346" d="M292.666,252.054l9.888-5.736c.5-.289.906-.088.906.453a1.95,1.95,0,0,1-.906,1.51l-9.888,5.736c-.5.289-.906.088-.906-.453a1.95,1.95,0,0,1,.906-1.51Z" transform="translate(-67.649 -8.587)" fill="#ff8900"/>
        <path id="Path_33347" data-name="Path 33347" d="M290.926,258.279l14.266-8.252c.5-.289.906-.088.906.465a1.925,1.925,0,0,1-.906,1.5l-14.266,8.277c-.5.289-.906.088-.906-.453A1.925,1.925,0,0,1,290.926,258.279Z" transform="translate(-68.098 -7.63)" fill="#e0e0e0"/>
        <path id="Path_33348" data-name="Path 33348" d="M290.926,262.984l14.266-8.277c.5-.289.906-.076.906.465a1.925,1.925,0,0,1-.906,1.5l-14.266,8.277c-.5.289-.906.088-.906-.453a1.925,1.925,0,0,1,.906-1.512Z" transform="translate(-68.098 -6.422)" fill="#e0e0e0"/>
        <path id="Path_33349" data-name="Path 33349" d="M290.926,267.724l14.266-8.277c.5-.289.906-.075.906.465a1.949,1.949,0,0,1-.906,1.51l-14.266,8.265c-.5.289-.906.088-.906-.453A1.95,1.95,0,0,1,290.926,267.724Z" transform="translate(-68.098 -5.2)" fill="#e0e0e0"/>
        <path id="Path_33350" data-name="Path 33350" d="M324.84,204.11a5.762,5.762,0,0,1,5.825-.428l-5.825,15.649Z" transform="translate(-59.115 -19.706)" fill="#ff6700"/>
        <path id="Path_33351" data-name="Path 33351" d="M320.21,210.19a17.423,17.423,0,0,1,5.824-6.29v15.222Z" transform="translate(-60.31 -19.496)" fill="#ba68c8"/>
        <path id="Path_33352" data-name="Path 33352" d="M317.35,218.612a30.668,30.668,0,0,1,3.6-9.712l5.824,8.982Z" transform="translate(-61.047 -18.206)" fill="#ba68c8"/>
        <path id="Path_33353" data-name="Path 33353" d="M330.664,203.56a8.152,8.152,0,0,1,3.61,5.535L324.84,219.26Z" transform="translate(-59.115 -19.584)" fill="#ff6700"/>
        <path id="Path_33354" data-name="Path 33354" d="M317.451,226.212a19.036,19.036,0,0,1-.491-4.441,27.078,27.078,0,0,1,.491-5.032l9.422-.73Z" transform="translate(-61.148 -16.372)" fill="#ba68c8"/>
        <path id="Path_33355" data-name="Path 33355" d="M334.275,215.46a30.571,30.571,0,0,1-3.61,9.712l-5.824-9.032Z" transform="translate(-59.115 -16.514)" fill="#ff6700"/>
        <path id="Path_33356" data-name="Path 33356" d="M326.034,231.322a5.787,5.787,0,0,1-5.824.44L326.034,216Z" transform="translate(-60.31 -16.375)" fill="#ff6700"/>
        <path id="Path_33357" data-name="Path 33357" d="M317.35,226.2l9.422-10.164-5.824,15.712a8.2,8.2,0,0,1-3.6-5.548Z" transform="translate(-61.047 -16.364)" fill="#ba68c8"/>
        <path id="Path_33358" data-name="Path 33358" d="M321.049,210.19a30.671,30.671,0,0,0-3.6,9.712,27.075,27.075,0,0,0-.491,5.032,19.034,19.034,0,0,0,.491,4.441,8.2,8.2,0,0,0,3.6,5.548l5.824-15.8V203.9a17.423,17.423,0,0,0-5.824,6.29Z" transform="translate(-61.148 -19.496)" fill="#ff8900"/>
        <path id="Path_33359" data-name="Path 33359" d="M334.275,208a19.033,19.033,0,0,1,.491,4.441,26.978,26.978,0,0,1-.491,5.032l-9.435.73Z" transform="translate(-59.115 -18.438)" fill="#ff6700"/>
        <path id="Path_33360" data-name="Path 33360" d="M330.664,225.032a17.209,17.209,0,0,1-5.824,6.29V216Z" transform="translate(-59.115 -16.375)" fill="#ff6700"/>
        <path id="Path_33361" data-name="Path 33361" d="M321.1,235.634,331,229.9c.5-.289.906-.088.906.453a1.925,1.925,0,0,1-.906,1.51l-9.9,5.749c-.5.289-.906.075-.906-.465a1.949,1.949,0,0,1,.906-1.513Z" transform="translate(-60.315 -12.823)" fill="#ff8900"/>
        <path id="Path_33362" data-name="Path 33362" d="M319.368,241.864l14.253-8.278c.5-.289.906-.075.906.465a1.95,1.95,0,0,1-.906,1.51l-14.253,8.265c-.5.289-.918.088-.918-.453A1.963,1.963,0,0,1,319.368,241.864Z" transform="translate(-60.764 -11.871)" fill="#e0e0e0"/>
        <path id="Path_33363" data-name="Path 33363" d="M319.368,246.562l14.253-8.265c.5-.289.906-.088.906.453a1.95,1.95,0,0,1-.906,1.51l-14.253,8.265c-.5.3-.918.088-.918-.453a1.963,1.963,0,0,1,.918-1.51Z" transform="translate(-60.764 -10.656)" fill="#e0e0e0"/>
        <path id="Path_33364" data-name="Path 33364" d="M319.368,251.254l14.253-8.227c.5-.289.906-.088.906.453a1.949,1.949,0,0,1-.906,1.51l-14.253,8.278c-.5.289-.918.075-.918-.465a1.962,1.962,0,0,1,.918-1.547Z" transform="translate(-60.764 -9.436)" fill="#e0e0e0"/>
      </g>
    </g>
    <g id="freepik--magnifying-glass--inject-2" transform="translate(160.304 420.319)">
      <g id="freepik--Glass--inject-2">
        <path id="Path_33365" data-name="Path 33365" d="M342.136,369.67a16.794,16.794,0,0,0-7.158-13.435c-2.038-1.258-3.912-1.447-5.309-.73h0c-8.416,4.227-67.554,42.155-71.34,44.029h0a2.68,2.68,0,0,0-1.258,2.44,8.453,8.453,0,0,0,3.6,6.755,2.654,2.654,0,0,0,2.7.352h0c5.988-3.3,64.371-28.179,76.3-34.569h0C341.155,373.759,342.06,372.086,342.136,369.67Z" transform="translate(-137.258 -355.086)" fill="#ff6700"/>
        <path id="Path_33366" data-name="Path 33366" d="M339.792,361.494a15.094,15.094,0,0,0-4.831-5.258c-2.025-1.258-3.9-1.447-5.283-.742l-.176.088c-7.686,3.938-51.7,32.016-66.51,41.149h-.1l-.6.377-.176.113-.34.2-.4.239h0c-1.56.956-2.629,1.572-3.032,1.774h0a1.811,1.811,0,0,0-.34.277,2.919,2.919,0,0,0-.855,2.164,6.277,6.277,0,0,0,0,.843q0,.17,0,.34a1.064,1.064,0,0,0,.1.516l.113.415a1.438,1.438,0,0,0,.164.478,3.112,3.112,0,0,0,.126.365h0Z" transform="translate(-137.242 -355.087)" opacity="0.1"/>
        <path id="Path_33367" data-name="Path 33367" d="M260.675,399.674a8.391,8.391,0,0,1-3.585-6.73c.076-2.428,1.812-3.359,3.887-2.076a8.466,8.466,0,0,1,3.547,6.73C264.525,399.989,262.738,400.957,260.675,399.674Z" transform="translate(-137.251 -346.005)" fill="#ff8900"/>
        <path id="Path_33368" data-name="Path 33368" d="M245.891,401.024a6.492,6.492,0,0,0,2.755,5.17,2.1,2.1,0,0,0,2.063.277h0l14.316-7.611h0a2.063,2.063,0,0,0,.906-1.862,6.492,6.492,0,0,0-2.755-5.17,2.063,2.063,0,0,0-2.063-.264h0l-14.3,7.611h0A2.075,2.075,0,0,0,245.891,401.024Z" transform="translate(-140.142 -345.719)" fill="#bcbcbc"/>
        <path id="Path_33369" data-name="Path 33369" d="M246.822,399.149a2.076,2.076,0,0,0-.931,1.874,5.573,5.573,0,0,0,.428,2.2l18.455-9.812a5.587,5.587,0,0,0-1.585-1.585,2.063,2.063,0,0,0-2.063-.264l-14.3,7.611Z" transform="translate(-140.142 -345.719)" fill="#fff7e0"/>
        <path id="Path_33370" data-name="Path 33370" d="M285.93,416.485c0-9.171-6.064-18.329-18.178-25.323-24.229-13.989-63.516-13.989-87.744,0-12.114,6.994-18.178,16.152-18.178,25.323h0V433.38c0,9.158,6.063,18.329,18.178,25.323,24.229,13.989,63.516,13.989,87.744,0,12.114-6.994,18.178-16.165,18.178-25.323ZM183.014,396.357c10.819-6.29,25.336-9.686,40.872-9.686s30.053,3.434,40.872,9.686c9.787,5.648,15.171,12.794,15.171,20.128s-5.384,14.492-15.171,20.128c-10.819,6.29-25.336,9.687-40.872,9.687s-30.053-3.447-40.872-9.687c-9.787-5.648-15.184-12.806-15.184-20.128S173.227,402.005,183.014,396.357Z" transform="translate(-161.827 -348.487)" fill="#ff6700"/>
        <path id="Path_33371" data-name="Path 33371" d="M180.009,441.821c24.229,13.989,63.516,13.989,87.744,0s24.229-36.67,0-50.659-63.515-13.989-87.744,0S155.755,427.832,180.009,441.821Zm-12.177-25.336c0-7.334,5.384-14.479,15.171-20.128,10.819-6.29,25.336-9.686,40.872-9.686s30.053,3.434,40.884,9.686c9.775,5.648,15.171,12.794,15.171,20.128s-5.4,14.492-15.171,20.128c-10.831,6.29-25.348,9.687-40.884,9.687s-30.053-3.447-40.872-9.687c-9.775-5.636-15.172-12.756-15.172-20.128Z" transform="translate(-161.828 -348.487)" fill="#fff" opacity="0.3"/>
        <path id="Path_33372" data-name="Path 33372" d="M166.6,415.254a16.782,16.782,0,0,0,2.415,8.454c2.516-4.265,6.793-8.265,12.769-11.7,10.806-6.29,25.323-9.686,40.872-9.686s30.053,3.434,40.859,9.686c5.963,3.434,10.3,7.435,12.769,11.7a16.783,16.783,0,0,0,2.415-8.454c0-7.334-5.384-14.479-15.184-20.128-10.806-6.29-25.336-9.686-40.859-9.686s-30.066,3.447-40.872,9.686C171.984,400.775,166.6,407.92,166.6,415.254Z" transform="translate(-160.596 -347.256)" fill="#ba68c8"/>
        <path id="Path_33373" data-name="Path 33373" d="M166.6,415.254a16.782,16.782,0,0,0,2.415,8.454c2.516-4.265,6.793-8.265,12.769-11.7,10.806-6.29,25.323-9.686,40.872-9.686s30.053,3.434,40.859,9.686c5.963,3.434,10.3,7.435,12.769,11.7a16.783,16.783,0,0,0,2.415-8.454c0-7.334-5.384-14.479-15.184-20.128-10.806-6.29-25.336-9.686-40.859-9.686s-30.066,3.447-40.872,9.686C171.984,400.775,166.6,407.92,166.6,415.254Z" transform="translate(-160.596 -347.256)" fill="#ff8900"/>
        <path id="Path_33374" data-name="Path 33374" d="M181.668,401.2c10.819-6.29,25.336-9.687,40.872-9.687s30.053,3.447,40.884,9.687c8.064,4.667,13.133,10.353,14.668,16.354-1.535,5.963-6.6,11.649-14.668,16.354-10.831,6.29-25.348,9.687-40.884,9.687s-30.053-3.447-40.872-9.687c-8.076-4.667-13.146-10.353-14.668-16.354C168.522,411.55,173.592,405.864,181.668,401.2Z" transform="translate(-160.493 -345.69)" fill="#fff" opacity="0.4"/>
        <path id="Path_33375" data-name="Path 33375" d="M209.256,445.109v16.869a81.05,81.05,0,0,1-29.248-9.485c-12.114-6.994-18.178-16.165-18.178-25.336V410.275a21.385,21.385,0,0,1,.742-5.535h0c-2.944,10.907,2.868,22.455,17.423,30.871a81.771,81.771,0,0,0,29.261,9.5Z" transform="translate(-161.827 -342.277)" opacity="0.1"/>
      </g>
    </g>
    <g id="freepik--Character--inject-2" transform="translate(392.42 161.773)">
      <g id="freepik--character--inject-2-2" data-name="freepik--character--inject-2">
        <path id="Path_33376" data-name="Path 33376" d="M438.93,357.64c.742.3.893,1.711.944,4.516,0,2.126.4,5.849-2.088,6.529s-6.139.227-7.686-1.811c-1.937-2.516-3.233-4.768-6-7.888-2.4-2.692-5.032-5.221-5.925-8.944-.818-3.371,0-4.806,2.277-5.736,3.17-1.258,8,3.22,10.454,3.963C433.005,348.91,438.163,357.338,438.93,357.64Z" transform="translate(-327.89 -99.379)" fill="#263238"/>
        <path id="Path_33377" data-name="Path 33377" d="M436.623,353.11l-.076,3.434a8.4,8.4,0,0,1-8.705,0c-.151-.327-.792-4.944-.792-4.944Z" transform="translate(-325.521 -97.44)" fill="#ffa8a7"/>
        <path id="Path_33378" data-name="Path 33378" d="M420.022,370.145s.918,3.019,1.4,5.648c.377,2.088.906,5.585.138,7.133s-3.636,2.516-8.039,2.365c-2.856-.088-7.347,1.749-10.441,3.384s-9.749,2.239-13.071,1.774c-3.912-.553-7.925-2.919-8.516-4.554s.277-3.309,9.611-7.045c.088,0,12.957-3.9,17.536-8.73Z" transform="translate(-337.311 -92.662)" fill="#263238"/>
        <path id="Path_33379" data-name="Path 33379" d="M414.523,367.2s-.075,2.516-.1,4.013-1.786,3.6-6.29,3.334c-3.132-.176-5.309-1.069-5.12-3.648l.088-3.774Z" transform="translate(-331.725 -93.436)" fill="#ffa8a7"/>
        <path id="Path_33380" data-name="Path 33380" d="M448.061,336.084a93.3,93.3,0,0,0-3.661-18.027s1.572-15.448,2.516-30.116c.994-15.825,1.925-23.977-1.2-46.847,0,0-48.545-4.365-49.866,13.938s.553,65,.981,73.064,1.648,15.209,3.019,28.292,5.271,43.413,5.271,43.413a12.115,12.115,0,0,0,11.385,0s4.416-36.557,4.252-45.841a79.616,79.616,0,0,0-3.069-20.354s1.258-15.1,2.516-28.2,2.2-19.411,2.516-25.16l1.107-.516s.616,22.644,1.044,30.745,1.522,15.813,3.51,30.808c1.736,13.033,7.07,40.708,7.07,40.708,5.774,3.283,9.334-.2,9.334-.2S449.382,347.368,448.061,336.084Z" transform="translate(-333.688 -126.066)" fill="#37474f"/>
        <path id="Path_33381" data-name="Path 33381" d="M417.07,274.469s12.58-5.837,18.87-11.209c0,0-5.938,7.988-13.586,11.422,0,0-3.334,28.1-3.309,27.537l-.931-27.764Z" transform="translate(-328.095 -120.23)" fill="#263238"/>
        <path id="Path_33382" data-name="Path 33382" d="M410.16,189.888l1.887,16.756,15.825-.793-1.749-19.562Z" transform="translate(-329.878 -140.087)" fill="#ffa8a7"/>
        <path id="Path_33383" data-name="Path 33383" d="M429.351,194.259c5.887-.277,8.881.616,11.536,5.7s3.673,20.266,4.6,28.1,1.145,13.347-2.076,14.152-15.775,1.157-15.775,1.157Z" transform="translate(-325.368 -138.043)" fill="#37474f"/>
        <path id="Path_33384" data-name="Path 33384" d="M447.6,202.953c-.843-4.68-7.02-9.611-12.794-8.68l-3.912.667c-.692,2.818-8.416,4.579-15.8,2.843-2.227.591-9.548,1.962-11.41,2.579-5.3,1.761-7.548,6.982-8.315,24.279,0,0,.428,39.186.214,46.986,13.1,5.535,26.845,5.673,34.481,4.189,15.9-3.1,17.951-9.611,17.951-9.611l-2.365-17.926S449.539,213.571,447.6,202.953Z" transform="translate(-333.693 -138.057)" fill="#ff6700"/>
        <path id="Path_33385" data-name="Path 33385" d="M411.532,194.123l.126,1.057a23.435,23.435,0,0,0,9.712,0c5.145-1.145,6.189-2.591,6.189-2.591l-.113-1.258s1.258-.465,1.95,1.5a23.127,23.127,0,0,1,.755,2.4s.591,3.61-5.46,5.447a18.731,18.731,0,0,1-15.1-1.648l-2.365.5s2.05-4.73,2.667-5.686a1.573,1.573,0,0,1,1.484-.83Z" transform="translate(-330.634 -138.799)" fill="#37474f"/>
        <path id="Path_33386" data-name="Path 33386" d="M378.677,179.25,347.29,195.642l15.6,42.633,29.286-16.4Z" transform="translate(-346.097 -141.903)" fill="#455a64"/>
        <path id="Path_33387" data-name="Path 33387" d="M376.5,182.57l-26.34,13.75,13.813,36.658,24.568-13.762Z" transform="translate(-345.357 -141.047)" fill="#f5f5f5"/>
        <path id="Path_33388" data-name="Path 33388" d="M369.54,186.045s-.226-.591-.516-1.258-2.516-.289-4.894.956l-4.629,2.4c-2.428,1.258-4.164,2.843-3.875,3.56l.5,1.258Z" transform="translate(-343.954 -140.559)" opacity="0.15"/>
        <path id="Path_33389" data-name="Path 33389" d="M369.57,181.654c-.164-.453-1.12-.377-2.126.164l-1.812.981s-1.12-2.818-5.3-.868-3.221,5.221-3.221,5.221l-1.925,1.057c-1.069.591-1.824,1.434-1.7,1.887l.239.83L369.9,182.5Z" transform="translate(-344.5 -141.389)" fill="#ff6700"/>
        <path id="Path_33390" data-name="Path 33390" d="M367.16,183.191c-1.51.742-2.1,1.107-1.673,2.214s.956,2.176.956,2.176l-7.145,3.774s-.591-1.61-.855-2.227-.793-.918-1.925-.327l-.428-.453,11.322-5.749Z" transform="translate(-343.827 -141.039)" fill="#ba68c8"/>
        <path id="Path_33391" data-name="Path 33391" d="M367.16,183.191c-1.51.742-2.1,1.107-1.673,2.214s.956,2.176.956,2.176l-7.145,3.774s-.591-1.61-.855-2.227-.793-.918-1.925-.327l-.428-.453,11.322-5.749Z" transform="translate(-343.827 -141.039)" fill="#ff8900"/>
        <path id="Path_33392" data-name="Path 33392" d="M369.779,186.1l-.5-1.258c-.289-.73-2.516-.3-4.894.956l-4.642,2.39c-2.415,1.258-4.151,2.843-3.875,3.573l.516,1.258Z" transform="translate(-343.892 -140.552)" fill="#ff6700"/>
        <path id="Path_33393" data-name="Path 33393" d="M409.425,199.09c-7.246.629-10.328,1.95-15.763,11.75-5.913,10.655-17.259,29.915-18.694,32.355-2,3.384-2.378,8.529-.654,11.636,1.61,2.906,6.73,4.227,12.58-2.327,6.906-7.8,19.75-26.845,19.75-26.845S417.489,211.267,409.425,199.09Z" transform="translate(-339.408 -136.785)" fill="#ffa8a7"/>
        <path id="Path_33394" data-name="Path 33394" d="M384.23,256.283c-5.56-.667-18.53-18.266-22.216-24.015A41,41,0,0,0,350.768,220.4c-5.875-4.34-5.032-11.02-2.453-17.134.881-2.113,3.9-.742,3.9-.742l1.057,2.906,1.837,5.032c1.258,1.157,1.962,1.535,2.038,1.2.163-.654-.906-3.359-.881-6.177,0-3.384,2.4-1.157,3.107,0a40.9,40.9,0,0,1,2.516,5.6c1.183,3.032.7,6.1,2.139,8.164s20.794,20.618,20.794,20.618Z" transform="translate(-346.342 -136.01)" fill="#ffa8a7"/>
        <path id="Path_33395" data-name="Path 33395" d="M413.433,198.782c-4.39-.1-9.661.6-13.75,5.912s-20.442,34.167-20.442,34.167l-9.171-8.227a15.989,15.989,0,0,0-7.07,9.938,99.976,99.976,0,0,0,8.3,11.322c3.887,4.252,8.215,7.208,11.762,5.9s7.17-4.114,14.806-14.756,15.976-23.185,15.976-23.185S419.119,207.6,413.433,198.782Z" transform="translate(-342.044 -136.867)" fill="#37474f"/>
        <path id="Path_33396" data-name="Path 33396" d="M402.015,172.84s-3.95,5.988-3.5,6.579,3.359,1.12,3.359,1.12Z" transform="translate(-332.891 -143.557)" fill="#f28f8f"/>
        <path id="Path_33397" data-name="Path 33397" d="M403.727,177.835a4.717,4.717,0,1,1,4.717-4.7,4.717,4.717,0,0,1-4.717,4.7Zm0-8.378a3.673,3.673,0,1,0,3.661,3.673,3.673,3.673,0,0,0-3.661-3.673Z" transform="translate(-332.754 -144.702)" fill="#263238"/>
        <path id="Path_33398" data-name="Path 33398" d="M412.317,159.811c-8,1.686-10.315,5.208-11.07,17.9-.78,13.284.579,17.448,2.315,19.235,1.183,1.258,7.724,1.434,11.02.516,4.139-1.132,13.473-4.441,17.838-11.121,5.145-7.85,6.491-18.5.994-22.87C425.689,157.321,415.587,159.119,412.317,159.811Z" transform="translate(-332.235 -147.121)" fill="#ffa8a7"/>
        <path id="Path_33399" data-name="Path 33399" d="M412,190.381l-.377-2.441a15.725,15.725,0,0,1-8.19,1.849C404.952,190.532,408.927,190.758,412,190.381Z" transform="translate(-331.614 -139.661)" fill="#f28f8f"/>
        <path id="Path_33400" data-name="Path 33400" d="M399.37,171.37l14.215,1.849-.566.994-13.649-1.774Z" transform="translate(-332.661 -143.936)" fill="#263238"/>
        <path id="Path_33401" data-name="Path 33401" d="M400.771,167.385a4.63,4.63,0,0,0,1.811-.113,2.843,2.843,0,0,0,.969,3.334,4.05,4.05,0,0,0,3.585.478,3.447,3.447,0,0,0-.39,2.516,4,4,0,0,0,4.139,2.994c.088,1.862.113,3.673,2.088,4.516,0,0,1.258-4.906,5.409-4.29s4.717,5.925,2.1,9.158-5.032,2-5.032,1.988c.239.113.327,1.686.4,1.975a15,15,0,0,0,1.069,2.692,12.791,12.791,0,0,0,3.774,4.378,9.208,9.208,0,0,0,7.548,2.088,8.114,8.114,0,0,0,5.472-4.39,4.6,4.6,0,0,1,.881-1.6,5.3,5.3,0,0,1,2.038-.881,5.988,5.988,0,0,0,3.4-8.454,5.5,5.5,0,0,0,2.1-9.586,6.6,6.6,0,0,0,2.831-7.145,6.7,6.7,0,0,0-4.73-4.529c-1.623-.465-.994-.717-1.5-2.3a5.9,5.9,0,0,0-1.862-2.78,5.963,5.963,0,0,0-5.5-1.019,5.585,5.585,0,0,0-4-4.29,5.358,5.358,0,0,0-2.818-.113c-.667.164-2.025.78-2.277,1.422-.843-.83-1.12-1.925-2.138-2.667a6.076,6.076,0,0,0-8.932,1.9,7.447,7.447,0,0,0-5.585-2.34,6.1,6.1,0,0,0-5.1,3.107,5.183,5.183,0,0,0,.692,5.812,6.026,6.026,0,0,0-3.1,2.667,3.774,3.774,0,0,0,.44,4.176,3.22,3.22,0,0,0,1.56,1.17,5.037,5.037,0,0,0,.648.126Z" transform="translate(-333.094 -149.562)" fill="#263238"/>
        <path id="Path_33402" data-name="Path 33402" d="M410.336,177.971l.138-5.56a2.781,2.781,0,1,0-.138,5.56Z" transform="translate(-330.532 -143.668)" fill="#263238"/>
      </g>
    </g>
  </g>
</svg>
