<svg xmlns="http://www.w3.org/2000/svg" xmlns:xlink="http://www.w3.org/1999/xlink" width="175.276" height="58.008" viewBox="0 0 175.276 58.008">
  <defs>
    <clipPath id="clip-path">
      <path id="Path_14" data-name="Path 14" d="M159.824,141.64l-7.9-4.56-15.233-8.8c-.846-.488-1.688-.192-1.688.828v35.833c0,.765.6,1.1,1.337.671l15.584-9,7.9-4.559,7.591-4.382c.891-.514.805-1.22.054-1.625S159.824,141.64,159.824,141.64Z" transform="translate(-135.006 -128.056)" fill="none"/>
    </clipPath>
    <linearGradient id="linear-gradient" x1="0.5" x2="0.5" y2="1" gradientUnits="objectBoundingBox">
      <stop offset="0" stop-color="#006aa2"/>
      <stop offset="0.345" stop-color="#2f8da6"/>
      <stop offset="0.786" stop-color="#66b6ac"/>
      <stop offset="1" stop-color="#7cc6af"/>
    </linearGradient>
    <linearGradient id="linear-gradient-2" y1="0.5" x2="1" y2="0.5" gradientUnits="objectBoundingBox">
      <stop offset="0" stop-color="#4ab59d"/>
      <stop offset="1" stop-color="#dfe385"/>
    </linearGradient>
    <linearGradient id="linear-gradient-3" x1="0.5" x2="0.5" y2="1" gradientUnits="objectBoundingBox">
      <stop offset="0" stop-color="#e4282d"/>
      <stop offset="0.316" stop-color="#ba2d4e"/>
      <stop offset="0.777" stop-color="#83357b"/>
      <stop offset="1" stop-color="#6e388d"/>
    </linearGradient>
    <linearGradient id="linear-gradient-4" x1="0.5" x2="0.5" y2="1" gradientUnits="objectBoundingBox">
      <stop offset="0" stop-color="#f07165"/>
      <stop offset="0.659" stop-color="#faa460"/>
      <stop offset="1" stop-color="#ffba5e"/>
    </linearGradient>
  </defs>
  <g id="appstore_google" transform="translate(0.5 0.5)">
    <path id="Path_9" data-name="Path 9" d="M270.918,143.825a7.7,7.7,0,0,1-7.7,7.7H104.345a7.705,7.705,0,0,1-7.7-7.7v-41.6a7.7,7.7,0,0,1,7.7-7.7h158.87a7.7,7.7,0,0,1,7.7,7.7Z" transform="translate(-96.641 -94.522)" fill="#1c1e30" stroke="#ebebeb" stroke-width="1"/>
    <g id="PLAY" transform="translate(13.137 11.201)">
      <g id="Group_1690" data-name="Group 1690" transform="translate(0 0)" clip-path="url(#clip-path)">
        <path id="Path_10" data-name="Path 10" d="M135.006,126.292v38.8l19.563-19.4Z" transform="translate(-135.006 -126.896)" fill="url(#linear-gradient)"/>
        <path id="Path_11" data-name="Path 11" d="M159.824,140.21l-7.9-4.559-16.921-9.77v.141l19.563,19.4Z" transform="translate(-135.006 -126.625)" fill="url(#linear-gradient-2)"/>
        <path id="Path_12" data-name="Path 12" d="M135.006,202.343v.141l16.921-9.77,7.9-4.559-5.254-5.21Z" transform="translate(-135.006 -164.15)" fill="url(#linear-gradient-3)"/>
        <path id="Path_13" data-name="Path 13" d="M197.394,167.728l-5.255,5.21,5.254,5.21,9.025-5.21Z" transform="translate(-172.576 -154.144)" fill="url(#linear-gradient-4)"/>
      </g>
    </g>
    <g id="Group_1691" data-name="Group 1691" transform="translate(130.19 21.468)">
      <path id="Path_15" data-name="Path 15" d="M484.618,182.634a4.884,4.884,0,0,1-2.012-.406,3.793,3.793,0,0,1-1.529-1.251h-.123a15.173,15.173,0,0,1,.123,1.874v4.643h-1.708V171.146h1.389l.236,1.544h.082a3.98,3.98,0,0,1,1.535-1.338,4.666,4.666,0,0,1,2.007-.412,4.17,4.17,0,0,1,3.464,1.534,8.17,8.17,0,0,1-.02,8.623A4.181,4.181,0,0,1,484.618,182.634Zm-.247-10.243a3.027,3.027,0,0,0-2.5.957,4.929,4.929,0,0,0-.793,3.047v.38a5.645,5.645,0,0,0,.793,3.4,3.015,3.015,0,0,0,2.542,1.024,2.645,2.645,0,0,0,2.292-1.184,5.617,5.617,0,0,0,.828-3.264,5.407,5.407,0,0,0-.828-3.237A2.727,2.727,0,0,0,484.37,172.391Z" transform="translate(-479.368 -166.41)" fill="#f9f9f9"/>
      <path id="Path_16" data-name="Path 16" d="M516.653,173.729h-1.709V157.711h1.709Z" transform="translate(-502.762 -157.711)" fill="#f9f9f9"/>
      <path id="Path_17" data-name="Path 17" d="M533.68,182.468l-.34-1.606h-.082a4.732,4.732,0,0,1-1.683,1.436,5.117,5.117,0,0,1-2.094.376,3.768,3.768,0,0,1-2.63-.865,3.151,3.151,0,0,1-.952-2.46q0-3.417,5.466-3.583l1.916-.062V175a2.858,2.858,0,0,0-.572-1.961,2.348,2.348,0,0,0-1.827-.633,7.439,7.439,0,0,0-3.191.865l-.525-1.307a8.023,8.023,0,0,1,1.828-.71,7.91,7.91,0,0,1,1.992-.258,4.3,4.3,0,0,1,2.991.9,3.74,3.74,0,0,1,.972,2.872v7.7Zm-3.86-1.2a3.471,3.471,0,0,0,2.507-.875,3.24,3.24,0,0,0,.911-2.451v-1.019l-1.71.072a6.214,6.214,0,0,0-2.939.633,1.91,1.91,0,0,0-.9,1.745,1.758,1.758,0,0,0,.561,1.41A2.328,2.328,0,0,0,529.82,181.264Z" transform="translate(-509.965 -166.45)" fill="#f9f9f9"/>
      <path id="Path_18" data-name="Path 18" d="M555.222,171.541h1.831l2.471,6.434a24.581,24.581,0,0,1,1.009,3.181h.083q.134-.526.56-1.8t2.795-7.818H565.8l-4.849,12.848a6.412,6.412,0,0,1-1.683,2.7,3.581,3.581,0,0,1-2.362.8,6.9,6.9,0,0,1-1.545-.175v-1.369a5.971,5.971,0,0,0,1.267.124,2.611,2.611,0,0,0,2.512-1.977l.628-1.606Z" transform="translate(-529.249 -166.805)" fill="#f9f9f9"/>
    </g>
    <g id="Group_1693" data-name="Group 1693" transform="translate(52.699 20.202)">
      <path id="Path_19" data-name="Path 19" d="M385.345,172.972a3.844,3.844,0,0,1-.307,6.537,1.66,1.66,0,0,0-.661,1.158,1.294,1.294,0,0,0,.614,1.014l.85.659c1.038.874,1.981,1.677,1.981,3.306,0,2.218-2.148,4.459-6.206,4.459-3.422,0-5.073-1.628-5.073-3.375a3.4,3.4,0,0,1,1.817-2.879,10.166,10.166,0,0,1,4.507-1.086,2.471,2.471,0,0,1-.708-1.6,2.126,2.126,0,0,1,.236-.921c-.261.024-.52.047-.756.047a3.731,3.731,0,0,1-3.917-3.7,4.246,4.246,0,0,1,1.51-3.163,6.435,6.435,0,0,1,4.226-1.3h4.861l-1.511.85Zm-1.676,10.478a3.659,3.659,0,0,0-.542-.025,9.429,9.429,0,0,0-2.478.379,2.65,2.65,0,0,0-2.03,2.43c0,1.675,1.629,2.88,4.154,2.88,2.264,0,3.469-1.088,3.469-2.55C386.243,185.36,385.464,184.725,383.669,183.45Zm.685-4.485a2.386,2.386,0,0,0,.589-1.723c0-1.7-1.014-4.342-2.972-4.342a2.205,2.205,0,0,0-1.653.779,2.728,2.728,0,0,0-.519,1.747c0,1.581.92,4.2,2.951,4.2A2.415,2.415,0,0,0,384.354,178.965Z" transform="translate(-333.849 -165.926)" fill="#f9f9f9"/>
      <path id="Path_20" data-name="Path 20" d="M347.822,182.428a5.56,5.56,0,0,1-5.748-5.561,5.838,5.838,0,0,1,6.1-5.724,5.508,5.508,0,0,1,5.63,5.56A5.757,5.757,0,0,1,347.822,182.428Zm2.945-1.908a4.262,4.262,0,0,0,.708-2.616c0-2.073-.989-6.031-3.911-6.031a3.281,3.281,0,0,0-2.12.8,3.565,3.565,0,0,0-1.085,2.875c0,2.331,1.155,6.171,4.006,6.171A3.01,3.01,0,0,0,350.766,180.52Z" transform="translate(-311.182 -165.281)" fill="#f9f9f9"/>
      <path id="Path_21" data-name="Path 21" d="M310.525,182.428a5.56,5.56,0,0,1-5.749-5.561,5.839,5.839,0,0,1,6.1-5.724,5.508,5.508,0,0,1,5.63,5.56A5.757,5.757,0,0,1,310.525,182.428Zm2.945-1.908a4.266,4.266,0,0,0,.707-2.616c0-2.073-.99-6.031-3.912-6.031a3.283,3.283,0,0,0-2.12.8,3.565,3.565,0,0,0-1.084,2.875c0,2.331,1.154,6.171,4.006,6.171A3.012,3.012,0,0,0,313.47,180.52Z" transform="translate(-286.656 -165.281)" fill="#f9f9f9"/>
      <path id="Path_22" data-name="Path 22" d="M268.176,171.817l-3.387.782a25.065,25.065,0,0,1-3.908.4c-6.539,0-9.025-4.809-9.025-8.575,0-4.595,3.529-8.858,9.57-8.858a13.637,13.637,0,0,1,3.623.5,9.23,9.23,0,0,1,3.127,1.468L266.21,159.4l-.829.189.592-.948a6.77,6.77,0,0,0-5.069-2.225c-3.743,0-6.562,2.843-6.562,6.988a8.377,8.377,0,0,0,8.385,8.645,7.055,7.055,0,0,0,3.009-.593v-3.813l-3.576.189,1.894-1.019h5.022l-.615.592a.554.554,0,0,0-.238.379c-.025.214-.047.9-.047,1.138Z" transform="translate(-251.856 -155.039)" fill="#f9f9f9"/>
      <path id="Path_23" data-name="Path 23" d="M414.452,170.121c-.782-.071-.946-.213-.946-1.138V155.577c0-.051.008-.1.013-.153.1-.828.332-.971,1.067-1.4H411.2l-1.777.853h1.811v14.626c0,.473-.094.544-.639,1.255h4.193l.876-.52C415.259,170.192,414.856,170.168,414.452,170.121Z" transform="translate(-355.469 -154.026)" fill="#f9f9f9"/>
      <path id="Path_24" data-name="Path 24" d="M435.776,181.609c-.258.142-.517.307-.775.424a5.483,5.483,0,0,1-2.284.447,5.027,5.027,0,0,1-3.129-.918,6.088,6.088,0,0,1-2.4-4.964,5.331,5.331,0,0,1,5.387-5.433,4.572,4.572,0,0,1,2.424.659,3.9,3.9,0,0,1,1.645,2.327l-5.527,2.236-1.812.141c.587,2.987,2.61,4.727,4.846,4.727a6.08,6.08,0,0,0,2.87-.822Zm-2.21-7.011c.446-.164.681-.306.681-.635a2.334,2.334,0,0,0-2.329-2.023c-.942,0-2.705.73-2.705,3.27,0,.4.047.823.072,1.248Z" transform="translate(-367.153 -165.296)" fill="#f9f9f9"/>
      <g id="Group_1692" data-name="Group 1692" transform="translate(70.191 5.869)">
        <path id="Path_25" data-name="Path 25" d="M457.548,171.326v1.552h-.189v-1.552h-.513v-.161h1.215v.161Z" transform="translate(-456.846 -171.165)" fill="#f9f9f9"/>
        <path id="Path_26" data-name="Path 26" d="M462.591,172.878v-1.567h-.008l-.478,1.567h-.147l-.482-1.567h-.006v1.567H461.3v-1.713h.293l.436,1.384h.006l.43-1.384h.3v1.713Z" transform="translate(-459.774 -171.165)" fill="#f9f9f9"/>
      </g>
    </g>
    <g id="Group_1694" data-name="Group 1694" transform="translate(52.789 11.329)">
      <path id="Path_27" data-name="Path 27" d="M256.638,132.9h-1.177a7.806,7.806,0,0,0-.335-1.376h-1.7a7.112,7.112,0,0,0-.346,1.376h-1.107q0-.144.859-2.354a18.492,18.492,0,0,0,.859-2.435h1.39a20.313,20.313,0,0,0,.778,2.4A21,21,0,0,1,256.638,132.9Zm-1.7-2.078a20.8,20.8,0,0,1-.629-2.052h-.059a21.51,21.51,0,0,1-.651,2.052Z" transform="translate(-251.974 -128)" fill="#f7f8f8"/>
      <path id="Path_28" data-name="Path 28" d="M271.867,132.9h-.909a8.964,8.964,0,0,0-1.012-1.593,8.764,8.764,0,0,1-1.206-2.078h-.059a12.959,12.959,0,0,1,.092,1.457q0,.909.051,2.214h-.9q.055-1.14.055-2.505,0-1.342-.055-2.284h1.093a6.913,6.913,0,0,0,.908,1.556,9.161,9.161,0,0,1,1.111,1.961h.055a13.951,13.951,0,0,1-.088-1.471q0-1-.052-2.045h.92q-.052.913-.052,2.284T271.867,132.9Z" transform="translate(-262.46 -128)" fill="#f7f8f8"/>
      <path id="Path_29" data-name="Path 29" d="M287.246,130.3a2.712,2.712,0,0,1-.67,1.824,2.338,2.338,0,0,1-1.876.78q-.544,0-1.5-.044.048-1.111.048-2.505,0-1.339-.048-2.284h.644q.158,0,.471-.011c.208-.007.344-.011.408-.011a2.478,2.478,0,0,1,1.926.662A2.288,2.288,0,0,1,287.246,130.3Zm-1,.158a1.773,1.773,0,0,0-.412-1.19,1.563,1.563,0,0,0-1.258-.484,3.925,3.925,0,0,0-.434.033q.037.736.037,1.537,0,.879.037,1.744a2.439,2.439,0,0,0,.478.048,1.39,1.39,0,0,0,1.171-.491A1.9,1.9,0,0,0,286.242,130.455Z" transform="translate(-272.508 -127.958)" fill="#f7f8f8"/>
      <path id="Path_30" data-name="Path 30" d="M301.928,132.857h-1.089a7.24,7.24,0,0,0-.655-1.608.858.858,0,0,0-.736-.305q-.214,0-.408,0,0,.945.033,1.909h-1.022q.048-1.111.048-2.505,0-1.339-.048-2.284h.636q.11,0,.462-.011t.649-.011q1.688,0,1.688,1.155a1.3,1.3,0,0,1-.964,1.277v.055a1.147,1.147,0,0,1,.651.579A12.766,12.766,0,0,1,301.928,132.857Zm-1.379-3.384q0-.732-.942-.732a3.232,3.232,0,0,0-.611.052q.041.57.041,1.486.2.008.342.008Q300.548,130.286,300.549,129.473Z" transform="translate(-282.274 -127.958)" fill="#f7f8f8"/>
      <path id="Path_31" data-name="Path 31" d="M315.779,130.2a2.642,2.642,0,0,1-.691,1.872,2.244,2.244,0,0,1-1.71.743,2.162,2.162,0,0,1-1.626-.682,2.4,2.4,0,0,1-.655-1.734,2.64,2.64,0,0,1,.691-1.872,2.243,2.243,0,0,1,1.71-.743,2.166,2.166,0,0,1,1.626.68A2.4,2.4,0,0,1,315.779,130.2Zm-1.015.106a1.9,1.9,0,0,0-.394-1.247,1.212,1.212,0,0,0-.971-.478,1.122,1.122,0,0,0-.912.482,1.924,1.924,0,0,0-.375,1.218,1.893,1.893,0,0,0,.4,1.245,1.212,1.212,0,0,0,.969.48,1.122,1.122,0,0,0,.912-.484A1.925,1.925,0,0,0,314.764,130.311Z" transform="translate(-290.852 -127.788)" fill="#f7f8f8"/>
      <path id="Path_32" data-name="Path 32" d="M328.846,132.9H327.8q.048-1.14.048-2.505,0-1.342-.048-2.284h1.041q-.048.927-.048,2.284Q328.8,131.781,328.846,132.9Z" transform="translate(-301.84 -128)" fill="#f7f8f8"/>
      <path id="Path_33" data-name="Path 33" d="M338.645,130.3a2.712,2.712,0,0,1-.67,1.824,2.337,2.337,0,0,1-1.876.78q-.545,0-1.5-.044.048-1.111.048-2.505,0-1.339-.048-2.284h.644q.158,0,.471-.011c.208-.007.344-.011.408-.011a2.478,2.478,0,0,1,1.926.662A2.289,2.289,0,0,1,338.645,130.3Zm-1,.158a1.774,1.774,0,0,0-.412-1.19,1.563,1.563,0,0,0-1.258-.484,3.917,3.917,0,0,0-.434.033q.037.736.037,1.537,0,.879.037,1.744a2.442,2.442,0,0,0,.478.048,1.389,1.389,0,0,0,1.171-.491A1.9,1.9,0,0,0,337.641,130.455Z" transform="translate(-306.307 -127.958)" fill="#f7f8f8"/>
      <path id="Path_34" data-name="Path 34" d="M358.114,132.9h-1.177a7.759,7.759,0,0,0-.335-1.376h-1.7a7.093,7.093,0,0,0-.345,1.376H353.45q0-.144.859-2.354a18.441,18.441,0,0,0,.859-2.435h1.39a20.288,20.288,0,0,0,.778,2.4A21.1,21.1,0,0,1,358.114,132.9Zm-1.7-2.078a20.887,20.887,0,0,1-.629-2.052h-.059a21.5,21.5,0,0,1-.651,2.052Z" transform="translate(-318.703 -128)" fill="#f7f8f8"/>
      <path id="Path_35" data-name="Path 35" d="M372.891,129.322a1.433,1.433,0,0,1-.653,1.3,2.9,2.9,0,0,1-1.6.419q-.173,0-.246-.007,0,.691.04,1.824H369.4q.048-1.063.048-2.505,0-1.324-.048-2.284h.64q.136,0,.522-.011t.669-.011a2.1,2.1,0,0,1,1.181.316A1.07,1.07,0,0,1,372.891,129.322Zm-.949.2q0-.787-1.045-.787a2.94,2.94,0,0,0-.552.055q.04.695.04,1.574c.061.005.133.008.213.008Q371.942,130.374,371.941,129.525Z" transform="translate(-329.189 -127.958)" fill="#f7f8f8"/>
      <path id="Path_36" data-name="Path 36" d="M385.774,129.322a1.434,1.434,0,0,1-.653,1.3,2.9,2.9,0,0,1-1.6.419c-.115,0-.2,0-.246-.007q0,.691.04,1.824H382.28q.048-1.063.048-2.505,0-1.324-.048-2.284h.64q.136,0,.523-.011t.669-.011a2.105,2.105,0,0,1,1.181.316A1.069,1.069,0,0,1,385.774,129.322Zm-.949.2q0-.787-1.045-.787a2.94,2.94,0,0,0-.552.055q.041.695.04,1.574.092.008.213.008Q384.826,130.374,384.826,129.525Z" transform="translate(-337.661 -127.958)" fill="#f7f8f8"/>
      <path id="Path_37" data-name="Path 37" d="M404.557,130.2a2.641,2.641,0,0,1-.692,1.872,2.243,2.243,0,0,1-1.71.743,2.162,2.162,0,0,1-1.626-.682,2.4,2.4,0,0,1-.655-1.734,2.642,2.642,0,0,1,.691-1.872,2.245,2.245,0,0,1,1.711-.743,2.166,2.166,0,0,1,1.626.68A2.4,2.4,0,0,1,404.557,130.2Zm-1.015.106a1.9,1.9,0,0,0-.394-1.247,1.211,1.211,0,0,0-.971-.478,1.123,1.123,0,0,0-.913.482,1.925,1.925,0,0,0-.375,1.218,1.893,1.893,0,0,0,.4,1.245,1.211,1.211,0,0,0,.969.48,1.121,1.121,0,0,0,.912-.484A1.924,1.924,0,0,0,403.542,130.311Z" transform="translate(-349.232 -127.788)" fill="#f7f8f8"/>
      <path id="Path_38" data-name="Path 38" d="M420.531,132.9h-.908a8.962,8.962,0,0,0-1.011-1.593,8.772,8.772,0,0,1-1.207-2.078h-.059a13.026,13.026,0,0,1,.092,1.457q0,.909.052,2.214h-.9q.055-1.14.055-2.505,0-1.342-.055-2.284h1.092a6.926,6.926,0,0,0,.909,1.556,9.157,9.157,0,0,1,1.111,1.961h.055a13.863,13.863,0,0,1-.088-1.471q0-1-.051-2.045h.919q-.051.913-.051,2.284T420.531,132.9Z" transform="translate(-360.22 -128)" fill="#f7f8f8"/>
    </g>
  </g>
</svg>
