<svg id="delete" xmlns="http://www.w3.org/2000/svg" width="16.375" height="20" viewBox="0 0 16.375 20">
  <g id="delete-button" transform="translate(1.053)" opacity="0.3">
    <g id="Group_7980" data-name="Group 7980">
      <path id="Path_28354" data-name="Path 28354" d="M59.312,2.27H56.363a2.564,2.564,0,0,0-5.094,0H48.319a2.167,2.167,0,0,0-2.164,2.165v.111a2.167,2.167,0,0,0,1.368,2.011V16.783a2.167,2.167,0,0,0,2.165,2.165h8.257a2.167,2.167,0,0,0,2.164-2.165V6.557a2.167,2.167,0,0,0,1.368-2.011V4.435A2.167,2.167,0,0,0,59.312,2.27Zm-5.5-1.243c.748,0,1.372.536-1.51,1.243A1.541,1.541,0,0,1,53.816,1.027ZM48.55,6.711h0Zm11.9-2.165a1.139,1.139,0,0,1-1.138,1.138H48.319a1.139,1.139,0,0,1-1.138-1.138V4.435A1.139,1.139,0,0,1,48.319,3.3H59.312A1.139,1.139,0,0,1,60.45,4.435v.111Z" transform="translate(-46.155)" fill="#4987ee"/>
      <path id="Path_28355" data-name="Path 28355" d="M158.59,256.4a.515.515,0,0,0,.515-.515v-5.8a.515.515,0,1,0-1.03,0v5.8A.515.515,0,0,0,158.59,256.4Z" transform="translate(-153.68 -240.867)" fill="#4987ee"/>
      <path id="Path_28356" data-name="Path 28356" d="M228.66,256.4a.515.515,0,0,0,.515-.515v-5.8a.515.515,0,1,0-1.03,0v5.8A.515.515,0,0,0,228.66,256.4Z" transform="translate(-220.999 -240.867)" fill="#4987ee"/>
      <path id="Path_28357" data-name="Path 28357" d="M298.729,256.4a.515.515,0,0,0,.515-.515v-5.8a.515.515,0,1,0-1.03,0v5.8A.515.515,0,0,0,298.729,256.4Z" transform="translate(-288.317 -240.867)" fill="#4987ee"/>
    </g>
  </g>
  <g id="delete-button-2" data-name="delete-button" transform="translate(0 1.053)">
    <g id="Group_7980-2" data-name="Group 7980">
      <path id="Path_28354-2" data-name="Path 28354" d="M59.312,2.27H56.363a2.564,2.564,0,0,0-5.094,0H48.319a2.167,2.167,0,0,0-2.164,2.165v.111a2.167,2.167,0,0,0,1.368,2.011V16.783a2.167,2.167,0,0,0,2.165,2.165h8.257a2.167,2.167,0,0,0,2.164-2.165V6.557a2.167,2.167,0,0,0,1.368-2.011V4.435A2.167,2.167,0,0,0,59.312,2.27Zm-5.5-1.243a1.541,1.541,0,0,1,1.51,1.243H52.306A1.541,1.541,0,0,1,53.816,1.027Zm5.266,15.756a1.139,1.139,0,0,1-1.138,1.138H49.687a1.139,1.139,0,0,1-1.138-1.138V6.711H59.082ZM60.45,4.546a1.139,1.139,0,0,1-1.138,1.138H48.319a1.139,1.139,0,0,1-1.138-1.138V4.435A1.139,1.139,0,0,1,48.319,3.3H59.312A1.139,1.139,0,0,1,60.45,4.435v.111Z" transform="translate(-46.155)" fill="#4987ee"/>
      <path id="Path_28355-2" data-name="Path 28355" d="M158.59,256.4a.515.515,0,0,0,.515-.515v-5.8a.515.515,0,1,0-1.03,0v5.8A.515.515,0,0,0,158.59,256.4Z" transform="translate(-153.68 -240.867)" fill="#4987ee"/>
      <path id="Path_28356-2" data-name="Path 28356" d="M228.66,256.4a.515.515,0,0,0,.515-.515v-5.8a.515.515,0,1,0-1.03,0v5.8A.515.515,0,0,0,228.66,256.4Z" transform="translate(-220.999 -240.867)" fill="#4987ee"/>
      <path id="Path_28357-2" data-name="Path 28357" d="M298.729,256.4a.515.515,0,0,0,.515-.515v-5.8a.515.515,0,1,0-1.03,0v5.8A.515.515,0,0,0,298.729,256.4Z" transform="translate(-288.317 -240.867)" fill="#4987ee"/>
    </g>
  </g>
</svg>
