<svg xmlns="http://www.w3.org/2000/svg" width="16.268" height="18.003" viewBox="0 0 16.268 18.003">
  <g id="small_case" data-name="small case" transform="translate(-0.823 -0.85)">
    <g id="Group-3-Copy-6" transform="translate(0.824 0.85)">
      <path id="Fill-1" d="M8.628,3.008l3.139,1.513a.314.314,0,0,1,.149.411.5.5,0,0,1-.131.149L8.74,6.632a.364.364,0,0,1-.28,0L5.322,5.119a.314.314,0,0,1-.149-.411.5.5,0,0,1,.127-.15l3.029-1.55a.287.287,0,0,1,.3,0Zm.019,5.754,7.435-3.774a.307.307,0,0,0,.131-.411.259.259,0,0,0-.149-.131L8.7.878a.364.364,0,0,0-.28,0L.987,4.652a.307.307,0,0,0-.131.411A.259.259,0,0,0,1,5.194l7.361,3.55a.3.3,0,0,0,.28.019Zm6.24,2.709a3.831,3.831,0,0,1-1.868,3.12c-1.028.523-1.868-.019-1.868-1.214a3.831,3.831,0,0,1,1.868-3.12C14.047,9.734,14.887,10.276,14.887,11.471Zm2.2,3.251V6.314A.327.327,0,0,0,16.774,6a.44.44,0,0,0-.149.037l-7.51,3.83a.308.308,0,0,0-.168.28v8.388a.327.327,0,0,0,.318.318.44.44,0,0,0,.149-.037l7.51-3.83a.293.293,0,0,0,.167-.265Zm-11.6.729L2.108,13.825a.314.314,0,0,1-.149-.411L2,13.376l1.681-2.485a.308.308,0,0,1,.448-.075.251.251,0,0,1,.112.131l1.681,4.11a.307.307,0,0,1-.168.411.266.266,0,0,1-.262-.019Z" transform="translate(-0.824 -0.85)" fill="#4987ee" fill-rule="evenodd"/>
    </g>
  </g>
</svg>
