<svg xmlns="http://www.w3.org/2000/svg" width="132" height="130" viewBox="0 0 132 130">
  <g id="success_btn" transform="translate(1457 -7593)">
    <path id="Ellipse_619" data-name="Ellipse 619" d="M66,0c36.451,0,66,29.1,66,65s-29.549,65-66,65S0,100.9,0,65,29.549,0,66,0Z" transform="translate(-1457 7593)" fill="#1d2026"/>
    <path id="Ellipse_620" data-name="Ellipse 620" d="M50,0c27.614,0,50,22.162,50,49.5S77.614,99,50,99,0,76.838,0,49.5,22.386,0,50,0Z" transform="translate(-1440 7610)" fill="#2fc896"/>
    <path id="Path_34517" data-name="Path 34517" d="M49.995,15.487,27.751,40.51,14.35,29.79a1.447,1.447,0,0,0-1.808,2.261L27.016,43.629A1.449,1.449,0,0,0,29,43.46L52.16,17.409a1.448,1.448,0,0,0-2.165-1.922Z" transform="translate(-1422 7630)" fill="#fff"/>
  </g>
</svg>
