<svg xmlns="http://www.w3.org/2000/svg" xmlns:xlink="http://www.w3.org/1999/xlink" width="175.253" height="58" viewBox="0 0 175.253 58">
  <defs>
    <clipPath id="clip-path">
      <path id="Path_14" data-name="Path 14" d="M159.82,141.638l-7.9-4.559-15.23-8.794c-.846-.488-1.688-.192-1.688.828v35.828c0,.765.6,1.1,1.337.671l15.581-9,7.9-4.558,7.59-4.382c.89-.514.8-1.22.054-1.625S159.82,141.638,159.82,141.638Z" transform="translate(-135.006 -128.056)" fill="none"/>
    </clipPath>
    <linearGradient id="linear-gradient" x1="0.5" x2="0.5" y2="1" gradientUnits="objectBoundingBox">
      <stop offset="0" stop-color="#006aa2"/>
      <stop offset="0.345" stop-color="#2f8da6"/>
      <stop offset="0.786" stop-color="#66b6ac"/>
      <stop offset="1" stop-color="#7cc6af"/>
    </linearGradient>
    <linearGradient id="linear-gradient-2" y1="0.5" x2="1" y2="0.5" gradientUnits="objectBoundingBox">
      <stop offset="0" stop-color="#4ab59d"/>
      <stop offset="1" stop-color="#dfe385"/>
    </linearGradient>
    <linearGradient id="linear-gradient-3" x1="0.5" x2="0.5" y2="1" gradientUnits="objectBoundingBox">
      <stop offset="0" stop-color="#e4282d"/>
      <stop offset="0.316" stop-color="#ba2d4e"/>
      <stop offset="0.777" stop-color="#83357b"/>
      <stop offset="1" stop-color="#6e388d"/>
    </linearGradient>
    <linearGradient id="linear-gradient-4" x1="0.5" x2="0.5" y2="1" gradientUnits="objectBoundingBox">
      <stop offset="0" stop-color="#f07165"/>
      <stop offset="0.659" stop-color="#faa460"/>
      <stop offset="1" stop-color="#ffba5e"/>
    </linearGradient>
  </defs>
  <g id="appstore_google" transform="translate(0.5 0.5)">
    <path id="Path_9" data-name="Path 9" d="M270.894,143.819a7.7,7.7,0,0,1-7.7,7.7H104.344a7.7,7.7,0,0,1-7.7-7.7V102.225a7.7,7.7,0,0,1,7.7-7.7H263.193a7.7,7.7,0,0,1,7.7,7.7Z" transform="translate(-96.641 -94.522)" fill="#1e222b" stroke="#404248" stroke-width="1"/>
    <g id="PLAY" transform="translate(13.135 11.199)">
      <g id="Group_1690" data-name="Group 1690" transform="translate(0 0)" clip-path="url(#clip-path)">
        <path id="Path_10" data-name="Path 10" d="M135.006,126.292v38.791l19.561-19.4Z" transform="translate(-135.006 -126.896)" fill="url(#linear-gradient)"/>
        <path id="Path_11" data-name="Path 11" d="M159.82,140.208l-7.9-4.559-16.919-9.769v.141l19.561,19.4Z" transform="translate(-135.006 -126.625)" fill="url(#linear-gradient-2)"/>
        <path id="Path_12" data-name="Path 12" d="M135.006,202.341v.141l16.919-9.769,7.9-4.558-5.254-5.209Z" transform="translate(-135.006 -164.153)" fill="url(#linear-gradient-3)"/>
        <path id="Path_13" data-name="Path 13" d="M197.394,167.728l-5.254,5.21,5.254,5.209,9.024-5.209Z" transform="translate(-172.579 -154.146)" fill="url(#linear-gradient-4)"/>
      </g>
    </g>
    <g id="Group_1691" data-name="Group 1691" transform="translate(130.172 21.466)">
      <path id="Path_15" data-name="Path 15" d="M484.617,182.633a4.883,4.883,0,0,1-2.012-.406,3.793,3.793,0,0,1-1.529-1.251h-.123a15.169,15.169,0,0,1,.123,1.873v4.642h-1.708V171.146h1.389l.236,1.544h.082a3.979,3.979,0,0,1,1.534-1.338,4.665,4.665,0,0,1,2.007-.412,4.169,4.169,0,0,1,3.464,1.533,8.169,8.169,0,0,1-.02,8.621A4.181,4.181,0,0,1,484.617,182.633Zm-.247-10.242a3.027,3.027,0,0,0-2.5.957,4.928,4.928,0,0,0-.793,3.047v.38a5.644,5.644,0,0,0,.793,3.4,3.015,3.015,0,0,0,2.542,1.024,2.645,2.645,0,0,0,2.291-1.184,5.617,5.617,0,0,0,.828-3.263,5.406,5.406,0,0,0-.828-3.237A2.726,2.726,0,0,0,484.37,172.391Z" transform="translate(-479.368 -166.411)" fill="#f9f9f9"/>
      <path id="Path_16" data-name="Path 16" d="M516.653,173.727h-1.709V157.711h1.709Z" transform="translate(-502.764 -157.711)" fill="#f9f9f9"/>
      <path id="Path_17" data-name="Path 17" d="M533.679,182.466l-.34-1.606h-.082a4.732,4.732,0,0,1-1.683,1.436,5.116,5.116,0,0,1-2.094.376,3.768,3.768,0,0,1-2.63-.865,3.151,3.151,0,0,1-.952-2.46q0-3.417,5.465-3.582l1.915-.062V175a2.858,2.858,0,0,0-.572-1.961,2.347,2.347,0,0,0-1.827-.633,7.439,7.439,0,0,0-3.191.864l-.525-1.307a8.021,8.021,0,0,1,1.827-.71,7.909,7.909,0,0,1,1.992-.257,4.3,4.3,0,0,1,2.99.9,3.739,3.739,0,0,1,.972,2.872v7.7Zm-3.86-1.2a3.471,3.471,0,0,0,2.507-.875,3.239,3.239,0,0,0,.911-2.45v-1.019l-1.71.072a6.213,6.213,0,0,0-2.939.633,1.91,1.91,0,0,0-.9,1.745,1.757,1.757,0,0,0,.561,1.41A2.327,2.327,0,0,0,529.819,181.262Z" transform="translate(-509.967 -166.45)" fill="#f9f9f9"/>
      <path id="Path_18" data-name="Path 18" d="M555.222,171.541h1.831l2.471,6.433a24.576,24.576,0,0,1,1.009,3.181h.083q.134-.526.56-1.8t2.794-7.817H565.8l-4.849,12.846a6.411,6.411,0,0,1-1.683,2.7,3.58,3.58,0,0,1-2.362.8,6.9,6.9,0,0,1-1.544-.175v-1.368a5.969,5.969,0,0,0,1.267.124,2.61,2.61,0,0,0,2.511-1.976l.628-1.606Z" transform="translate(-529.252 -166.806)" fill="#f9f9f9"/>
    </g>
    <g id="Group_1693" data-name="Group 1693" transform="translate(52.692 20.199)">
      <path id="Path_19" data-name="Path 19" d="M385.344,172.971a3.843,3.843,0,0,1-.307,6.536,1.66,1.66,0,0,0-.661,1.158,1.294,1.294,0,0,0,.614,1.014l.85.659c1.038.873,1.981,1.676,1.981,3.305,0,2.217-2.147,4.459-6.205,4.459-3.422,0-5.073-1.628-5.073-3.375a3.4,3.4,0,0,1,1.817-2.879,10.165,10.165,0,0,1,4.506-1.086,2.471,2.471,0,0,1-.708-1.6,2.126,2.126,0,0,1,.236-.921c-.261.024-.52.047-.756.047a3.73,3.73,0,0,1-3.916-3.7,4.245,4.245,0,0,1,1.509-3.162,6.434,6.434,0,0,1,4.225-1.3h4.86l-1.511.849Zm-1.676,10.477a3.658,3.658,0,0,0-.542-.025,9.427,9.427,0,0,0-2.478.379,2.65,2.65,0,0,0-2.029,2.43c0,1.674,1.629,2.88,4.154,2.88,2.264,0,3.469-1.088,3.469-2.55C386.241,185.358,385.462,184.723,383.668,183.448Zm.685-4.484a2.386,2.386,0,0,0,.589-1.722c0-1.7-1.014-4.342-2.972-4.342a2.205,2.205,0,0,0-1.652.779,2.728,2.728,0,0,0-.519,1.746c0,1.58.92,4.2,2.951,4.2A2.415,2.415,0,0,0,384.353,178.965Z" transform="translate(-333.854 -165.927)" fill="#f9f9f9"/>
      <path id="Path_20" data-name="Path 20" d="M347.821,182.426a5.559,5.559,0,0,1-5.748-5.561,5.838,5.838,0,0,1,6.1-5.724,5.508,5.508,0,0,1,5.629,5.56A5.756,5.756,0,0,1,347.821,182.426Zm2.944-1.908a4.262,4.262,0,0,0,.708-2.616c0-2.073-.989-6.03-3.911-6.03a3.28,3.28,0,0,0-2.119.8,3.565,3.565,0,0,0-1.085,2.875c0,2.33,1.155,6.17,4.006,6.17A3.009,3.009,0,0,0,350.765,180.518Z" transform="translate(-311.186 -165.282)" fill="#f9f9f9"/>
      <path id="Path_21" data-name="Path 21" d="M310.524,182.426a5.559,5.559,0,0,1-5.748-5.561,5.838,5.838,0,0,1,6.1-5.724,5.507,5.507,0,0,1,5.63,5.56A5.756,5.756,0,0,1,310.524,182.426Zm2.945-1.908a4.266,4.266,0,0,0,.707-2.616c0-2.073-.99-6.03-3.911-6.03a3.283,3.283,0,0,0-2.12.8,3.564,3.564,0,0,0-1.084,2.875c0,2.33,1.154,6.17,4.005,6.17A3.011,3.011,0,0,0,313.469,180.518Z" transform="translate(-286.658 -165.282)" fill="#f9f9f9"/>
      <path id="Path_22" data-name="Path 22" d="M268.174,171.814l-3.387.782a25.061,25.061,0,0,1-3.907.4c-6.538,0-9.024-4.808-9.024-8.574,0-4.594,3.528-8.857,9.569-8.857a13.635,13.635,0,0,1,3.623.5,9.229,9.229,0,0,1,3.126,1.468l-1.966,1.871-.829.189.592-.948a6.769,6.769,0,0,0-5.068-2.225c-3.742,0-6.561,2.843-6.561,6.987a8.376,8.376,0,0,0,8.384,8.644,7.054,7.054,0,0,0,3.008-.593v-3.812l-3.576.189,1.894-1.019h5.022l-.615.592a.554.554,0,0,0-.238.379c-.025.214-.047.9-.047,1.138Z" transform="translate(-251.856 -155.039)" fill="#f9f9f9"/>
      <path id="Path_23" data-name="Path 23" d="M414.452,170.119c-.782-.071-.946-.213-.946-1.137v-13.4c0-.051.008-.1.013-.153.1-.828.332-.971,1.067-1.4H411.2l-1.777.853h1.811V169.5c0,.473-.094.544-.639,1.254h4.193l.876-.52C415.258,170.189,414.855,170.166,414.452,170.119Z" transform="translate(-355.476 -154.026)" fill="#f9f9f9"/>
      <path id="Path_24" data-name="Path 24" d="M435.775,181.608c-.258.142-.517.307-.774.424a5.483,5.483,0,0,1-2.284.447,5.026,5.026,0,0,1-3.129-.918,6.087,6.087,0,0,1-2.4-4.963,5.331,5.331,0,0,1,5.386-5.432,4.572,4.572,0,0,1,2.424.659,3.9,3.9,0,0,1,1.644,2.327l-5.526,2.236-1.812.141c.587,2.987,2.61,4.726,4.845,4.726a6.079,6.079,0,0,0,2.869-.822Zm-2.21-7.01c.446-.164.681-.306.681-.635a2.334,2.334,0,0,0-2.329-2.023c-.942,0-2.7.73-2.7,3.27,0,.4.047.823.072,1.248Z" transform="translate(-367.162 -165.297)" fill="#f9f9f9"/>
      <g id="Group_1692" data-name="Group 1692" transform="translate(70.182 5.868)">
        <path id="Path_25" data-name="Path 25" d="M457.548,171.326v1.552h-.189v-1.552h-.513v-.161h1.215v.161Z" transform="translate(-456.846 -171.165)" fill="#f9f9f9"/>
        <path id="Path_26" data-name="Path 26" d="M462.591,172.878v-1.567h-.008l-.478,1.567h-.147l-.482-1.567h-.006v1.567H461.3v-1.713h.293l.436,1.384h.006l.43-1.384h.3v1.713Z" transform="translate(-459.774 -171.165)" fill="#f9f9f9"/>
      </g>
    </g>
    <g id="Group_1694" data-name="Group 1694" transform="translate(52.782 11.328)">
      <path id="Path_27" data-name="Path 27" d="M256.637,132.9h-1.177a7.8,7.8,0,0,0-.335-1.376h-1.7a7.111,7.111,0,0,0-.346,1.376h-1.107q0-.144.859-2.354a18.493,18.493,0,0,0,.859-2.435h1.39a20.313,20.313,0,0,0,.778,2.4A20.99,20.99,0,0,1,256.637,132.9Zm-1.7-2.078a20.8,20.8,0,0,1-.629-2.052h-.059a21.5,21.5,0,0,1-.651,2.052Z" transform="translate(-251.974 -128)" fill="#f7f8f8"/>
      <path id="Path_28" data-name="Path 28" d="M271.866,132.9h-.909a8.962,8.962,0,0,0-1.011-1.593,8.762,8.762,0,0,1-1.206-2.078h-.059a12.955,12.955,0,0,1,.092,1.456q0,.908.051,2.214h-.9q.055-1.14.055-2.5,0-1.342-.055-2.284h1.092a6.913,6.913,0,0,0,.908,1.556,9.16,9.16,0,0,1,1.111,1.96h.055a13.947,13.947,0,0,1-.088-1.471q0-1-.052-2.045h.92q-.052.913-.052,2.284T271.866,132.9Z" transform="translate(-262.461 -128)" fill="#f7f8f8"/>
      <path id="Path_29" data-name="Path 29" d="M287.246,130.3a2.712,2.712,0,0,1-.67,1.824,2.337,2.337,0,0,1-1.875.78q-.544,0-1.5-.044.048-1.111.048-2.5,0-1.338-.048-2.284h.644q.158,0,.471-.011c.208-.007.344-.011.408-.011a2.478,2.478,0,0,1,1.925.662A2.288,2.288,0,0,1,287.246,130.3Zm-1,.158a1.773,1.773,0,0,0-.412-1.19,1.563,1.563,0,0,0-1.258-.484,3.923,3.923,0,0,0-.434.033q.037.736.037,1.537,0,.879.037,1.743a2.438,2.438,0,0,0,.478.048,1.389,1.389,0,0,0,1.171-.491A1.9,1.9,0,0,0,286.242,130.455Z" transform="translate(-272.509 -127.958)" fill="#f7f8f8"/>
      <path id="Path_30" data-name="Path 30" d="M301.927,132.857h-1.089a7.239,7.239,0,0,0-.655-1.607.858.858,0,0,0-.735-.305q-.214,0-.408,0,0,.945.033,1.909h-1.022q.048-1.111.048-2.5,0-1.338-.048-2.284h.636q.11,0,.461-.011t.649-.011q1.688,0,1.688,1.155a1.3,1.3,0,0,1-.964,1.276v.055a1.147,1.147,0,0,1,.651.579A12.763,12.763,0,0,1,301.927,132.857Zm-1.379-3.384q0-.732-.941-.732a3.232,3.232,0,0,0-.611.052q.041.57.041,1.485.2.008.342.008Q300.548,130.286,300.548,129.473Z" transform="translate(-282.276 -127.958)" fill="#f7f8f8"/>
      <path id="Path_31" data-name="Path 31" d="M315.779,130.2a2.642,2.642,0,0,1-.691,1.872,2.244,2.244,0,0,1-1.71.743,2.162,2.162,0,0,1-1.626-.682,2.4,2.4,0,0,1-.655-1.734,2.64,2.64,0,0,1,.691-1.872,2.243,2.243,0,0,1,1.71-.743,2.165,2.165,0,0,1,1.626.68A2.4,2.4,0,0,1,315.779,130.2Zm-1.015.106a1.9,1.9,0,0,0-.394-1.247,1.212,1.212,0,0,0-.971-.478,1.122,1.122,0,0,0-.912.482,1.924,1.924,0,0,0-.375,1.217,1.893,1.893,0,0,0,.4,1.245,1.211,1.211,0,0,0,.969.48,1.121,1.121,0,0,0,.912-.483A1.924,1.924,0,0,0,314.764,130.311Z" transform="translate(-290.855 -127.788)" fill="#f7f8f8"/>
      <path id="Path_32" data-name="Path 32" d="M328.846,132.9H327.8q.048-1.14.048-2.5,0-1.342-.048-2.284h1.041q-.048.927-.048,2.284Q328.8,131.781,328.846,132.9Z" transform="translate(-301.843 -128)" fill="#f7f8f8"/>
      <path id="Path_33" data-name="Path 33" d="M338.644,130.3a2.712,2.712,0,0,1-.669,1.824,2.337,2.337,0,0,1-1.875.78q-.544,0-1.5-.044.048-1.111.048-2.5,0-1.338-.048-2.284h.644q.158,0,.471-.011c.208-.007.344-.011.408-.011a2.478,2.478,0,0,1,1.925.662A2.289,2.289,0,0,1,338.644,130.3Zm-1,.158a1.774,1.774,0,0,0-.412-1.19,1.563,1.563,0,0,0-1.258-.484,3.916,3.916,0,0,0-.434.033q.037.736.037,1.537,0,.879.037,1.743a2.441,2.441,0,0,0,.478.048,1.389,1.389,0,0,0,1.171-.491A1.9,1.9,0,0,0,337.641,130.455Z" transform="translate(-306.311 -127.958)" fill="#f7f8f8"/>
      <path id="Path_34" data-name="Path 34" d="M358.113,132.9h-1.177a7.755,7.755,0,0,0-.335-1.376h-1.7a7.093,7.093,0,0,0-.345,1.376H353.45q0-.144.859-2.354a18.441,18.441,0,0,0,.859-2.435h1.39a20.29,20.29,0,0,0,.778,2.4A21.1,21.1,0,0,1,358.113,132.9Zm-1.7-2.078a20.885,20.885,0,0,1-.629-2.052h-.059a21.5,21.5,0,0,1-.651,2.052Z" transform="translate(-318.708 -128)" fill="#f7f8f8"/>
      <path id="Path_35" data-name="Path 35" d="M372.89,129.322a1.433,1.433,0,0,1-.653,1.3,2.9,2.9,0,0,1-1.6.419q-.173,0-.246-.007,0,.691.04,1.824H369.4q.048-1.063.048-2.5,0-1.324-.048-2.284h.64q.136,0,.522-.011t.669-.011a2.1,2.1,0,0,1,1.181.316A1.07,1.07,0,0,1,372.89,129.322Zm-.949.2q0-.787-1.045-.787a2.939,2.939,0,0,0-.551.055q.04.695.04,1.574c.061.005.133.008.213.008Q371.941,130.374,371.941,129.524Z" transform="translate(-329.195 -127.958)" fill="#f7f8f8"/>
      <path id="Path_36" data-name="Path 36" d="M385.774,129.322a1.434,1.434,0,0,1-.652,1.3,2.9,2.9,0,0,1-1.6.419c-.115,0-.2,0-.246-.007q0,.691.04,1.824H382.28q.048-1.063.048-2.5,0-1.324-.048-2.284h.64q.136,0,.522-.011t.669-.011a2.1,2.1,0,0,1,1.181.316A1.069,1.069,0,0,1,385.774,129.322Zm-.949.2q0-.787-1.045-.787a2.94,2.94,0,0,0-.552.055q.041.695.04,1.574.092.008.213.008Q384.825,130.374,384.825,129.524Z" transform="translate(-337.668 -127.958)" fill="#f7f8f8"/>
      <path id="Path_37" data-name="Path 37" d="M404.557,130.2a2.64,2.64,0,0,1-.692,1.872,2.243,2.243,0,0,1-1.71.743,2.161,2.161,0,0,1-1.626-.682,2.4,2.4,0,0,1-.655-1.734,2.642,2.642,0,0,1,.691-1.872,2.244,2.244,0,0,1,1.711-.743,2.166,2.166,0,0,1,1.626.68A2.4,2.4,0,0,1,404.557,130.2Zm-1.015.106a1.9,1.9,0,0,0-.394-1.247,1.211,1.211,0,0,0-.971-.478,1.123,1.123,0,0,0-.912.482,1.925,1.925,0,0,0-.375,1.217,1.893,1.893,0,0,0,.4,1.245,1.211,1.211,0,0,0,.969.48,1.121,1.121,0,0,0,.912-.483A1.923,1.923,0,0,0,403.542,130.311Z" transform="translate(-349.239 -127.788)" fill="#f7f8f8"/>
      <path id="Path_38" data-name="Path 38" d="M420.53,132.9h-.908a8.962,8.962,0,0,0-1.011-1.593,8.771,8.771,0,0,1-1.206-2.078h-.059a13.022,13.022,0,0,1,.092,1.456q0,.908.052,2.214h-.9q.055-1.14.055-2.5,0-1.342-.055-2.284h1.092a6.926,6.926,0,0,0,.909,1.556,9.158,9.158,0,0,1,1.111,1.96h.055a13.866,13.866,0,0,1-.088-1.471q0-1-.051-2.045h.919q-.051.913-.051,2.284T420.53,132.9Z" transform="translate(-360.227 -128)" fill="#f7f8f8"/>
    </g>
  </g>
</svg>
