<svg xmlns="http://www.w3.org/2000/svg" width="223" height="84" viewBox="0 0 223 84">
  <g id="Bajaj_logo_login" data-name="Bajaj logo_login" transform="translate(-8472.999 -5432)">
    <g id="Group_19307" data-name="Group 19307" transform="translate(8472.999 5432)">
      <path id="Path_29687" data-name="Path 29687" d="M-592.644,1206.23a29.757,29.757,0,0,1-29.8-29.7,29.832,29.832,0,0,1,29.776-29.863,29.7,29.7,0,0,1,21.076,8.674,29.7,29.7,0,0,1,8.724,21.056,29.618,29.618,0,0,1-8.654,21.139,29.617,29.617,0,0,1-21.122,8.694Zm12.142-29.9c.457-.23.762-.4,1.081-.543a9.856,9.856,0,0,0,3.607-2.622,7.158,7.158,0,0,0,1.7-5.371,7.158,7.158,0,0,0-2.714-4.936,12.045,12.045,0,0,0-3.912-1.922,28.442,28.442,0,0,0-8.22-1.041c-6.412-.082-12.825-.033-19.237-.023a8.307,8.307,0,0,0-1.2.176c-.045.676-.114,1.233-.114,1.791q-.01,14.677,0,29.355c0,.552.089,1.1.145,1.749.482.032.884.08,1.286.082,1.537.009,3.075,0,4.613,0,1.67,0,1.672,0,1.672-1.647V1168.1c0-1.119.032-1.152,1.125-1.155,2.737-.008,5.475,0,8.213,0,2.775,0,5.55-.005,8.325,0,1.078,0,1.131.061,1.146,1.158.014,1.012.011,2.024,0,3.036-.011,1.228-.044,1.264-1.266,1.266-3.262.005-6.525,0-9.787.008-.433,0-.866.074-1.262.11a34.262,34.262,0,0,0,.1,7.707h9.719c.4,0,.794.061,1.283.1.032,1.734.073,3.357-.031,5.106h-3.837c-1.2,0-2.4-.021-3.6.006a21.417,21.417,0,0,0-3.6.1c-.083.182-.14.249-.141.316-.018,2.135-.027,4.271-.046,6.406-.005.612.365.752.877.749,3.82-.022,7.652.19,11.445-.463a16.534,16.534,0,0,0,5.49-1.9c4.4-2.523,5.054-10.023.033-12.883-.65-.37-1.33-.688-2-1.027-.224-.1-.46-.2-.888-.4Z" transform="translate(622.444 -1146.667)" fill="#fff"/>
      <path id="Path_29688" data-name="Path 29688" d="M-306.059,1162.74c.52-.036.815-.074,1.11-.074,6.787,0,13.574-.032,20.36.043a22.265,22.265,0,0,1,4.425.671,7.544,7.544,0,0,1,2.153.934,4.572,4.572,0,0,1,2.227,3.7,4.572,4.572,0,0,1-1.842,3.9,15.211,15.211,0,0,1-1.842,1.062c-.318.174-.657.31-1.186.557.466.249.745.4,1.028.549.531.276,1.081.518,1.594.825a4.947,4.947,0,0,1,2.253,4.267,4.947,4.947,0,0,1-2.453,4.156,10.558,10.558,0,0,1-3.833,1.208,35.1,35.1,0,0,1-4.03.25c-3.675.032-7.349.013-11.024.014h-1.238a4.79,4.79,0,0,1,.274-.81c.413-.713.854-1.41,1.284-2.113a2.843,2.843,0,0,1,2.62-1.438c2.475.016,4.95.023,7.424-.011a4.711,4.711,0,0,0,1.744-.327,2.31,2.31,0,0,0,1.512-2.183,2.329,2.329,0,0,0-1.552-2.269,4.761,4.761,0,0,0-1.749-.3c-3.524-.026-7.049-.012-10.574-.015-.328,0-.657-.027-1.163-.05a25.57,25.57,0,0,1,2.206-3.485,2.572,2.572,0,0,1,2.128-.826c2.437.016,4.875.02,7.312-.006a8.031,8.031,0,0,0,1.886-.235,1.86,1.86,0,0,0,1.5-1.745,1.842,1.842,0,0,0-1.4-1.708,4.234,4.234,0,0,0-1.314-.251c-3.975-.019-7.949-.013-11.924-.009a7.467,7.467,0,0,0-.8.1c-.038.465-.108.93-.109,1.4q-.012,7.366-.006,14.732c0,.3,0,.6-.005.9-.005.4-.186.643-.607.644H-306c-.139-1.909-.05-3.732-.065-5.55-.016-1.836,0-3.673,0-5.51v-10.99Z" transform="translate(377.572 -1159.054)" fill="#fff"/>
      <path id="Path_29689" data-name="Path 29689" d="M-158.85,1180.7a19.914,19.914,0,0,1,2.248-3.578,2.6,2.6,0,0,1,2.044-.779q2.082,0,4.163-.006c.359,0,.719-.038,1.089-.059a48.461,48.461,0,0,0-4.851-8.513c-.271.413-.551.8-.786,1.2-2.834,4.9-5.679,9.794-8.475,14.715a1.816,1.816,0,0,1-1.866,1.069c-1.835-.067-3.675-.02-5.513-.02h-1.262a8.1,8.1,0,0,1,.4-.916c4.121-6.751,8.259-13.493,12.358-20.258a1.8,1.8,0,0,1,1.814-.982c2.287.054,4.576.059,6.863,0a1.8,1.8,0,0,1,1.8,1.012c3.334,5.52,6.707,11.015,10.067,16.518.723,1.184,1.449,2.366,2.166,3.553.168.279.3.575.513.972q-.426.071-.857.1c-2.063.006-4.127-.029-6.188.021a1.445,1.445,0,0,1-1.5-.9c-.352-.7-.831-1.344-1.157-2.057a1.832,1.832,0,0,0-1.967-1.112c-3.225.046-6.451.017-9.676.016Z" transform="translate(273.858 -1158.988)" fill="#fff"/>
      <path id="Path_29690" data-name="Path 29690" d="M111.417,1167.71c-.309.492-.572.882-.807,1.289l-8.2,14.221c-1.056,1.822-.648,1.506-2.587,1.525-2.059.02-4.119,0-6.3,0a4.718,4.718,0,0,1,.287-.757q6.271-10.271,12.543-20.54a1.55,1.55,0,0,1,1.531-.859c2.4.045,4.8.04,7.2,0a1.547,1.547,0,0,1,1.542.835q6.21,10.241,12.473,20.45c.131.214.221.453.346.713a1.226,1.226,0,0,1-.347.137c-2.288.011-4.575,0-6.863.025a1.187,1.187,0,0,1-1.169-.688c-.451-.821-.978-1.6-1.392-2.441a1.563,1.563,0,0,0-1.623-.922c-3.3.027-6.6.013-9.9.009-.4,0-.794-.028-1.4-.051a17.149,17.149,0,0,1,2.322-3.613,2.607,2.607,0,0,1,1.965-.693h4.05c.369,0,.737-.034,1.208-.056a2.944,2.944,0,0,0-.17-.783q-2.065-3.612-4.166-7.2A4.818,4.818,0,0,0,111.417,1167.71Z" transform="translate(68.392 -1159.005)" fill="#fff"/>
      <path id="Path_29691" data-name="Path 29691" d="M-140.221,1307.31c.018-.394.051-.787.052-1.181v-9.221c0-1.138.071-1.208,1.21-1.222s2.25-.017,3.374,0c1.044.018,1.16.148,1.2,1.17.008.225,0,.449,0,.675V1316.2c0,.3.011.6-.009.9-.05.745-.139.856-.862.869-1.2.022-2.4-.023-3.6.019-.637.023-.936-.366-1.262-.785q-2.83-3.64-5.666-7.275c-.875-1.124-1.745-2.251-2.627-3.371-.219-.278-.473-.529-.711-.793l-.25.075c-.04.423-.114.846-.116,1.269-.01,3.112,0,6.223-.008,9.335,0,.444-.037.886-.058,1.378a5.06,5.06,0,0,1-.815.148c-1.312.014-2.625.018-3.937,0-.88-.01-.926-.073-.955-.979-.006-.187,0-.374,0-.562v-19.118c0-.3.01-.6.008-.9a.63.63,0,0,1,.175-.52.63.63,0,0,1,.517-.185c1.462-.015,2.927-.058,4.384.026a1.808,1.808,0,0,1,1.032.745c2.07,2.616,4.11,5.257,6.158,7.889.576.74,1.146,1.484,1.729,2.217.227.286.482.547.724.821Z" transform="translate(260.83 -1262.103)" fill="#fff"/>
      <path id="Path_29692" data-name="Path 29692" d="M177.653,1310.31l5.2,7.62a8.636,8.636,0,0,1-.873.1c-1.65.008-3.3-.024-4.949.018a1.431,1.431,0,0,1-1.379-.743c-1.1-1.7-2.277-3.349-3.338-5.071a1.963,1.963,0,0,0-2.107-1.115c-.221.031-.45,0-.674.012-.854.053-.977.154-.988,1-.021,1.611,0,3.224-.012,4.835-.008,1.021-.049,1.057-1.094,1.064-1.275.008-2.549.015-3.824,0-.776-.012-.892-.137-.958-.917-.025-.3-.014-.6-.014-.9v-18.891c0-.226-.009-.45,0-.674.045-.783.132-.907.953-.9,3.822.042,7.645.08,11.466.184a7.985,7.985,0,0,1,4.035,1.26,6.345,6.345,0,0,1,3.151,5.39,11.962,11.962,0,0,1-.162,2.567,6.329,6.329,0,0,1-3.19,4.408C178.519,1309.78,178.145,1310.01,177.653,1310.31Zm-9.116-6.63h0c0,.709.005,1.419,0,2.128,0,.492.218.818.715.808a42.535,42.535,0,0,0,4.908-.2,2.755,2.755,0,0,0-.212-5.432,44.678,44.678,0,0,0-4.583-.119c-.7,0-.8.166-.825.912C168.518,1302.41,168.537,1303.05,168.537,1303.68Z" transform="translate(14.845 -1262.161)" fill="#fff"/>
      <path id="Path_29693" data-name="Path 29693" d="M67.589,1300.78a8.949,8.949,0,0,0-.017,3.616c.442.023.842.062,1.242.063,2.774.005,5.547,0,8.321.005,1.1,0,1.151.054,1.163,1.13s0,2.156,0,3.345c-.531.037-.927.089-1.322.09-2.736.007-5.473,0-8.209.007-1.26,0-1.341.077-1.353,1.335-.008.813.042,1.626.07,2.541.574.033,1.011.079,1.447.08q4.5.009,9,0c.262,0,.525.011.787,0,.5-.02.788.176.787.707v3.6c0,.534-.3.709-.8.7-.862-.014-1.724,0-2.586,0H63.077c-.3,0-.6,0-.9-.01a.526.526,0,0,1-.554-.572c-.01-.262-.01-.525-.01-.787v-19.786c.015-1.093.039-1.134,1.147-1.135q7.7-.01,15.405,0c1.21,0,1.264.07,1.272,1.274,0,.9.011,1.8,0,2.7-.014.962-.053,1.013-1.03,1.016-3.036.01-6.072,0-9.108.007C68.746,1300.7,68.2,1300.75,67.589,1300.78Z" transform="translate(92.955 -1262.124)" fill="#fff"/>
      <path id="Path_29694" data-name="Path 29694" d="M-44.373,1313.54l3.168-3.782,1.094.689a11.007,11.007,0,0,0,6.6,1.85,4.824,4.824,0,0,0,1.311-.262,1.494,1.494,0,0,0,1.061-1.329,1.409,1.409,0,0,0-.871-1.449,11.928,11.928,0,0,0-1.88-.72c-1.15-.333-2.327-.571-3.474-.913a20.906,20.906,0,0,1-2.524-.932c-3.521-1.568-4.072-4.9-3.184-7.585a6.5,6.5,0,0,1,4.968-4.442,14.332,14.332,0,0,1,11.622,1.937,2.83,2.83,0,0,1,.349.281,1.28,1.28,0,0,1,.149.236,3.1,3.1,0,0,1-.229.461c-.816,1.16-1.641,2.314-2.512,3.54-.558-.291-1.043-.553-1.535-.8a9.6,9.6,0,0,0-5.066-1.232,3.342,3.342,0,0,0-1.381.383,1.4,1.4,0,0,0-.761,1.18,1.405,1.405,0,0,0,.641,1.25,5.038,5.038,0,0,0,1.522.69c1.4.4,2.83.719,4.23,1.13a15.011,15.011,0,0,1,2.411.914,6.189,6.189,0,0,1,3.488,4.609,6.189,6.189,0,0,1-1.84,5.48,8.075,8.075,0,0,1-5.014,2.3,16.623,16.623,0,0,1-9.621-1.573,9.226,9.226,0,0,1-2.722-1.911Z" transform="translate(174.997 -1260.969)" fill="#fff"/>
      <path id="Path_29695" data-name="Path 29695" d="M261.3,1295.82a10.318,10.318,0,0,1,1.059-.116q2.193-.018,4.386,0c1.012.007,1.029.02,1.371.968q2.133,5.918,4.258,11.841c.148.41.319.812.508,1.288.581-.281.637-.757.777-1.145,1.224-3.381,2.43-6.767,3.643-10.151.253-.706.519-1.407.762-2.114a.87.87,0,0,1,.9-.686c1.612.01,3.224,0,4.836.016a3.343,3.343,0,0,1,.794.234c-.121.385-.2.707-.322,1.01q-4.01,9.954-8.029,19.9c-.486,1.2-.494,1.2-1.8,1.206q-1.519.006-3.037,0c-1.232-.006-1.236-.008-1.707-1.18q-1.637-4.065-3.269-8.133-2.389-5.941-4.776-11.885C261.542,1296.57,261.452,1296.26,261.3,1295.82Z" transform="translate(-61.599 -1262.117)" fill="#fff"/>
      <path id="Path_29696" data-name="Path 29696" d="M-289.613,1306.65v4.221c0,.426-.27.586-.661.594-.263.005-.525.007-.788.007h-7.764c-.4,0-.806.041-1.307.068-.033.477-.082.875-.085,1.272-.01,1.426.009,2.85-.01,4.275-.011.822-.094.9-.912.91-1.388.016-2.776-.008-4.163.009-.563.008-.851-.2-.818-.785.01-.186,0-.375,0-.563v-19.573c0-.262,0-.525.01-.787a.539.539,0,0,1,.156-.41.539.539,0,0,1,.409-.159c.224-.017.45-.019.675-.019h15.19c.361,0,.721.064,1.194.109v4.461a.559.559,0,0,1-.167.463.559.559,0,0,1-.469.151c-.262,0-.525.007-.787.007h-8.777c-.441,0-.883.037-1.389.059a7.347,7.347,0,0,0-.134.927q-.022,1.8,0,3.6c.011,1.051.085,1.131,1.177,1.145,1.425.02,2.85.006,4.276.007h5.153Z" transform="translate(377.6 -1262.13)" fill="#fff"/>
      <path id="Path_29697" data-name="Path 29697" d="M271.53,1162.74c.456-.031.752-.069,1.047-.069q2.362-.011,4.724,0c1.122.005,1.149.039,1.167,1.112v.45c0,4.423.01,8.845-.009,13.268a17.472,17.472,0,0,1-.194,2.573,4.77,4.77,0,0,1-3.254,4.081,10.074,10.074,0,0,1-3.055.614c-4.235.071-8.473.022-12.709.044a2.8,2.8,0,0,1-2.613-1.433c-.535-.888-1.076-1.773-1.734-2.857.618-.033,1.01-.071,1.4-.071,3.824-.005,7.648,0,11.472-.011a6.88,6.88,0,0,0,1.664-.186,2.382,2.382,0,0,0,2.017-2.586c.019-3.074.008-6.148.009-9.221v-4.5C271.469,1163.58,271.5,1163.22,271.53,1162.74Z" transform="translate(-56.637 -1159.055)" fill="#fff"/>
      <path id="Path_29698" data-name="Path 29698" d="M12.883,1162.67c.031.532.071.9.071,1.259,0,4.876.024,9.751-.018,14.625a9.961,9.961,0,0,1-.443,2.64,4.441,4.441,0,0,1-2.37,2.725,7.335,7.335,0,0,1-3.344.865c-4.389.023-8.777.01-13.166.025a2.418,2.418,0,0,1-1.925-.767,21.312,21.312,0,0,1-2.255-3.593H2.652c2.349-.038,3.372-1.031,3.388-3.359.021-3.187.006-6.374.007-9.562,0-1.276-.014-2.551.007-3.825.016-.947.092-1.02,1.047-1.026C8.973,1162.66,10.844,1162.67,12.883,1162.67Z" transform="translate(148.838 -1159.056)" fill="#fff"/>
      <path id="Path_29699" data-name="Path 29699" d="M-207.33,1295.83h5.778a8.083,8.083,0,0,1,.118.972q.01,10.119,0,20.239c0,.989-.056,1.041-.994,1.05-1.35.012-2.7.015-4.049,0-.817-.01-.874-.087-.917-.913-.01-.187,0-.374,0-.563v-19.338C-207.394,1296.83-207.356,1296.4-207.33,1295.83Z" transform="translate(301.166 -1262.223)" fill="#fff"/>
    </g>
    <g id="Group_20046" data-name="Group 20046" transform="translate(8474.136 5501.986)">
      <path id="Path_35274" data-name="Path 35274" d="M845.89,619.77h3a5.61,5.61,0,0,1,3,.6,2.09,2.09,0,0,1,.92,1.9,2.33,2.33,0,0,1-.45,1.46,2,2,0,0,1-1.3.73v.07a2.57,2.57,0,0,1,1.55.78,2.369,2.369,0,0,1,.5,1.58,2.59,2.59,0,0,1-.94,2.11,4,4,0,0,1-2.62.76h-3.61Zm1.64,4.13h1.57a2.69,2.69,0,0,0,1.5-.33,1.24,1.24,0,0,0,.47-1.1,1.11,1.11,0,0,0-.51-1,3.189,3.189,0,0,0-1.62-.31h-1.41Zm0,1.32v3.17h1.73a2.57,2.57,0,0,0,1.55-.39,1.47,1.47,0,0,0,.52-1.25,1.31,1.31,0,0,0-.53-1.15,2.85,2.85,0,0,0-1.62-.38Z" transform="translate(-845.89 -619.13)" fill="#fff"/>
      <path id="Path_35275" data-name="Path 35275" d="M859.69,629.76l-.32-1h0a3.181,3.181,0,0,1-1.1.94,3.441,3.441,0,0,1-1.42.25,2.39,2.39,0,0,1-1.74-.6,2.24,2.24,0,0,1-.63-1.7,2,2,0,0,1,.87-1.77,5.1,5.1,0,0,1,2.64-.65h1.31v-.4a1.47,1.47,0,0,0-.34-1.08,1.36,1.36,0,0,0-1-.36,3.391,3.391,0,0,0-1.11.17,7.1,7.1,0,0,0-1,.4l-.52-1.15a5.687,5.687,0,0,1,1.35-.49,6.29,6.29,0,0,1,1.38-.16,3.329,3.329,0,0,1,2.18.62,2.47,2.47,0,0,1,.73,2v5.09Zm-2.39-1.09a2,2,0,0,0,1.41-.49,1.78,1.78,0,0,0,.53-1.37v-.66h-1a3.46,3.46,0,0,0-1.66.38,1.16,1.16,0,0,0-.51,1,1,1,0,0,0,.3.78,1.26,1.26,0,0,0,.93.36Z" transform="translate(-845.89 -619.13)" fill="#fff"/>
      <path id="Path_35276" data-name="Path 35276" d="M862.31,633.13a3.719,3.719,0,0,1-1.2-.17v-1.28a3.4,3.4,0,0,0,.95.13q1,0,1-1.17V622.2h1.61v8.55a2.361,2.361,0,0,1-.61,1.77,2.39,2.39,0,0,1-1.75.61ZM863,620.2a.9.9,0,0,1,.23-.66.92.92,0,0,1,.68-.24.82.82,0,0,1,.89.9.88.88,0,0,1-.23.64.89.89,0,0,1-.66.24.92.92,0,0,1-.68-.24.88.88,0,0,1-.23-.64Z" transform="translate(-845.89 -619.13)" fill="#fff"/>
      <path id="Path_35277" data-name="Path 35277" d="M871.72,629.76l-.32-1h-.06a3.089,3.089,0,0,1-1.1.94,3.411,3.411,0,0,1-1.42.25,2.42,2.42,0,0,1-1.74-.6,2.24,2.24,0,0,1-.63-1.7,2,2,0,0,1,.87-1.77,5.109,5.109,0,0,1,2.65-.65h1.3v-.4a1.52,1.52,0,0,0-.33-1.08,1.39,1.39,0,0,0-1.05-.36,3.5,3.5,0,0,0-1.12.17,7.009,7.009,0,0,0-1,.4l-.52-1.15a5.766,5.766,0,0,1,1.34-.49,6.291,6.291,0,0,1,1.38-.16,3.31,3.31,0,0,1,2.18.62,2.47,2.47,0,0,1,.74,2v5.09Zm-2.39-1.09a2,2,0,0,0,1.4-.49,1.78,1.78,0,0,0,.53-1.37v-.66h-1a3.39,3.39,0,0,0-1.65.38,1.15,1.15,0,0,0-.52,1,1,1,0,0,0,.3.78A1.27,1.27,0,0,0,869.33,628.67Z" transform="translate(-845.89 -619.13)" fill="#fff"/>
      <path id="Path_35278" data-name="Path 35278" d="M874.34,633.13a3.749,3.749,0,0,1-1.21-.17v-1.28a3.4,3.4,0,0,0,1,.13c.69,0,1-.39,1-1.17V622.2h1.61v8.55a2.15,2.15,0,0,1-2.38,2.38ZM875,620.2a.86.86,0,0,1,.24-.66.9.9,0,0,1,.67-.24.88.88,0,0,1,.66.24.86.86,0,0,1,.24.66.84.84,0,0,1-.24.64.88.88,0,0,1-.66.24.9.9,0,0,1-.67-.24.841.841,0,0,1-.24-.64Z" transform="translate(-845.89 -619.13)" fill="#fff"/>
      <path id="Path_35279" data-name="Path 35279" d="M884.44,629.76h-1.62v-10h5.64v1.38h-4v3.12h3.77v1.39h-3.77Z" transform="translate(-845.89 -619.13)" fill="#fff"/>
      <path id="Path_35280" data-name="Path 35280" d="M890,620.2a.86.86,0,0,1,.24-.66.9.9,0,0,1,.67-.24.83.83,0,0,1,.9.9.84.84,0,0,1-.24.64.86.86,0,0,1-.66.24.9.9,0,0,1-.67-.24.84.84,0,0,1-.24-.64Zm1.71,9.56H890.1V622.2h1.61Z" transform="translate(-846.013 -619.13)" fill="#fff"/>
      <path id="Path_35281" data-name="Path 35281" d="M900.65,629.76H899v-4.65a2.06,2.06,0,0,0-.35-1.3,1.36,1.36,0,0,0-1.12-.43,1.78,1.78,0,0,0-1.49.6,3.351,3.351,0,0,0-.47,2v3.76H894V622.2h1.26l.23,1h.08a2.26,2.26,0,0,1,1-.83,3.181,3.181,0,0,1,1.39-.29c1.82,0,2.72.92,2.72,2.76Z" transform="translate(-846.027 -619.13)" fill="#fff"/>
      <path id="Path_35282" data-name="Path 35282" d="M907.62,629.76l-.32-1h-.06a3.09,3.09,0,0,1-1.1.94,3.412,3.412,0,0,1-1.42.25,2.421,2.421,0,0,1-1.74-.6,2.27,2.27,0,0,1-.62-1.7,2,2,0,0,1,.87-1.77,5.069,5.069,0,0,1,2.64-.65h1.31v-.4a1.519,1.519,0,0,0-.34-1.08,1.39,1.39,0,0,0-1.05-.36,3.5,3.5,0,0,0-1.12.17,7.451,7.451,0,0,0-1,.4l-.52-1.15a5.684,5.684,0,0,1,1.35-.49,6.156,6.156,0,0,1,1.38-.16,3.3,3.3,0,0,1,2.17.62,2.47,2.47,0,0,1,.74,2v5.09Zm-2.39-1.09a2,2,0,0,0,1.4-.49,1.749,1.749,0,0,0,.53-1.37v-.66h-1a3.449,3.449,0,0,0-1.65.38,1.17,1.17,0,0,0-.52,1,1,1,0,0,0,.31.78,1.26,1.26,0,0,0,.93.36Z" transform="translate(-846.05 -619.13)" fill="#fff"/>
      <path id="Path_35283" data-name="Path 35283" d="M917.66,629.76h-1.61v-4.65a2.059,2.059,0,0,0-.35-1.3,1.36,1.36,0,0,0-1.12-.43,1.77,1.77,0,0,0-1.49.6,3.28,3.28,0,0,0-.47,2v3.76H911V622.2h1.26l.22,1h.09a2.2,2.2,0,0,1,1-.83,3.181,3.181,0,0,1,1.39-.29c1.82,0,2.72.92,2.72,2.76Z" transform="translate(-846.075 -619.13)" fill="#fff"/>
      <path id="Path_35284" data-name="Path 35284" d="M923,629.9a3.29,3.29,0,0,1-2.61-1,5.09,5.09,0,0,1,0-5.81,3.47,3.47,0,0,1,2.7-1,5,5,0,0,1,2.15.44l-.49,1.29a4.889,4.889,0,0,0-1.68-.39c-1.31,0-2,.86-2,2.6a3.09,3.09,0,0,0,.49,1.91,1.68,1.68,0,0,0,1.43.64,4.161,4.161,0,0,0,2-.53v1.4a2.939,2.939,0,0,1-.92.36,5.637,5.637,0,0,1-1.07.09Z" transform="translate(-846.098 -619.13)" fill="#fff"/>
      <path id="Path_35285" data-name="Path 35285" d="M926.73,620.2a.86.86,0,0,1,.24-.66.9.9,0,0,1,.67-.24.83.83,0,0,1,.9.9.84.84,0,0,1-.24.64.86.86,0,0,1-.66.24.9.9,0,0,1-.67-.24.84.84,0,0,1-.24-.64Zm1.71,9.56h-1.61V622.2h1.61Z" transform="translate(-846.115 -619.13)" fill="#fff"/>
      <path id="Path_35286" data-name="Path 35286" d="M935.46,629.76l-.32-1h0a3.18,3.18,0,0,1-1.1.94,3.459,3.459,0,0,1-1.43.25,2.38,2.38,0,0,1-1.73-.6,2.24,2.24,0,0,1-.63-1.7,2,2,0,0,1,.87-1.77,5.1,5.1,0,0,1,2.64-.65h1.31v-.4a1.47,1.47,0,0,0-.34-1.08,1.36,1.36,0,0,0-1-.36,3.393,3.393,0,0,0-1.11.17,7.088,7.088,0,0,0-1,.4l-.52-1.15a5.687,5.687,0,0,1,1.35-.49,6.29,6.29,0,0,1,1.38-.16,3.329,3.329,0,0,1,2.18.62,2.47,2.47,0,0,1,.73,2v5.09Zm-2.39-1.09a2,2,0,0,0,1.41-.49,1.78,1.78,0,0,0,.53-1.37v-.66h-1a3.449,3.449,0,0,0-1.65.38,1.16,1.16,0,0,0-.51,1,1,1,0,0,0,.3.78A1.26,1.26,0,0,0,933.07,628.67Z" transform="translate(-846.13 -619.13)" fill="#fff"/>
      <path id="Path_35287" data-name="Path 35287" d="M940.46,629.76h-1.61V619.13h1.61Z" transform="translate(-846.148 -619.13)" fill="#fff"/>
      <path id="Path_35288" data-name="Path 35288" d="M952.33,627.05a2.5,2.5,0,0,1-1,2.09,4.17,4.17,0,0,1-2.66.76,6.331,6.331,0,0,1-2.77-.53v-1.54a7.508,7.508,0,0,0,1.45.5,5.808,5.808,0,0,0,1.43.19,2.28,2.28,0,0,0,1.44-.37,1.23,1.23,0,0,0,.46-1,1.21,1.21,0,0,0-.43-.95,6.11,6.11,0,0,0-1.75-.92,4.63,4.63,0,0,1-1.92-1.27,2.63,2.63,0,0,1-.56-1.71,2.4,2.4,0,0,1,.88-2,3.7,3.7,0,0,1,2.39-.72,7,7,0,0,1,2.86.63l-.52,1.34a6.12,6.12,0,0,0-2.38-.56,1.81,1.81,0,0,0-1.2.34,1.119,1.119,0,0,0-.41.91,1.279,1.279,0,0,0,.16.67,1.59,1.59,0,0,0,.54.52,8.622,8.622,0,0,0,1.35.65,7.463,7.463,0,0,1,1.62.86,2.5,2.5,0,0,1,.75.89A2.729,2.729,0,0,1,952.33,627.05Z" transform="translate(-846.174 -619.13)" fill="#fff"/>
      <path id="Path_35289" data-name="Path 35289" d="M957.39,629.9a3.67,3.67,0,0,1-2.76-1,3.92,3.92,0,0,1-1-2.83,4.33,4.33,0,0,1,.92-2.92,3.21,3.21,0,0,1,2.54-1,3.1,3.1,0,0,1,2.36.9,3.5,3.5,0,0,1,.87,2.51v.86h-5a2.56,2.56,0,0,0,.6,1.7,2.08,2.08,0,0,0,1.58.59,5.506,5.506,0,0,0,1.25-.13,6.263,6.263,0,0,0,1.24-.42v1.31a5,5,0,0,1-1.19.39,7.084,7.084,0,0,1-1.41.04Zm-.29-6.62a1.6,1.6,0,0,0-1.23.49,2.279,2.279,0,0,0-.55,1.41h3.43a2.12,2.12,0,0,0-.45-1.42,1.54,1.54,0,0,0-1.2-.48Z" transform="translate(-846.196 -619.13)" fill="#fff"/>
      <path id="Path_35290" data-name="Path 35290" d="M965.21,629.9a3.29,3.29,0,0,1-2.61-1,5.09,5.09,0,0,1,0-5.81,3.471,3.471,0,0,1,2.7-1,5,5,0,0,1,2.15.44L967,623.8a4.89,4.89,0,0,0-1.68-.39c-1.31,0-2,.86-2,2.6a3.09,3.09,0,0,0,.49,1.91,1.68,1.68,0,0,0,1.43.64,4.159,4.159,0,0,0,2-.53v1.4a2.94,2.94,0,0,1-.92.36A5.644,5.644,0,0,1,965.21,629.9Z" transform="translate(-846.218 -619.13)" fill="#fff"/>
      <path id="Path_35291" data-name="Path 35291" d="M974.42,629.76l-.22-1h-.09a2.27,2.27,0,0,1-1,.83,3.18,3.18,0,0,1-1.41.3,2.78,2.78,0,0,1-2-.68,2.86,2.86,0,0,1-.68-2.08V622.2h1.62v4.66a2,2,0,0,0,.36,1.31,1.34,1.34,0,0,0,1.11.43,1.78,1.78,0,0,0,1.49-.6,3.329,3.329,0,0,0,.47-2v-3.8h1.62v7.56Z" transform="translate(-846.24 -619.13)" fill="#fff"/>
      <path id="Path_35292" data-name="Path 35292" d="M981.81,622.07a4.423,4.423,0,0,1,.8.06l-.16,1.5a3.221,3.221,0,0,0-.71-.08,2.06,2.06,0,0,0-1.56.63,2.26,2.26,0,0,0-.6,1.63v4H978V622.2h1.25l.22,1.34h.08a3,3,0,0,1,1-1.08,2.36,2.36,0,0,1,1.26-.39Z" transform="translate(-846.262 -619.13)" fill="#fff"/>
      <path id="Path_35293" data-name="Path 35293" d="M983.92,620.2a.9.9,0,0,1,.23-.66.91.91,0,0,1,.68-.24.82.82,0,0,1,.89.9.881.881,0,0,1-.23.64.89.89,0,0,1-.66.24.91.91,0,0,1-.68-.24.881.881,0,0,1-.23-.64Zm1.7,9.56H984V622.2h1.61Z" transform="translate(-846.273 -619.13)" fill="#fff"/>
      <path id="Path_35294" data-name="Path 35294" d="M990.73,628.6a4,4,0,0,0,1.18-.18v1.21a3.7,3.7,0,0,1-.69.19,4.94,4.94,0,0,1-.87.08c-1.52,0-2.28-.8-2.28-2.41v-4.07h-1v-.71l1.11-.59.55-1.6h1v1.68h2.15v1.22h-2.15v4.05a1.13,1.13,0,0,0,.29.85A1,1,0,0,0,990.73,628.6Z" transform="translate(-846.288 -619.13)" fill="#fff"/>
      <path id="Path_35295" data-name="Path 35295" d="M993.32,620.2a.86.86,0,0,1,.24-.66,1,1,0,0,1,1.33,0,.86.86,0,0,1,.24.66.84.84,0,0,1-.24.64,1,1,0,0,1-1.33,0,.841.841,0,0,1-.24-.64Zm1.71,9.56h-1.61V622.2H995Z" transform="translate(-846.3 -619.13)" fill="#fff"/>
      <path id="Path_35296" data-name="Path 35296" d="M1000.62,629.9a3.63,3.63,0,0,1-2.75-1,3.88,3.88,0,0,1-1-2.83,4.33,4.33,0,0,1,.92-2.92,3.21,3.21,0,0,1,2.54-1,3.14,3.14,0,0,1,2.37.9,3.54,3.54,0,0,1,.86,2.51v.86h-5a2.51,2.51,0,0,0,.59,1.7,2.08,2.08,0,0,0,1.58.59,5.507,5.507,0,0,0,1.25-.13,6.051,6.051,0,0,0,1.24-.42v1.31a5,5,0,0,1-1.19.39,7.09,7.09,0,0,1-1.41.04Zm-.29-6.62a1.6,1.6,0,0,0-1.23.49,2.28,2.28,0,0,0-.55,1.41H1002a2.12,2.12,0,0,0-.45-1.42,1.54,1.54,0,0,0-1.22-.48Z" transform="translate(-846.319 -619.13)" fill="#fff"/>
      <path id="Path_35297" data-name="Path 35297" d="M1010.47,627.61a2,2,0,0,1-.81,1.7,3.9,3.9,0,0,1-2.31.59,5.4,5.4,0,0,1-2.43-.46v-1.39a6,6,0,0,0,2.49.62c1,0,1.48-.3,1.48-.9a.72.72,0,0,0-.17-.48,2,2,0,0,0-.54-.39,10.231,10.231,0,0,0-1-.47,4.74,4.74,0,0,1-1.77-1,1.85,1.85,0,0,1-.46-1.31,1.73,1.73,0,0,1,.78-1.51,3.69,3.69,0,0,1,2.13-.53,6,6,0,0,1,2.52.54l-.51,1.21a5.631,5.631,0,0,0-2.06-.51c-.85,0-1.27.24-1.27.72a.75.75,0,0,0,.33.61,7.168,7.168,0,0,0,1.44.67,6.3,6.3,0,0,1,1.36.67,1.86,1.86,0,0,1,.63.69A2,2,0,0,1,1010.47,627.61Z" transform="translate(-846.34 -619.13)" fill="#fff"/>
      <path id="Path_35298" data-name="Path 35298" d="M1016,629.76v-10h1.64v8.59h4.23v1.4Z" transform="translate(-846.372 -619.13)" fill="#fff"/>
      <path id="Path_35299" data-name="Path 35299" d="M1023.33,620.2a.86.86,0,0,1,.24-.66,1,1,0,0,1,1.33,0,.86.86,0,0,1,.24.66.84.84,0,0,1-.24.64,1,1,0,0,1-1.33,0,.84.84,0,0,1-.24-.64Zm1.71,9.56h-1.61V622.2H1025Z" transform="translate(-846.493 -619.13)" fill="#fff"/>
      <path id="Path_35300" data-name="Path 35300" d="M1033.7,629.76h-1.61V625.1a2.08,2.08,0,0,0-.33-1.29,1.2,1.2,0,0,0-1-.43,1.58,1.58,0,0,0-1.37.6,3.592,3.592,0,0,0-.43,2v3.76h-1.61V622.2h1.26l.23,1h.08a2.1,2.1,0,0,1,.91-.83,2.9,2.9,0,0,1,1.32-.29,2.3,2.3,0,0,1,2.31,1.18h.11a2.261,2.261,0,0,1,.94-.87,3,3,0,0,1,1.39-.31,2.54,2.54,0,0,1,2,.68,3,3,0,0,1,.61,2.08v4.93h-1.6V625.1a2.08,2.08,0,0,0-.33-1.29,1.22,1.22,0,0,0-1-.43,1.58,1.58,0,0,0-1.37.58,3,3,0,0,0-.44,1.8Z" transform="translate(-846.493 -619.13)" fill="#fff"/>
      <path id="Path_35301" data-name="Path 35301" d="M1040.62,620.2a.86.86,0,0,1,.24-.66,1,1,0,0,1,1.33,0,.86.86,0,0,1,.24.66.84.84,0,0,1-.24.64,1,1,0,0,1-1.33,0,.84.84,0,0,1-.24-.64Zm1.7,9.56h-1.6V622.2h1.6Z" transform="translate(-846.493 -619.13)" fill="#fff"/>
      <path id="Path_35302" data-name="Path 35302" d="M1047.44,628.6a4,4,0,0,0,1.17-.18v1.21a3.5,3.5,0,0,1-.69.19,4.946,4.946,0,0,1-.87.08c-1.52,0-2.28-.8-2.28-2.41v-4.07h-1v-.71l1.11-.59.54-1.6h1v1.68h2.16v1.22h-2.16v4.05a1.13,1.13,0,0,0,.29.85A1.06,1.06,0,0,0,1047.44,628.6Z" transform="translate(-846.493 -619.13)" fill="#fff"/>
      <path id="Path_35303" data-name="Path 35303" d="M1053.42,629.9a3.63,3.63,0,0,1-2.75-1,3.879,3.879,0,0,1-1-2.83,4.329,4.329,0,0,1,.92-2.92,3.21,3.21,0,0,1,2.54-1,3.14,3.14,0,0,1,2.37.9,3.54,3.54,0,0,1,.86,2.51v.86h-5a2.51,2.51,0,0,0,.59,1.7,2.08,2.08,0,0,0,1.58.59,5.506,5.506,0,0,0,1.25-.13,6.05,6.05,0,0,0,1.24-.42v1.31a4.882,4.882,0,0,1-1.19.39,7.086,7.086,0,0,1-1.41.04Zm-.29-6.62a1.6,1.6,0,0,0-1.23.49,2.34,2.34,0,0,0-.55,1.41h3.44a2.119,2.119,0,0,0-.46-1.42A1.54,1.54,0,0,0,1053.13,623.28Z" transform="translate(-846.493 -619.13)" fill="#fff"/>
      <path id="Path_35304" data-name="Path 35304" d="M1060.74,629.9a2.63,2.63,0,0,1-2.21-1,4.581,4.581,0,0,1-.79-2.87,4.67,4.67,0,0,1,.8-2.9,2.67,2.67,0,0,1,2.23-1,2.6,2.6,0,0,1,2.27,1.1h.08a9.421,9.421,0,0,1-.12-1.29v-2.75h1.62v10.63h-1.26l-.28-1H1063A2.57,2.57,0,0,1,1060.74,629.9Zm.43-1.3a1.72,1.72,0,0,0,1.44-.56,2.919,2.919,0,0,0,.47-1.8V626a3.391,3.391,0,0,0-.47-2,1.72,1.72,0,0,0-1.45-.6,1.48,1.48,0,0,0-1.31.69,3.45,3.45,0,0,0-.46,1.95,3.411,3.411,0,0,0,.45,1.92,1.49,1.49,0,0,0,1.33.64Z" transform="translate(-846.493 -619.13)" fill="#fff"/>
    </g>
  </g>
</svg>
