<svg xmlns="http://www.w3.org/2000/svg" width="20" height="12.263" viewBox="0 0 20 12.263">
  <g id="add_watchlist" transform="translate(-7126 -2901)">
    <path id="Path_1498" data-name="Path 1498" d="M15.974,36.3c-4.623,0-9.1,4.411-9.278,4.607a.668.668,0,0,0,0,.944c.2.2,4.655,4.607,9.278,4.607s9.1-4.411,9.278-4.607a.668.668,0,0,0,0-.944C25.073,40.711,20.613,36.3,15.974,36.3Z" transform="translate(7120.553 2864.7)" fill="#1c74d0" opacity="0.2"/>
    <g id="visible" transform="translate(7126 2903.105)">
      <g id="Group_445" data-name="Group 445" transform="translate(0 0)">
        <path id="Path_1498-2" data-name="Path 1498" d="M15.974,36.3c-4.623,0-9.1,4.411-9.278,4.607a.668.668,0,0,0,0,.944c.2.2,4.655,4.607,9.278,4.607s9.1-4.411,9.278-4.607a.668.668,0,0,0,0-.944C25.073,40.711,20.613,36.3,15.974,36.3Zm0,8.806c-3.239,0-6.576-2.637-7.83-3.744,1.253-1.107,4.59-3.744,7.83-3.744s6.576,2.637,7.83,3.744C22.55,42.469,19.213,45.106,15.974,45.106Z" transform="translate(-6.5 -36.3)" fill="#4987ee"/>
        <path id="Path_1499" data-name="Path 1499" d="M50,55.009A2.409,2.409,0,1,0,52.409,52.6,2.414,2.414,0,0,0,50,55.009Zm3.467,0a1.074,1.074,0,1,1-1.074-1.074A1.1,1.1,0,0,1,53.467,55.009Z" transform="translate(-42.919 -49.947)" fill="#4987ee"/>
      </g>
    </g>
  </g>
</svg>
