<svg xmlns="http://www.w3.org/2000/svg" width="21.099" height="19.751" viewBox="0 0 21.099 19.751">
  <g id="cancelorder_ico" transform="translate(-1457.9 -533.349)">
    <path id="Path_34448" data-name="Path 34448" d="M67,57.5A9.5,9.5,0,1,1,57.5,48,9.5,9.5,0,0,1,67,57.5Zm0,0" transform="translate(1411.999 485.349)" fill="#4987ee" opacity="0.2"/>
    <g id="cancel-6" transform="translate(1458 535)">
      <g id="Group_18653" data-name="Group 18653">
        <path id="Path_34447" data-name="Path 34447" d="M137.007,129.076a.51.51,0,0,0-.723,0l-3.242,3.242-3.242-3.242a.512.512,0,1,0-.723.723l3.242,3.242-3.242,3.242a.513.513,0,0,0,.36.875.5.5,0,0,0,.36-.152l3.242-3.242,3.242,3.242a.515.515,0,0,0,.36.152.493.493,0,0,0,.36-.152.51.51,0,0,0,0-.723l-3.235-3.242,3.242-3.242a.51.51,0,0,0,0-.723Z" transform="translate(-124.041 -124.041)" fill="#4987ee" stroke="#4987ee" stroke-width="0.2"/>
        <path id="Path_34446" data-name="Path 34446" d="M15.364,2.636a9,9,0,1,0,0,12.728,9,9,0,0,0,0-12.728Zm-.723,12a7.976,7.976,0,1,1,0-11.277,7.975,7.975,0,0,1,0,11.277Z" fill="#4987ee" stroke="#4987ee" stroke-width="0.2"/>
      </g>
    </g>
  </g>
</svg>
