<svg xmlns="http://www.w3.org/2000/svg" width="23.326" height="19.429" viewBox="0 0 23.326 19.429">
  <g id="convert" transform="translate(-1622.79 -568.753)">
    <path id="Path_34440" data-name="Path 34440" d="M-18673.012-6447.7h7.078l1.4-4.084,5.322,6.811-5.322,6.907-1.4-4.087h-9.588v-2.82l-6.646,4.939,6.646,7.529v-3.814h7.256" transform="translate(20305.113 7020.54)" fill="#4987ee" opacity="0.2"/>
    <g id="convert_ico" transform="translate(1625.999 570.35)">
      <g id="transfer" transform="translate(-3 -51.515)">
        <g id="Group_18575" data-name="Group 18575" transform="translate(0 51.198)">
          <path id="Path_34439" data-name="Path 34439" d="M22.669,57.165l-5.727-5.727a.818.818,0,0,0-1.4.578v2.455H9.818a.818.818,0,1,0,0,1.636h6.546a.818.818,0,0,0,.818-.818v-1.3l3.752,3.752L17.182,61.5V60.2a.818.818,0,0,0-.818-.818h-9V56.925a.818.818,0,0,0-1.4-.578L.239,62.074a.818.818,0,0,0,0,1.157l5.727,5.727a.818.818,0,0,0,.578.24.808.808,0,0,0,.313-.062.818.818,0,0,0,.5-.756V65.925h5.727a.818.818,0,0,0,0-1.636H6.545a.818.818,0,0,0-.818.818v1.3L1.975,62.653,5.727,58.9v1.3a.818.818,0,0,0,.818.818h9v2.455a.818.818,0,0,0,1.4.578l5.727-5.727A.818.818,0,0,0,22.669,57.165Z" transform="translate(0 -51.198)" fill="#4987ee" stroke="#1e222b" stroke-width="0.3"/>
        </g>
      </g>
    </g>
  </g>
</svg>
