<svg id="chart_ico" xmlns="http://www.w3.org/2000/svg" width="19.688" height="17.647" viewBox="0 0 19.688 17.647">
  <rect id="Rectangle_3518" data-name="Rectangle 3518" width="17" height="15" transform="translate(2.688)" fill="#4987ee" opacity="0.2"/>
  <g id="Group_18307" data-name="Group 18307" transform="translate(3.065 3.449)">
    <g id="Group_18306" data-name="Group 18306" transform="translate(0 0)">
      <path id="Path_34385" data-name="Path 34385" d="M98.132,75.192a.676.676,0,0,0-.956,0L92.044,80.3l-1.483-1.483a.676.676,0,0,0-.956,0l-6.015,6.015a.676.676,0,1,0,.956.956l5.537-5.537,1.482,1.482a.676.676,0,0,0,.955,0l5.609-5.587A.676.676,0,0,0,98.132,75.192Z" transform="translate(-83.393 -74.993)" fill="#4987ee"/>
    </g>
  </g>
  <g id="Group_18309" data-name="Group 18309" transform="translate(0 1.647)">
    <g id="Group_18308" data-name="Group 18308" transform="translate(0 0)">
      <path id="Path_34386" data-name="Path 34386" d="M17.3,37.94H1.364v-14a.674.674,0,0,0-.682-.667A.674.674,0,0,0,0,23.94V38.606a.674.674,0,0,0,.682.667H17.3a.667.667,0,1,0,0-1.333Z" transform="translate(0 -23.273)" fill="#4987ee"/>
    </g>
  </g>
  <g id="Group_18311" data-name="Group 18311" transform="translate(11.58 3.427)">
    <g id="Group_18310" data-name="Group 18310" transform="translate(0 0)">
      <path id="Path_34387" data-name="Path 34387" d="M333.5,74.344h-5.068a.676.676,0,0,0,0,1.352h4.393v4.393a.676.676,0,1,0,1.352,0V75.02A.676.676,0,0,0,333.5,74.344Z" transform="translate(-327.758 -74.344)" fill="#4987ee"/>
    </g>
  </g>
</svg>
