<svg xmlns="http://www.w3.org/2000/svg" width="20" height="19" viewBox="0 0 20 19">
  <g id="modify_ico" transform="translate(-1621 -534)">
    <rect id="Rectangle_3603" data-name="Rectangle 3603" width="18" height="16" rx="3" transform="translate(1623 534)" fill="#4987ee" opacity="0.2"/>
    <g id="edit-2" transform="translate(1621 534.996)">
      <g id="Group_18655" data-name="Group 18655" transform="translate(0 1.289)">
        <g id="Group_18654" data-name="Group 18654">
          <path id="Path_34449" data-name="Path 34449" d="M14.785,41.851a.643.643,0,0,0-.643.643v6.428a.643.643,0,0,1-.643.643H1.929a.643.643,0,0,1-.643-.643V36.066a.643.643,0,0,1,.643-.643H9.643a.643.643,0,0,0,0-1.286H1.929A1.929,1.929,0,0,0,0,36.066V48.923a1.929,1.929,0,0,0,1.929,1.929H13.5a1.929,1.929,0,0,0,1.929-1.929V42.494a.643.643,0,0,0-.644-.643Z" transform="translate(0 -34.137)" fill="#4987ee"/>
        </g>
      </g>
      <g id="Group_18657" data-name="Group 18657" transform="translate(3.857 0.004)">
        <g id="Group_18656" data-name="Group 18656">
          <path id="Path_34450" data-name="Path 34450" d="M115.831.725a2.461,2.461,0,0,0-3.481,0l-8.468,8.467a.65.65,0,0,0-.155.251L102.442,13.3a.643.643,0,0,0,.609.846.653.653,0,0,0,.2-.033l3.857-1.286a.643.643,0,0,0,.251-.156L115.83,4.2a2.461,2.461,0,0,0,0-3.475Zm-.91,2.575-8.357,8.357-2.5.834L104.895,10l8.36-8.357a1.175,1.175,0,1,1,1.662,1.66Z" transform="translate(-102.409 -0.004)" fill="#1c74d0"/>
        </g>
      </g>
    </g>
  </g>
</svg>
