<svg id="set_alert" data-name="set alert" xmlns="http://www.w3.org/2000/svg" width="18.427" height="18.774" viewBox="0 0 18.427 18.774">
  <path id="Path_34393" data-name="Path 34393" d="M35.608,78.081H22.7a1.369,1.369,0,0,1-.89-2.409,5.242,5.242,0,0,0,1.868-4.014V69.476a5.476,5.476,0,0,1,10.951,0v2.181a5.241,5.241,0,0,0,1.86,4.009,1.368,1.368,0,0,1-.882,2.415ZM24.852,71.657c0,1.894-2.347,4.977-2.347,5.055C22.505,76.818,24.852,67.1,24.852,71.657Z" transform="translate(-18.55 -61.654)" fill="#4987ee" opacity="0.2"/>
  <path id="Path_34388" data-name="Path 34388" d="M368.709,31.371a.587.587,0,0,1-.587-.587,8.356,8.356,0,0,0-2.462-5.947.587.587,0,1,1,.83-.83,9.523,9.523,0,0,1,2.806,6.776.587.587,0,0,1-.587.587Zm0,0" transform="translate(-352.087 -22.962)" fill="#4987ee"/>
  <path id="Path_34389" data-name="Path 34389" d="M.587,31.39A.587.587,0,0,1,0,30.8a9.518,9.518,0,0,1,2.807-6.776.587.587,0,0,1,.83.83A8.35,8.35,0,0,0,1.173,30.8a.587.587,0,0,1-.587.587Zm0,0" transform="translate(0 -22.981)" fill="#4987ee"/>
  <path id="Path_34390" data-name="Path 34390" d="M157.6,419.52a2.936,2.936,0,0,1-2.933-2.933.587.587,0,1,1,1.173,0,1.76,1.76,0,0,0,3.52,0,.587.587,0,1,1,1.173,0A2.936,2.936,0,0,1,157.6,419.52Zm0,0" transform="translate(-148.997 -400.746)" fill="#4987ee"/>
  <path id="Path_34391" data-name="Path 34391" d="M35.608,78.081H22.7a1.369,1.369,0,0,1-.89-2.409,5.242,5.242,0,0,0,1.868-4.014V69.476a5.476,5.476,0,0,1,10.951,0v2.181a5.241,5.241,0,0,0,1.86,4.009,1.368,1.368,0,0,1-.882,2.415ZM29.155,65.174a4.307,4.307,0,0,0-4.3,4.3v2.181a6.411,6.411,0,0,1-2.276,4.9.2.2,0,0,0-.07.15.2.2,0,0,0,.2.2H35.608a.2.2,0,0,0,.2-.2.193.193,0,0,0-.069-.149,6.413,6.413,0,0,1-2.278-4.906V69.476A4.307,4.307,0,0,0,29.155,65.174Zm0,0" transform="translate(-20.55 -61.654)" fill="#4987ee"/>
  <path id="Path_34392" data-name="Path 34392" d="M219.255,3.52a.587.587,0,0,1-.587-.587V.587a.587.587,0,0,1,1.173,0V2.933A.587.587,0,0,1,219.255,3.52Zm0,0" transform="translate(-210.65)" fill="#4987ee"/>
</svg>
