<svg id="user_img" xmlns="http://www.w3.org/2000/svg" width="36" height="36.203" viewBox="0 0 36 36.203">
  <circle id="Ellipse_602" data-name="Ellipse 602" cx="18" cy="18" r="18" fill="#fd8469"/>
  <g id="Group_16351" data-name="Group 16351" transform="translate(4.048 24.004)">
    <path id="Path_33403" data-name="Path 33403" d="M252.971,362.8c-.029,0-.057.029-.086.029s-.057-.029-.086-.029Z" transform="translate(-238.831 -360.947)" fill="#84dbff"/>
    <path id="Path_33404" data-name="Path 33404" d="M84.909,342.3a18.092,18.092,0,0,1-28.109,0,16.035,16.035,0,0,1,8.952-5.5,9.947,9.947,0,0,0,.77,4.333c1-2.281,4.333-2.48,4.333-2.48s3.335.2,4.3,2.48a9.515,9.515,0,0,0,.77-4.333C78.922,337.57,82.571,339.138,84.909,342.3Z" transform="translate(-56.8 -336.8)" fill="#84dbff"/>
  </g>
  <path id="Path_33405" data-name="Path 33405" d="M204.953,297.512v.029c0,.285-.143,2.11-3.991,3.564h-.171c-3.849-1.454-3.991-3.278-3.991-3.564v-.029a5,5,0,0,1,.171-1.112,4.431,4.431,0,0,0,7.811,0A5.006,5.006,0,0,1,204.953,297.512Z" transform="translate(-182.774 -275.275)" fill="#fff"/>
  <g id="Group_16352" data-name="Group 16352" transform="translate(12.973 22.236)">
    <path id="Path_33406" data-name="Path 33406" d="M258.077,312s.2,2.053-4.077,3.649c0,0,3.335.2,4.3,2.48C258.362,318.186,260.272,313.226,258.077,312Z" transform="translate(-248.871 -312)" fill="#54c0eb"/>
    <path id="Path_33407" data-name="Path 33407" d="M183.082,312c-2.2,1.226-.285,6.186-.228,6.1,1-2.281,4.3-2.48,4.3-2.48C182.883,314.053,183.082,312,183.082,312Z" transform="translate(-182.03 -312)" fill="#54c0eb"/>
  </g>
  <g id="Group_16353" data-name="Group 16353" transform="translate(10.566 7.705)">
    <path id="Path_33408" data-name="Path 33408" d="M184.2,115.429a8.114,8.114,0,0,1-2.309,4.675,5.515,5.515,0,0,1-.77.656l-.456-1.454h-4.9l-.456,1.454c-.912-.684-2.822-2.594-2.851-4.39-.8-10.234,7.041-8.068,7.041-8.068C184.772,107.931,184.6,112.578,184.2,115.429Z" transform="translate(-170.678 -108.11)" fill="#fff"/>
    <path id="Path_33409" data-name="Path 33409" d="M333.854,201.137a2.916,2.916,0,0,1-1.454,1.283,12.1,12.1,0,0,0,.513-1.425v-.029l.342-1.283h-.029c.114-.428.228-.855.314-1.283a.81.81,0,0,1,.342.114C334.51,198.913,334.481,200.082,333.854,201.137Z" transform="translate(-319.275 -191.965)" fill="#fff"/>
    <path id="Path_33410" data-name="Path 33410" d="M150.2,203.534a2.915,2.915,0,0,1-1.454-1.283c-.656-1.055-.656-2.224-.029-2.594.057-.028.086-.057.143-.057a19.418,19.418,0,0,0,.827,2.537,13.8,13.8,0,0,0,.513,1.4Z" transform="translate(-148.249 -193.079)" fill="#fff"/>
  </g>
  <path id="SVGCleanerId_0" d="M155.319,38.822c.228-2.623-3.934-2.452-3.934-2.452a8.063,8.063,0,0,0-6.984,6.785l.855-1.026c-1.34,2.936.684,7.982.855,8.381,1.055,3.507,3.392,6.728,6.1,6.728s5.046-3.221,6.1-6.728h0v-.028c.114-.428.228-.855.314-1.283H158.6c.57-2.281,1.2-4.59,1.2-4.59C161.419,36.427,155.319,38.822,155.319,38.822ZM158.2,48.8a8.114,8.114,0,0,1-2.309,4.675,7.852,7.852,0,0,1-.77.656l-.456-1.425h-4.9l-.456,1.454A8.956,8.956,0,0,1,147,51.452a6.053,6.053,0,0,1-.542-1.682c-.8-10.234,7.042-8.068,7.042-8.068C158.768,41.3,158.6,45.949,158.2,48.8Z" transform="translate(-134.109 -33.776)" fill="#324a5e"/>
  <g id="Group_16354" data-name="Group 16354" transform="translate(10.291 2.592)">
    <path id="SVGCleanerId_0_1_" d="M155.319,38.822c.228-2.623-3.934-2.452-3.934-2.452a8.063,8.063,0,0,0-6.984,6.785l.855-1.026c-1.34,2.936.684,7.982.855,8.381,1.055,3.507,3.392,6.728,6.1,6.728s5.046-3.221,6.1-6.728h0v-.028c.114-.428.228-.855.314-1.283H158.6c.57-2.281,1.2-4.59,1.2-4.59C161.419,36.427,155.319,38.822,155.319,38.822ZM158.2,48.8a8.114,8.114,0,0,1-2.309,4.675,7.852,7.852,0,0,1-.77.656l-.456-1.425h-4.9l-.456,1.454A8.956,8.956,0,0,1,147,51.452a6.053,6.053,0,0,1-.542-1.682c-.8-10.234,7.042-8.068,7.042-8.068C158.768,41.3,158.6,45.949,158.2,48.8Z" transform="translate(-144.4 -36.368)" fill="#324a5e"/>
  </g>
  <path id="Path_33411" data-name="Path 33411" d="M155.319,38.822c.228-2.623-3.934-2.452-3.934-2.452a8.063,8.063,0,0,0-6.984,6.785l.855-1.026c-1.34,2.936.684,7.982.855,8.381,1.055,3.507,3.392,6.728,6.1,6.728s5.046-3.221,6.1-6.728h0v-.028c.114-.428.228-.855.314-1.283H158.6c.57-2.281,1.2-4.59,1.2-4.59C161.419,36.427,155.319,38.822,155.319,38.822ZM158.2,48.8a8.114,8.114,0,0,1-2.309,4.675,7.852,7.852,0,0,1-.77.656l-.456-1.425h-4.9l-.456,1.454c-.912-.684-2.822-2.594-2.851-4.39-.8-10.234,7.042-8.068,7.042-8.068C158.768,41.3,158.6,45.949,158.2,48.8Z" transform="translate(-134.109 -33.776)" fill="#324a5e"/>
  <path id="Path_33412" data-name="Path 33412" d="M226,279.2a2.692,2.692,0,0,0,2,.912,2.594,2.594,0,0,0,2-.912Z" transform="translate(-209.893 -259.301)" fill="#fff"/>
</svg>
