<svg xmlns="http://www.w3.org/2000/svg" width="175.276" height="58.008" viewBox="0 0 175.276 58.008">
  <g id="appstore_ios" transform="translate(0.5 0.5)">
    <path id="Path_39" data-name="Path 39" d="M270.918,985.129a7.7,7.7,0,0,1-7.7,7.7H104.345a7.705,7.705,0,0,1-7.7-7.7v-41.6a7.7,7.7,0,0,1,7.7-7.7h158.87a7.7,7.7,0,0,1,7.7,7.7Z" transform="translate(-96.641 -935.825)" fill="#1c1e30" stroke="#ebebeb" stroke-width="1"/>
    <g id="Group_1697" data-name="Group 1697" transform="translate(11.621 8.979)">
      <path id="Path_40" data-name="Path 40" d="M165.193,1009.392a28.082,28.082,0,0,1-2.537,4.737c-1.648,2.508-3.97,5.632-6.847,5.658-2.557.024-3.214-1.664-6.683-1.646s-4.194,1.675-6.752,1.651c-2.877-.026-5.078-2.847-6.725-5.355-4.607-7.014-5.089-15.245-2.247-19.62a10.2,10.2,0,0,1,8.2-4.93c3.05,0,4.967,1.672,7.488,1.672,2.446,0,3.937-1.675,7.462-1.675a9.951,9.951,0,0,1,7.5,3.961A8.584,8.584,0,0,0,165.193,1009.392Z" transform="translate(-131.637 -980.743)" fill="#fff"/>
      <g id="Group_1696" data-name="Group 1696" transform="translate(16.129)">
        <path id="Path_41" data-name="Path 41" d="M186.319,968.695a8.56,8.56,0,0,0,1.9-6.34,9.249,9.249,0,0,0-5.97,3.211,7.946,7.946,0,0,0-1.951,6.184A7.806,7.806,0,0,0,186.319,968.695Z" transform="translate(-180.207 -962.355)" fill="#fff"/>
      </g>
    </g>
    <g id="Group_1700" data-name="Group 1700" transform="translate(53.647 9.062)">
      <g id="Group_1698" data-name="Group 1698" transform="translate(0 13.575)">
        <path id="Path_42" data-name="Path 42" d="M261.682,1004.42l-6.6,19.427H258.1l1.97-5.965h6.39l2.026,5.965H271.6l-6.628-19.427Zm1.566,3.194c.223.867.463,1.768.772,2.741l1.779,5.151h-5.062l1.754-5.185C262.758,1009.481,263.012,1008.573,263.248,1007.614Z" transform="translate(-255.082 -1004.111)" fill="#fff"/>
        <path id="Path_43" data-name="Path 43" d="M315.492,1019.586a5.5,5.5,0,0,0-4.673,2.242l-.117-1.932h-2.688l.016.247c.079,1.2.112,2.529.112,4.431v14.974h2.94v-6.988a5.162,5.162,0,0,0,4.018,1.726,6.06,6.06,0,0,0,4.454-1.893,8.031,8.031,0,0,0,1.966-5.654,7.819,7.819,0,0,0-1.707-5.162A5.593,5.593,0,0,0,315.492,1019.586Zm-.732,2.433c2.62,0,3.793,2.427,3.793,4.832,0,3.1-1.5,5.029-3.9,5.029a3.563,3.563,0,0,1-3.463-2.728,3.743,3.743,0,0,1-.1-.951v-2.363a4.421,4.421,0,0,1,.093-.726c.015-.08.031-.161.042-.239A3.722,3.722,0,0,1,314.76,1022.019Z" transform="translate(-290.437 -1014.24)" fill="#fff"/>
        <path id="Path_44" data-name="Path 44" d="M361.074,1019.586a5.5,5.5,0,0,0-4.673,2.242l-.117-1.932H353.6l.015.247c.08,1.2.113,2.529.113,4.431v14.974h2.939v-6.988a5.159,5.159,0,0,0,4.017,1.726,6.069,6.069,0,0,0,4.456-1.893,8.041,8.041,0,0,0,1.966-5.654,7.819,7.819,0,0,0-1.709-5.162A5.59,5.59,0,0,0,361.074,1019.586Zm-.731,2.433c2.619,0,3.792,2.427,3.792,4.832,0,3.1-1.5,5.029-3.9,5.029a3.563,3.563,0,0,1-3.463-2.728,3.755,3.755,0,0,1-.1-.951v-2.363a4.354,4.354,0,0,1,.094-.728c.015-.079.029-.158.042-.236A3.72,3.72,0,0,1,360.342,1022.019Z" transform="translate(-320.883 -1014.24)" fill="#fff"/>
        <path id="Path_45" data-name="Path 45" d="M419.143,1012.029c-2.743-1.062-3.622-1.9-3.622-3.441,0-1.3,1.033-2.611,3.341-2.611a6.68,6.68,0,0,1,3.45.866l.249.154.83-2.453-.164-.1a8.52,8.52,0,0,0-4.28-.96c-3.748,0-6.366,2.213-6.366,5.38,0,2.555,1.639,4.34,5.159,5.62,2.494.932,3.423,1.888,3.423,3.525,0,1.853-1.432,3-3.736,3a8.044,8.044,0,0,1-4.237-1.2l-.255-.164-.789,2.51.145.1a10.069,10.069,0,0,0,4.967,1.277c5.052,0,6.843-3.08,6.843-5.718C424.1,1015.1,422.665,1013.419,419.143,1012.029Z" transform="translate(-359.989 -1003.488)" fill="#fff"/>
        <path id="Path_46" data-name="Path 46" d="M454.038,1010.439l-2.883.905v2.442h-2.11v2.349h2.11v7.2a5.5,5.5,0,0,0,1.018,3.729,3.768,3.768,0,0,0,2.844,1.116,6.927,6.927,0,0,0,2.272-.351l.165-.058-.141-2.353-.282.087a4.425,4.425,0,0,1-1.367.158c-1.139,0-1.626-.721-1.626-2.413v-7.111h3.546v-2.349h-3.546Z" transform="translate(-384.636 -1008.131)" fill="#fff"/>
        <path id="Path_47" data-name="Path 47" d="M482.646,1019.586c-4.113,0-6.984,3.069-6.984,7.463,0,4.261,2.779,7.237,6.76,7.237h.027c3.364,0,6.984-2.344,6.984-7.49a7.427,7.427,0,0,0-1.873-5.2A6.541,6.541,0,0,0,482.646,1019.586Zm-.085,2.32c2.644,0,3.848,2.578,3.848,4.974,0,2.946-1.643,5.085-3.9,5.085h-.029c-2.229,0-3.847-2.1-3.847-5C478.63,1024.448,479.846,1021.906,482.561,1021.906Z" transform="translate(-402.415 -1014.24)" fill="#fff"/>
        <path id="Path_48" data-name="Path 48" d="M529.527,1019.722l-.176-.045a2.828,2.828,0,0,0-.731-.092,4.193,4.193,0,0,0-3.685,2.366l-.086-2.057h-2.638l.017.247c.078,1.163.111,2.47.111,4.232l-.027,9.6h2.939v-7.491a7.548,7.548,0,0,1,.081-1.139,3.249,3.249,0,0,1,3.092-2.962,7.467,7.467,0,0,1,.789.049l.314.033Z" transform="translate(-433.506 -1014.24)" fill="#fff"/>
        <path id="Path_49" data-name="Path 49" d="M550.777,1019.5c-3.913,0-6.646,3.127-6.646,7.6,0,4.311,2.719,7.1,6.927,7.1a11.27,11.27,0,0,0,4.654-.893l.177-.08-.565-2.19-.245.1a9.116,9.116,0,0,1-3.683.658,4.086,4.086,0,0,1-4.4-4.262l9.487.029.038-.187a6.523,6.523,0,0,0,.089-1.227C556.607,1023.083,555.08,1019.5,550.777,1019.5Zm-.2,2.236a2.9,2.9,0,0,1,2.158.823,4.184,4.184,0,0,1,1.012,2.736h-6.7C547.321,1023.6,548.382,1021.738,550.581,1021.738Z" transform="translate(-448.147 -1014.184)" fill="#fff"/>
      </g>
      <g id="Group_1699" data-name="Group 1699">
        <path id="Path_50" data-name="Path 50" d="M255.082,964.072a21.409,21.409,0,0,1,2.819-.191,6.291,6.291,0,0,1,4.139,1.132,4.024,4.024,0,0,1,1.455,3.315,4.654,4.654,0,0,1-1.47,3.574,6.821,6.821,0,0,1-4.532,1.324,20.4,20.4,0,0,1-2.411-.11Zm1.334,8.144a9.456,9.456,0,0,0,1.334.055c2.819.013,4.35-1.419,4.35-3.9.015-2.2-1.349-3.547-4.138-3.547a8.379,8.379,0,0,0-1.546.122Z" transform="translate(-255.082 -963.458)" fill="#fff"/>
        <path id="Path_51" data-name="Path 51" d="M287.581,978.343a3.314,3.314,0,0,1-3.517-3.4,3.406,3.406,0,0,1,3.638-3.506,3.287,3.287,0,0,1,3.531,3.383,3.418,3.418,0,0,1-3.637,3.52Zm.046-.9a2.349,2.349,0,0,0,2.228-2.579,2.243,2.243,0,1,0-2.244,2.579Z" transform="translate(-274.44 -968.507)" fill="#fff"/>
        <path id="Path_52" data-name="Path 52" d="M309.265,971.891l.985,3.343c.2.737.394,1.432.53,2.114h.046c.167-.669.409-1.378.652-2.1l1.2-3.356H313.8l1.137,3.3c.272.778.485,1.487.651,2.156h.046a18.253,18.253,0,0,1,.561-2.142l1.045-3.315h1.319l-2.365,6.6h-1.213l-1.121-3.151a21.618,21.618,0,0,1-.653-2.183h-.03a18.122,18.122,0,0,1-.667,2.2l-1.182,3.138h-1.213l-2.214-6.6Z" transform="translate(-290.361 -968.808)" fill="#fff"/>
        <path id="Path_53" data-name="Path 53" d="M343.889,973.377c0-.7-.015-1.241-.061-1.787h1.183l.075,1.078h.031a2.778,2.778,0,0,1,2.425-1.228,2.511,2.511,0,0,1,2.592,2.81v3.942H348.8v-3.806c0-1.064-.44-1.964-1.7-1.964a1.9,1.9,0,0,0-1.788,1.228,1.617,1.617,0,0,0-.091.559v3.983h-1.334Z" transform="translate(-314.358 -968.507)" fill="#fff"/>
        <path id="Path_54" data-name="Path 54" d="M369.346,962.607h1.334v9.686h-1.334Z" transform="translate(-331.403 -962.607)" fill="#fff"/>
        <path id="Path_55" data-name="Path 55" d="M381.948,978.343a3.314,3.314,0,0,1-3.516-3.4,3.405,3.405,0,0,1,3.638-3.506,3.287,3.287,0,0,1,3.531,3.383,3.418,3.418,0,0,1-3.638,3.52Zm.045-.9a2.35,2.35,0,0,0,2.229-2.579,2.243,2.243,0,1,0-2.244,2.579Z" transform="translate(-337.472 -968.507)" fill="#fff"/>
        <path id="Path_56" data-name="Path 56" d="M409.1,976.61a9.948,9.948,0,0,0,.107,1.582h-1.2l-.121-.831h-.045a2.82,2.82,0,0,1-2.243.982,2,2,0,0,1-2.243-1.9c0-1.6,1.576-2.469,4.411-2.456v-.136c0-.546-.166-1.541-1.667-1.528a3.829,3.829,0,0,0-1.925.491l-.3-.8a5.168,5.168,0,0,1,2.426-.573c2.258,0,2.8,1.377,2.8,2.7Zm-1.3-1.787c-1.455-.027-3.107.2-3.107,1.487a1.115,1.115,0,0,0,1.243,1.146,1.85,1.85,0,0,0,1.8-1.105,1.1,1.1,0,0,0,.061-.382Z" transform="translate(-354.12 -968.507)" fill="#fff"/>
        <path id="Path_57" data-name="Path 57" d="M432.362,962.607v7.98c0,.587.016,1.255.061,1.705h-1.2l-.06-1.146h-.031a2.745,2.745,0,0,1-2.486,1.3,3.149,3.149,0,0,1-3.153-3.356,3.292,3.292,0,0,1,3.289-3.546,2.522,2.522,0,0,1,2.214,1h.03v-3.929Zm-1.334,5.77a2,2,0,0,0-.061-.518,1.929,1.929,0,0,0-1.925-1.378,2.259,2.259,0,0,0-2.2,2.538,2.19,2.19,0,0,0,2.168,2.455,1.985,1.985,0,0,0,1.955-1.432,1.874,1.874,0,0,0,.061-.518Z" transform="translate(-368.907 -962.607)" fill="#fff"/>
        <path id="Path_58" data-name="Path 58" d="M464.437,978.343a3.314,3.314,0,0,1-3.517-3.4,3.406,3.406,0,0,1,3.638-3.506,3.287,3.287,0,0,1,3.532,3.383,3.418,3.418,0,0,1-3.637,3.52Zm.046-.9a2.349,2.349,0,0,0,2.228-2.579,2.243,2.243,0,1,0-2.243,2.579Z" transform="translate(-392.568 -968.507)" fill="#fff"/>
        <path id="Path_59" data-name="Path 59" d="M487.459,973.377c0-.7-.016-1.241-.061-1.787h1.182l.076,1.078h.03a2.778,2.778,0,0,1,2.425-1.228,2.511,2.511,0,0,1,2.592,2.81v3.942H492.37v-3.806c0-1.064-.439-1.964-1.7-1.964a1.905,1.905,0,0,0-1.789,1.228,1.624,1.624,0,0,0-.091.559v3.983h-1.333Z" transform="translate(-410.253 -968.507)" fill="#fff"/>
        <path id="Path_60" data-name="Path 60" d="M522.525,967.127v1.582h1.909v.914h-1.909v3.561c0,.818.258,1.283,1,1.283a2.743,2.743,0,0,0,.773-.082l.061.914a4.01,4.01,0,0,1-1.182.164,2.019,2.019,0,0,1-1.44-.5,2.4,2.4,0,0,1-.515-1.733v-3.6h-1.137v-.914h1.137v-1.214Z" transform="translate(-432.086 -965.626)" fill="#fff"/>
        <path id="Path_61" data-name="Path 61" d="M537.7,962.607h1.334v4.12h.031a2.261,2.261,0,0,1,.955-.846,2.814,2.814,0,0,1,1.364-.341,2.51,2.51,0,0,1,2.561,2.824v3.929h-1.334V968.5c0-1.078-.44-1.964-1.7-1.964a1.917,1.917,0,0,0-1.789,1.2,1.323,1.323,0,0,0-.091.573v3.983H537.7Z" transform="translate(-443.855 -962.607)" fill="#fff"/>
        <path id="Path_62" data-name="Path 62" d="M562.731,975.067a2.236,2.236,0,0,0,2.5,2.293,5.558,5.558,0,0,0,2.032-.328l.242.846a6.562,6.562,0,0,1-2.456.423c-2.244,0-3.608-1.351-3.608-3.328A3.362,3.362,0,0,1,564.9,971.4a2.89,2.89,0,0,1,3.017,3.111,2.771,2.771,0,0,1-.045.573Zm3.9-.859a1.772,1.772,0,0,0-1.835-1.951,2.077,2.077,0,0,0-2.046,1.951Z" transform="translate(-459.711 -968.479)" fill="#fff"/>
      </g>
    </g>
    <g id="Group_1702" data-name="Group 1702" transform="translate(11.621 8.979)">
      <path id="Path_64" data-name="Path 64" d="M165.193,1009.392a28.082,28.082,0,0,1-2.537,4.737c-1.648,2.508-3.97,5.632-6.847,5.658-2.557.024-3.214-1.664-6.683-1.646s-4.194,1.675-6.752,1.651c-2.877-.026-5.078-2.847-6.725-5.355-4.607-7.014-5.089-15.245-2.247-19.62a10.2,10.2,0,0,1,8.2-4.93c3.05,0,4.967,1.672,7.488,1.672,2.446,0,3.937-1.675,7.462-1.675a9.951,9.951,0,0,1,7.5,3.961A8.584,8.584,0,0,0,165.193,1009.392Z" transform="translate(-131.637 -980.743)" fill="#fff"/>
      <g id="Group_1701" data-name="Group 1701" transform="translate(16.129)">
        <path id="Path_65" data-name="Path 65" d="M186.319,968.695a8.56,8.56,0,0,0,1.9-6.34,9.249,9.249,0,0,0-5.97,3.211,7.946,7.946,0,0,0-1.951,6.184A7.806,7.806,0,0,0,186.319,968.695Z" transform="translate(-180.207 -962.355)" fill="#fff"/>
      </g>
    </g>
    <g id="Group_1705" data-name="Group 1705" transform="translate(53.647 9.062)">
      <g id="Group_1703" data-name="Group 1703" transform="translate(0 13.575)">
        <path id="Path_66" data-name="Path 66" d="M261.682,1004.42l-6.6,19.427H258.1l1.97-5.965h6.39l2.026,5.965H271.6l-6.628-19.427Zm1.566,3.194c.223.867.463,1.768.772,2.741l1.779,5.151h-5.062l1.754-5.185C262.758,1009.481,263.012,1008.573,263.248,1007.614Z" transform="translate(-255.082 -1004.111)" fill="#fff"/>
        <path id="Path_67" data-name="Path 67" d="M315.492,1019.586a5.5,5.5,0,0,0-4.673,2.242l-.117-1.932h-2.688l.016.247c.079,1.2.112,2.529.112,4.431v14.974h2.94v-6.988a5.162,5.162,0,0,0,4.018,1.726,6.06,6.06,0,0,0,4.454-1.893,8.031,8.031,0,0,0,1.966-5.654,7.819,7.819,0,0,0-1.707-5.162A5.593,5.593,0,0,0,315.492,1019.586Zm-.732,2.433c2.62,0,3.793,2.427,3.793,4.832,0,3.1-1.5,5.029-3.9,5.029a3.563,3.563,0,0,1-3.463-2.728,3.743,3.743,0,0,1-.1-.951v-2.363a4.421,4.421,0,0,1,.093-.726c.015-.08.031-.161.042-.239A3.722,3.722,0,0,1,314.76,1022.019Z" transform="translate(-290.437 -1014.24)" fill="#fff"/>
        <path id="Path_68" data-name="Path 68" d="M361.074,1019.586a5.5,5.5,0,0,0-4.673,2.242l-.117-1.932H353.6l.015.247c.08,1.2.113,2.529.113,4.431v14.974h2.939v-6.988a5.159,5.159,0,0,0,4.017,1.726,6.069,6.069,0,0,0,4.456-1.893,8.041,8.041,0,0,0,1.966-5.654,7.819,7.819,0,0,0-1.709-5.162A5.59,5.59,0,0,0,361.074,1019.586Zm-.731,2.433c2.619,0,3.792,2.427,3.792,4.832,0,3.1-1.5,5.029-3.9,5.029a3.563,3.563,0,0,1-3.463-2.728,3.755,3.755,0,0,1-.1-.951v-2.363a4.354,4.354,0,0,1,.094-.728c.015-.079.029-.158.042-.236A3.72,3.72,0,0,1,360.342,1022.019Z" transform="translate(-320.883 -1014.24)" fill="#fff"/>
        <path id="Path_69" data-name="Path 69" d="M419.143,1012.029c-2.743-1.062-3.622-1.9-3.622-3.441,0-1.3,1.033-2.611,3.341-2.611a6.68,6.68,0,0,1,3.45.866l.249.154.83-2.453-.164-.1a8.52,8.52,0,0,0-4.28-.96c-3.748,0-6.366,2.213-6.366,5.38,0,2.555,1.639,4.34,5.159,5.62,2.494.932,3.423,1.888,3.423,3.525,0,1.853-1.432,3-3.736,3a8.044,8.044,0,0,1-4.237-1.2l-.255-.164-.789,2.51.145.1a10.069,10.069,0,0,0,4.967,1.277c5.052,0,6.843-3.08,6.843-5.718C424.1,1015.1,422.665,1013.419,419.143,1012.029Z" transform="translate(-359.989 -1003.488)" fill="#fff"/>
        <path id="Path_70" data-name="Path 70" d="M454.038,1010.439l-2.883.905v2.442h-2.11v2.349h2.11v7.2a5.5,5.5,0,0,0,1.018,3.729,3.768,3.768,0,0,0,2.844,1.116,6.927,6.927,0,0,0,2.272-.351l.165-.058-.141-2.353-.282.087a4.425,4.425,0,0,1-1.367.158c-1.139,0-1.626-.721-1.626-2.413v-7.111h3.546v-2.349h-3.546Z" transform="translate(-384.636 -1008.131)" fill="#fff"/>
        <path id="Path_71" data-name="Path 71" d="M482.646,1019.586c-4.113,0-6.984,3.069-6.984,7.463,0,4.261,2.779,7.237,6.76,7.237h.027c3.364,0,6.984-2.344,6.984-7.49a7.427,7.427,0,0,0-1.873-5.2A6.541,6.541,0,0,0,482.646,1019.586Zm-.085,2.32c2.644,0,3.848,2.578,3.848,4.974,0,2.946-1.643,5.085-3.9,5.085h-.029c-2.229,0-3.847-2.1-3.847-5C478.63,1024.448,479.846,1021.906,482.561,1021.906Z" transform="translate(-402.415 -1014.24)" fill="#fff"/>
        <path id="Path_72" data-name="Path 72" d="M529.527,1019.722l-.176-.045a2.828,2.828,0,0,0-.731-.092,4.193,4.193,0,0,0-3.685,2.366l-.086-2.057h-2.638l.017.247c.078,1.163.111,2.47.111,4.232l-.027,9.6h2.939v-7.491a7.548,7.548,0,0,1,.081-1.139,3.249,3.249,0,0,1,3.092-2.962,7.467,7.467,0,0,1,.789.049l.314.033Z" transform="translate(-433.506 -1014.24)" fill="#fff"/>
        <path id="Path_73" data-name="Path 73" d="M550.777,1019.5c-3.913,0-6.646,3.127-6.646,7.6,0,4.311,2.719,7.1,6.927,7.1a11.27,11.27,0,0,0,4.654-.893l.177-.08-.565-2.19-.245.1a9.116,9.116,0,0,1-3.683.658,4.086,4.086,0,0,1-4.4-4.262l9.487.029.038-.187a6.523,6.523,0,0,0,.089-1.227C556.607,1023.083,555.08,1019.5,550.777,1019.5Zm-.2,2.236a2.9,2.9,0,0,1,2.158.823,4.184,4.184,0,0,1,1.012,2.736h-6.7C547.321,1023.6,548.382,1021.738,550.581,1021.738Z" transform="translate(-448.147 -1014.184)" fill="#fff"/>
      </g>
      <g id="Group_1704" data-name="Group 1704">
        <path id="Path_74" data-name="Path 74" d="M255.082,964.072a21.409,21.409,0,0,1,2.819-.191,6.291,6.291,0,0,1,4.139,1.132,4.024,4.024,0,0,1,1.455,3.315,4.654,4.654,0,0,1-1.47,3.574,6.821,6.821,0,0,1-4.532,1.324,20.4,20.4,0,0,1-2.411-.11Zm1.334,8.144a9.456,9.456,0,0,0,1.334.055c2.819.013,4.35-1.419,4.35-3.9.015-2.2-1.349-3.547-4.138-3.547a8.379,8.379,0,0,0-1.546.122Z" transform="translate(-255.082 -963.458)" fill="#fff"/>
        <path id="Path_75" data-name="Path 75" d="M287.581,978.343a3.314,3.314,0,0,1-3.517-3.4,3.406,3.406,0,0,1,3.638-3.506,3.287,3.287,0,0,1,3.531,3.383,3.418,3.418,0,0,1-3.637,3.52Zm.046-.9a2.349,2.349,0,0,0,2.228-2.579,2.243,2.243,0,1,0-2.244,2.579Z" transform="translate(-274.44 -968.507)" fill="#fff"/>
        <path id="Path_76" data-name="Path 76" d="M309.265,971.891l.985,3.343c.2.737.394,1.432.53,2.114h.046c.167-.669.409-1.378.652-2.1l1.2-3.356H313.8l1.137,3.3c.272.778.485,1.487.651,2.156h.046a18.253,18.253,0,0,1,.561-2.142l1.045-3.315h1.319l-2.365,6.6h-1.213l-1.121-3.151a21.618,21.618,0,0,1-.653-2.183h-.03a18.122,18.122,0,0,1-.667,2.2l-1.182,3.138h-1.213l-2.214-6.6Z" transform="translate(-290.361 -968.808)" fill="#fff"/>
        <path id="Path_77" data-name="Path 77" d="M343.889,973.377c0-.7-.015-1.241-.061-1.787h1.183l.075,1.078h.031a2.778,2.778,0,0,1,2.425-1.228,2.511,2.511,0,0,1,2.592,2.81v3.942H348.8v-3.806c0-1.064-.44-1.964-1.7-1.964a1.9,1.9,0,0,0-1.788,1.228,1.617,1.617,0,0,0-.091.559v3.983h-1.334Z" transform="translate(-314.358 -968.507)" fill="#fff"/>
        <path id="Path_78" data-name="Path 78" d="M369.346,962.607h1.334v9.686h-1.334Z" transform="translate(-331.403 -962.607)" fill="#fff"/>
        <path id="Path_79" data-name="Path 79" d="M381.948,978.343a3.314,3.314,0,0,1-3.516-3.4,3.405,3.405,0,0,1,3.638-3.506,3.287,3.287,0,0,1,3.531,3.383,3.418,3.418,0,0,1-3.638,3.52Zm.045-.9a2.35,2.35,0,0,0,2.229-2.579,2.243,2.243,0,1,0-2.244,2.579Z" transform="translate(-337.472 -968.507)" fill="#fff"/>
        <path id="Path_80" data-name="Path 80" d="M409.1,976.61a9.948,9.948,0,0,0,.107,1.582h-1.2l-.121-.831h-.045a2.82,2.82,0,0,1-2.243.982,2,2,0,0,1-2.243-1.9c0-1.6,1.576-2.469,4.411-2.456v-.136c0-.546-.166-1.541-1.667-1.528a3.829,3.829,0,0,0-1.925.491l-.3-.8a5.168,5.168,0,0,1,2.426-.573c2.258,0,2.8,1.377,2.8,2.7Zm-1.3-1.787c-1.455-.027-3.107.2-3.107,1.487a1.115,1.115,0,0,0,1.243,1.146,1.85,1.85,0,0,0,1.8-1.105,1.1,1.1,0,0,0,.061-.382Z" transform="translate(-354.12 -968.507)" fill="#fff"/>
        <path id="Path_81" data-name="Path 81" d="M432.362,962.607v7.98c0,.587.016,1.255.061,1.705h-1.2l-.06-1.146h-.031a2.745,2.745,0,0,1-2.486,1.3,3.149,3.149,0,0,1-3.153-3.356,3.292,3.292,0,0,1,3.289-3.546,2.522,2.522,0,0,1,2.214,1h.03v-3.929Zm-1.334,5.77a2,2,0,0,0-.061-.518,1.929,1.929,0,0,0-1.925-1.378,2.259,2.259,0,0,0-2.2,2.538,2.19,2.19,0,0,0,2.168,2.455,1.985,1.985,0,0,0,1.955-1.432,1.874,1.874,0,0,0,.061-.518Z" transform="translate(-368.907 -962.607)" fill="#fff"/>
        <path id="Path_82" data-name="Path 82" d="M464.437,978.343a3.314,3.314,0,0,1-3.517-3.4,3.406,3.406,0,0,1,3.638-3.506,3.287,3.287,0,0,1,3.532,3.383,3.418,3.418,0,0,1-3.637,3.52Zm.046-.9a2.349,2.349,0,0,0,2.228-2.579,2.243,2.243,0,1,0-2.243,2.579Z" transform="translate(-392.568 -968.507)" fill="#fff"/>
        <path id="Path_83" data-name="Path 83" d="M487.459,973.377c0-.7-.016-1.241-.061-1.787h1.182l.076,1.078h.03a2.778,2.778,0,0,1,2.425-1.228,2.511,2.511,0,0,1,2.592,2.81v3.942H492.37v-3.806c0-1.064-.439-1.964-1.7-1.964a1.905,1.905,0,0,0-1.789,1.228,1.624,1.624,0,0,0-.091.559v3.983h-1.333Z" transform="translate(-410.253 -968.507)" fill="#fff"/>
        <path id="Path_84" data-name="Path 84" d="M522.525,967.127v1.582h1.909v.914h-1.909v3.561c0,.818.258,1.283,1,1.283a2.743,2.743,0,0,0,.773-.082l.061.914a4.01,4.01,0,0,1-1.182.164,2.019,2.019,0,0,1-1.44-.5,2.4,2.4,0,0,1-.515-1.733v-3.6h-1.137v-.914h1.137v-1.214Z" transform="translate(-432.086 -965.626)" fill="#fff"/>
        <path id="Path_85" data-name="Path 85" d="M537.7,962.607h1.334v4.12h.031a2.261,2.261,0,0,1,.955-.846,2.814,2.814,0,0,1,1.364-.341,2.51,2.51,0,0,1,2.561,2.824v3.929h-1.334V968.5c0-1.078-.44-1.964-1.7-1.964a1.917,1.917,0,0,0-1.789,1.2,1.323,1.323,0,0,0-.091.573v3.983H537.7Z" transform="translate(-443.855 -962.607)" fill="#fff"/>
        <path id="Path_86" data-name="Path 86" d="M562.731,975.067a2.236,2.236,0,0,0,2.5,2.293,5.558,5.558,0,0,0,2.032-.328l.242.846a6.562,6.562,0,0,1-2.456.423c-2.244,0-3.608-1.351-3.608-3.328A3.362,3.362,0,0,1,564.9,971.4a2.89,2.89,0,0,1,3.017,3.111,2.771,2.771,0,0,1-.045.573Zm3.9-.859a1.772,1.772,0,0,0-1.835-1.951,2.077,2.077,0,0,0-2.046,1.951Z" transform="translate(-459.711 -968.479)" fill="#fff"/>
      </g>
    </g>
  </g>
</svg>
