<svg xmlns="http://www.w3.org/2000/svg" width="300" height="84.729" viewBox="0 0 300 84.729">
  <g id="Bajaj_logo_login" data-name="Bajaj logo_login" transform="translate(-62.1 -51.4)">
    <g id="Group_22420" data-name="Group 22420" transform="translate(117.243 51.4)">
      <path id="Path_34479" data-name="Path 34479" d="M271.1,75.254V56.1h16.946c3.477,0,9.108.5,9.108,5.023,0,2.263-1.987,3.809-4.25,4.416,2.87.828,4.25,2.429,4.25,4.581,0,4.692-5.354,5.133-9.108,5.189L271.1,75.254Zm6.182-8.059,1.766-2.925a2.438,2.438,0,0,1,2.042-1.049h6.955c1.214,0,2.263-.552,2.263-1.546,0-.938-.994-1.546-2.263-1.546H277.337v7.065Zm0,0v8.059l1.766-2.925a2.438,2.438,0,0,1,2.042-1.049h6.845a2.18,2.18,0,0,0,2.318-2.042,2.146,2.146,0,0,0-2.318-2.042Zm34.94-6.458-8.39,14.572h-7.341l11.7-19.209h8l11.7,19.154h-7.286l-1.987-3.422H307.751l1.822-2.925a2.438,2.438,0,0,1,2.042-1.049h4.692Zm50.892,0-8.39,14.572h-7.341l11.7-19.209h8l11.7,19.154H371.5l-1.987-3.422H358.644l1.766-2.925a2.412,2.412,0,0,1,1.987-1.049h4.692l-3.974-7.121ZM339.269,71.224c1.435,0,2.539-.662,2.539-2.1V56.1h6.182V69.734c0,4.14-2.76,5.52-6.348,5.52H331.266a2.511,2.511,0,0,1-2.042-1.049L327.4,71.224Zm50.892,0c1.435,0,2.594-.662,2.594-2.1V56.1h6.237V69.734c0,4.14-2.7,5.52-6.293,5.52H382.324a2.512,2.512,0,0,1-2.042-1.049l-1.822-2.981Z" transform="translate(-210.879 -53.506)" fill="#0069b4"/>
      <path id="Path_34480" data-name="Path 34480" d="M271,102.4h15.345v4.637H276.3v4.581h9.052v4.416H276.3v5.52H271Z" transform="translate(-210.834 -74.249)" fill="#0069b4"/>
      <path id="Path_34481" data-name="Path 34481" d="M305.4,102.4h5.354v19.209H305.4Z" transform="translate(-226.246 -74.249)" fill="#0069b4"/>
      <path id="Path_34482" data-name="Path 34482" d="M323.4,102.4h4.968l7.893,10.156V102.4H341.5v19.209h-4.637L328.7,111.066v10.543h-5.3Z" transform="translate(-234.311 -74.249)" fill="#0069b4"/>
      <path id="Path_34483" data-name="Path 34483" d="M361.7,118.515l2.981-3.533a10.212,10.212,0,0,0,6.237,2.318c1.435,0,2.208-.5,2.208-1.325v-.055c0-.773-.607-1.214-3.257-1.822-4.085-.938-7.231-2.1-7.231-6.017v-.055c0-3.588,2.815-6.127,7.452-6.127a12.2,12.2,0,0,1,7.893,2.539l-2.649,3.753a9.838,9.838,0,0,0-5.354-1.877c-1.27,0-1.932.552-1.932,1.214v.055c0,.883.662,1.27,3.312,1.877,4.416.938,7.176,2.374,7.176,5.961v.055c0,3.919-3.091,6.237-7.728,6.237A13.679,13.679,0,0,1,361.7,118.515Z" transform="translate(-251.47 -74.025)" fill="#0069b4"/>
      <path id="Path_34484" data-name="Path 34484" d="M398.7,102.4h15.455v4.526H404v2.925h9.218v4.2H404v3.036h10.322v4.526H398.755V102.4Z" transform="translate(-268.047 -74.249)" fill="#0069b4"/>
      <path id="Path_34485" data-name="Path 34485" d="M433.9,102.4h9.052c2.926,0,4.968.773,6.237,2.1a6.075,6.075,0,0,1,1.711,4.471v.055a6.088,6.088,0,0,1-3.974,5.906l4.581,6.679h-6.127l-3.864-5.8H439.2v5.8h-5.3V102.4Zm8.776,9.218c1.822,0,2.87-.883,2.87-2.263V109.3c0-1.49-1.1-2.263-2.87-2.263H439.2v4.581Z" transform="translate(-283.817 -74.249)" fill="#0069b4"/>
      <path id="Path_34486" data-name="Path 34486" d="M467.8,102.4h5.961l4.361,12.144,4.361-12.144h5.851l-7.783,19.319h-4.913Z" transform="translate(-299.005 -74.249)" fill="#0069b4"/>
      <path id="Path_34487" data-name="Path 34487" d="M202.681,82.863c0,6.845-7.617,7.452-13.027,7.507H184.8V84.243h9.66V79.551H184.8v-6.4h10.708V68.18H179.111V90.37h-6.237V62.495h16.78c4.968,0,13.027.718,13.027,7.286,0,3.257-2.815,5.685-6.072,6.458C200.638,77.564,202.681,79.551,202.681,82.863ZM187.06,51.4a25.06,25.06,0,1,0,25.06,25.06h0A25.112,25.112,0,0,0,187.06,51.4Z" transform="translate(-162 -51.4)" fill="#0069b4"/>
    </g>
    <g id="Group_22421" data-name="Group 22421" transform="translate(62.1 124.868)">
      <path id="Path_34488" data-name="Path 34488" d="M62.486,195.819a.377.377,0,0,1-.386-.386V185.386a.377.377,0,0,1,.386-.386h4.692a4.849,4.849,0,0,1,2.153.386,2.675,2.675,0,0,1,1.27,1.049,3.069,3.069,0,0,1,.386,1.656,1.89,1.89,0,0,1-.221.994,8.074,8.074,0,0,1-.5.718,1.129,1.129,0,0,1-.552.386,2.713,2.713,0,0,1,1.49,2.429,3.641,3.641,0,0,1-.442,1.766,2.871,2.871,0,0,1-1.325,1.1,5.008,5.008,0,0,1-2.153.386h-4.8Zm2.374-6.513H66.9a1.213,1.213,0,0,0,.938-.331,1.2,1.2,0,0,0,0-1.656,1.3,1.3,0,0,0-.938-.331H64.86Zm0,4.526h2.153a1.181,1.181,0,0,0,.994-.386,1.353,1.353,0,0,0,.331-.883,1.393,1.393,0,0,0-.331-.938,1.181,1.181,0,0,0-.994-.386H64.86Z" transform="translate(-62.1 -184.724)" fill="#0069b4"/>
      <path id="Path_34489" data-name="Path 34489" d="M80.131,195.819a.39.39,0,0,1-.331-.331v-.166l3.643-9.936a1.206,1.206,0,0,1,.166-.276A.466.466,0,0,1,84,185h2.263a.643.643,0,0,1,.386.11.969.969,0,0,1,.221.276l3.643,9.936c0,.055.055.11.055.166a.39.39,0,0,1-.331.331H88.356a.467.467,0,0,1-.331-.11c-.055-.055-.11-.166-.166-.221l-.607-1.6h-4.14l-.607,1.6c0,.055-.055.11-.166.221a.643.643,0,0,1-.386.11Zm3.588-4.14h2.87l-1.435-4.085Z" transform="translate(-70.03 -184.724)" fill="#0069b4"/>
      <path id="Path_34490" data-name="Path 34490" d="M104.371,195.984a5.23,5.23,0,0,1-1.656-.221,5.709,5.709,0,0,1-1.435-.662,3.847,3.847,0,0,1-.994-1.1,3.365,3.365,0,0,1-.386-1.546.287.287,0,0,1,.11-.221.418.418,0,0,1,.221-.11h2.1a.467.467,0,0,1,.331.11.849.849,0,0,1,.221.331,2.772,2.772,0,0,0,.276.718,1.262,1.262,0,0,0,.552.386,1.755,1.755,0,0,0,.773.11,1.541,1.541,0,0,0,1.214-.5,2.284,2.284,0,0,0,.442-1.49v-4.471h-5.078c-.11,0-.166-.055-.276-.11a.422.422,0,0,1-.11-.276v-1.546a.377.377,0,0,1,.386-.386h7.507a.377.377,0,0,1,.386.386v6.458a4.188,4.188,0,0,1-.607,2.263,3.535,3.535,0,0,1-1.6,1.38A5.2,5.2,0,0,1,104.371,195.984Z" transform="translate(-79.035 -184.724)" fill="#0069b4"/>
      <path id="Path_34491" data-name="Path 34491" d="M118.131,195.819a.39.39,0,0,1-.331-.331v-.166l3.643-9.936a1.206,1.206,0,0,1,.166-.276A.466.466,0,0,1,122,185h2.263a.643.643,0,0,1,.386.11.969.969,0,0,1,.221.276l3.643,9.936c0,.055.055.11.055.166a.39.39,0,0,1-.331.331h-1.877a.467.467,0,0,1-.331-.11c-.055-.055-.11-.166-.166-.221l-.607-1.6h-4.14l-.607,1.6c0,.055-.055.11-.166.221a.643.643,0,0,1-.386.11Zm3.643-4.14h2.87l-1.435-4.085Z" transform="translate(-87.055 -184.724)" fill="#0069b4"/>
      <path id="Path_34492" data-name="Path 34492" d="M142.471,195.984a5.23,5.23,0,0,1-1.656-.221,5.709,5.709,0,0,1-1.435-.662,3.847,3.847,0,0,1-.994-1.1,3.365,3.365,0,0,1-.386-1.546.287.287,0,0,1,.11-.221.419.419,0,0,1,.221-.11h2.1a.467.467,0,0,1,.331.11.848.848,0,0,1,.221.331,2.774,2.774,0,0,0,.276.718,1.262,1.262,0,0,0,.552.386,1.754,1.754,0,0,0,.773.11,1.541,1.541,0,0,0,1.214-.5,2.284,2.284,0,0,0,.442-1.49v-4.471h-5.023c-.11,0-.166-.055-.276-.11a.422.422,0,0,1-.11-.276v-1.546a.377.377,0,0,1,.386-.386h7.507a.377.377,0,0,1,.386.386v6.458a4.187,4.187,0,0,1-.607,2.263,3.535,3.535,0,0,1-1.6,1.38A5.79,5.79,0,0,1,142.471,195.984Z" transform="translate(-96.105 -184.724)" fill="#0069b4"/>
      <path id="Path_34493" data-name="Path 34493" d="M164.486,195.819a.377.377,0,0,1-.386-.386V185.386a.377.377,0,0,1,.386-.386h7.121a.377.377,0,0,1,.386.386v1.546a.377.377,0,0,1-.386.386h-4.8v2.263h4.471a.377.377,0,0,1,.386.386v1.546c0,.11-.055.166-.11.276a.422.422,0,0,1-.276.11H166.8v3.477a.377.377,0,0,1-.386.386h-1.932Z" transform="translate(-107.798 -184.724)" fill="#0069b4"/>
      <path id="Path_34494" data-name="Path 34494" d="M181.686,195.819a.377.377,0,0,1-.386-.386V185.386a.377.377,0,0,1,.386-.386h2.1a.377.377,0,0,1,.386.386v10.046a.377.377,0,0,1-.386.386Z" transform="translate(-115.504 -184.724)" fill="#0069b4"/>
      <path id="Path_34495" data-name="Path 34495" d="M190.786,195.819a.377.377,0,0,1-.386-.386V185.386a.377.377,0,0,1,.386-.386h1.656a.8.8,0,0,1,.386.11l.166.166,3.753,5.961v-5.851a.377.377,0,0,1,.386-.386h1.877a.377.377,0,0,1,.386.386v10.046a.377.377,0,0,1-.386.386h-1.656a.8.8,0,0,1-.386-.11c-.055-.055-.11-.166-.166-.166l-3.753-5.741v5.63a.377.377,0,0,1-.386.386Z" transform="translate(-119.581 -184.724)" fill="#0069b4"/>
      <path id="Path_34496" data-name="Path 34496" d="M209.131,195.819a.39.39,0,0,1-.331-.331v-.166l3.643-9.936a1.207,1.207,0,0,1,.166-.276A.466.466,0,0,1,213,185h2.263a.643.643,0,0,1,.386.11.969.969,0,0,1,.221.276l3.643,9.936c0,.055.055.11.055.166a.39.39,0,0,1-.331.331h-1.877a.467.467,0,0,1-.331-.11c-.055-.055-.11-.166-.166-.221l-.607-1.6h-4.14l-.607,1.6c0,.055-.055.11-.166.221a.643.643,0,0,1-.386.11Zm3.643-4.14h2.87l-1.435-4.085Z" transform="translate(-127.825 -184.724)" fill="#0069b4"/>
      <path id="Path_34497" data-name="Path 34497" d="M230.986,195.819a.377.377,0,0,1-.386-.386V185.386a.377.377,0,0,1,.386-.386h1.656a.8.8,0,0,1,.386.11l.166.166,3.753,5.961v-5.851a.377.377,0,0,1,.386-.386h1.877a.377.377,0,0,1,.386.386v10.046a.377.377,0,0,1-.386.386h-1.656a.8.8,0,0,1-.386-.11c-.055-.055-.11-.166-.166-.166L233.25,189.8v5.63a.377.377,0,0,1-.386.386Z" transform="translate(-137.592 -184.724)" fill="#0069b4"/>
      <path id="Path_34498" data-name="Path 34498" d="M254.947,195.85a5.53,5.53,0,0,1-2.484-.5,3.579,3.579,0,0,1-1.6-1.38,4.787,4.787,0,0,1-.662-2.318V188.9a4.748,4.748,0,0,1,.662-2.263,3.84,3.84,0,0,1,1.656-1.435,5.869,5.869,0,0,1,2.484-.5,6.693,6.693,0,0,1,1.877.276,5.345,5.345,0,0,1,1.49.718,3.371,3.371,0,0,1,.994,1.159,3.554,3.554,0,0,1,.386,1.546c0,.11,0,.166-.11.221a.419.419,0,0,1-.221.11h-2.1a.784.784,0,0,1-.331-.11.9.9,0,0,1-.166-.331,1.692,1.692,0,0,0-.718-1.1,2.089,2.089,0,0,0-1.214-.276,1.79,1.79,0,0,0-1.325.5,2.343,2.343,0,0,0-.552,1.546,20.34,20.34,0,0,0,0,2.594,2.23,2.23,0,0,0,.552,1.546,1.79,1.79,0,0,0,1.325.5,2.1,2.1,0,0,0,1.214-.331,1.85,1.85,0,0,0,.718-1.1.9.9,0,0,1,.166-.331.466.466,0,0,1,.331-.11h2.1a.287.287,0,0,1,.221.11.419.419,0,0,1,.11.221,2.927,2.927,0,0,1-.386,1.546,3.287,3.287,0,0,1-.994,1.159,4.663,4.663,0,0,1-1.49.718A4.83,4.83,0,0,1,254.947,195.85Z" transform="translate(-146.373 -184.59)" fill="#0069b4"/>
      <path id="Path_34499" data-name="Path 34499" d="M270.786,195.819a.377.377,0,0,1-.386-.386V185.386a.377.377,0,0,1,.386-.386h2.1a.377.377,0,0,1,.386.386v10.046a.377.377,0,0,1-.386.386Z" transform="translate(-155.423 -184.724)" fill="#0069b4"/>
      <path id="Path_34500" data-name="Path 34500" d="M278.031,195.819a.39.39,0,0,1-.331-.331v-.166l3.643-9.936a1.209,1.209,0,0,1,.166-.276.466.466,0,0,1,.386-.11h2.263a.643.643,0,0,1,.386.11.969.969,0,0,1,.221.276l3.643,9.936c0,.055.055.11.055.166a.39.39,0,0,1-.331.331h-1.877a.466.466,0,0,1-.331-.11c-.055-.055-.11-.166-.166-.221l-.607-1.6h-4.14l-.607,1.6c0,.055-.055.11-.166.221a.643.643,0,0,1-.386.11Zm3.643-4.14h2.87l-1.435-4.085Z" transform="translate(-158.694 -184.724)" fill="#0069b4"/>
      <path id="Path_34501" data-name="Path 34501" d="M299.886,195.819a.377.377,0,0,1-.386-.386V185.386a.377.377,0,0,1,.386-.386h2.042c.11,0,.166.055.276.11a.422.422,0,0,1,.11.276V193.5h4.692a.377.377,0,0,1,.386.386v1.546a.377.377,0,0,1-.386.386Z" transform="translate(-168.46 -184.724)" fill="#0069b4"/>
      <path id="Path_34502" data-name="Path 34502" d="M325.037,195.76a6.551,6.551,0,0,1-2.539-.442,3.377,3.377,0,0,1-1.546-1.159,2.761,2.761,0,0,1-.552-1.49.39.39,0,0,1,.331-.331h1.932c.166,0,.276,0,.331.055s.166.11.221.221a1.328,1.328,0,0,0,.331.442,1.09,1.09,0,0,0,.607.331,2.153,2.153,0,0,0,.883.11,3.041,3.041,0,0,0,1.38-.276.783.783,0,0,0,.442-.773.64.64,0,0,0-.221-.552,2.016,2.016,0,0,0-.773-.386c-.386-.11-.828-.221-1.435-.386a8.377,8.377,0,0,1-1.987-.662,3.029,3.029,0,0,1-1.27-1.049,2.88,2.88,0,0,1-.442-1.6,2.758,2.758,0,0,1,.552-1.711,3.21,3.21,0,0,1,1.49-1.159,5.7,5.7,0,0,1,2.263-.442,6.4,6.4,0,0,1,1.877.276,4.649,4.649,0,0,1,1.38.718,3.3,3.3,0,0,1,.828.994,2.249,2.249,0,0,1,.276.994.39.39,0,0,1-.331.331h-2.042a.414.414,0,0,1-.276-.055.431.431,0,0,1-.221-.221,1.027,1.027,0,0,0-.5-.607,1.963,1.963,0,0,0-1.049-.276,1.855,1.855,0,0,0-1.049.221.749.749,0,0,0-.386.718.709.709,0,0,0,.221.552,1.745,1.745,0,0,0,.718.386,11.456,11.456,0,0,0,1.325.331,8.583,8.583,0,0,1,2.263.662,3.4,3.4,0,0,1,1.27.994,2.681,2.681,0,0,1,.386,1.546,2.9,2.9,0,0,1-.607,1.822,3.732,3.732,0,0,1-1.656,1.159A6.585,6.585,0,0,1,325.037,195.76Z" transform="translate(-177.824 -184.5)" fill="#0069b4"/>
      <path id="Path_34503" data-name="Path 34503" d="M340.486,195.819a.377.377,0,0,1-.386-.386V185.386a.377.377,0,0,1,.386-.386h7.231a.377.377,0,0,1,.386.386v1.435a.377.377,0,0,1-.386.386H342.8v2.1h4.581a.377.377,0,0,1,.386.386v1.325c0,.11-.055.166-.11.276a.422.422,0,0,1-.276.11H342.8v2.153h5.078a.377.377,0,0,1,.386.386v1.435a.377.377,0,0,1-.386.386h-7.4Z" transform="translate(-186.65 -184.724)" fill="#0069b4"/>
      <path id="Path_34504" data-name="Path 34504" d="M361.947,195.85a5.53,5.53,0,0,1-2.484-.5,3.579,3.579,0,0,1-1.6-1.38,4.787,4.787,0,0,1-.662-2.318V188.9a4.749,4.749,0,0,1,.662-2.263,3.84,3.84,0,0,1,1.656-1.435,5.869,5.869,0,0,1,2.484-.5,6.693,6.693,0,0,1,1.877.276,5.346,5.346,0,0,1,1.49.718,3.371,3.371,0,0,1,.994,1.159,3.554,3.554,0,0,1,.386,1.546c0,.11,0,.166-.11.221a.418.418,0,0,1-.221.11h-2.1a.785.785,0,0,1-.331-.11.9.9,0,0,1-.166-.331,1.693,1.693,0,0,0-.718-1.1,2.089,2.089,0,0,0-1.214-.276,1.79,1.79,0,0,0-1.325.5,2.343,2.343,0,0,0-.552,1.546,20.334,20.334,0,0,0,0,2.594,2.23,2.23,0,0,0,.552,1.546,1.79,1.79,0,0,0,1.325.5,2.1,2.1,0,0,0,1.214-.331,1.851,1.851,0,0,0,.718-1.1.9.9,0,0,1,.166-.331.467.467,0,0,1,.331-.11h2.1a.287.287,0,0,1,.221.11.418.418,0,0,1,.11.221,2.927,2.927,0,0,1-.386,1.546,3.287,3.287,0,0,1-.994,1.159,4.663,4.663,0,0,1-1.49.718A4.479,4.479,0,0,1,361.947,195.85Z" transform="translate(-194.311 -184.59)" fill="#0069b4"/>
      <path id="Path_34505" data-name="Path 34505" d="M381.981,196.029a6.361,6.361,0,0,1-2.429-.442,3.578,3.578,0,0,1-1.6-1.38,4.525,4.525,0,0,1-.552-2.429v-6.293a.377.377,0,0,1,.386-.386h1.987a.377.377,0,0,1,.386.386v6.293a2.024,2.024,0,0,0,.5,1.49,1.837,1.837,0,0,0,1.38.5,1.924,1.924,0,0,0,1.38-.5,2.024,2.024,0,0,0,.5-1.49v-6.293a.377.377,0,0,1,.386-.386h1.987c.11,0,.166.055.276.11a.421.421,0,0,1,.11.276v6.293a4.655,4.655,0,0,1-.552,2.429,3.535,3.535,0,0,1-1.6,1.38A7.666,7.666,0,0,1,381.981,196.029Z" transform="translate(-203.361 -184.769)" fill="#0069b4"/>
      <path id="Path_34506" data-name="Path 34506" d="M398.086,195.819a.377.377,0,0,1-.386-.386V185.386a.377.377,0,0,1,.386-.386h4.2a4.967,4.967,0,0,1,3.146.938,3.476,3.476,0,0,1,.607,4.471,3.538,3.538,0,0,1-1.38,1.159l2.153,3.809a.2.2,0,0,1,.055.166.39.39,0,0,1-.331.331h-2.042a.543.543,0,0,1-.442-.166.97.97,0,0,1-.221-.276l-1.766-3.422h-1.6v3.422a.377.377,0,0,1-.386.386Zm2.429-6.017h1.766a1.648,1.648,0,0,0,1.1-.331,1.369,1.369,0,0,0,.386-.994,1.541,1.541,0,0,0-.331-.994,1.349,1.349,0,0,0-1.1-.386H400.57v2.7Z" transform="translate(-212.456 -184.724)" fill="#0069b4"/>
      <path id="Path_34507" data-name="Path 34507" d="M417.486,195.819a.377.377,0,0,1-.386-.386V185.386a.377.377,0,0,1,.386-.386h2.1a.377.377,0,0,1,.386.386v10.046a.377.377,0,0,1-.386.386Z" transform="translate(-221.148 -184.724)" fill="#0069b4"/>
      <path id="Path_34508" data-name="Path 34508" d="M428.333,195.819a.377.377,0,0,1-.386-.386v-8h-2.76a.377.377,0,0,1-.386-.386v-1.656a.377.377,0,0,1,.386-.386h8.335a.377.377,0,0,1,.386.386v1.656a.377.377,0,0,1-.386.386h-2.76v8a.377.377,0,0,1-.386.386Z" transform="translate(-224.598 -184.724)" fill="#0069b4"/>
      <path id="Path_34509" data-name="Path 34509" d="M444.186,195.819a.377.377,0,0,1-.386-.386V185.386a.377.377,0,0,1,.386-.386h2.1a.377.377,0,0,1,.386.386v10.046a.377.377,0,0,1-.386.386Z" transform="translate(-233.11 -184.724)" fill="#0069b4"/>
      <path id="Path_34510" data-name="Path 34510" d="M453.286,195.819a.377.377,0,0,1-.386-.386V185.386a.377.377,0,0,1,.386-.386h7.231a.377.377,0,0,1,.386.386v1.435a.377.377,0,0,1-.386.386H455.6v2.1h4.581a.377.377,0,0,1,.386.386v1.325c0,.11-.055.166-.11.276a.421.421,0,0,1-.276.11H455.6v2.153h5.078a.377.377,0,0,1,.386.386v1.435a.377.377,0,0,1-.386.386h-7.4Z" transform="translate(-237.187 -184.724)" fill="#0069b4"/>
      <path id="Path_34511" data-name="Path 34511" d="M474.337,195.76a6.551,6.551,0,0,1-2.539-.442,3.376,3.376,0,0,1-1.546-1.159,2.761,2.761,0,0,1-.552-1.49.39.39,0,0,1,.331-.331h1.932c.166,0,.276,0,.331.055s.166.11.221.221a1.329,1.329,0,0,0,.331.442,1.091,1.091,0,0,0,.607.331,2.153,2.153,0,0,0,.883.11,3.041,3.041,0,0,0,1.38-.276.783.783,0,0,0,.442-.773.64.64,0,0,0-.221-.552,2.017,2.017,0,0,0-.773-.386c-.386-.11-.828-.221-1.435-.386a8.377,8.377,0,0,1-1.987-.662,3.029,3.029,0,0,1-1.27-1.049,2.88,2.88,0,0,1-.442-1.6,2.758,2.758,0,0,1,.552-1.711,3.21,3.21,0,0,1,1.49-1.159,5.7,5.7,0,0,1,2.263-.442,6.4,6.4,0,0,1,1.877.276,4.649,4.649,0,0,1,1.38.718,3.3,3.3,0,0,1,.828.994,2.249,2.249,0,0,1,.276.994.39.39,0,0,1-.331.331h-2.042a.414.414,0,0,1-.276-.055.431.431,0,0,1-.221-.221,1.027,1.027,0,0,0-.5-.607,1.963,1.963,0,0,0-1.049-.276,1.855,1.855,0,0,0-1.049.221.749.749,0,0,0-.386.718.709.709,0,0,0,.221.552,1.745,1.745,0,0,0,.718.386,11.457,11.457,0,0,0,1.325.331,8.584,8.584,0,0,1,2.263.662,3.4,3.4,0,0,1,1.27.994,2.682,2.682,0,0,1,.386,1.546,2.9,2.9,0,0,1-.607,1.822,3.732,3.732,0,0,1-1.656,1.159A6.916,6.916,0,0,1,474.337,195.76Z" transform="translate(-244.714 -184.5)" fill="#0069b4"/>
      <path id="Path_34512" data-name="Path 34512" d="M495.686,195.819a.377.377,0,0,1-.386-.386V185.386a.377.377,0,0,1,.386-.386h2.042c.11,0,.166.055.276.11a.422.422,0,0,1,.11.276V193.5h4.692a.377.377,0,0,1,.386.386v1.546a.377.377,0,0,1-.386.386Z" transform="translate(-256.183 -184.724)" fill="#0069b4"/>
      <path id="Path_34513" data-name="Path 34513" d="M512.386,195.819a.377.377,0,0,1-.386-.386V185.386a.377.377,0,0,1,.386-.386h2.1a.377.377,0,0,1,.386.386v10.046a.377.377,0,0,1-.386.386Z" transform="translate(-263.665 -184.724)" fill="#0069b4"/>
      <path id="Path_34514" data-name="Path 34514" d="M521.486,195.819a.377.377,0,0,1-.386-.386V185.386a.377.377,0,0,1,.386-.386h1.656a.8.8,0,0,1,.386.11c.11.11.166.166.166.221l2.7,4.857,2.7-4.857a.763.763,0,0,0,.166-.221c.055-.11.221-.11.386-.11h1.656a.377.377,0,0,1,.386.386v10.046a.377.377,0,0,1-.386.386H529.49a.377.377,0,0,1-.386-.386v-5.8l-1.766,3.257a.761.761,0,0,1-.166.221.592.592,0,0,1-.331.11h-.828a.466.466,0,0,1-.331-.11l-.221-.221-1.766-3.257v5.8a.377.377,0,0,1-.386.386Z" transform="translate(-267.742 -184.724)" fill="#0069b4"/>
      <path id="Path_34515" data-name="Path 34515" d="M544.586,195.819a.377.377,0,0,1-.386-.386V185.386a.377.377,0,0,1,.386-.386h2.1a.377.377,0,0,1,.386.386v10.046a.377.377,0,0,1-.386.386Z" transform="translate(-278.092 -184.724)" fill="#0069b4"/>
      <path id="Path_34516" data-name="Path 34516" d="M555.433,195.819a.377.377,0,0,1-.386-.386v-8h-2.76a.377.377,0,0,1-.386-.386v-1.656a.377.377,0,0,1,.386-.386h8.335a.377.377,0,0,1,.386.386v1.656a.377.377,0,0,1-.386.386h-2.76v8a.377.377,0,0,1-.386.386Z" transform="translate(-281.541 -184.724)" fill="#0069b4"/>
      <path id="Path_34517" data-name="Path 34517" d="M571.286,195.819a.377.377,0,0,1-.386-.386V185.386a.377.377,0,0,1,.386-.386h7.231a.377.377,0,0,1,.386.386v1.435a.377.377,0,0,1-.386.386H573.6v2.1h4.581a.377.377,0,0,1,.386.386v1.325c0,.11-.055.166-.11.276a.422.422,0,0,1-.276.11H573.6v2.153h5.078a.377.377,0,0,1,.386.386v1.435a.377.377,0,0,1-.386.386h-7.4Z" transform="translate(-290.054 -184.724)" fill="#0069b4"/>
      <path id="Path_34518" data-name="Path 34518" d="M589.186,195.819a.377.377,0,0,1-.386-.386V185.386a.377.377,0,0,1,.386-.386h4.029a6.216,6.216,0,0,1,2.594.5,3.513,3.513,0,0,1,1.656,1.435,4.248,4.248,0,0,1,.607,2.318v2.373a5.015,5.015,0,0,1-.607,2.374,3.274,3.274,0,0,1-1.6,1.38,5.974,5.974,0,0,1-2.539.442h-4.14Zm2.373-2.208h1.656a2.19,2.19,0,0,0,1.1-.221,1.534,1.534,0,0,0,.662-.662,2.418,2.418,0,0,0,.221-1.159c0-.276.055-.552.055-.828v-.718a3.912,3.912,0,0,0-.055-.773,2.09,2.09,0,0,0-.552-1.546,2.167,2.167,0,0,0-1.546-.5H591.56v6.4Z" transform="translate(-298.073 -184.724)" fill="#0069b4"/>
    </g>
  </g>
</svg>
