<svg xmlns="http://www.w3.org/2000/svg" xmlns:xlink="http://www.w3.org/1999/xlink" width="84" height="84" viewBox="0 0 84 84">
  <defs>
    <filter id="Ellipse_48" x="0" y="0" width="84" height="84" filterUnits="userSpaceOnUse">
      <feOffset dy="6" input="SourceAlpha"/>
      <feGaussianBlur stdDeviation="3" result="blur"/>
      <feFlood flood-opacity="0.161"/>
      <feComposite operator="in" in2="blur"/>
      <feComposite in="SourceGraphic"/>
    </filter>
  </defs>
  <g id="tw" transform="translate(9 3)">
    <g transform="matrix(1, 0, 0, 1, -9, -3)" filter="url(#Ellipse_48)">
      <g id="Ellipse_48-2" data-name="Ellipse 48" transform="translate(9 3)" fill="none" stroke="#eaebec" stroke-width="1">
        <circle cx="33" cy="33" r="33" stroke="none"/>
        <circle cx="33" cy="33" r="32.5" fill="none"/>
      </g>
    </g>
    <g id="twitter" transform="translate(18 21)">
      <g id="Group_8480" data-name="Group 8480" transform="translate(0)">
        <path id="Path_28599" data-name="Path 28599" d="M30,50.886a12.823,12.823,0,0,1-3.544.971,6.116,6.116,0,0,0,2.706-3.4,12.291,12.291,0,0,1-3.9,1.489,6.15,6.15,0,0,0-10.639,4.206,6.333,6.333,0,0,0,.143,1.4A17.408,17.408,0,0,1,2.089,49.121a6.152,6.152,0,0,0,1.89,8.22A6.074,6.074,0,0,1,1.2,56.584v.068a6.179,6.179,0,0,0,4.927,6.043,6.139,6.139,0,0,1-1.613.2,5.438,5.438,0,0,1-1.164-.105A6.209,6.209,0,0,0,9.1,67.076,12.358,12.358,0,0,1,1.472,69.7,11.522,11.522,0,0,1,0,69.615a17.315,17.315,0,0,0,9.435,2.76c11.317,0,17.5-9.375,17.5-17.5,0-.272-.009-.534-.022-.795A12.27,12.27,0,0,0,30,50.886Z" transform="translate(0 -48)" fill="#55acef"/>
      </g>
    </g>
  </g>
</svg>
