<svg xmlns="http://www.w3.org/2000/svg" xmlns:xlink="http://www.w3.org/1999/xlink" width="84" height="84" viewBox="0 0 84 84">
  <defs>
    <filter id="Ellipse_48" x="0" y="0" width="84" height="84" filterUnits="userSpaceOnUse">
      <feOffset dy="6" input="SourceAlpha"/>
      <feGaussianBlur stdDeviation="3" result="blur"/>
      <feFlood flood-opacity="0.161"/>
      <feComposite operator="in" in2="blur"/>
      <feComposite in="SourceGraphic"/>
    </filter>
  </defs>
  <g id="youtube" transform="translate(-1464 -838.5)">
    <g transform="matrix(1, 0, 0, 1, 1464, 838.5)" filter="url(#Ellipse_48)">
      <g id="Ellipse_48-2" data-name="Ellipse 48" transform="translate(9 3)" fill="none" stroke="#eaebec" stroke-width="1">
        <circle cx="33" cy="33" r="33" stroke="none"/>
        <circle cx="33" cy="33" r="32.5" fill="none"/>
      </g>
    </g>
    <g id="youtube_1_" data-name="youtube(1)" transform="translate(1491 864)">
      <path id="Path_28609" data-name="Path 28609" d="M28.725,81.987c-.814-1.447-1.7-1.714-3.5-1.815C23.434,80.051,18.917,80,15,80s-8.439.051-10.234.171c-1.794.1-2.679.367-3.5,1.817C.431,83.433,0,85.923,0,90.307v.015c0,4.365.431,6.874,1.269,8.3.821,1.447,1.7,1.71,3.5,1.832,1.8.1,6.315.167,10.236.167s8.43-.062,10.228-.165c1.8-.122,2.681-.384,3.5-1.832C29.573,97.2,30,94.689,30,90.324v-.015C30,85.923,29.573,83.433,28.725,81.987Z" transform="translate(0 -80)" fill="#f44336"/>
      <path id="Path_28610" data-name="Path 28610" d="M192,171.565V160l9.06,5.782Z" transform="translate(-180.578 -155.47)" fill="#fafafa"/>
    </g>
  </g>
</svg>
